<svg xmlns="http://www.w3.org/2000/svg" xmlns:xlink="http://www.w3.org/1999/xlink" width="300" height="143" viewBox="0 0 300 143">
  <defs>
    <clipPath id="clip-path">
      <rect id="Rectangle_242" data-name="Rectangle 242" width="300" height="143" transform="translate(460 1635)" fill="#ccc"/>
    </clipPath>
    <clipPath id="clip-path-2">
      <rect id="Rectangle_237" data-name="Rectangle 237" width="272.594" height="143" transform="translate(0.007 0.149)" fill="#ccc"/>
    </clipPath>
  </defs>
  <g id="Mask_Group_7" data-name="Mask Group 7" transform="translate(-460 -1635)" clip-path="url(#clip-path)">
    <g id="Mask_Group_3" data-name="Mask Group 3" transform="translate(473.696 1634.852)" opacity="0.7" clip-path="url(#clip-path-2)">
      <g id="Photonect" transform="translate(54.515)">
        <g id="Group_365" data-name="Group 365" transform="translate(33.738)">
          <path id="Path_1137" data-name="Path 1137" d="M103.595,38.113c1.161,0,2.322,0,3.482.05h7.318c-.3.808-.606,1.564-.908,2.322a61.35,61.35,0,0,0-4.24,16.4,63.344,63.344,0,0,0-.1,13.831,60.182,60.182,0,0,0,4.744,18.017c.559,1.313.559,1.313-.858,1.313H104.2c-.455,0-.606.1-.606.559,0,1.666,0,3.331-.05,5a8.361,8.361,0,0,1-4.643,7.47,7,7,0,0,1-3.735.959c-.455,0-.858.1-1.413.152a4.532,4.532,0,0,1,1.208-.611A9.755,9.755,0,0,0,99,100.341a8.139,8.139,0,0,0,1.313-3.028,36.137,36.137,0,0,0,.353-7.015c0-.252-.05-.353-.353-.353-.706,0-1.413,0-2.123-.05a5.139,5.139,0,0,1-4.233-2.373,27.811,27.811,0,0,1-3.432-7.47,44.929,44.929,0,0,1-2.02-11.86,77.02,77.02,0,0,1,.656-14.077,33.005,33.005,0,0,1,3.433-11.309,13.071,13.071,0,0,1,2.171-3.079,5.755,5.755,0,0,1,2.776-1.363,14.266,14.266,0,0,1,2.524-.1c.2,0,.4.1.559-.1C101.626,38.164,102.635,38.164,103.595,38.113Zm2.776,50.569a36.28,36.28,0,0,1-12.066-4.643.156.156,0,0,0-.05.1.3.3,0,0,0,.05.2,6.286,6.286,0,0,0,2.927,3.785,3.223,3.223,0,0,0,1.666.5c2.476.051,4.948.051,7.472.051Z" transform="translate(-34.73 -4.046)" fill="#1c1c1c"/>
          <path id="Path_1138" data-name="Path 1138" d="M127.994,93.334h-6.612a7.733,7.733,0,0,1-3.533-.656,9.119,9.119,0,0,1-2.069-1.514,14.635,14.635,0,0,1-2.826-4.744c-.5-1.06-.858-2.171-1.313-3.28a4.551,4.551,0,0,1-.3-1.11c-.2-1.564-.757-2.977-1.06-4.492-.252-1.413-.455-2.776-.757-4.189a18.023,18.023,0,0,1-.2-2.322,68.778,68.778,0,0,1-.2-10.194c.1-1.564.2-3.18.353-4.744.1-1.211.353-2.422.5-3.634.252-1.615.606-3.18.959-4.795a33.824,33.824,0,0,1,1.211-3.835c.252-.706.559-1.413.858-2.123a15.888,15.888,0,0,1,1.564-2.877c.4-.5.808-1.06,1.211-1.564a8.535,8.535,0,0,1,2.069-1.464,5.96,5.96,0,0,1,3.482-.706h13.979a6.647,6.647,0,0,1,4.542,1.564,9.617,9.617,0,0,1,2.57,3.432,2.711,2.711,0,0,0,.5.808,26.367,26.367,0,0,1,1.615,4.34c.559,1.666,1.005,3.331,1.514,5a23.7,23.7,0,0,1,.706,3.687c.253,2.123.5,4.189.606,6.309.1,1.918.05,3.886.05,5.809,0,2.221-.3,4.391-.5,6.561A36.7,36.7,0,0,1,146,77.746c-.252,1.06-.4,2.171-.706,3.23l-.908,3.18a23.722,23.722,0,0,1-1.464,3.533,19.281,19.281,0,0,1-1.968,2.877,6.436,6.436,0,0,1-2.473,2.019,7.562,7.562,0,0,1-2.776.559c-2.624.2-5.2.152-7.722.2Zm17.411-31.089a54.318,54.318,0,0,0-.2-5.7,22.348,22.348,0,0,0-.3-2.57c-.2-1.363-.455-2.725-.706-4.088a21.089,21.089,0,0,0-.757-3.079,47.511,47.511,0,0,0-1.867-5.1,25.457,25.457,0,0,0-2.826-4.441,4.229,4.229,0,0,0-1.918-1.313,4.4,4.4,0,0,0-4.441.353,9.109,9.109,0,0,0-2.019,1.918,15.54,15.54,0,0,0-2.221,3.886,46.594,46.594,0,0,0-1.766,5.3,56.467,56.467,0,0,0-1.211,5.653,65.621,65.621,0,0,0-.656,7.065,41.808,41.808,0,0,0,.1,6.157c.152,1.11.05,2.271.2,3.382.2,1.766.353,3.533.656,5.3.2,1.161.455,2.271.706,3.432a33.828,33.828,0,0,0,1.211,3.835,11.96,11.96,0,0,0,1.514,3.128c.5.706.757,1.514,1.261,2.221.4.606.908,1.161,1.363,1.716a4.319,4.319,0,0,0,2.624,1.564,4.87,4.87,0,0,0,3.583-.959,10.948,10.948,0,0,0,3.331-4.088c.559-1.06.959-2.171,1.413-3.28a32.777,32.777,0,0,0,1.161-3.785,44.223,44.223,0,0,0,.908-4.492,37.875,37.875,0,0,0,.606-5.3,49.451,49.451,0,0,0,.255-6.72ZM130.823,92.577c0-.05.05-.1.05-.152a61.417,61.417,0,0,1-17.2-6.612.833.833,0,0,0,0,.606,13.232,13.232,0,0,0,1.464,2.927,7.626,7.626,0,0,0,2.977,2.675,7.218,7.218,0,0,0,3.23.606H128.1C129,92.577,129.912,92.577,130.823,92.577Z" transform="translate(-33.643 -4.206)" fill="#595959"/>
          <path id="Path_1139" data-name="Path 1139" d="M49.707,14.916a14.905,14.905,0,0,0-1.867.808,13.166,13.166,0,0,0-3.28,2.271A9.514,9.514,0,0,0,43.3,19.559a17.33,17.33,0,0,0-1.968,5.251,5.182,5.182,0,0,0-.05,1.261v77.518a15.718,15.718,0,0,0,.5,4.34,11.667,11.667,0,0,0,1.817,3.735,16.9,16.9,0,0,0,2.927,2.776c.5.353,1.161.353,1.615.808.05.05.152,0,.152.05.1.152.353.252.3.455-.05.152-.252.1-.455.1a8.7,8.7,0,0,1-3.432-.455,7.991,7.991,0,0,1-2.927-1.766c-.706-.656-1.413-1.313-2.069-2.019a9.642,9.642,0,0,1-1.514-2.725,13.567,13.567,0,0,1-.656-5.3c-.2-13.63-.1-27.253-.1-40.829V26.372a11.87,11.87,0,0,1,.2-2.372,19.175,19.175,0,0,1,.908-2.725,11.6,11.6,0,0,1,2.372-3.432,4.8,4.8,0,0,1,1.464-1.161,14.778,14.778,0,0,1,2.019-.959,13.75,13.75,0,0,1,4.946-.808C49.506,14.764,49.6,14.764,49.707,14.916Z" transform="translate(-37.418 -5.275)" fill="#595959"/>
          <path id="Path_1140" data-name="Path 1140" d="M73.255,15.488a5.8,5.8,0,0,1,.959-.05,13.841,13.841,0,0,1,4.946,1.11,10.328,10.328,0,0,1,2.221,1.413A9.445,9.445,0,0,1,84.257,21.7a12.848,12.848,0,0,1,.959,3.079,34.009,34.009,0,0,1,.152,6.006V102.8a18.1,18.1,0,0,1-.252,3.687,10.736,10.736,0,0,1-1.261,3.18,9.217,9.217,0,0,1-1.564,2.123,14.724,14.724,0,0,1-2.422,1.867,10.961,10.961,0,0,1-3.533,1.261,11.954,11.954,0,0,1-2.725.2,1.44,1.44,0,0,1,.757-.5A7.3,7.3,0,0,0,76.74,113.3c.353-.3.858-.455,1.261-.808a10.94,10.94,0,0,0,1.968-2.372,12.117,12.117,0,0,0,1.06-2.322,11.929,11.929,0,0,0,.656-3.785V27.448a13.482,13.482,0,0,0-.2-3.18,12.189,12.189,0,0,0-1.817-4.134A5.967,5.967,0,0,0,78.3,18.571,11.738,11.738,0,0,0,75.326,16.6,19.258,19.258,0,0,0,73.46,15.9C73.356,15.79,73.2,15.69,73.255,15.488Z" transform="translate(-35.529 -5.242)" fill="#595959"/>
          <path id="Path_1141" data-name="Path 1141" d="M47.654,110.326a1.962,1.962,0,0,1-.1-.757c0-1.06-.152-2.069-.2-3.128-.4-7.62-.606-15.292-.656-22.912,0-8.58.252-17.109.353-25.689.1-9.741.3-19.48.455-29.221l.152-7.116c0-.152-.05-.3.1-.455.2.2.1.455.1.656.152,7.672.252,15.393.4,23.064.152,9.69.252,19.43.455,29.121.2,9.589.05,19.229-.4,28.818-.1,2.422-.3,4.845-.4,7.267C47.806,110.174,47.806,110.275,47.654,110.326Z" transform="translate(-36.929 -4.947)" fill="#595959"/>
          <path id="Path_1142" data-name="Path 1142" d="M45.258,11.405a2.944,2.944,0,0,1,1.211-2.57,17.863,17.863,0,0,1,1.716-.808.964.964,0,0,1,.656,0,2.137,2.137,0,0,0,1.261-.1.324.324,0,0,0,.252-.252,2.468,2.468,0,0,1,2.776-1.918c4.189,0,8.328.2,12.513.252,2.069.05,4.088.152,6.157.152a4.444,4.444,0,0,1,1.968.4,2.6,2.6,0,0,1,1.363,1.464,1,1,0,0,0,1.06.757,4.022,4.022,0,0,1,3.385,1.308,3.232,3.232,0,0,1,.86,2.927c-.3-.2-.353-.5-.5-.808-.252-.706-.858-1.06-1.413-1.514a3.6,3.6,0,0,0-2.271-.606c-2.123,0-4.24,0-6.409-.1-2.927-.1-5.809-.152-8.731-.2-2.271-.05-4.542-.152-6.815-.2-1.867-.05-3.735-.152-5.551-.152a3.352,3.352,0,0,0-2.776,1.313A1.758,1.758,0,0,1,45.258,11.405Zm5.35-3.28c1.564.05,3.028.2,4.492.2,3.937,0,7.873.2,11.81.252,2.473.05,4.9.152,7.373.2.152,0,.353.1.455-.1s0-.353-.152-.5a2.793,2.793,0,0,0-2.024-.915c-2.271-.05-4.492-.152-6.762-.2l-6.914-.152c-2.069-.05-4.134-.1-6.208-.1A2.54,2.54,0,0,0,50.609,8.125Z" transform="translate(-37.007 -5.752)" fill="#595959"/>
          <path id="Path_1143" data-name="Path 1143" d="M76.353,81.692V76.544q-.223-16.423-.5-32.855c0-.959-.1-1.918-.1-2.877,0-.808.05-1.615.05-2.422,0-.656,0-1.313-.05-1.918-.05-.656.1-1.261.1-1.918.05-2.171.152-4.391.152-6.561,0-.706,0-1.413.05-2.123.05-1.11.152-2.271.2-3.382a23.759,23.759,0,0,0,.152-2.675c0-.1-.1-.4.152-.353.252,0,.152.252.152.4.559,8.832.706,17.714.559,26.547-.152,7.57-.2,15.14-.353,22.711-.05,4.038-.152,8.075-.2,12.113C76.606,81.339,76.706,81.541,76.353,81.692Z" transform="translate(-35.398 -5.031)" fill="#595959"/>
          <path id="Path_1144" data-name="Path 1144" d="M103.332,38.819a29.3,29.3,0,0,1-2.977,0c0-1.666,0-3.331-.05-5a9.072,9.072,0,0,0-1.514-5.2A8.644,8.644,0,0,0,95.864,26c-.757-.4-1.615-.706-2.473-1.161a4.662,4.662,0,0,1,1.413-.1A9.608,9.608,0,0,1,99.6,26.4a8.012,8.012,0,0,1,3.128,4.134,11.665,11.665,0,0,1,.606,3.937Z" transform="translate(-34.467 -4.753)" fill="#595959"/>
          <path id="Path_1145" data-name="Path 1145" d="M87.637,34.244a3.205,3.205,0,0,1,.656-1.817,1.341,1.341,0,0,1,1.867,0,2.361,2.361,0,0,1,.706,1.867A2.4,2.4,0,0,1,89.6,36.616a.688.688,0,0,1-.757,0,2.559,2.559,0,0,1-1.21-2.372Z" transform="translate(-34.77 -4.367)" fill="#595959"/>
          <path id="Path_1146" data-name="Path 1146" d="M126.983,75.607a3.25,3.25,0,0,0,2.977-.455,7.342,7.342,0,0,0,2.524-3.634,29.829,29.829,0,0,0,1.615-9.384,34.209,34.209,0,0,0-.4-8.176,13.99,13.99,0,0,0-.959-3.128,2.665,2.665,0,0,0-.455-.808v.908a74.487,74.487,0,0,1-.455,10.6,27.036,27.036,0,0,1-3.687,11.1c-.353.606-.757,1.11-1.161,1.716a.821.821,0,0,0-.152.3,7.757,7.757,0,0,1-.706-2.877,50.627,50.627,0,0,1-.2-16.553,29.545,29.545,0,0,1,2.977-9.892,9.849,9.849,0,0,1,2.725-3.382,3.867,3.867,0,0,1,4.795-.05,9.9,9.9,0,0,1,2.927,3.687,27.831,27.831,0,0,1,2.675,8.731,50.917,50.917,0,0,1-.559,19.733,23.384,23.384,0,0,1-2.826,7.217,8.839,8.839,0,0,1-2.123,2.422,3.91,3.91,0,0,1-5.1-.05,11.8,11.8,0,0,1-3.079-4.29,23.535,23.535,0,0,1-1.352-3.736Z" transform="translate(-32.783 -3.89)" fill="#1c1c1c"/>
        </g>
        <g id="Group_366" data-name="Group 366" transform="translate(0 125.112)">
          <path id="Path_1147" data-name="Path 1147" d="M9.049,136.4v6.256H5.363V124.839h6.971a7.905,7.905,0,0,1,3.533.757,5.175,5.175,0,0,1,2.322,2.069,5.728,5.728,0,0,1,.8,3.078,5.078,5.078,0,0,1-1.817,4.134,7.428,7.428,0,0,1-4.946,1.514H9.049Zm0-2.977h3.285a3.253,3.253,0,0,0,2.221-.706,2.511,2.511,0,0,0,.757-1.968,3.03,3.03,0,0,0-.757-2.123,2.7,2.7,0,0,0-2.123-.808H9.049Z" transform="translate(-5.369 -124.587)" fill="#4e4e4e"/>
          <path id="Path_1148" data-name="Path 1148" d="M37.594,142.7H33.908v-7.62H26.744v7.62H23.058V124.887h3.687V132.1h7.167v-7.217H37.6Z" transform="translate(-4.436 -124.584)" fill="#4e4e4e"/>
          <path id="Path_1149" data-name="Path 1149" d="M56.945,134.185a10.808,10.808,0,0,1-.908,4.593,7.225,7.225,0,0,1-2.675,3.079,7.048,7.048,0,0,1-3.987,1.06,7.42,7.42,0,0,1-3.937-1.06,6.815,6.815,0,0,1-2.675-3.028,10.022,10.022,0,0,1-.959-4.542v-.858a10.465,10.465,0,0,1,.959-4.643,7.262,7.262,0,0,1,2.675-3.079,7.42,7.42,0,0,1,3.937-1.06,7.3,7.3,0,0,1,3.937,1.06,6.98,6.98,0,0,1,2.675,3.079,10.242,10.242,0,0,1,.959,4.593Zm-3.735-.808a7.505,7.505,0,0,0-1.005-4.24,3.286,3.286,0,0,0-2.877-1.464,3.216,3.216,0,0,0-2.826,1.413,7.436,7.436,0,0,0-1.005,4.189v.858a7.738,7.738,0,0,0,1.005,4.24,3.218,3.218,0,0,0,2.877,1.514,3.258,3.258,0,0,0,2.826-1.464,7.505,7.505,0,0,0,1.005-4.24Z" transform="translate(-3.449 -124.597)" fill="#4e4e4e"/>
          <path id="Path_1150" data-name="Path 1150" d="M73.551,127.864H68.1V142.7H64.414V127.864h-5.4v-2.977H73.5v2.977Z" transform="translate(-2.542 -124.584)" fill="#4e4e4e"/>
          <path id="Path_1151" data-name="Path 1151" d="M91.559,134.185a10.808,10.808,0,0,1-.908,4.593,7.225,7.225,0,0,1-2.675,3.079,7.048,7.048,0,0,1-3.987,1.06,7.42,7.42,0,0,1-3.937-1.06,6.815,6.815,0,0,1-2.675-3.028,10.022,10.022,0,0,1-.962-4.544v-.858a10.465,10.465,0,0,1,.959-4.643,7.262,7.262,0,0,1,2.675-3.079,7.419,7.419,0,0,1,3.937-1.06,7.3,7.3,0,0,1,3.937,1.06,6.98,6.98,0,0,1,2.675,3.079,10.243,10.243,0,0,1,.959,4.593Zm-3.735-.808a7.505,7.505,0,0,0-1.005-4.24,3.286,3.286,0,0,0-2.877-1.464,3.216,3.216,0,0,0-2.826,1.413,7.436,7.436,0,0,0-1.005,4.189v.858a7.737,7.737,0,0,0,1.005,4.24,3.218,3.218,0,0,0,2.877,1.514,3.258,3.258,0,0,0,2.826-1.464,7.505,7.505,0,0,0,1.005-4.24Z" transform="translate(-1.623 -124.597)" fill="#4e4e4e"/>
          <path id="Path_1152" data-name="Path 1152" d="M110.178,142.7h-3.687l-7.167-11.709V142.7H95.638V124.887h3.687l7.167,11.76v-11.76h3.634V142.7Z" transform="translate(-0.61 -124.584)" fill="#4e4e4e"/>
          <path id="Path_1153" data-name="Path 1153" d="M125.617,134.981h-7.065v4.795h8.277V142.7H114.867V124.887h11.91v2.977H118.55v4.24h7.065v2.877Z" transform="translate(0.403 -124.584)" fill="#4e4e4e"/>
          <path id="Path_1154" data-name="Path 1154" d="M144.648,136.763a6.458,6.458,0,0,1-2.123,4.542,7.423,7.423,0,0,1-5.046,1.666,6.676,6.676,0,0,1-5.4-2.322,9.441,9.441,0,0,1-1.968-6.309v-1.11a10.731,10.731,0,0,1,.908-4.542,6.92,6.92,0,0,1,2.57-3.028,7.943,7.943,0,0,1,8.832.606,6.962,6.962,0,0,1,2.171,4.643h-3.583a3.872,3.872,0,0,0-.959-2.524,3.679,3.679,0,0,0-2.524-.757,3.134,3.134,0,0,0-2.725,1.313,7.6,7.6,0,0,0-.959,4.088v1.363a8.33,8.33,0,0,0,.858,4.24,3.052,3.052,0,0,0,2.776,1.313,3.678,3.678,0,0,0,2.524-.757,3.585,3.585,0,0,0,.959-2.422h3.687Z" transform="translate(1.208 -124.599)" fill="#4e4e4e"/>
          <path id="Path_1155" data-name="Path 1155" d="M161.714,127.864h-5.451V142.7h-3.687V127.864h-5.4v-2.977H161.66v2.977Z" transform="translate(2.107 -124.584)" fill="#4e4e4e"/>
        </g>
      </g>
    </g>
  </g>
</svg>
