<svg xmlns="http://www.w3.org/2000/svg" xmlns:xlink="http://www.w3.org/1999/xlink" width="244" height="128" viewBox="0 0 244 128">
  <defs>
    <clipPath id="clip-path">
      <rect id="Rectangle_237" data-name="Rectangle 237" width="244" height="128" transform="translate(0.006 0.133)" fill="#ccc"/>
    </clipPath>
  </defs>
  <g id="Mask_Group_3" data-name="Mask Group 3" transform="translate(-0.006 -0.133)" opacity="0.7" clip-path="url(#clip-path)">
    <g id="Photonect" transform="translate(48.797 0)">
      <g id="Group_365" data-name="Group 365" transform="translate(30.199 0)">
        <path id="Path_1137" data-name="Path 1137" d="M92.728,34.115c1.039,0,2.078,0,3.117.045h6.55c-.271.723-.542,1.4-.813,2.078A54.914,54.914,0,0,0,97.787,50.92,56.7,56.7,0,0,0,97.7,63.3a53.87,53.87,0,0,0,4.246,16.127c.5,1.175.5,1.175-.768,1.175H93.27c-.407,0-.542.09-.542.5,0,1.491,0,2.982-.045,4.472a7.484,7.484,0,0,1-4.156,6.686,6.265,6.265,0,0,1-3.343.858c-.407,0-.768.09-1.265.136A4.057,4.057,0,0,1,85,92.707a8.732,8.732,0,0,0,3.614-2.891,7.285,7.285,0,0,0,1.175-2.71,32.345,32.345,0,0,0,.316-6.279c0-.226-.045-.316-.316-.316-.632,0-1.265,0-1.9-.045A4.6,4.6,0,0,1,84.1,78.342a24.894,24.894,0,0,1-3.072-6.686A40.216,40.216,0,0,1,79.22,61.04a68.942,68.942,0,0,1,.587-12.6A29.543,29.543,0,0,1,82.88,38.317a11.7,11.7,0,0,1,1.943-2.756,5.151,5.151,0,0,1,2.485-1.22,12.77,12.77,0,0,1,2.259-.09c.181,0,.361.09.5-.09C90.966,34.161,91.869,34.161,92.728,34.115Zm2.485,45.265a32.474,32.474,0,0,1-10.8-4.156.14.14,0,0,0-.045.09.272.272,0,0,0,.045.181,5.627,5.627,0,0,0,2.62,3.388,2.885,2.885,0,0,0,1.491.452C90.74,79.381,92.953,79.381,95.212,79.381Z" transform="translate(-31.087 -3.622)" fill="#4e4e4e"/>
        <path id="Path_1138" data-name="Path 1138" d="M114.568,83.544H108.65a6.922,6.922,0,0,1-3.162-.587,8.162,8.162,0,0,1-1.852-1.355,13.1,13.1,0,0,1-2.53-4.246c-.452-.949-.768-1.943-1.175-2.936a4.074,4.074,0,0,1-.271-.994c-.181-1.4-.678-2.665-.949-4.021-.226-1.265-.407-2.485-.678-3.75a16.13,16.13,0,0,1-.181-2.078,61.566,61.566,0,0,1-.181-9.125c.09-1.4.181-2.846.316-4.246.09-1.084.316-2.168.452-3.253.226-1.446.542-2.846.858-4.292a30.277,30.277,0,0,1,1.084-3.433c.226-.632.5-1.265.768-1.9a14.222,14.222,0,0,1,1.4-2.575c.361-.452.723-.949,1.084-1.4a7.64,7.64,0,0,1,1.852-1.31,5.335,5.335,0,0,1,3.117-.632h12.513a5.95,5.95,0,0,1,4.066,1.4,8.608,8.608,0,0,1,2.3,3.072,2.427,2.427,0,0,0,.452.723,23.6,23.6,0,0,1,1.446,3.885c.5,1.491.9,2.982,1.355,4.472a21.211,21.211,0,0,1,.632,3.3c.226,1.9.452,3.75.542,5.647.09,1.717.045,3.478.045,5.2,0,1.988-.271,3.93-.452,5.873a32.848,32.848,0,0,1-.813,4.608c-.226.949-.361,1.943-.632,2.891l-.813,2.846a21.234,21.234,0,0,1-1.31,3.162,17.259,17.259,0,0,1-1.762,2.575,5.761,5.761,0,0,1-2.214,1.807,6.769,6.769,0,0,1-2.485.5c-2.349.181-4.653.136-6.912.181Zm15.585-27.828a48.622,48.622,0,0,0-.181-5.1,20.005,20.005,0,0,0-.271-2.3c-.181-1.22-.407-2.439-.632-3.659a18.878,18.878,0,0,0-.678-2.756,42.53,42.53,0,0,0-1.671-4.563,22.786,22.786,0,0,0-2.53-3.975,3.785,3.785,0,0,0-1.717-1.175,3.94,3.94,0,0,0-3.975.316,8.154,8.154,0,0,0-1.807,1.717,13.91,13.91,0,0,0-1.988,3.478,41.705,41.705,0,0,0-1.581,4.743,50.545,50.545,0,0,0-1.084,5.06,58.742,58.742,0,0,0-.587,6.324,37.422,37.422,0,0,0,.09,5.511c.136.994.045,2.033.181,3.027.181,1.581.316,3.162.587,4.743.181,1.039.407,2.033.632,3.072a30.279,30.279,0,0,0,1.084,3.433,10.706,10.706,0,0,0,1.355,2.8c.452.632.678,1.355,1.129,1.988.361.542.813,1.039,1.22,1.536a3.866,3.866,0,0,0,2.349,1.4,4.359,4.359,0,0,0,3.207-.858,9.8,9.8,0,0,0,2.982-3.659c.5-.949.858-1.943,1.265-2.936a29.338,29.338,0,0,0,1.039-3.388,39.586,39.586,0,0,0,.813-4.021,33.9,33.9,0,0,0,.542-4.743A44.265,44.265,0,0,0,130.154,55.716ZM117.1,82.866c0-.045.045-.09.045-.136a54.975,54.975,0,0,1-15.4-5.918.746.746,0,0,0,0,.542,11.844,11.844,0,0,0,1.31,2.62,6.826,6.826,0,0,0,2.665,2.394,6.461,6.461,0,0,0,2.891.542h6.053C115.472,82.866,116.285,82.866,117.1,82.866Z" transform="translate(-30.114 -3.765)" fill="#747474"/>
        <path id="Path_1139" data-name="Path 1139" d="M44.493,13.351a13.342,13.342,0,0,0-1.671.723,11.785,11.785,0,0,0-2.936,2.033,8.516,8.516,0,0,0-1.129,1.4,15.512,15.512,0,0,0-1.762,4.7,4.638,4.638,0,0,0-.045,1.129V92.723a14.069,14.069,0,0,0,.452,3.885,10.443,10.443,0,0,0,1.626,3.343,15.132,15.132,0,0,0,2.62,2.485c.452.316,1.039.316,1.446.723.045.045.136,0,.136.045.09.136.316.226.271.407-.045.136-.226.09-.407.09a7.791,7.791,0,0,1-3.072-.407,7.153,7.153,0,0,1-2.62-1.581c-.632-.587-1.265-1.175-1.852-1.807a8.631,8.631,0,0,1-1.355-2.439,12.144,12.144,0,0,1-.587-4.743c-.181-12.2-.09-24.394-.09-36.546V23.606a10.625,10.625,0,0,1,.181-2.123,17.164,17.164,0,0,1,.813-2.439,10.382,10.382,0,0,1,2.123-3.072,4.3,4.3,0,0,1,1.31-1.039,13.228,13.228,0,0,1,1.807-.858,12.308,12.308,0,0,1,4.427-.723C44.313,13.215,44.4,13.215,44.493,13.351Z" transform="translate(-33.493 -4.722)" fill="#747474"/>
        <path id="Path_1140" data-name="Path 1140" d="M65.571,13.863a5.187,5.187,0,0,1,.858-.045,12.389,12.389,0,0,1,4.427.994,9.245,9.245,0,0,1,1.988,1.265,8.454,8.454,0,0,1,2.575,3.343,11.5,11.5,0,0,1,.858,2.756,30.441,30.441,0,0,1,.136,5.376V92.015a16.2,16.2,0,0,1-.226,3.3,9.61,9.61,0,0,1-1.129,2.846,8.25,8.25,0,0,1-1.4,1.9,13.18,13.18,0,0,1-2.168,1.671,9.811,9.811,0,0,1-3.162,1.129,10.7,10.7,0,0,1-2.439.181,1.289,1.289,0,0,1,.678-.452,6.538,6.538,0,0,0,2.123-1.175c.316-.271.768-.407,1.129-.723a9.793,9.793,0,0,0,1.762-2.123,10.846,10.846,0,0,0,.949-2.078,10.678,10.678,0,0,0,.587-3.388V24.569a12.068,12.068,0,0,0-.181-2.846,10.91,10.91,0,0,0-1.626-3.7,5.341,5.341,0,0,0-1.22-1.4,10.507,10.507,0,0,0-2.665-1.762c-.542-.181-1.084-.5-1.671-.632C65.661,14.134,65.525,14.044,65.571,13.863Z" transform="translate(-31.802 -4.692)" fill="#747474"/>
        <path id="Path_1141" data-name="Path 1141" d="M42.655,98.753a1.756,1.756,0,0,1-.09-.678c0-.949-.136-1.852-.181-2.8-.361-6.821-.542-13.688-.587-20.509,0-7.68.226-15.314.316-22.994.09-8.719.271-17.437.407-26.156l.136-6.37c0-.136-.045-.271.09-.407.181.181.09.407.09.587.136,6.867.226,13.778.361,20.645.136,8.674.226,17.392.407,26.066.181,8.583.045,17.212-.361,25.795-.09,2.168-.271,4.337-.361,6.505C42.791,98.617,42.791,98.708,42.655,98.753Z" transform="translate(-33.055 -4.428)" fill="#747474"/>
        <path id="Path_1142" data-name="Path 1142" d="M40.511,10.209a2.635,2.635,0,0,1,1.084-2.3,15.989,15.989,0,0,1,1.536-.723.863.863,0,0,1,.587,0,1.913,1.913,0,0,0,1.129-.09.29.29,0,0,0,.226-.226,2.209,2.209,0,0,1,2.485-1.717c3.75,0,7.454.181,11.2.226,1.852.045,3.659.136,5.511.136a3.978,3.978,0,0,1,1.762.361,2.324,2.324,0,0,1,1.22,1.31.9.9,0,0,0,.949.678A3.6,3.6,0,0,1,71.23,9.035,2.893,2.893,0,0,1,72,11.655c-.271-.181-.316-.452-.452-.723-.226-.632-.768-.949-1.265-1.355a3.218,3.218,0,0,0-2.033-.542c-1.9,0-3.795,0-5.737-.09-2.62-.09-5.2-.136-7.815-.181-2.033-.045-4.066-.136-6.1-.181-1.671-.045-3.343-.136-4.969-.136a3,3,0,0,0-2.485,1.175A1.574,1.574,0,0,1,40.511,10.209ZM45.3,7.273c1.4.045,2.71.181,4.021.181,3.524,0,7.047.181,10.571.226,2.214.045,4.382.136,6.6.181.136,0,.316.09.407-.09s0-.316-.136-.452A2.5,2.5,0,0,0,64.951,6.5c-2.033-.045-4.021-.136-6.053-.181l-6.189-.136c-1.852-.045-3.7-.09-5.557-.09A2.274,2.274,0,0,0,45.3,7.273Z" transform="translate(-33.125 -5.149)" fill="#747474"/>
        <path id="Path_1143" data-name="Path 1143" d="M68.344,73.123V68.515q-.2-14.7-.452-29.409c0-.858-.09-1.717-.09-2.575,0-.723.045-1.446.045-2.168,0-.587,0-1.175-.045-1.717-.045-.587.09-1.129.09-1.717.045-1.943.136-3.93.136-5.873,0-.632,0-1.265.045-1.9.045-.994.136-2.033.181-3.027a21.269,21.269,0,0,0,.136-2.394c0-.09-.09-.361.136-.316.226,0,.136.226.136.361.5,7.906.632,15.856.5,23.762-.136,6.776-.181,13.552-.316,20.329-.045,3.614-.136,7.228-.181,10.842C68.57,72.807,68.66,72.988,68.344,73.123Z" transform="translate(-31.685 -4.503)" fill="#747474"/>
        <path id="Path_1144" data-name="Path 1144" d="M92.493,34.747a26.227,26.227,0,0,1-2.665,0c0-1.491,0-2.982-.045-4.472a8.12,8.12,0,0,0-1.355-4.653,7.737,7.737,0,0,0-2.62-2.349c-.678-.361-1.446-.632-2.214-1.039a4.173,4.173,0,0,1,1.265-.09,8.6,8.6,0,0,1,4.292,1.491,7.172,7.172,0,0,1,2.8,3.7,10.442,10.442,0,0,1,.542,3.524Z" transform="translate(-30.852 -4.254)" fill="#747474"/>
        <path id="Path_1145" data-name="Path 1145" d="M78.444,30.652a2.869,2.869,0,0,1,.587-1.626,1.2,1.2,0,0,1,1.671,0,2.113,2.113,0,0,1,.632,1.671,2.144,2.144,0,0,1-1.129,2.078.616.616,0,0,1-.678,0A2.291,2.291,0,0,1,78.444,30.652Z" transform="translate(-31.123 -3.909)" fill="#747474"/>
        <path id="Path_1146" data-name="Path 1146" d="M113.663,67.676a2.909,2.909,0,0,0,2.665-.407,6.572,6.572,0,0,0,2.259-3.253,26.7,26.7,0,0,0,1.446-8.4,30.621,30.621,0,0,0-.361-7.318,12.523,12.523,0,0,0-.858-2.8,2.385,2.385,0,0,0-.407-.723v.813A66.674,66.674,0,0,1,118,55.072a24.2,24.2,0,0,1-3.3,9.938c-.316.542-.678.994-1.039,1.536a.735.735,0,0,0-.136.271,6.943,6.943,0,0,1-.632-2.575,45.316,45.316,0,0,1-.181-14.817,26.446,26.446,0,0,1,2.665-8.854,8.816,8.816,0,0,1,2.439-3.027,3.461,3.461,0,0,1,4.292-.045,8.857,8.857,0,0,1,2.62,3.3,24.912,24.912,0,0,1,2.394,7.815,45.576,45.576,0,0,1-.5,17.663,20.931,20.931,0,0,1-2.53,6.46,7.912,7.912,0,0,1-1.9,2.168,3.5,3.5,0,0,1-4.563-.045,10.56,10.56,0,0,1-2.756-3.84A21.065,21.065,0,0,1,113.663,67.676Z" transform="translate(-29.344 -3.482)" fill="#4e4e4e"/>
      </g>
      <g id="Group_366" data-name="Group 366" transform="translate(0 111.988)">
        <path id="Path_1147" data-name="Path 1147" d="M8.1,122.089v5.6h-3.3V111.744H11.04a7.076,7.076,0,0,1,3.162.678,4.632,4.632,0,0,1,2.078,1.852A5.127,5.127,0,0,1,17,117.029a4.545,4.545,0,0,1-1.626,3.7,6.649,6.649,0,0,1-4.427,1.355H8.1Zm0-2.665H11.04a2.912,2.912,0,0,0,1.988-.632,2.248,2.248,0,0,0,.678-1.762,2.712,2.712,0,0,0-.678-1.9,2.421,2.421,0,0,0-1.9-.723H8.1Z" transform="translate(-4.806 -111.518)" fill="#747474"/>
        <path id="Path_1148" data-name="Path 1148" d="M33.651,127.734h-3.3v-6.821H23.939v6.821h-3.3V111.787h3.3v6.46h6.415v-6.46h3.3Z" transform="translate(-3.971 -111.516)" fill="#747474"/>
        <path id="Path_1149" data-name="Path 1149" d="M50.972,120.11a9.674,9.674,0,0,1-.813,4.111,6.467,6.467,0,0,1-2.394,2.756,6.309,6.309,0,0,1-3.569.949,6.642,6.642,0,0,1-3.524-.949,6.1,6.1,0,0,1-2.394-2.71,8.971,8.971,0,0,1-.858-4.066v-.768a9.367,9.367,0,0,1,.858-4.156,6.5,6.5,0,0,1,2.394-2.756,6.642,6.642,0,0,1,3.524-.949,6.531,6.531,0,0,1,3.524.949,6.248,6.248,0,0,1,2.394,2.756,9.168,9.168,0,0,1,.858,4.111Zm-3.343-.723a6.718,6.718,0,0,0-.9-3.795,2.941,2.941,0,0,0-2.575-1.31,2.879,2.879,0,0,0-2.53,1.265,6.656,6.656,0,0,0-.9,3.75v.768a6.926,6.926,0,0,0,.9,3.795,2.88,2.88,0,0,0,2.575,1.355,2.916,2.916,0,0,0,2.53-1.31,6.718,6.718,0,0,0,.9-3.795Z" transform="translate(-3.087 -111.527)" fill="#747474"/>
        <path id="Path_1150" data-name="Path 1150" d="M65.836,114.452H60.957v13.281h-3.3V114.452H52.825v-2.665H65.79v2.665Z" transform="translate(-2.275 -111.516)" fill="#747474"/>
        <path id="Path_1151" data-name="Path 1151" d="M81.955,120.11a9.674,9.674,0,0,1-.813,4.111,6.467,6.467,0,0,1-2.394,2.756,6.309,6.309,0,0,1-3.569.949,6.642,6.642,0,0,1-3.524-.949,6.1,6.1,0,0,1-2.394-2.71A8.971,8.971,0,0,1,68.4,120.2v-.768a9.367,9.367,0,0,1,.858-4.156,6.5,6.5,0,0,1,2.394-2.756,6.641,6.641,0,0,1,3.524-.949,6.531,6.531,0,0,1,3.524.949,6.248,6.248,0,0,1,2.394,2.756,9.168,9.168,0,0,1,.858,4.111Zm-3.343-.723a6.718,6.718,0,0,0-.9-3.795,2.941,2.941,0,0,0-2.575-1.31,2.879,2.879,0,0,0-2.53,1.265,6.656,6.656,0,0,0-.9,3.75v.768a6.926,6.926,0,0,0,.9,3.795,2.88,2.88,0,0,0,2.575,1.355,2.916,2.916,0,0,0,2.53-1.31,6.718,6.718,0,0,0,.9-3.795Z" transform="translate(-1.453 -111.527)" fill="#747474"/>
        <path id="Path_1152" data-name="Path 1152" d="M98.621,127.734h-3.3l-6.415-10.481v10.481h-3.3V111.787h3.3l6.415,10.526V111.787h3.253v15.947Z" transform="translate(-0.546 -111.516)" fill="#747474"/>
        <path id="Path_1153" data-name="Path 1153" d="M112.44,120.822h-6.324v4.292h7.409v2.62H102.818V111.787h10.661v2.665h-7.364v3.795h6.324v2.575Z" transform="translate(0.361 -111.516)" fill="#747474"/>
        <path id="Path_1154" data-name="Path 1154" d="M129.475,122.417a5.781,5.781,0,0,1-1.9,4.066,6.644,6.644,0,0,1-4.517,1.491,5.976,5.976,0,0,1-4.834-2.078,8.451,8.451,0,0,1-1.762-5.647v-.994a9.606,9.606,0,0,1,.813-4.066,6.194,6.194,0,0,1,2.3-2.71,7.11,7.11,0,0,1,7.906.542,6.232,6.232,0,0,1,1.943,4.156h-3.207a3.466,3.466,0,0,0-.858-2.259,3.293,3.293,0,0,0-2.259-.678,2.805,2.805,0,0,0-2.439,1.175,6.8,6.8,0,0,0-.858,3.659v1.22a7.456,7.456,0,0,0,.768,3.795,2.732,2.732,0,0,0,2.485,1.175,3.292,3.292,0,0,0,2.259-.678,3.209,3.209,0,0,0,.858-2.168h3.3Z" transform="translate(1.081 -111.529)" fill="#747474"/>
        <path id="Path_1155" data-name="Path 1155" d="M144.751,114.452h-4.879v13.281h-3.3V114.452h-4.834v-2.665h12.965v2.665Z" transform="translate(1.886 -111.516)" fill="#747474"/>
      </g>
    </g>
  </g>
</svg>
