<svg xmlns="http://www.w3.org/2000/svg" xmlns:xlink="http://www.w3.org/1999/xlink" width="244" height="128" viewBox="0 0 244 128">
  <defs>
    <clipPath id="clip-path">
      <rect id="Rectangle_238" data-name="Rectangle 238" width="244" height="128" transform="translate(0.231 0.133)" fill="#ccc"/>
    </clipPath>
  </defs>
  <g id="Mask_Group_4" data-name="Mask Group 4" transform="translate(-0.231 -0.133)" opacity="0.7" clip-path="url(#clip-path)">
    <g id="Layer_1_copy" transform="translate(17.395 0)">
      <g id="Group_368" data-name="Group 368" transform="translate(0 0)">
        <g id="Group_367" data-name="Group 367">
          <path id="Path_1156" data-name="Path 1156" d="M126.029,75.236c.377,7.8.754,15.61,1.184,23.415.054,1.346.269,2.691.377,4.091-.861,1.292.754,2.1.592,3.283a2.248,2.248,0,0,1-1.776,1.722c-1.13.161-2.261.215-2.853-1.023-.377-.807-.431-1.669.915-2.368-6.782.592-13.241,0-19.754.215-5.329.161-5.329.108-7.428-4.683-.323-4.629-3.23-9.2-.323-13.941.161-.269-.484-.431-.7-.646a2.017,2.017,0,0,1-.484-2.261c.538-1.023,1.669-.431,2.53-.754-1.023-1.077-.538-1.776.592-2.315a3.05,3.05,0,0,1,2.691.915A4.13,4.13,0,0,0,98.9,79.7a8.236,8.236,0,0,1-.969-.969c-.754-.754-1.346-1.615-.484-2.638s1.669-.161,2.422.215c.7.377,1.292.969,2.045,1.346a17.287,17.287,0,0,1-1.615-1.13c-.646-.538-1.938-.7-1.346-1.992a1.906,1.906,0,0,1,2.638-1.238,4.826,4.826,0,0,0,2.53,1.184,5.678,5.678,0,0,1-2.315-.969c-1.023-.592-.754-1.346-.108-2.045a1.794,1.794,0,0,1,2.153-.7,18.108,18.108,0,0,1,2.907,1.938c-.538-.484-.215-.108-.484-.377-.915-.969-2.96-1.884-1.561-3.445,1.292-1.453,1.938.969,3.068,1.238.592.377,1.077.861,1.669,1.238a19.666,19.666,0,0,0-1.669-1.292c-.807-.754-2.368-1.292-1.615-2.745.7-1.292,1.669-2.745,3.606-2.368a3.244,3.244,0,0,0,1.884-.161c2.368-.484,4.683-.054,7.051.269,1.83.215,3.068,1.077,3.283,3.014a3.033,3.033,0,0,1-.807,2.476c1.776-.807,3.5-.269,5.275.054a1.762,1.762,0,0,1-.269,1.453C125.167,73.083,125.652,74.16,126.029,75.236Z" transform="translate(-9.816 -18.826)" fill="#aeaeae"/>
          <path id="Path_1157" data-name="Path 1157" d="M128.036,106.218c.754-.269.969-.969,1.13-1.669,2.907-1.561,6.029-.807,9.043-.538,1.077.108,1.4,1.023,1.4,2.045a7.673,7.673,0,0,0,.269,2.853c.108-1.83-1.346-4.091.807-5.975,3.391.054,6.782.377,10.227.161,2.96-.161,5.921.969,8.935-.108.108-.054.431.054.431.161a18.255,18.255,0,0,1,.108,6.836c-.161,1.453-1.83.754-2.8.754-28.636.054-57.218,0-85.854,0-.538,0-1.077-.054-1.669-.108-.484-.754-.215-1.615-.269-2.422-.054-4.844.646-5.437,5.49-4.952,1.184.108,2.207,1.023,3.66.484.915-.323,1.292,1.023,1.4,1.615-.754-1.507-.269-2.691,1.83-2.96a23.456,23.456,0,0,1,10.873-1.83c1.561.054,2.368-.269,2.315-2.1-.108-2.907,0-5.867.161-8.774a3.685,3.685,0,0,0-.754-2.261c.592-1.13-.054-2.153-.108-3.283a5.2,5.2,0,0,1,1.292-1.776c1.238-.054.915,1.346,1.615,1.776a2.606,2.606,0,0,1,2.315.807c-2.261.484-1.992,2.53-2.153,3.983-.215,1.561-.538,3.176,1.077,4.737.807.754.054,3.068.054,4.683a4.692,4.692,0,0,1,.269,3.606c-.323.969.538.969.807,1.4a4.267,4.267,0,0,0,3.876,2.045c1.615.054,3.283-.215,4.844.269a1.287,1.287,0,0,1,.807,1.13c-.054-.215.054-.754.754-1.13a63.5,63.5,0,0,1,13.564-.161A3.783,3.783,0,0,0,128.036,106.218Z" transform="translate(-11.178 -17.888)" fill="#747474"/>
          <path id="Path_1158" data-name="Path 1158" d="M121.764,69.688c-1.023-2.638-3.176-3.606-7.482-3.176a10.458,10.458,0,0,1-2.907-.108c-2.638.269-1.561-1.292-1.023-2.315.861-1.507,2.422-2.422,3.5-3.768-.323-.969-1.453-.7-1.884-1.507-1.184-2.315-2.207-1.507-3.23.108a11.819,11.819,0,0,1-.915,1.346c-1.669,2.153-2.153,2.207-4.252.215a9.564,9.564,0,0,0,1.884,1.722c2.907,1.884,2.907,3.23.054,5.221a5.405,5.405,0,0,1-2.53.969,3.812,3.812,0,0,1-2.261-.646c-.646-.431-1.077-1.238-1.938-1.4-.915-.161-1.884-.215-1.992,1.077-.269,3.391-.215,3.391-3.014,1.561,0-2.691,1.938-4.521,2.8-6.836a41.408,41.408,0,0,1,2.045-4.091c.861-.969,2.153-1.722,1.615-3.391.538-1.077,1.077-2.153,1.669-3.283,1.13-.915,1.938-2.207,3.122-3.068.754-.538,1.669-1.077,2.422-.161.7.861-.161,1.453-.754,2.045l-.969.969c2.261-2.1,3.337-2.045,5.49.054.915.861,1.346,2.261,2.691,2.638.646.161,1.615.484,1.992-.323.377-.861-.323-1.561-1.077-1.992-.592-.323-1.292-.108-1.884-.323-1.83-.646-3.714-1.238-3.445-3.822.7-.861,1.884-1.13,2.53-1.938,1.669-1.992,2.96-1.346,4.2.377.969,1.992,1.938,3.929,2.853,5.921.538.969-.161,2.53,1.453,2.907a3.825,3.825,0,0,1,.861,2.153c-2.315,1.992-2.315,2.422-.215,4.306.592.538,1.13,1.13,1.722,1.722,1.4,1.292,1.884,2.638.377,4.2C122.626,67.858,122.572,68.988,121.764,69.688Z" transform="translate(-9.912 -19.898)" fill="#747474"/>
          <path id="Path_1159" data-name="Path 1159" d="M61.549,143.893H55.682c2.907-2.745,3.068-6.405,4.145-9.689,1.346-3.983,2.315-8.128,3.5-12.111.323-1.077.054-2.8,1.507-2.907,1.615-.108,1.292,1.722,1.669,2.745,1.615,4.791,3.122,9.635,5.167,14.479,1.507-5.06,3.014-10.066,4.521-15.125.269-.807.108-2.045,1.346-2.1,1.507-.108,1.238,1.4,1.507,2.207,1.992,6.3,3.876,12.6,5.759,18.893a4.731,4.731,0,0,0,2.8,3.5h-7.59c1.884-.807,1.615-2.1,1.292-3.391-1.13-4.145-2.261-8.289-3.66-12.488-1.346,5.221-3.876,10.227-3.606,15.933H67.524c1.992-.969,1.83-2.1,1.453-3.445-1.184-4.2-2.261-8.4-3.606-12.6C63.917,133.074,61.5,138.026,61.549,143.893Z" transform="translate(-11.921 -15.947)" fill="#747474"/>
          <path id="Path_1160" data-name="Path 1160" d="M162.495,118.933c4.521.269,8.666-.592,12.7.7a9.006,9.006,0,0,1,6.244,6.728,18.9,18.9,0,0,1-.054,9.8c-1.184,4.629-4.791,7.482-9.85,7.7-2.907.108-5.867,0-8.881,0C164.917,140.894,164.917,121.732,162.495,118.933Z" transform="translate(-6.289 -15.962)" fill="#747474"/>
          <path id="Path_1161" data-name="Path 1161" d="M103.491,67.462c.484-.215,1.023-.431,1.507-.646,3.014-1.507,3.176-2.745.646-4.791-1.077-.861-1.776-2.1-3.337-2.53a1.669,1.669,0,0,1,2.368.484c1.184,1.561,2.1.915,2.96-.269.377-.538.7-1.077,1.077-1.615,2.045-3.014,2.045-2.96,4.306-.215.7.861,2.153.646,2.045.861-1.184,1.615-2.368,3.283-3.606,4.844-.7.915-1.292,1.722.431,2.153-.108.431-.269.969-.861.592-1.992-1.4-2.8.646-3.66,1.507-1.238,1.292.915,1.722,1.238,2.745l-.161.161c-1.238.269-1.938-2.315-2.907-.969-.861,1.292,1.238,1.884,1.884,2.853.377.592,1.184.807,1.346,1.992-1.507-.969-2.691-1.83-4.037-2.53-1.884-1.023-2.476-.054-2.261,1.776l-.161.161a1.864,1.864,0,0,0-2.422,1.238c-.323,1.292,1.13,1.077,1.776,1.561.807.538,1.722.969,2.638,1.507-.861,1.346-1.722.754-2.476.215-.592-.431-1.023-1.023-1.615-1.453-.538-.377-1.238-1.023-1.938-.323-.7.754-.161,1.238.484,1.776a7.885,7.885,0,0,1,.915,1.292c.269.269.215.538-.054.807-.915,1.077-.915,1.077.807,2.96-1.292.538-4.306-2.045-3.606,1.884-1.184.054-.915-1.184-1.507-1.669-.861-.377-1.776-1.238-2.638.054-1.13.377-1.184,1.938-2.422,2.207-.915-.377-1.4.108-1.615.969a.585.585,0,0,1-.054.807c-1.722-.054-2.261.484-.915,1.884.538.592,1.077,1.13,1.669,1.669l-.215.215c-1.023-.754-2.1-1.507-3.122-2.207-.538.108-.861-.108-.915-.646,0-.861.915-.7,1.292-1.13.161-.323.323-.646.431-.915-.269-1.13.807-.807,1.238-1.13a1.05,1.05,0,0,0,.484-1.13.484.484,0,0,1,.054-.754,1.358,1.358,0,0,0,1.669-.431c.431-.377.054-1.077.538-1.453.861,0,1.238-.538,1.4-1.292.323-.484,1.023-.108,1.292-.646.861-.754.323-1.4-.161-2.1.054-.054.161-.108.215-.215,1.776.807,2.1.108,1.561-1.507-.215-.861.431-1.507.484-2.315a8.709,8.709,0,0,0-.538-.969c-.323-.646.269-.861.592-1.238.431-1.507-.915-2.207-1.453-3.283,1.292-.861,1.561,1.023,2.8.915.754-1.346-2.476-3.876,1.023-4.468a2.661,2.661,0,0,1,3.176,1.938c.269.969-.861.7-1.13,1.238C102.145,69.185,102.145,69.185,103.491,67.462Z" transform="translate(-10.37 -19.287)" fill="#292929"/>
          <path id="Path_1162" data-name="Path 1162" d="M120.536,69.071c0-.538.054-1.077.054-1.615.054-1.453,3.391-1.884,1.184-3.983a19.714,19.714,0,0,0-3.66-3.337c-.484-.269-1.184-1.238-1.023-1.238,1.884.054-.108-4.306,3.014-2.53.969,1.722,1.992,3.445,2.96,5.221.754,1.4,1.561,1.83,2.637.431a11.3,11.3,0,0,1,3.068-3.122c-.215,1.938-1.722,2.8-2.745,4.037-.323.431-.861.754-.431,1.4.377.538.969.431,1.507.215a.542.542,0,0,1,.054.807c.054.377-.754.538-.108,1.023a1.611,1.611,0,0,0,2.261-.215.607.607,0,0,1,.108.861c0,.754-.377,1.722,1.023,1.561.538-.108.754.054.592.592-.215.861.269,1.292.969,1.561.592-.108.915.108.754.754.431,1.776,1.292,1.077,2.1.323l3.714-3.876c.161.161.377.323.538.484-1.184,1.292-2.315,2.53-3.5,3.822-.538.592-1.292,1.238-.269,2.045.969.754,1.292-.323,1.722-.754,1.238-1.184,2.422-2.422,4.145-4.2-.915,2.53-2.691,3.5-3.768,4.952-.377.538-1.184,1.077-.269,1.776.754.592,1.13-.054,1.561-.484,1.292-1.346,2.584-2.638,3.929-3.983a5.074,5.074,0,0,1,.538.538l-3.822,3.983c-.431.431-1.023.807-.377,1.561.754.861,1.292.269,1.776-.269,1.238-1.292,2.476-2.638,3.66-3.929a5.358,5.358,0,0,1,.592.538c-1.292,1.4-2.638,2.8-3.876,4.252-.377.431-1.023.915-.269,1.615.646.592,1.13.269,1.615-.269a29,29,0,0,1,4.091-4.037c-.431,1.992-2.045,3.014-3.283,4.306-1.023,1.023-1.238,1.776.215,2.476a.607.607,0,0,1,.861.108c-.215,1.184.484,1.453,1.4,1.615a.542.542,0,0,1,.807.054,1.29,1.29,0,0,0,.484,1.83c.915.269,1.13-1.13,1.992-1.346a.672.672,0,0,1,.915.108c.054.915-1.992,1.615-.269,2.638-.161,1.023-.538,1.722-1.776,1.13-.161-.161-.377-.323-.538-.484-.108-.7-.7-.592-1.13-.7a1.69,1.69,0,0,0-1.561-1.077c-.538.108-.754-.054-.592-.646a1.662,1.662,0,0,0-1.561-1.4c-.484-.323-.161-.969-.592-1.292-2.045-1.346-2.1,1.292-3.283,1.615-.484.161-.646,0-.538-.538.484-.538.969-1.077,1.4-1.615,1.184-1.346.215-1.561-.915-1.722-.484.161-.7,0-.538-.538-.161-.377-.377-.754-.538-1.13-.915-.108-1.346-.807-1.722-1.561-1.453-.161-1.615-1.83-2.691-2.368a1.274,1.274,0,0,1-.969-.969c-.484-.538-.969-1.077-1.776-.538a.428.428,0,0,1-.7,0c.377-.646.807-1.238-.054-1.884-.807-.646-1.184.108-1.561.484-1.13,1.184-2.207,2.422-3.283,3.606-1.4-.969-1.938-1.992-.377-3.283,1.292.754,1.669-.431,2.53-1.238-.861-.215-1.4.484-2.045.323-1.507-1.507-1.292,1.13-2.315.861-.323-3.445-2.207.538-3.23-1.292C119.406,70.686,120.267,69.986,120.536,69.071Z" transform="translate(-8.684 -19.281)" fill="#292929"/>
          <path id="Path_1163" data-name="Path 1163" d="M110.337,48.838c.807,1.992,1.992,3.445,4.414,3.014,1.884-.323,2.045,1.453,2.8,2.476.484.646-.215,1.83-.7,1.776-1.077-.108-2.368.592-3.283-.431-.807-.861-1.507-1.83-2.261-2.745-1.507-1.83-3.014-2.153-4.737-.161a1.827,1.827,0,0,1-2.476.807c1.077-.861,2.153-1.776,3.176-2.638.323-.269.754-.754.431-1.184-.377-.538-.969-.323-1.453,0-1.346.915-1.938,2.691-3.822,2.907.431-1.292.915-2.584,1.346-3.876a6.3,6.3,0,0,1,.215-1.722c-.646-1.13-1.4-1.615-2.476-.377a14.385,14.385,0,0,1-1.938,1.669c-.269-.269-.484-.538-.754-.807a12.475,12.475,0,0,0,2.368-1.669c1.346-1.4.7-1.884-.969-1.669a.666.666,0,0,1-.054-.915c-.215-.323-.377-.646-.592-.969-.269-.646-1.077-.161-1.4-.7-.215-1.077-.538-1.884-1.83-1.077a.484.484,0,0,1-.754-.054,1.336,1.336,0,0,0,.108-2.153c-.377-.377-.861-.592-1.077-1.13-.161-.215-.377-.431-.538-.646-.377-.377-1.507-.054-1.184-1.13-.538-.646-1.13-1.238-2.045-.861l-.108-.161c.538-3.176-1.4-1.238-2.476-1.13-.323-.861,1.722-1.13.538-2.153-1.238-1.077-1.776.969-2.853.592,1.453-1.884,1.453-1.884-.054-2.96-.484-.323-.108-1.077-.646-1.4-.323-.161-.646-.377-.969-.538-.592.161-.754-.108-.592-.646-.161-.323-.377-.7-.538-1.023-.484-.484-1.884-.431-1.077-1.722,2.045-.323,3.5-1.884,5.544-2.315-.915.646-1.776,1.346-2.691,1.938-.754.538-.915,1.077-.054,1.669.484.215,1.077-.054,1.453.484-.431.592.161,1.023.269,1.507.215.484.915.215,1.184.646.538,1.884,1.507,1.507,2.584.484a.542.542,0,0,1,.807.054c-.269.754-1.776,1.023-1.023,2.1.538.861,1.238.054,1.884-.161a.285.285,0,0,1,.323.323c-.7,1.077-1.184,2.1.861,2.045.592-.215.7,0,.538.538.108,1.561.969,1.238,1.83.7a24.89,24.89,0,0,0,2.207-1.83l.538.538c-.7.592-1.4,1.13-2.045,1.722-1.292,1.184-.807,1.776.7,1.992l.269.108.054.269c-.054,1.023.538,1.453,1.453,1.561a.654.654,0,0,1,.861,0c-.592.592-.323,1.184.161,1.669.592.592.915-.108,1.292-.377.592-.431,1.13-.915,1.992-1.561-.108,1.13-.754,1.453-1.184,1.938s-1.453.754-.592,1.669c.754.754,1.346.108,1.884-.323,1.023-.807,1.938-1.722,2.96-2.584l.484.484c-.915.807-1.83,1.615-2.745,2.368-.484.431-1.023.915-.807,1.615.377.969,1.238.431,1.884.484.269.323.592.754,1.023.269.377-.431.807-.969.269-1.615a1.7,1.7,0,0,1,1.238-1.238c1.077-.538,2.207-.807,2.853.484,1.077,1.938-.269,3.176-1.4,4.091.323-.538,1.238-.915,1.83-1.615a.949.949,0,0,1,1.453-.215c.538.484.108,1.023-.215,1.453a8.228,8.228,0,0,1-1.453,1.615A1.868,1.868,0,0,0,110.337,48.838Z" transform="translate(-10.542 -21.117)" fill="#292929"/>
          <path id="Path_1164" data-name="Path 1164" d="M46.354,138.879c-1.884,3.445-4.521,5.06-8.128,5.006a7.634,7.634,0,0,1-1.292-15.179,8.249,8.249,0,0,1,9.312,5.06c.646,1.938.538,3.176-2.1,2.96-2.53-.161-5.114.054-7.7-.054-1.669-.054-1.83.754-1.4,2.045,1.023,3.014,3.876,3.822,5.975,1.669C42.963,138.341,42.963,138.341,46.354,138.879Z" transform="translate(-13.25 -15.454)" fill="#747474"/>
          <path id="Path_1165" data-name="Path 1165" d="M118.844,143.319c-3.23.323-6.352-.323-9.581-.108-3.66.269-5.867-2.96-6.082-7.374-.108-2.207.754-4.575-.969-6.782h5.975a17.58,17.58,0,0,0-.269,9.581c.484,2.315,2.315,2.207,4.145,2.1,2.1-.108,1.507-1.669,1.561-2.8.054-1.669-.054-3.283.054-4.952a3.727,3.727,0,0,0-1.884-3.876h7.374C117.013,131.423,116.8,140.251,118.844,143.319Z" transform="translate(-9.467 -15.426)" fill="#747474"/>
          <path id="Path_1166" data-name="Path 1166" d="M137.459,143.324c2.045-2.96,1.83-11.95-.377-14.21,3.445-.431,6.782.215,10.119.054,3.606-.108,5.706,2.96,5.921,7.267.108,2.261-.538,4.575.754,6.836h-5.759a17.345,17.345,0,0,0,.323-9.366c-.431-2.153-2.045-2.53-4.037-2.368-2.1.215-1.83,1.722-1.722,3.014.269,2.907-1.023,6.029,1.184,8.774Z" transform="translate(-7.629 -15.431)" fill="#747474"/>
          <path id="Path_1167" data-name="Path 1167" d="M20.087,119.187c-1.776,1.4-1.561,3.176-1.561,4.9v14.587c0,.861-.215,2.045,1.238,1.938,3.445-.269,7.213,1.184,9.958-2.1.269.323.484.431.484.592.323,4.844.323,4.844-4.575,4.844H14.112c1.83-8.235,1.077-16.363.484-24.707C15.835,119.187,17.772,119.187,20.087,119.187Z" transform="translate(-14.112 -15.947)" fill="#747474"/>
          <path id="Path_1168" data-name="Path 1168" d="M102.971,136.031a8.109,8.109,0,0,1-16.2-.108c.054-4.306,3.5-7.482,8.182-7.482C99.526,128.5,102.971,131.779,102.971,136.031Z" transform="translate(-10.282 -15.459)" fill="#747474"/>
          <path id="Path_1169" data-name="Path 1169" d="M194.509,128.492c4.575.054,8.02,3.391,7.966,7.7a8,8,0,0,1-8.182,7.59,7.878,7.878,0,0,1-8.074-7.643C186.219,131.614,189.664,128.439,194.509,128.492Z" transform="translate(-5.038 -15.456)" fill="#747474"/>
          <path id="Path_1170" data-name="Path 1170" d="M119.356,55.613c-2.368.377-2.584,0-1.453-2.907,1.561.538,2.1-.861,2.745-1.669.646-.861-.484-1.4-.969-1.992a18.726,18.726,0,0,1-2.691-3.714c1.238,1.184,2.476,2.422,3.714,3.606.377.377.861.807,1.4.484.7-.431.054-.969-.054-1.4,0-.215.108-.323.323-.269,1.83,1.238,1.884-1.507,3.176-1.453a2.842,2.842,0,0,1,1.615-1.722v-.969c-.215-.269-.215-.484.054-.7.377-.054.592.754,1.13.269.484-.431.215-.754-.108-1.077C127,40.649,125.762,39.2,124.2,37.312c2.96.754,3.5,3.606,5.652,4.521.754-.431.054-1.4.7-1.938.323.108.646.161.969.269a3.963,3.963,0,0,1,1.669-1.722v-.969c-.161-.161-.215-.323-.108-.431.054-.161.108-.215.161-.215.431.054.807.484,1.292.054.161-.431-.054-.969.431-1.346.807.377,1.184-.108,1.507-.7a.809.809,0,0,1,.161-.969c.323.054.646.161.969.215.592-.323.269-1.4,1.184-1.507.969-1.077-.431-1.507-.592-2.261-.269-.592.054-.646.484-.538.646.323,1.507,3.176,1.884-.161.054-.431,1.292.7,1.561-.431.323-.754.861-1.023,1.615-.538-.161,2.691,2.853,3.822,3.391,7.105-1.776-2.261-3.068-3.929-4.306-5.544-.108,2.691,2.315,3.876,3.176,6.459-2.261-1.292-2.8-3.714-5.06-5.006.484,2.691,2.8,3.929,3.66,6.513-2.476-1.292-2.8-3.983-5.167-5.114.377,2.153,1.938,3.176,2.691,4.629.323.592,1.615.915.592,1.938-1.615-.431-2.261-1.884-3.122-3.014.538,1.346,1.992,2.153,2.476,3.66-.646,1.238-1.077.269-1.507-.215a24.957,24.957,0,0,0-3.5-3.66c.215,2.476,2.691,3.66,3.66,6.405-1.938-1.292-2.745-2.8-3.822-4.037-.323-.377-.7-1.023-1.292-.592-.592.377-.054,1.023-.054,1.507l-.054.054c-.646-.108-1.292-.646-1.884.054-.431.484.377.646.377,1.023-.431.592-1.292-.054-1.722.646.161.377.323.7.484,1.077.161.484-.054.592-.484.484-1.615-.861-1.13.323-1.077,1.13-.215.269-.431.269-.7.054-1.077.215-1.83.484-.646,1.669a36.821,36.821,0,0,1,3.5,4.091c-1.722-.7-2.691-2.315-3.983-3.445-.377-.323-.861-.861-1.292-.215-.161.215.215.807.323,1.238.215.538-.054.592-.484.538-.431-.269-.861-.861-1.346-.215-.807,1.023.915,1.346.7,2.422-.861.054-1.938-2.476-2.638.054-.269.431-.915.108-1.13.646a14.183,14.183,0,0,1,.108,1.507c-.215.269-.484.269-.807.054C120.917,52.706,120.056,54.106,119.356,55.613Z" transform="translate(-8.688 -20.733)" fill="#292929"/>
          <path id="Path_1171" data-name="Path 1171" d="M125.379,119.187c-.054,8.289-.7,16.417.484,24.653h-5.975c1.722-1.13,1.507-2.8,1.507-4.468V122.9c0-1.4-.054-2.745-2.261-3.714Z" transform="translate(-8.575 -15.947)" fill="#747474"/>
          <path id="Path_1172" data-name="Path 1172" d="M209.824,143.272H203.1c2.315-2.53,2.261-11.734-.054-14.1,3.122-.807,6.244.646,9.312-.161.915-.215,1.238.538,1.238,1.4,0,.807-.108,1.4-1.184,1.4-3.068-.054-4.2,1.561-3.768,4.521C208.909,138.59,207.778,141.173,209.824,143.272Z" transform="translate(-4.151 -15.434)" fill="#747474"/>
          <path id="Path_1173" data-name="Path 1173" d="M109.069,48.359c-1.722-.323-2.045-1.13-.754-2.315a12.766,12.766,0,0,0,2.638-2.745c-1.669.269-2.422,1.615-3.553,2.53-.377.323-.807.915-1.346.269-.484-.646.108-.915.538-1.238a9.355,9.355,0,0,1,.807-.7,2.672,2.672,0,0,0,1.453-2.907c-.269-1.615-1.776-.7-2.638-1.077,1.722-2.153,3.983-4.306,2.422-7.159a2.143,2.143,0,0,1-.108-1.884c.108-.7.538-1.292,1.292-.646.484.431,1.776.538.969,1.776-1.13,1.669-.592,3.337.269,4.9a58.182,58.182,0,0,1,4.521,9.635c-1.938-.915-1.938-.861-4.2.431C110.684,47.6,110.092,48.412,109.069,48.359Z" transform="translate(-9.274 -20.638)" fill="#6d6d6d"/>
          <path id="Path_1174" data-name="Path 1174" d="M129.157,143.265c1.561-2.207,1.507-11.842,0-14.21h5.329c-1.184,4.737-.807,9.42-.323,14.21Z" transform="translate(-8.047 -15.426)" fill="#747474"/>
          <path id="Path_1175" data-name="Path 1175" d="M82.3,101.4c.054,1.13-2.691.754-1.453,2.691a3.032,3.032,0,0,1-.269,3.5c-.807-.7-.431-1.561-.484-2.207-.108-.915.108-1.992-1.023-2.261-1.669-.377.054,1.722-1.184,1.722-.969-1.669-5.49-2.691-7-1.615-.7.484-.7,1.238-.7,1.992v4.36c-1.292-2.53-.215-5.275-.484-7.859-.054-.377.431-.538.807-.538C74.437,101.3,78.366,101.35,82.3,101.4Z" transform="translate(-11.19 -16.896)" fill="#747474"/>
          <path id="Path_1176" data-name="Path 1176" d="M146.73,86.974c.915.108,1.13-.807,1.776-1.13,1.992-1.023,3.014-3.23,5.275-3.983-1.077,1.184-2.153,2.315-3.23,3.5-.484.538-1.561,1.077-.7,1.992.646.646,1.292-.054,1.884-.484.484-.377.754-1.023,1.507-.969-1.238,2.8-5.06,6.567-9.2,8.451,1.184-1.13,2.476-2.207,3.553-3.445.484-.538,1.992-.915.7-2.045-1.13-.969-1.615.269-2.207.807-1.238,1.184-2.315,2.476-3.445,3.768a8.275,8.275,0,0,0-.7-.646c1.13-1.184,2.315-2.315,3.391-3.5C146.085,88.535,147.161,88.159,146.73,86.974Z" transform="translate(-7.373 -17.915)" fill="#292929"/>
          <path id="Path_1177" data-name="Path 1177" d="M137.761,101.961c-1.13,2.045-.161,4.306-.7,6.513a1.735,1.735,0,0,1-.861-1.722c.377-3.068-1.292-3.391-3.714-3.23-2.1.161-4.2.054-6.3.054-.915-.861-1.507-1.776-.161-2.745.323,1.13,1.238,1.13,2.153,1.13,2.8-.108,5.6.431,8.343-.431C136.9,101.423,137.384,101.8,137.761,101.961Z" transform="translate(-8.253 -16.914)" fill="#292929"/>
          <path id="Path_1178" data-name="Path 1178" d="M86.665,86.213c-.054.592-1.722.861-.431,1.776-1.184.969-.915,1.776.161,2.638,1.4,1.13,2.8,2.368,4.145,3.553.054.054-.054.323-.161.7-1.884-1.507-3.5-3.714-5.544-4.252-2.584-.646-1.992-3.66-4.252-4.145,1.184-.269,1.722.7,2.476,1.238.592.377,1.13.7,1.722.161.754-.754-.054-1.13-.431-1.507-.7-.7-1.4-1.346-2.368-2.315C84.135,84.113,84.673,86.751,86.665,86.213Z" transform="translate(-10.608 -17.799)" fill="#292929"/>
          <path id="Path_1179" data-name="Path 1179" d="M90.042,84.741c.754-.754.161-2.907,2.261-2.261,1.13-.108,1.292.807,1.507,1.615.861,1.13,2.315,2.261,0,3.337C92.141,87.11,91.172,85.872,90.042,84.741Z" transform="translate(-10.109 -17.888)" fill="#292929"/>
          <path id="Path_1180" data-name="Path 1180" d="M183.965,124.793c-.538-.861-1.077-1.722-1.561-2.53a2.009,2.009,0,0,1,.323-2.745,1.723,1.723,0,0,1,2.476.054,1.844,1.844,0,0,1,.269,2.691C184.934,123.017,184.5,123.878,183.965,124.793Z" transform="translate(-5.26 -15.955)" fill="#747474"/>
          <path id="Path_1181" data-name="Path 1181" d="M131.76,124.2c1.346.108,2.1.754,2.045,2.045a1.81,1.81,0,0,1-1.83,1.938,1.9,1.9,0,0,1-2.153-1.938C129.715,124.951,130.576,124.359,131.76,124.2Z" transform="translate(-8.012 -15.683)" fill="#747474"/>
          <path id="Path_1182" data-name="Path 1182" d="M143.095,83.957a6.453,6.453,0,0,1,.592.646l-3.876,4.2c-.323.323-.646.807-1.077.484-.7-.484-.108-.915.269-1.292C140.35,86.649,141.7,85.3,143.095,83.957Z" transform="translate(-7.559 -17.804)" fill="#292929"/>
          <path id="Path_1183" data-name="Path 1183" d="M135.18,76.236c.592.538,1.13,1.023,1.722,1.561-2.476.431-3.176,3.283-5.6,4.2C132.058,79.574,134.857,78.712,135.18,76.236Z" transform="translate(-7.934 -18.211)" fill="#292929"/>
          <path id="Path_1185" data-name="Path 1185" d="M142.678,28.841c-.538.161-1.077.377-1.615.538-1.292-1.884-2.637-3.822-3.929-5.706C139.717,24.7,140.2,27.818,142.678,28.841Z" transform="translate(-7.626 -20.982)" fill="#292929"/>
          <path id="Path_1186" data-name="Path 1186" d="M145.2,82.782c-.269,0-.538-.054-.807-.054,1.615-1.669,3.23-3.391,4.844-5.06a3.705,3.705,0,0,0,.7.592A21.048,21.048,0,0,1,145.2,82.782Z" transform="translate(-7.243 -18.136)" fill="#292929"/>
          <path id="Path_1187" data-name="Path 1187" d="M130.414,68.678l-.592-.592a19.294,19.294,0,0,1,5.167-4.683C133.644,65.932,131.921,67.224,130.414,68.678Z" transform="translate(-8.012 -18.888)" fill="#292929"/>
          <path id="Path_1188" data-name="Path 1188" d="M93.509,79.014c-.269.592-.754.592-1.292.646a25.526,25.526,0,0,1-5.652-5.06C89.741,75.408,90.763,78.53,93.509,79.014Z" transform="translate(-10.292 -18.297)" fill="#292929"/>
          <path id="Path_1189" data-name="Path 1189" d="M126.937,43.954c-.538.592-1.077,1.13-1.615,1.722-.377-2.53-3.283-3.337-4.091-6.459,1.453,1.453,2.368,2.422,3.337,3.337C125.215,43.147,125.592,44.331,126.937,43.954Z" transform="translate(-8.465 -20.163)" fill="#292929"/>
          <path id="Path_1190" data-name="Path 1190" d="M130.054,39.5c-.054.7.269,1.507-.7,1.938.592-1.507-.861-1.992-1.453-2.907-.646-1.077-2.1-1.615-2.476-3.553C127.685,36.319,128.708,38.042,130.054,39.5Z" transform="translate(-8.244 -20.387)" fill="#292929"/>
          <path id="Path_1191" data-name="Path 1191" d="M137.885,32.622c-.377.538-.484,1.292-1.184,1.507-.269-2.584-2.853-3.822-3.606-6.621C135.355,28.908,135.947,31.438,137.885,32.622Z" transform="translate(-7.839 -20.78)" fill="#292929"/>
          <path id="Path_1192" data-name="Path 1192" d="M90.844,80.828c0,.538.054,1.077-.538,1.453-.7-2.691-3.768-3.445-5.275-6.352C87.669,77.437,89.176,79.267,90.844,80.828Z" transform="translate(-10.373 -18.227)" fill="#292929"/>
          <path id="Path_1193" data-name="Path 1193" d="M145.143,85.6c.646-.215,1.292-.377,1.13.7-2.422.646-3.283,3.122-5.867,4.737C141.483,88.185,143.743,87.27,145.143,85.6Z" transform="translate(-7.454 -17.726)" fill="#292929"/>
          <path id="Path_1194" data-name="Path 1194" d="M131.407,40.733c.323-.915,1.077-.592,1.722-.646a16.949,16.949,0,0,1,4.306,5.006c-1.938-.861-2.476-2.1-3.391-2.96C133.291,41.487,132.86,40.141,131.407,40.733Z" transform="translate(-7.928 -20.118)" fill="#292929"/>
          <path id="Path_1195" data-name="Path 1195" d="M135.81,33.814l-.161.969a22.032,22.032,0,0,1-4.037-5.383C133.549,30.369,134.68,32.092,135.81,33.814Z" transform="translate(-7.917 -20.68)" fill="#292929"/>
          <path id="Path_1196" data-name="Path 1196" d="M95.478,73.069a2.731,2.731,0,0,1-.484,2.315,19.638,19.638,0,0,1-4.952-4.414c1.992.377,2.907,1.669,3.983,2.584C94.94,74.415,95.155,73.715,95.478,73.069Z" transform="translate(-10.109 -18.489)" fill="#292929"/>
          <path id="Path_1197" data-name="Path 1197" d="M88.457,86.35c0-.269.054-.538.054-.807,1.83,1.561,3.929,2.853,5.329,4.9C91.686,89.579,90.125,87.911,88.457,86.35Z" transform="translate(-10.193 -17.72)" fill="#292929"/>
          <path id="Path_1199" data-name="Path 1199" d="M140.988,81.452a1.157,1.157,0,0,1,.592,1.292,29.743,29.743,0,0,1-5.06,5.006C137.381,84.789,140.665,84.2,140.988,81.452Z" transform="translate(-7.659 -17.936)" fill="#292929"/>
          <path id="Path_1200" data-name="Path 1200" d="M137.325,78.844l.538.538-4.36,4.683A11.421,11.421,0,0,1,137.325,78.844Z" transform="translate(-7.818 -18.074)" fill="#292929"/>
          <path id="Path_1201" data-name="Path 1201" d="M131.7,73.066l.969.969c-1.615,1.507-3.23,3.068-4.844,4.575C128.474,76.242,130.788,75.166,131.7,73.066Z" transform="translate(-8.117 -18.378)" fill="#292929"/>
          <path id="Path_1202" data-name="Path 1202" d="M88.777,82.561c0,.269-.054.484-.054.754l-5.329-4.521A9.906,9.906,0,0,1,88.777,82.561Z" transform="translate(-10.459 -18.076)" fill="#292929"/>
          <path id="Path_1203" data-name="Path 1203" d="M134.281,35.434c0,.484.054.969-.431,1.346-.269-2.584-3.068-3.5-3.876-6.459A15.2,15.2,0,0,1,134.281,35.434Z" transform="translate(-8.004 -20.632)" fill="#292929"/>
          <path id="Path_1204" data-name="Path 1204" d="M82.383,23.367c-.108.861.807,1.13,1.077,1.722-2.153-.161-3.068,2.153-5.383,2.638C79.208,25.681,81.576,25.2,82.383,23.367Z" transform="translate(-10.74 -20.999)" fill="#292929"/>
          <path id="Path_1205" data-name="Path 1205" d="M132.058,70.844l-.754-.754c1.507-1.615,3.014-3.23,4.521-4.9.161.161.377.323.538.484C135.4,67.776,133.35,69.014,132.058,70.844Z" transform="translate(-7.934 -18.793)" fill="#292929"/>
          <path id="Path_1206" data-name="Path 1206" d="M143.108,81.226c-.269-.054-.592-.054-.861-.108,1.507-1.884,3.014-3.768,4.575-5.6.377.377.754.754,1.184,1.13C146.338,78.158,144.723,79.719,143.108,81.226Z" transform="translate(-7.357 -18.249)" fill="#292929"/>
          <path id="Path_1207" data-name="Path 1207" d="M126.706,64.975c0-.269-.054-.538-.054-.807,1.238-1.346,2.422-2.691,3.66-4.037A10.052,10.052,0,0,1,126.706,64.975Z" transform="translate(-8.179 -19.06)" fill="#292929"/>
          <path id="Path_1208" data-name="Path 1208" d="M123.073,49.63c.161-.538.646-.592,1.13-.646a18.147,18.147,0,0,1,4.575,5.167C126.033,53.074,125.656,50.006,123.073,49.63Z" transform="translate(-8.368 -19.648)" fill="#292929"/>
          <path id="Path_1209" data-name="Path 1209" d="M127.265,46.914c.161-.161.323-.377.484-.538a12.369,12.369,0,0,1,3.391,4.252A10.266,10.266,0,0,1,127.265,46.914Z" transform="translate(-8.146 -19.785)" fill="#292929"/>
          <path id="Path_1210" data-name="Path 1210" d="M100.042,54.2c1.669,1.292,1.346,1.992-1.615,3.391A8.605,8.605,0,0,1,100.042,54.2Z" transform="translate(-9.667 -19.373)" fill="#979797"/>
          <path id="Path_1211" data-name="Path 1211" d="M85.43,27.1a1.232,1.232,0,0,1,.646,1.4,22.487,22.487,0,0,1-4.521,3.391C82.469,29.414,85.322,29.468,85.43,27.1Z" transform="translate(-10.556 -20.802)" fill="#292929"/>
          <path id="Path_1212" data-name="Path 1212" d="M97.744,40.6a1.2,1.2,0,0,1,1.4.7c-2.1.108-2.853,2.261-5.114,2.476C95.268,42.752,96.506,41.675,97.744,40.6Z" transform="translate(-9.899 -20.091)" fill="#292929"/>
          <path id="Path_1213" data-name="Path 1213" d="M129.771,43.311c.215,0,.484-.054.7-.054a12.665,12.665,0,0,1,3.606,4.306C132.085,46.7,131.17,44.71,129.771,43.311Z" transform="translate(-8.014 -19.95)" fill="#292929"/>
          <path id="Path_1214" data-name="Path 1214" d="M131.458,42.207l.484-.484,4.36,3.553c-.269.269-.538.592-.861.861C133.665,45.329,132.7,43.607,131.458,42.207Z" transform="translate(-7.925 -20.031)" fill="#292929"/>
          <path id="Path_1215" data-name="Path 1215" d="M103.218,45.762c.377.646.7,1.238-.215,1.722-1.023.754-2.045,1.453-3.553,2.584C100.311,47.7,102.087,47,103.218,45.762Z" transform="translate(-9.613 -19.818)" fill="#292929"/>
          <path id="Path_1216" data-name="Path 1216" d="M126.932,42.342c0,.215-.054.484-.054.7-1.346-1.453-2.745-2.907-4.521-4.9A14.545,14.545,0,0,1,126.932,42.342Z" transform="translate(-8.405 -20.219)" fill="#292929"/>
          <path id="Path_1217" data-name="Path 1217" d="M128.856,66.587c-.054-.269-.054-.592-.108-.861a13.516,13.516,0,0,1,3.714-3.5C131.762,64.057,130.148,65.187,128.856,66.587Z" transform="translate(-8.068 -18.95)" fill="#292929"/>
          <path id="Path_1218" data-name="Path 1218" d="M129.332,72.555h.7a15,15,0,0,1-4.2,4.037A9.448,9.448,0,0,1,129.332,72.555Z" transform="translate(-8.222 -18.405)" fill="#292929"/>
          <path id="Path_1219" data-name="Path 1219" d="M92.739,34.769c.377.377.807.754,1.184,1.13-2.261-.161-2.8,2.368-5.006,3.014C89.832,36.922,91.716,36.222,92.739,34.769Z" transform="translate(-10.168 -20.397)" fill="#292929"/>
          <path id="Path_1220" data-name="Path 1220" d="M122.459,51.134c.269,0,.538-.054.807-.054a12.8,12.8,0,0,1,3.5,4.252A15.982,15.982,0,0,1,122.459,51.134Z" transform="translate(-8.4 -19.537)" fill="#292929"/>
          <path id="Path_1221" data-name="Path 1221" d="M137.311,82.526l.538.538a9.434,9.434,0,0,1-3.068,2.907C135,83.979,136.235,83.333,137.311,82.526Z" transform="translate(-7.75 -17.88)" fill="#292929"/>
          <path id="Path_1222" data-name="Path 1222" d="M87.6,27.224c-.484-.054-1.023,0-1.184-.646,1.992-.054,2.907-2.261,5.383-2.853A14.045,14.045,0,0,1,87.6,27.224Z" transform="translate(-10.3 -20.98)" fill="#292929"/>
          <path id="Path_1223" data-name="Path 1223" d="M132.613,36.616c0,.215-.054.431-.054.646-1.346-1.507-2.853-2.907-3.606-4.844C130.352,33.655,131.913,34.732,132.613,36.616Z" transform="translate(-8.058 -20.521)" fill="#292929"/>
          <path id="Path_1224" data-name="Path 1224" d="M86.229,25.157c-.538-.054-1.077.054-1.453-.484,1.83-.054,2.691-2.045,5.06-2.584A10.168,10.168,0,0,1,86.229,25.157Z" transform="translate(-10.387 -21.066)" fill="#292929"/>
          <path id="Path_1225" data-name="Path 1225" d="M83.931,25.975a6.453,6.453,0,0,1,.592.646c-1.4,1.077-2.8,2.153-4.145,3.23C80.97,27.912,82.693,27.159,83.931,25.975Z" transform="translate(-10.618 -20.861)" fill="#292929"/>
          <path id="Path_1226" data-name="Path 1226" d="M98.777,37.194h-.861c1.238-1.184,2.476-2.315,3.66-3.5l.538.538A17.738,17.738,0,0,1,98.777,37.194Z" transform="translate(-9.694 -20.454)" fill="#292929"/>
          <path id="Path_1227" data-name="Path 1227" d="M93.188,32.455l-.538-.538c1.292-1.023,2.315-2.368,4.521-3.283A14.541,14.541,0,0,1,93.188,32.455Z" transform="translate(-9.972 -20.721)" fill="#292929"/>
          <path id="Path_1228" data-name="Path 1228" d="M93.215,76.99a11.3,11.3,0,0,1-4.145-3.822,11,11,0,0,1,4.36,3.66l-.054.161Z" transform="translate(-10.16 -18.373)" fill="#292929"/>
          <path id="Path_1229" data-name="Path 1229" d="M121.969,47.251a11.034,11.034,0,0,1-3.5-4.2,13.3,13.3,0,0,1,3.822,3.929A1.427,1.427,0,0,1,121.969,47.251Z" transform="translate(-8.61 -19.961)" fill="#292929"/>
          <path id="Path_1230" data-name="Path 1230" d="M132.572,38.063c-.538.592-1.13,1.13-1.669,1.722.484-1.992-1.938-2.476-2.207-4.2C130.527,35.587,130.527,38.494,132.572,38.063Z" transform="translate(-8.071 -20.354)" fill="#292929"/>
          <path id="Path_1231" data-name="Path 1231" d="M133.388,76.646a15.552,15.552,0,0,1-3.822,3.391C130.8,78.906,132.1,77.776,133.388,76.646Z" transform="translate(-8.025 -18.19)" fill="#292929"/>
          <path id="Path_1232" data-name="Path 1232" d="M137.761,29.885c-.161.161-.323.377-.484.538a16.542,16.542,0,0,1-2.853-4.091C136.361,27.086,136.9,28.647,137.761,29.885Z" transform="translate(-7.769 -20.842)" fill="#292929"/>
          <path id="Path_1233" data-name="Path 1233" d="M99.636,42.183c0,.323.054.592.054.915l-3.23,3.068a5.075,5.075,0,0,0-.538-.538C97.16,44.5,98.4,43.314,99.636,42.183Z" transform="translate(-9.799 -20.006)" fill="#292929"/>
          <path id="Path_1234" data-name="Path 1234" d="M94.369,36.456a1.732,1.732,0,0,1,1.077,1.13c-1.669-.108-2.1,1.884-3.768,2.207C91.893,38.071,93.885,37.856,94.369,36.456Z" transform="translate(-10.023 -20.308)" fill="#292929"/>
          <path id="Path_1235" data-name="Path 1235" d="M148.479,83.263c-.323-.054-.592-.054-.915-.108,1.13-1.13,2.315-2.261,3.445-3.391l.431.431C150.417,81.218,149.448,82.241,148.479,83.263Z" transform="translate(-7.076 -18.025)" fill="#292929"/>
          <path id="Path_1236" data-name="Path 1236" d="M90.79,33.959a8.026,8.026,0,0,1-3.714,2.96A7.046,7.046,0,0,1,90.683,33.8Z" transform="translate(-10.265 -20.449)" fill="#292929"/>
          <path id="Path_1237" data-name="Path 1237" d="M134.58,39.064a4.959,4.959,0,0,1,2.638,3.553c-.915-1.13-2.476-1.83-2.691-3.5Z" transform="translate(-7.764 -20.171)" fill="#292929"/>
          <path id="Path_1238" data-name="Path 1238" d="M88.156,84.243c-.431.377-.807.754-1.238,1.13-.915-.861-1.776-1.669-2.96-2.745C85.949,82.413,86.541,84.728,88.156,84.243Z" transform="translate(-10.43 -17.875)" fill="#292929"/>
          <path id="Path_1239" data-name="Path 1239" d="M95.241,39.575a3.813,3.813,0,0,1,.754.054,7.9,7.9,0,0,1-3.5,2.8A7.028,7.028,0,0,1,95.241,39.575Z" transform="translate(-9.98 -20.144)" fill="#292929"/>
          <path id="Path_1240" data-name="Path 1240" d="M89.132,89.735c1.4.431,2.153,1.561,2.96,2.638a5.98,5.98,0,0,1-3.176-2.422A.2.2,0,0,1,89.132,89.735Z" transform="translate(-10.168 -17.499)" fill="#292929"/>
          <path id="Path_1241" data-name="Path 1241" d="M90.8,27.713c-.269,0-.538-.054-.807-.054a5.273,5.273,0,0,1,3.014-1.992A3.934,3.934,0,0,1,90.8,27.713Z" transform="translate(-10.112 -20.877)" fill="#292929"/>
          <path id="Path_1242" data-name="Path 1242" d="M95.435,70.987c-.215.431-.377.807-.592,1.238-.915-.807-1.83-1.561-2.96-2.53C93.713,69.211,94.036,71.364,95.435,70.987Z" transform="translate(-10.012 -18.56)" fill="#292929"/>
          <path id="Path_1243" data-name="Path 1243" d="M91.525,29.624A6.673,6.673,0,0,1,94.647,27.2a7.224,7.224,0,0,1-2.8,2.745A.485.485,0,0,1,91.525,29.624Z" transform="translate(-10.031 -20.796)" fill="#292929"/>
          <path id="Path_1244" data-name="Path 1244" d="M122.847,44.064a3.381,3.381,0,0,1-2.638-2.853C121.07,42.181,121.932,43.1,122.847,44.064Z" transform="translate(-8.518 -20.058)" fill="#292929"/>
          <path id="Path_1245" data-name="Path 1245" d="M96.229,35.3a7.511,7.511,0,0,1,3.283-2.422,5.691,5.691,0,0,1-3.014,2.8C96.336,35.622,96.283,35.461,96.229,35.3Z" transform="translate(-9.783 -20.497)" fill="#292929"/>
          <path id="Path_1246" data-name="Path 1246" d="M97.96,102.618c-1.13-.269-.915-.861-.7-1.776a16.3,16.3,0,0,0,.215-3.283c.538.431,1.561.592,1.346,1.507-.646,2.422.7,2.96,2.638,2.96l21.585-.161c.592,0,1.722-.431,1.184.861-1.13,2.691.646,2.638,2.368,2.691-.969.592-2.368.484-2.691,2.045-.861-.754-.484-1.507-.646-2.207a4.064,4.064,0,0,0-3.929-1.938c-2.584.108-5.114.108-7.7,0a2.918,2.918,0,0,0-3.23,1.938c-.054.592-.054,1.184-.108,1.938-.646-.646-.269-1.561-1.077-1.938a4.073,4.073,0,0,0-3.929-1.884C101.512,103.425,99.628,103.8,97.96,102.618Z" transform="translate(-9.738 -17.087)" fill="#292929"/>
          <path id="Path_1247" data-name="Path 1247" d="M121.541,81.952c-.269.754-.7,1.561.215,2.207a4.139,4.139,0,0,1,.969.969c.861,1.13.592,2.422.323,3.714-.108.484-.538.592-1.077.484-1.4-.269-1.884-1.292-2.153-2.53a5.739,5.739,0,0,0-.377-1.023c.431-1.077,0-2.153.054-3.176C119.6,81.037,120.357,80.607,121.541,81.952Z" transform="translate(-8.559 -17.952)" fill="#c8c8c8"/>
          <path id="Path_1248" data-name="Path 1248" d="M124.631,70.755c.969-.484,1.507-2.8,2.853-1.4,1.13,1.184-.807,1.992-1.507,2.853-.969,1.292-1.722,1.292-1.83-.592A6.146,6.146,0,0,0,124.631,70.755Z" transform="translate(-8.311 -18.597)" fill="#f7efea"/>
          <path id="Path_1249" data-name="Path 1249" d="M121.6,82.01c-.915-.431-1.669-.7-1.615.861,0,1.023.377,2.1-.484,3.014-.215-1.023.161-2.153-.754-3.068-1.077-1.13.754-1.292.915-2.1.108-.592,1.184-.861,1.884-.484C122.4,80.664,122.027,81.364,121.6,82.01Z" transform="translate(-8.614 -18.01)" fill="#fff"/>
          <path id="Path_1250" data-name="Path 1250" d="M98.99,79.5a4.074,4.074,0,0,1,.054-.807c1.507.377,3.66,0,3.391,2.691C100.928,81.274,100.551,79.229,98.99,79.5Z" transform="translate(-9.637 -18.082)" fill="#292929"/>
          <path id="Path_1251" data-name="Path 1251" d="M101.655,73.015c.807.054,1.453.807,2.368.323.484-.269.807.215.969.646a.742.742,0,0,1-.161.969c-.431.377-.861.161-1.184-.161-.646-.592-1.669-.807-2.1-1.669Z" transform="translate(-9.503 -18.381)" fill="#292929"/>
          <path id="Path_1252" data-name="Path 1252" d="M107.381,69.845c1.4.323,2.045,1.507,2.853,2.584-1.346-.377-2.045-1.507-2.96-2.422Z" transform="translate(-9.201 -18.548)" fill="#292929"/>
          <path id="Path_1253" data-name="Path 1253" d="M107.854,105.008c-.7-1.83-.538-2.853,1.884-2.745a80.195,80.195,0,0,0,10.173,0c2.153-.108,3.122.538,2.8,2.691A136.783,136.783,0,0,1,107.854,105.008Z" transform="translate(-9.189 -16.84)" fill="#979797"/>
          <path id="Path_1254" data-name="Path 1254" d="M97.916,102.368c2.261,0,4.575.108,6.836-.054,2.207-.161,2.745.807,2.422,2.691-1.884,0-3.768.054-5.652.054C99.692,105.006,98.185,104.521,97.916,102.368Z" transform="translate(-9.694 -16.837)" fill="#979797"/>
          <path id="Path_1255" data-name="Path 1255" d="M95.257,94.848c1.669,2.8,1.023,5.49,0,8.182Z" transform="translate(-9.834 -17.23)" fill="#979797"/>
          <path id="Path_1256" data-name="Path 1256" d="M93.75,84.178c-.484-.538-1.023-1.077-1.507-1.615-.108-.861-.054-1.776,1.077-1.776,1.077,0,1.507.807,1.722,1.776C94.772,83.263,95.2,84.5,93.75,84.178Z" transform="translate(-9.995 -17.971)" fill="#292929"/>
          <path id="Path_1257" data-name="Path 1257" d="M102.807,66.909c.969,1.023.054,1.722-.592,2.153-1.292.807-2.261-.592-3.445-.754a.873.873,0,0,1-.7-1.023c.323-1.669,1.992.054,2.638-.969C101.354,66.479,102.054,66.694,102.807,66.909Z" transform="translate(-9.687 -18.734)" fill="#979797"/>
          <path id="Path_1258" data-name="Path 1258" d="M167.506,131.114v-7.428c0-.861,0-1.561,1.184-1.83a7.824,7.824,0,0,1,9.635,6.244c1.507,7.32-2.1,12.38-8.774,12.38-1.507,0-2.153-.431-2.045-1.992C167.56,136.066,167.506,133.59,167.506,131.114Z" transform="translate(-6.026 -15.817)" fill="#ebebeb"/>
          <path id="Path_1259" data-name="Path 1259" d="M100.461,70.424a1.156,1.156,0,0,1-.969,1.13,1.55,1.55,0,0,1-1.83-1.184c-.161-.538.161-1.4.915-1.292A2.164,2.164,0,0,1,100.461,70.424Z" transform="translate(-9.709 -18.589)" fill="#979797"/>
          <path id="Path_1260" data-name="Path 1260" d="M41.875,134.516H35.792c-1.077,0-1.238-.538-.807-1.4.7-1.346,1.669-2.584,3.337-2.476C40.367,130.8,41.444,132.255,41.875,134.516Z" transform="translate(-13.023 -15.343)" fill="#ebebeb"/>
          <path id="Path_1261" data-name="Path 1261" d="M90.655,135.832c.054-3.176,1.83-5.706,4.037-5.652,2.1.054,3.822,2.476,3.983,5.49.161,3.283-1.776,6.244-4.091,6.19C92.324,141.86,90.6,139.223,90.655,135.832Z" transform="translate(-10.077 -15.367)" fill="#ebebeb"/>
          <path id="Path_1262" data-name="Path 1262" d="M190.054,136.044c0-3.068,1.776-5.706,3.929-5.813,2.207-.108,4.2,2.691,4.2,5.867,0,3.014-1.83,5.652-3.983,5.759C191.884,141.911,190.054,139.328,190.054,136.044Z" transform="translate(-4.836 -15.365)" fill="#ebebeb"/>
        </g>
      </g>
    </g>
  </g>
</svg>
