<svg xmlns="http://www.w3.org/2000/svg" xmlns:xlink="http://www.w3.org/1999/xlink" width="244" height="128" viewBox="0 0 244 128">
  <defs>
    <clipPath id="clip-path">
      <rect id="Rectangle_239" data-name="Rectangle 239" width="244" height="128" transform="translate(-0.253 0.432)" fill="#ccc"/>
    </clipPath>
  </defs>
  <g id="Mask_Group_5" data-name="Mask Group 5" transform="translate(0.253 -0.432)" opacity="0.7" clip-path="url(#clip-path)">
    <g id="XO-logo" transform="translate(49.354 0)">
      <g id="Group_369" data-name="Group 369" transform="translate(0 0)">
        <path id="Path_1263" data-name="Path 1263" d="M7.033,9.277a2.613,2.613,0,0,1,1.256-.163c6.371-.015,12.727.015,19.1-.03a2.781,2.781,0,0,1,2.749,1.6Q38.873,26.446,47.7,42.166a9.787,9.787,0,0,0,1.286,2.04A23.25,23.25,0,0,0,50.595,41a59.77,59.77,0,0,1,9.49-16.112A48.566,48.566,0,0,1,87.195,8.641,54.941,54.941,0,0,1,100.38,7.133,51.826,51.826,0,0,1,151.274,52.75c1.36,11-.059,21.6-5.233,31.471C138.163,99.269,125.8,108.463,109.1,111.7a51.029,51.029,0,0,1-28.292-2.262c-12.018-4.568-20.887-12.727-27.036-23.947a57.214,57.214,0,0,1-3.237-7.125,20.788,20.788,0,0,0-1.523-3.252,6.746,6.746,0,0,0-1.2,1.729Q40.743,89.106,33.684,101.4c-1.463,2.542-2.942,5.07-4.361,7.642a2.811,2.811,0,0,1-2.764,1.6c-6.4-.044-12.8-.03-19.2-.044H6.234a3.626,3.626,0,0,1,.754-1.611q7.273-11.463,14.545-22.927,7.8-12.262,15.624-24.523c.177-.266.34-.547.5-.813a2.368,2.368,0,0,0,.015-2.631q-.576-.953-1.2-1.907Q22.354,33.7,8.112,11.2A10.955,10.955,0,0,1,7.033,9.277Zm93.022,18.374a30.97,30.97,0,0,0-6.3.65c-10.1,2.173-17.28,8.041-21.759,17.28a40.39,40.39,0,0,0-3.666,15.225A23.986,23.986,0,0,0,71.452,74.08,36.345,36.345,0,0,0,86.544,88.892a27.125,27.125,0,0,0,19.438,2.6c9.889-2.276,17.265-7.864,21.715-17.073a34.856,34.856,0,0,0,3.222-17.945A29.07,29.07,0,0,0,124.9,40.333C118.621,32.233,110.387,27.872,100.055,27.651Z" transform="translate(-6.234 -7.127)" fill="#747474"/>
        <path id="Path_1264" data-name="Path 1264" d="M60.449,119.071v1.7c.015,2.646.044,5.292.059,7.938,0,.931-.015.931-.976.946-.458.015-.931.015-1.389,0-.724-.03-.739-.059-.783-.828V115.848c0-.251,0-.5.015-.754a.431.431,0,0,1,.473-.458c1.035,0,2.069,0,3.1-.015.4,0,.547.281.71.562,1.537,2.779,3.237,5.484,4.538,8.4a2.032,2.032,0,0,0,.5.872c.192-.207.118-.458.1-.68-.148-2.72-.148-5.425-.118-8.145,0-.99.015-.99,1.02-1.005,2.084-.03,2.084-.03,2.084,2.1v11.574c0,.281-.015.577-.015.857a.414.414,0,0,1-.443.473H66.554c-.355,0-.473-.281-.606-.532-1.641-3.016-3.4-5.957-4.863-9.061C60.922,119.736,60.878,119.352,60.449,119.071Z" transform="translate(-3.539 -1.46)" fill="#747474"/>
        <path id="Path_1265" data-name="Path 1265" d="M141.236,122.591a5.149,5.149,0,0,1,2,3.311c.237.931.5,1.863.754,2.794a1.3,1.3,0,0,1,.074.9,22.62,22.62,0,0,1-2.838.059c-.414,0-.532-.31-.636-.621-.251-.828-.473-1.641-.695-2.469-.089-.34-.163-.695-.266-1.035a2.16,2.16,0,0,0-2.557-1.744c-.5.03-.71.207-.695.71.015,1.109,0,2.217,0,3.326,0,.4-.015.783,0,1.183.015.429-.133.68-.606.68-.754-.015-1.493,0-2.247-.015-.355,0-.517-.177-.517-.532,0-.207-.015-.429-.015-.636V115.969c0-1.094,0-1.123,1.109-1.227a27.055,27.055,0,0,1,5.248-.059,7.139,7.139,0,0,1,1.463.3,3.732,3.732,0,0,1,2.882,3.119,3.884,3.884,0,0,1-1.759,4.08A3.6,3.6,0,0,0,141.236,122.591Zm-4.863-3.429h0c.015.532,0,1.064.015,1.611,0,.281.1.488.414.5a4.726,4.726,0,0,0,2.513-.34,2,2,0,0,0,1.05-2.055,1.821,1.821,0,0,0-1.434-1.656,4.881,4.881,0,0,0-1.907-.118c-.414.044-.65.207-.636.665S136.373,118.7,136.373,119.161Z" transform="translate(0.374 -1.462)" fill="#747474"/>
        <path id="Path_1266" data-name="Path 1266" d="M108.991,122.145v-6.652c.03-.828.044-.843.843-.872h7.494c.931,0,.946.015.961.976,0,2.143.163,1.789-1.715,1.818-1.138.015-2.291.015-3.429,0-.488,0-.724.192-.724.695-.015,2.868-.251,2.395,2.129,2.439.931.015,1.863.015,2.779.015.443,0,.636.192.621.65-.044,2.483.325,2.055-1.966,2.1-.931.015-1.863.015-2.779.015-.532,0-.783.222-.783.769q.022,1.02,0,2.04c-.015.562.266.739.783.739q2.2-.022,4.39,0c.976,0,1.005.015.99,1.035-.015,2.04.237,1.744-1.759,1.759-2.291.015-4.568.015-6.859,0-.931,0-.961-.015-.961-.961C108.976,126.506,108.991,124.333,108.991,122.145Z" transform="translate(-0.891 -1.46)" fill="#747474"/>
        <path id="Path_1267" data-name="Path 1267" d="M33.377,122.1v-6.445c0-1.02.015-1.035.99-1.035,2.424,0,4.863-.015,7.287,0,.961,0,.99.015.99.946,0,2.173.222,1.818-1.789,1.848q-1.663.022-3.326,0c-.547-.015-.783.192-.769.754.015.532-.015,1.079,0,1.611.03.71.074.769.843.783,1.212.015,2.424,0,3.651.015,1.02.015,1.05.015,1.035,1.005-.015,1.922.281,1.729-1.685,1.744-1.005.015-2-.015-3,.015-.739.015-.8.089-.828.8-.03.606-.015,1.212,0,1.818.015.916.03.916,1.005.931,1.389.015,2.794,0,4.183,0,.961,0,.99.015.976.931-.015,2.188.237,1.833-1.789,1.848-2.291.015-4.582.015-6.859,0-.887,0-.9-.015-.916-.9Z" transform="translate(-4.803 -1.46)" fill="#747474"/>
        <path id="Path_1268" data-name="Path 1268" d="M15.515,129.9a11.135,11.135,0,0,1-2.084-.148,6.925,6.925,0,0,1-6.016-6.888,7.7,7.7,0,0,1,7.82-8.455,10.77,10.77,0,0,1,3.075.31c.931.237,1.02.355.783,1.242-.148.547-.089,1.256-.532,1.582s-1.005-.163-1.523-.222a9.529,9.529,0,0,0-1.715-.089,4.393,4.393,0,0,0-4.287,4.257,9.335,9.335,0,0,0,0,1.286,4.383,4.383,0,0,0,4.346,4.3,7.965,7.965,0,0,0,2.646-.3c.458-.133.665,0,.739.458a10.528,10.528,0,0,0,.266,1.36c.163.562-.1.783-.591.9A10.682,10.682,0,0,1,15.515,129.9Z" transform="translate(-6.173 -1.471)" fill="#747474"/>
        <path id="Path_1269" data-name="Path 1269" d="M87.613,123.52c0-1.685.015-3.355,0-5.041-.015-.99-.044-1.005-1.05-1.02-.754-.015-1.493-.015-2.247,0-.473.015-.695-.163-.724-.68-.163-2.158-.177-2.158,2.025-2.158h8.352c1.153,0,1.168,0,1.168,1.094,0,2.01.133,1.715-1.7,1.744-.532.015-1.079-.015-1.611.015-.71.03-.769.089-.813.828-.015.251,0,.5,0,.754v9.106c0,.281-.015.577,0,.857,0,.429-.163.665-.636.636-.5-.03-1.005,0-1.493,0-1.183-.015-1.256.237-1.256-1.3C87.613,126.742,87.613,125.131,87.613,123.52Z" transform="translate(-2.159 -1.46)" fill="#747474"/>
      </g>
    </g>
  </g>
</svg>
