<svg xmlns="http://www.w3.org/2000/svg" xmlns:xlink="http://www.w3.org/1999/xlink" width="300" height="143" viewBox="0 0 300 143">
  <defs>
    <clipPath id="clip-path">
      <rect id="Rectangle_239" data-name="Rectangle 239" width="300" height="143" transform="translate(1510 1440)" fill="#ccc"/>
    </clipPath>
    <clipPath id="clip-path-2">
      <rect id="Rectangle_236" data-name="Rectangle 236" width="272.594" height="143" transform="translate(-0.246 0.149)" fill="#ccc"/>
    </clipPath>
  </defs>
  <g id="Mask_Group_5" data-name="Mask Group 5" transform="translate(-1510 -1440)" clip-path="url(#clip-path)">
    <g id="Mask_Group_2" data-name="Mask Group 2" transform="translate(1523.949 1439.852)" opacity="0.7" clip-path="url(#clip-path-2)">
      <g id="Cowork-logo" transform="translate(0 48.347)">
        <g id="Group_364" data-name="Group 364">
          <path id="Path_1129" data-name="Path 1129" d="M38.9,113.412c0-1.175.051-2.172,0-3.168a8.243,8.243,0,0,0-3.27-6.208c-4.346-3.552-14.946-4.318-20.081,1.3a15.676,15.676,0,0,0-3.883,10.781c-.1,4.854.689,9.478,4.522,12.978,4.906,4.522,14.485,4.753,19.647.511a8.654,8.654,0,0,0,3.321-6.949v-2.631c2.938.335,5.927.613,8.916,1.072.335.051.766,1.022.792,1.558a15.122,15.122,0,0,1-7.23,13.669,23.72,23.72,0,0,1-9.913,3.449A36.085,36.085,0,0,1,17.2,139.09c-9.069-2.4-14.747-9.019-15.764-18.322a29.617,29.617,0,0,1,.536-10.5c1.787-7.128,6.055-12.186,12.9-14.747a32.256,32.256,0,0,1,24.578.766c6.081,2.606,9.351,7.409,9.4,14.205,0,1.1-.335,1.66-1.481,1.787C44.594,112.62,41.783,113.029,38.9,113.412Z" transform="translate(-1.216 -93.458)" fill="#595959"/>
          <path id="Path_1130" data-name="Path 1130" d="M237.432,127.871v11.344H227.98V94.454H237.4v17.5c.536-.588.792-.818,1-1.1,4.753-6.234,14.894-6.055,19.544-2.913,5.314,3.575,5.442,11.954.153,15.968a39.388,39.388,0,0,1-4.624,2.708c2.811,4.062,5.646,8.227,8.635,12.544-.485.051-.818.153-1.15.153-2.708,0-5.416-.026-8.124.026a2.02,2.02,0,0,1-1.993-1.048c-1.942-3.117-4.011-6.157-5.978-9.248a2.107,2.107,0,0,0-2.2-1.2C241.01,127.973,239.324,127.871,237.432,127.871Zm4.344-4.828v.051a14.206,14.206,0,0,0,2.759-.026,26.78,26.78,0,0,0,5.519-1.558,4.344,4.344,0,0,0,2.43-4.83,4.469,4.469,0,0,0-3.628-3.858,8.812,8.812,0,0,0-11.42,9.172c.051.741.282,1.073,1,1.073C239.553,123.043,240.652,123.043,241.776,123.043Z" transform="translate(10.74 -93.406)" fill="#595959"/>
          <path id="Path_1131" data-name="Path 1131" d="M52.62,122.37c0-9.478,6.055-16.044,15.529-16.939a25.6,25.6,0,0,1,10.322.843c6.413,1.993,10.322,6.256,11.318,12.953.869,5.825-.153,11.19-4.522,15.508a16.3,16.3,0,0,1-7.971,4.189,25.386,25.386,0,0,1-12.9-.282C56.83,136.422,52.62,130.571,52.62,122.37Zm28,.357a49.432,49.432,0,0,0-1.3-6.081,7.735,7.735,0,0,0-7.741-5.186c-3.91-.026-6.744,1.636-8.044,4.982a15.854,15.854,0,0,0,.1,12.135c1.354,3.24,3.985,4.7,7.435,4.8,3.474.1,6.387-1.072,7.844-4.344a46.439,46.439,0,0,0,1.7-6.31Z" transform="translate(1.495 -92.836)" fill="#595959"/>
          <path id="Path_1132" data-name="Path 1132" d="M189.862,122.519c-.051,9.377-5.978,15.994-15.355,16.734a30.793,30.793,0,0,1-9.325-.486c-9.734-2.172-13.693-9.989-12.624-18.906,1-8.3,6.9-13.8,15.431-14.412a32.433,32.433,0,0,1,8.763.435C185.186,107.65,189.887,113.807,189.862,122.519Zm-9.453-.1a45.386,45.386,0,0,0-1.558-6.229c-1.405-3.449-4.292-4.777-7.894-4.7-3.5.051-6.208,1.507-7.562,4.828a15.761,15.761,0,0,0,.051,12.416c1.405,3.352,4.245,4.727,7.792,4.7s6.336-1.452,7.69-4.828a49.715,49.715,0,0,0,1.481-6.187Z" transform="translate(6.755 -92.832)" fill="#595959"/>
          <path id="Path_1133" data-name="Path 1133" d="M202.028,106.078c.46,2.223.894,4.445,1.431,7.052.335-.715.511-1.022.665-1.354a10.588,10.588,0,0,1,12.164-5.9,7.91,7.91,0,0,1,6.157,5.519,13.589,13.589,0,0,1,.485,7.281,1.452,1.452,0,0,1-.792,1c-2.428.639-4.88,1.175-7.332,1.737-.077-1.533-.077-2.964-.256-4.368-.335-2.5-1.686-4.088-3.552-4.42a4.58,4.58,0,0,0-5.237,2.964,15.855,15.855,0,0,0-1.175,5.442c-.153,5.314-.051,10.628-.051,15.942v1.686h-9.584V106.1C197.327,106.078,199.626,106.078,202.028,106.078Z" transform="translate(8.999 -92.818)" fill="#595959"/>
          <path id="Path_1134" data-name="Path 1134" d="M118.661,139.32c-3.4,0-6.591.051-9.76-.051-.409,0-.971-.665-1.175-1.15-4.036-9.5-8.023-19.034-12.033-28.537-1.916-4.548-3.832-9.069-5.722-13.617-.2-.486-.383-.971-.613-1.584,3.352,0,6.54-.026,9.708.051.383,0,.945.559,1.124,1q5.139,12.071,10.166,24.144c2.555,6.107,5.11,12.186,7.69,18.293a10.426,10.426,0,0,1,.616,1.456Z" transform="translate(3.432 -93.409)" fill="#595959"/>
          <path id="Path_1135" data-name="Path 1135" d="M109.6,94.358c3.423,0,6.591-.051,9.76.051.435.026,1.022.741,1.252,1.252q4.828,11.3,9.555,22.661,4.062,9.657,8.124,19.34c.2.486.383.971.639,1.636-3.423,0-6.669.026-9.943-.051-.357,0-.818-.715-1.022-1.175q-5.557-13.106-11.06-26.264C114.528,106.109,112.127,100.361,109.6,94.358Z" transform="translate(4.499 -93.411)" fill="#595959"/>
          <path id="Path_1136" data-name="Path 1136" d="M152.112,94.358c-3.352,10.552-6.591,20.822-9.943,31.4-.282-.588-.46-.945-.588-1.3-1.558-3.782-3.143-7.562-4.65-11.369a3.211,3.211,0,0,1-.153-1.89c1.452-5.212,3.016-10.373,4.469-15.585.282-.971.665-1.3,1.686-1.277C145.9,94.409,148.892,94.358,152.112,94.358Z" transform="translate(5.928 -93.413)" fill="#595959"/>
        </g>
      </g>
    </g>
  </g>
</svg>
