<svg xmlns="http://www.w3.org/2000/svg" xmlns:xlink="http://www.w3.org/1999/xlink" width="244" height="128" viewBox="0 0 244 128">
  <defs>
    <clipPath id="clip-path">
      <rect id="Rectangle_236" data-name="Rectangle 236" width="244" height="128" transform="translate(-0.22 0.133)" fill="#7c7c7c"/>
    </clipPath>
  </defs>
  <g id="Mask_Group_2" data-name="Mask Group 2" transform="translate(0.22 -0.133)" opacity="0.7" clip-path="url(#clip-path)">
    <g id="Cowork-logo" transform="translate(0 43.276)">
      <g id="Group_364" data-name="Group 364" transform="translate(0 0)">
        <path id="Path_1129" data-name="Path 1129" d="M34.817,101.516c0-1.052.046-1.944,0-2.836a7.378,7.378,0,0,0-2.927-5.557C28,89.944,18.512,89.258,13.915,94.289a14.032,14.032,0,0,0-3.476,9.65c-.091,4.345.617,8.484,4.048,11.617,4.391,4.048,12.966,4.254,17.586.457a7.746,7.746,0,0,0,2.973-6.22v-2.355c2.63.3,5.305.549,7.981.96.3.046.686.915.709,1.395a13.536,13.536,0,0,1-6.472,12.235,21.232,21.232,0,0,1-8.873,3.087A32.3,32.3,0,0,1,15.4,124.5c-8.118-2.15-13.2-8.073-14.11-16.4a26.51,26.51,0,0,1,.48-9.4c1.6-6.38,5.42-10.908,11.548-13.2a28.873,28.873,0,0,1,22,.686c5.443,2.333,8.37,6.632,8.416,12.715,0,.983-.3,1.486-1.326,1.6C39.916,100.807,37.4,101.173,34.817,101.516Z" transform="translate(-1.088 -83.655)" fill="#747474"/>
        <path id="Path_1130" data-name="Path 1130" d="M212.527,114.458v10.154h-8.461V84.546H212.5v15.665c.48-.526.709-.732.892-.983,4.254-5.58,13.332-5.42,17.494-2.607,4.757,3.2,4.871,10.7.137,14.293a35.254,35.254,0,0,1-4.139,2.424c2.516,3.636,5.054,7.364,7.729,11.228-.434.046-.732.137-1.029.137-2.424,0-4.848-.023-7.272.023a1.808,1.808,0,0,1-1.784-.938c-1.738-2.79-3.59-5.511-5.351-8.278a1.886,1.886,0,0,0-1.967-1.075C215.729,114.549,214.22,114.458,212.527,114.458Zm3.888-4.322v.046a12.716,12.716,0,0,0,2.47-.023,23.97,23.97,0,0,0,4.94-1.395A3.888,3.888,0,0,0,226,104.441a4,4,0,0,0-3.247-3.453,7.888,7.888,0,0,0-10.222,8.21c.046.663.252.96.892.96C214.425,110.136,215.409,110.136,216.415,110.136Z" transform="translate(9.613 -83.608)" fill="#747474"/>
        <path id="Path_1131" data-name="Path 1131" d="M47.1,109.534c0-8.484,5.42-14.361,13.9-15.162a22.916,22.916,0,0,1,9.239.755c5.74,1.784,9.239,5.6,10.131,11.594.778,5.214-.137,10.016-4.048,13.881a14.593,14.593,0,0,1-7.135,3.75,22.723,22.723,0,0,1-11.548-.252C50.869,122.112,47.1,116.875,47.1,109.534Zm25.064.32a44.247,44.247,0,0,0-1.166-5.443,6.924,6.924,0,0,0-6.929-4.642c-3.5-.023-6.037,1.464-7.2,4.459a14.191,14.191,0,0,0,.091,10.862c1.212,2.9,3.567,4.208,6.655,4.3,3.11.091,5.717-.96,7.021-3.888A41.569,41.569,0,0,0,72.159,109.854Z" transform="translate(1.338 -83.098)" fill="#747474"/>
        <path id="Path_1132" data-name="Path 1132" d="M169.946,109.667c-.046,8.393-5.351,14.316-13.744,14.979a27.563,27.563,0,0,1-8.347-.435c-8.713-1.944-12.257-8.941-11.3-16.923.892-7.432,6.174-12.349,13.812-12.9a29.031,29.031,0,0,1,7.844.389C165.761,96.358,169.969,101.869,169.946,109.667Zm-8.461-.091A40.624,40.624,0,0,0,160.09,104c-1.258-3.087-3.842-4.276-7.066-4.208-3.133.046-5.557,1.349-6.769,4.322a14.108,14.108,0,0,0,.046,11.114c1.258,3,3.8,4.231,6.975,4.208s5.671-1.3,6.883-4.322A44.5,44.5,0,0,0,161.485,109.576Z" transform="translate(6.046 -83.094)" fill="#747474"/>
        <path id="Path_1133" data-name="Path 1133" d="M180.836,94.951c.412,1.99.8,3.979,1.281,6.312.3-.64.457-.915.595-1.212A9.477,9.477,0,0,1,193.6,94.768a7.08,7.08,0,0,1,5.511,4.94,12.164,12.164,0,0,1,.434,6.517,1.3,1.3,0,0,1-.709.892c-2.173.572-4.368,1.052-6.563,1.555-.069-1.372-.069-2.653-.229-3.91-.3-2.241-1.509-3.659-3.179-3.956a4.1,4.1,0,0,0-4.688,2.653,14.192,14.192,0,0,0-1.052,4.871c-.137,4.757-.046,9.513-.046,14.27v1.509H174.5V94.974C176.628,94.951,178.686,94.951,180.836,94.951Z" transform="translate(8.055 -83.082)" fill="#747474"/>
        <path id="Path_1134" data-name="Path 1134" d="M106.214,124.706c-3.041,0-5.9.046-8.736-.046-.366,0-.869-.595-1.052-1.029-3.613-8.507-7.181-17.037-10.771-25.544-1.715-4.071-3.43-8.118-5.122-12.189-.183-.435-.343-.869-.549-1.418,3,0,5.854-.023,8.69.046.343,0,.846.5,1.006.892q4.6,10.805,9.1,21.611c2.287,5.466,4.574,10.908,6.883,16.374A9.331,9.331,0,0,1,106.214,124.706Z" transform="translate(3.072 -83.611)" fill="#747474"/>
        <path id="Path_1135" data-name="Path 1135" d="M98.1,84.46c3.064,0,5.9-.046,8.736.046.389.023.915.663,1.121,1.121q4.322,10.119,8.553,20.284,3.636,8.644,7.272,17.311c.183.435.343.869.572,1.464-3.064,0-5.969.023-8.9-.046-.32,0-.732-.64-.915-1.052q-4.974-11.731-9.9-23.509C102.515,94.979,100.365,89.834,98.1,84.46Z" transform="translate(4.027 -83.613)" fill="#747474"/>
        <path id="Path_1136" data-name="Path 1136" d="M136.156,84.46c-3,9.445-5.9,18.638-8.9,28.105-.252-.526-.412-.846-.526-1.166-1.395-3.385-2.813-6.769-4.162-10.176a2.874,2.874,0,0,1-.137-1.692c1.3-4.665,2.7-9.285,4-13.95.252-.869.595-1.166,1.509-1.143C130.6,84.506,133.274,84.46,136.156,84.46Z" transform="translate(5.306 -83.614)" fill="#747474"/>
      </g>
    </g>
  </g>
</svg>
