<svg xmlns="http://www.w3.org/2000/svg" xmlns:xlink="http://www.w3.org/1999/xlink" width="245" height="128" viewBox="0 0 245 128">
  <defs>
    <clipPath id="clip-path">
      <rect id="Rectangle_235" data-name="Rectangle 235" width="245" height="128" transform="translate(-0.445 0.133)" fill="#7c7c7c"/>
    </clipPath>
  </defs>
  <g id="Mask_Group_1" data-name="Mask Group 1" transform="translate(0.445 -0.133)" opacity="0.7" clip-path="url(#clip-path)">
    <g id="Arya-logo" transform="translate(64.049 0)">
      <g id="Group_363" data-name="Group 363" transform="translate(0 0)">
        <path id="Path_1107" data-name="Path 1107" d="M106.025,54.416c.07-.1.155-.211.225-.309a57.984,57.984,0,0,1-3.444-11.541,13.628,13.628,0,0,0-8.87-10.177,5.131,5.131,0,0,1-.633-.365c.127-.056.169-.1.211-.1a6.856,6.856,0,0,1,.773.169,13.591,13.591,0,0,0,12.9-2.685c2.825-2.249,5.763-4.33,8.659-6.48.365-.267.773-.478,1.293-.8-.492-.211-.843-.38-1.195-.492q-4.048-1.349-8.1-2.671A15.057,15.057,0,0,0,95.89,19.99a25.14,25.14,0,0,0-7.759,6.382c2.221-.647,4.358-1.321,6.522-1.856,2.882-.717,5.9-.829,6.761-.3a28.283,28.283,0,0,0-13.509,5.623c.576.3,1.082.548,1.588.8-.014.042-.042.084-.056.127l-1.729-.365c1.209,5.032,3.95,9.039,7.2,12.778-3.894-2.432-6.508-6.016-9.081-9.713a38.3,38.3,0,0,0,.773,5.412,16.754,16.754,0,0,0,4.976,9.039A13.492,13.492,0,0,0,95.3,50.437C98.842,51.885,102.454,53.108,106.025,54.416ZM79.443,41.553v.506c-.127,2.84-.478,5.679-.337,8.49.2,3.922.759,7.83,1.153,11.752a70.4,70.4,0,0,1,.169,16.137,29.98,29.98,0,0,1-6.536,15.589c-1.392,1.687-2.966,3.219-4.442,4.793a5.351,5.351,0,0,0,.59-.183,17.928,17.928,0,0,0,7.127-5,29.257,29.257,0,0,0,7.085-18.808,114.284,114.284,0,0,0-1.181-18.6,57.165,57.165,0,0,1,.3-18.569c.309-1.532.717-3.036,1.082-4.569-1.167,1.026-2.291,2.066-3.472,3.022a10.633,10.633,0,0,1-3.922,2.165,20.988,20.988,0,0,0,6.663-7.731c-1.476.183-2.8.3-4.091.492a9.782,9.782,0,0,0-8.012,5.974c-.7,1.6-1.5,3.149-2.319,4.7-.436.843-1,1.631-1.631,2.671C71.8,43.76,75.859,43.971,79.443,41.553ZM69.055,86c-.042.014-.07.028-.112.042a3.387,3.387,0,0,0,0-.534c-.127-.787-.225-1.588-.394-2.362-1.406-6.087-4.836-10.444-10.8-12.623a31.7,31.7,0,0,0-8.125-1.349,32,32,0,0,1-10.81-2.685c-2.39-1.125-2.966-2.53-2.01-4.976.562-1.42,1.279-2.8,1.982-4.161a1.335,1.335,0,0,0-.211-1.827,9.54,9.54,0,0,1-1.1-1.167c-.38-.52-.956-1.04-.45-1.813a1.636,1.636,0,0,1,2.094-.661c.169.056.337.1.689.2-.633-.829-1.195-1.448-1.631-2.137-.886-1.364-1.406-2.685.886-3.4a1.65,1.65,0,0,0,.155-.07c2.137-1.026,2.432-2.094,1.1-4.062-.38-.562-.815-1.1-1.223-1.645-.576-.787-1.195-1.546-1.715-2.376a1.407,1.407,0,0,1,.8-2.263c1-.38,2.01-.7,2.994-1.11a34.158,34.158,0,0,0,8.842-4.667,4.85,4.85,0,0,0,1.884-2.91c.141-.731.365-1.434.492-2.165A54.249,54.249,0,0,1,60.213,4.752c.112-.169.225-.337.337-.52s.2-.351.281-.52a30.59,30.59,0,0,0-5.848,6.79,32.47,32.47,0,0,0-4.85,13.326c-.422,2.825-1.237,5.314-4.231,6.4-.141.056-.267.127-.408.183-2.657,1.082-5.285,2.221-7.97,3.233-2.8,1.054-3.781,3.514-2.263,6.1a15.744,15.744,0,0,0,1.476,2.109c.576.717,1.251,1.364,1.884,2.052-3.36,1.476-4.569,2.418-2.572,6.3-.183.127-.365.267-.562.394a2.6,2.6,0,0,0-1.125,3.093,9.29,9.29,0,0,0,1.335,2.46,1.038,1.038,0,0,1,.1,1.251A38.157,38.157,0,0,0,34.138,61.4a5.316,5.316,0,0,0,2.46,6.663,28.512,28.512,0,0,0,5.468,2.249c3.641,1.125,7.45,1.251,11.2,1.715C59,72.76,63.643,75.445,66.6,80.575A55,55,0,0,1,69.055,86Zm43.211,25.556c-.9,0-1.617.042-2.319-.014-.773-.07-1.012.211-1,1,.028,2.362.028,4.737-.07,7.113a2.128,2.128,0,0,1-2.348,2.333c-1.6.056-3.2.084-4.793,0-2.376-.127-3.135-.97-3.135-3.36-.014-3.528,0-7.057,0-10.571,0-2.418,0-2.4-2.46-2.348-.548.014-.8.141-.8.745.028,4.625-.028,9.249.042,13.86.056,3.317,1.9,5.018,5.229,5.018h31.994c.323,0,.633-.028.984-.042v-3.233c-.351-.014-.675-.042-.984-.042-2.249,0-4.5-.028-6.747.014a1.39,1.39,0,0,1-1.462-.9,5.649,5.649,0,0,1,.112-5.215,3.345,3.345,0,0,1,5.791-.07c.127.211.253.436.394.689.928-.45,1.8-.872,2.657-1.293a6.644,6.644,0,0,0-11.485-1.026,8.232,8.232,0,0,0-.745,7.689h-9.446C112.688,118.445,112.041,115.043,112.266,111.557Zm-81.277.014v1.082c0,2.305,0,4.625-.028,6.93-.014,1.631-.661,2.362-2.291,2.418-1.659.056-3.317.07-4.976-.028-2.151-.141-2.9-.928-2.924-3.093-.042-2.938-.028-5.862-.028-8.8,0-1.209.028-2.432-.028-3.641-.014-.253-.309-.675-.506-.689-.872-.07-1.757-.028-2.685-.028-.028.3-.056.492-.056.689,0,4.5-.028,9,.014,13.509.028,3.135,1.56,5.173,4.217,5.314,2.868.141,5.749.1,8.6-.042a3.828,3.828,0,0,0,3.781-3.781c.169-3.064.127-6.157.141-9.235a.8.8,0,0,0-.52-.576C32.858,111.529,32,111.571,30.989,111.571ZM84.237,17.08c1.659,2.615,2.235,5.567,2.755,8.589a18.066,18.066,0,0,0,1.082-3.331c.886-4.287.239-8.181-3.107-11.344-.52-.492-.97-1.04-1.476-1.532-.97-.928-1.954-1.856-2.882-2.727-.506,2.685-.956,5.257-1.462,7.83-.534,2.7-.548,5.3,1.054,7.689a23.283,23.283,0,0,0,4.639,4.934A22.238,22.238,0,0,0,84.237,17.08Zm8.476,63.889c3.936-3.05,5.665-7.141,4.428-11.934-.886-3.43-2.783-6.382-4.484-9.418-1.884-3.346-3.711-6.719-5.44-10.149A26.986,26.986,0,0,1,85.9,45.405a16.626,16.626,0,0,0,.084,6.354c.8,3.95,2.643,7.506,4.273,11.147a80.737,80.737,0,0,1,3.275,8.223A12.184,12.184,0,0,1,92.713,80.969ZM84.307,28.241c-.661-.942-1.223-1.729-1.785-2.516a9.94,9.94,0,0,0-9.966-4.259c-2.08.253-4.189.155-6.283.225-.155,0-.323.014-.717.042,1.364,1.757,2.643,3.317,3.852,4.962,3.078,4.2,8.617,4.836,13.256,3.331-5.075-1.645-7.043-2.558-7.745-3.7A18.513,18.513,0,0,0,84.307,28.241Zm-6.691,96.951a1.531,1.531,0,0,0,.351.1c4.47.014,8.94.014,13.41.028.52,0,.661-.239.647-.7-.028-1.1.028-2.193-.014-3.289a11.3,11.3,0,0,0-1.532-5.763c-2.207-3.4-5.721-4.245-9.095-3.95-.155.014-.422.267-.422.422-.042.787-.014,1.588-.014,2.446.436.028.787.042,1.125.056,4.091.112,6.41,2.4,6.635,6.466.042.759-.141,1.054-.956,1.04-3.05-.042-6.1-.014-9.151-.014-.309,0-.619.028-.97.056C77.616,123.154,77.616,124.152,77.616,125.192ZM44.1,118.15h.141v-4.344c0-2.221,0-2.179-2.235-2.235-.857-.028-1.04.281-1.04,1.054.028,3.458,0,6.93.028,10.388.014,2.277-.8,4.456-3.669,4.625a.8.8,0,0,0-.6.464c-.478,2.024-.014,2.5,2.024,2.179,3.247-.52,4.99-2.179,5.314-5.468C44.273,122.592,44.1,120.357,44.1,118.15Zm6.719,7.141V108c0-2.39,0-2.362-2.362-2.362-.689,0-.857.253-.857.886.028,1.6,0,3.191,0,4.793,0,4.344,0,8.7.014,13.045,0,.394-.127.9.52.914C49,125.319,49.839,125.291,50.823,125.291Zm5.06-90.372c1.153.464,2-.112,2.854-.59.056.084.112.169.183.267-.337.211-.675.422-1.04.647a4.744,4.744,0,0,0,4.765-1.673,6.781,6.781,0,0,1-7.225-2.544c-1.49.337-2.783.619-4.034.9.8.6,1.841.408,2.882.267a2.488,2.488,0,0,0,.014.323c-.647.141-1.293.267-1.968.408.9.9,1.926.731,3.036.6-.365.2-.731.38-1.082.576.014.07.014.127.028.2h2.5C56.46,34.525,56.235,34.68,55.884,34.919ZM28.374,132c0-.928.028-1.743-.014-2.572-.014-.211-.253-.59-.408-.6-.9-.056-1.8-.028-2.741-.028v3.191C26.252,132,27.236,132,28.374,132Zm80.518-3.177c0,.97-.014,1.884.014,2.783,0,.155.267.408.422.422.872.042,1.743.014,2.685.014v-3.093l-2.418-.169C109.413,128.777,109.244,128.8,108.892,128.819ZM31.017,128.8v3.135c2.825.52,3.261.169,3.121-2.46,0-.084.028-.2-.014-.267-.1-.155-.239-.394-.365-.394C32.858,128.791,31.959,128.8,31.017,128.8Zm72.07,3.121c2.938.506,3.3.211,3.191-2.376,0-.056.028-.141-.014-.169-.2-.2-.38-.52-.6-.548a9.878,9.878,0,0,0-2.038-.014.735.735,0,0,0-.52.492C103.059,130.182,103.087,131.068,103.087,131.925ZM63.053,104.247v3.078c2.671.633,3.3.127,3.093-2.46,0-.028.014-.07,0-.084-.169-.183-.337-.492-.534-.506C64.782,104.205,63.952,104.247,63.053,104.247Zm5.848.028c-.323,3.149-.141,3.374,2.46,3.163.056,0,.141.014.169-.014.155-.127.436-.267.436-.422.042-.9.014-1.8.014-2.727Zm-22.8-1.054c1.012-1.026,1.968-.52,2.924.112a7.063,7.063,0,0,0,1.223.7,1.205,1.205,0,0,0,1.518-.6,4.034,4.034,0,0,0,.337-1.125c-.084-.028-.169-.07-.253-.1a1.746,1.746,0,0,1-2.488.112,4.944,4.944,0,0,0-1.617-.886,2.027,2.027,0,0,0-1.406.38A.876.876,0,0,0,46.1,103.221Z" transform="translate(-17.457 -3.712)" fill="#7c7c7c"/>
        <path id="Path_1108" data-name="Path 1108" d="M102.6,53.692c-3.57-1.321-7.183-2.53-10.7-3.992a13.492,13.492,0,0,1-3.725-2.516A16.7,16.7,0,0,1,83.2,38.145a38.011,38.011,0,0,1-.773-5.412c2.586,3.7,5.187,7.281,9.081,9.713-3.247-3.739-6-7.759-7.2-12.778l1.729.365c.014-.042.042-.084.056-.127-.506-.253-1.012-.506-1.588-.8a28.283,28.283,0,0,1,13.509-5.623c-.857-.548-3.88-.422-6.761.3-2.165.534-4.3,1.223-6.522,1.856a24.785,24.785,0,0,1,7.759-6.382,15.057,15.057,0,0,1,11.962-1.026q4.048,1.328,8.1,2.671c.351.112.7.281,1.195.492-.52.323-.928.52-1.293.8-2.9,2.151-5.848,4.231-8.659,6.48a13.6,13.6,0,0,1-12.9,2.685c-.253-.07-.52-.112-.773-.169-.042-.014-.1.042-.211.1a5.13,5.13,0,0,0,.633.365,13.628,13.628,0,0,1,8.87,10.177,60.2,60.2,0,0,0,3.444,11.541C102.754,53.481,102.67,53.593,102.6,53.692Z" transform="translate(-14.032 -2.988)" fill="#747474"/>
        <path id="Path_1109" data-name="Path 1109" d="M76.929,40.209c-3.585,2.418-7.647,2.221-11.794,2.84.633-1.04,1.181-1.827,1.631-2.671.815-1.546,1.617-3.107,2.319-4.7A9.744,9.744,0,0,1,77.1,29.708c1.307-.2,2.615-.323,4.091-.492a21.1,21.1,0,0,1-6.663,7.731,10.524,10.524,0,0,0,3.922-2.165c1.181-.956,2.305-2,3.472-3.022-.365,1.532-.787,3.036-1.082,4.569a57.559,57.559,0,0,0-.3,18.569,114.288,114.288,0,0,1,1.181,18.6A29.411,29.411,0,0,1,74.638,92.3a17.928,17.928,0,0,1-7.127,5,5.353,5.353,0,0,1-.59.183C68.4,95.9,69.971,94.37,71.363,92.7A30.028,30.028,0,0,0,77.9,77.108a70.417,70.417,0,0,0-.169-16.137c-.394-3.922-.956-7.83-1.153-11.752-.141-2.825.211-5.665.337-8.49A4.708,4.708,0,0,0,76.929,40.209Z" transform="translate(-14.943 -2.367)" fill="#747474"/>
        <path id="Path_1110" data-name="Path 1110" d="M68.235,86c-.8-1.8-1.462-3.683-2.432-5.384C62.851,75.5,58.227,72.8,52.477,72.069c-3.753-.478-7.563-.6-11.2-1.715A27.791,27.791,0,0,1,35.806,68.1a5.33,5.33,0,0,1-2.46-6.663A36.952,36.952,0,0,1,35,57.436a1.04,1.04,0,0,0-.1-1.251,10.439,10.439,0,0,1-1.335-2.46A2.618,2.618,0,0,1,34.7,50.632c.183-.127.38-.267.562-.394-2.01-3.866-.787-4.822,2.572-6.3-.647-.689-1.307-1.335-1.884-2.052A17.145,17.145,0,0,1,34.47,39.78c-1.5-2.586-.534-5.046,2.263-6.1,2.685-1.012,5.314-2.151,7.97-3.233.141-.056.267-.141.408-.183,2.994-1.082,3.809-3.57,4.231-6.4a32.47,32.47,0,0,1,4.85-13.326,29.923,29.923,0,0,1,5.848-6.79c-.1.169-.183.351-.281.52s-.225.351-.337.52a54.249,54.249,0,0,0-7.816,20.523c-.127.731-.351,1.434-.492,2.165a4.872,4.872,0,0,1-1.884,2.91,35.037,35.037,0,0,1-8.842,4.667c-.984.408-2,.731-2.994,1.11a1.407,1.407,0,0,0-.8,2.263c.52.829,1.139,1.588,1.715,2.376.408.548.829,1.082,1.223,1.645,1.335,1.954,1.04,3.036-1.1,4.062a.753.753,0,0,1-.155.07c-2.291.717-1.771,2.038-.886,3.4.45.689,1,1.321,1.631,2.137-.365-.1-.534-.141-.689-.2a1.631,1.631,0,0,0-2.094.661c-.52.773.056,1.279.45,1.813a8.566,8.566,0,0,0,1.1,1.167A1.335,1.335,0,0,1,38,57.393a41.723,41.723,0,0,0-1.982,4.161c-.956,2.446-.38,3.852,2.01,4.976a32.247,32.247,0,0,0,10.81,2.685,31.9,31.9,0,0,1,8.125,1.349c5.96,2.179,9.4,6.536,10.8,12.623.183.773.281,1.574.394,2.362a3.387,3.387,0,0,1,0,.534A.125.125,0,0,1,68.235,86Z" transform="translate(-16.637 -3.71)" fill="#747474"/>
        <path id="Path_1111" data-name="Path 1111" d="M108.366,106.449c-.239,3.486.408,6.9-.59,10.346h9.446a8.24,8.24,0,0,1,.745-7.689,6.4,6.4,0,0,1,3.95-2.671,6.313,6.313,0,0,1,7.535,3.7c-.857.422-1.729.843-2.657,1.293-.141-.253-.267-.464-.394-.689a3.345,3.345,0,0,0-5.791.07,5.649,5.649,0,0,0-.112,5.215,1.386,1.386,0,0,0,1.462.9c2.249-.042,4.5-.028,6.747-.014.323,0,.633.028.984.042v3.233c-.351.014-.675.042-.984.042H96.712c-3.346,0-5.187-1.7-5.229-5.018-.07-4.625-.014-9.235-.042-13.86,0-.6.253-.731.8-.745,2.446-.056,2.446-.07,2.46,2.348V113.52c0,2.39.759,3.233,3.135,3.36,1.588.084,3.2.07,4.793,0a2.128,2.128,0,0,0,2.348-2.333c.084-2.362.1-4.737.07-7.113-.014-.787.225-1.054,1-1C106.763,106.492,107.466,106.449,108.366,106.449Z" transform="translate(-13.556 1.395)" fill="#747474"/>
        <path id="Path_1112" data-name="Path 1112" d="M30.989,106.463c1.012,0,1.87-.042,2.713.028a.772.772,0,0,1,.52.576c-.014,3.078.028,6.157-.141,9.235a3.828,3.828,0,0,1-3.781,3.781c-2.868.141-5.749.183-8.6.042-2.657-.127-4.189-2.179-4.217-5.314-.042-4.5-.014-9-.014-13.509,0-.2.028-.394.056-.689.928,0,1.813-.042,2.685.028.2.014.492.45.506.689.056,1.209.028,2.432.028,3.641,0,2.938-.014,5.862.028,8.8.028,2.165.773,2.952,2.924,3.093,1.659.1,3.317.084,4.976.028,1.631-.056,2.277-.773,2.291-2.418.028-2.305.014-4.625.028-6.93Z" transform="translate(-17.457 1.396)" fill="#747474"/>
        <path id="Path_1113" data-name="Path 1113" d="M81.163,16.928a22.336,22.336,0,0,1,.6,10.135,23.283,23.283,0,0,1-4.639-4.934c-1.6-2.4-1.588-5-1.054-7.689.506-2.572.97-5.159,1.462-7.83.928.886,1.912,1.8,2.882,2.727.506.492.97,1.04,1.476,1.532C85.24,14.018,85.872,17.911,85,22.213a20.92,20.92,0,0,1-1.082,3.331C83.4,22.494,82.822,19.542,81.163,16.928Z" transform="translate(-14.384 -3.559)" fill="#747474"/>
        <path id="Path_1114" data-name="Path 1114" d="M72.572,112.577c.014,4.344-2.9,7.366-7.127,7.394s-7.225-3.107-7.253-7.52a7.006,7.006,0,0,1,7.169-7.3C69.592,105.112,72.558,108.177,72.572,112.577Zm-3.261-.014a15.586,15.586,0,0,0-.52-2.123,3.553,3.553,0,0,0-3.135-2.39,3.415,3.415,0,0,0-3.388,1.659,5.546,5.546,0,0,0,.267,5.791,3.553,3.553,0,0,0,3.486,1.476,3.369,3.369,0,0,0,2.825-2.39A13.807,13.807,0,0,0,69.311,112.562Z" transform="translate(-15.309 1.636)" fill="#747474"/>
        <path id="Path_1115" data-name="Path 1115" d="M89.3,78.88a12.1,12.1,0,0,0,.8-9.826,81.406,81.406,0,0,0-3.275-8.223c-1.631-3.641-3.472-7.2-4.273-11.147a16.626,16.626,0,0,1-.084-6.354,26.984,26.984,0,0,0,1.321,4.062c1.729,3.43,3.556,6.8,5.44,10.149,1.715,3.036,3.6,5.988,4.484,9.418C94.964,71.725,93.249,75.83,89.3,78.88Z" transform="translate(-14.043 -1.623)" fill="#747474"/>
        <path id="Path_1116" data-name="Path 1116" d="M81.9,27.358a18.566,18.566,0,0,1-9.4-1.912c.7,1.139,2.671,2.052,7.745,3.7-4.625,1.5-10.177.872-13.256-3.331-1.195-1.645-2.488-3.2-3.852-4.962.394-.028.562-.042.717-.042,2.094-.07,4.217.028,6.283-.225A9.965,9.965,0,0,1,80.1,24.841C80.69,25.629,81.238,26.416,81.9,27.358Z" transform="translate(-15.049 -2.828)" fill="#747474"/>
        <path id="Path_1117" data-name="Path 1117" d="M74.6,119.792v-3.121c.351-.014.661-.056.97-.056,3.05,0,6.1-.028,9.151.014.815.014,1-.281.956-1.04-.225-4.062-2.558-6.34-6.635-6.466-.351-.014-.689-.028-1.125-.056,0-.872-.028-1.659.014-2.446a.634.634,0,0,1,.422-.422c3.388-.3,6.9.548,9.095,3.95a11.342,11.342,0,0,1,1.532,5.763c.056,1.1,0,2.193.014,3.289.014.464-.127.717-.647.7-4.47-.014-8.94-.014-13.41-.028C74.87,119.89,74.786,119.848,74.6,119.792Z" transform="translate(-14.444 1.688)" fill="#747474"/>
        <path id="Path_1118" data-name="Path 1118" d="M43.148,112.749c0,2.221.169,4.456-.042,6.649-.323,3.289-2.066,4.948-5.314,5.468-2.038.323-2.5-.155-2.024-2.179a.827.827,0,0,1,.6-.464c2.868-.169,3.683-2.348,3.669-4.625-.028-3.458,0-6.93-.028-10.388-.014-.787.183-1.082,1.04-1.054,2.235.07,2.235.014,2.235,2.235v4.344A.527.527,0,0,1,43.148,112.749Z" transform="translate(-16.501 1.689)" fill="#747474"/>
        <path id="Path_1119" data-name="Path 1119" d="M49.313,120.185c-.984,0-1.827.014-2.685,0-.647-.014-.52-.52-.52-.914-.014-4.344-.014-8.7-.014-13.045,0-1.6.028-3.191,0-4.793-.014-.633.169-.886.857-.886,2.362,0,2.362-.028,2.362,2.362v15.182C49.313,118.723,49.313,119.384,49.313,120.185Z" transform="translate(-15.947 1.393)" fill="#747474"/>
        <path id="Path_1120" data-name="Path 1120" d="M54.185,33.551c.337-.239.576-.394.9-.619h-2.5c-.014-.07-.014-.127-.028-.2.365-.2.731-.38,1.082-.576-1.1.127-2.137.3-3.036-.6.675-.141,1.321-.281,1.968-.408a2.488,2.488,0,0,0-.014-.323,3.729,3.729,0,0,1-2.882-.267c1.251-.281,2.544-.562,4.034-.9A6.79,6.79,0,0,0,60.933,32.2a4.754,4.754,0,0,1-4.765,1.673c.365-.225.7-.436,1.04-.647-.056-.084-.112-.169-.183-.267C56.181,33.438,55.338,34.015,54.185,33.551Z" transform="translate(-15.758 -2.344)" fill="#747474"/>
        <path id="Path_1121" data-name="Path 1121" d="M27.987,125.731H24.81V122.54c.942,0,1.841-.028,2.741.028.155.014.408.38.408.6C28.015,123.988,27.987,124.818,27.987,125.731Z" transform="translate(-17.069 2.552)" fill="#747474"/>
        <path id="Path_1122" data-name="Path 1122" d="M104.313,122.555c.351-.014.52-.042.7-.028l2.418.169v3.093c-.928,0-1.813.014-2.685-.014a.634.634,0,0,1-.422-.422C104.3,124.439,104.313,123.525,104.313,122.555Z" transform="translate(-12.878 2.552)" fill="#747474"/>
        <path id="Path_1123" data-name="Path 1123" d="M30.338,122.54c.928,0,1.841-.014,2.741.014.127,0,.253.239.365.394.042.056.014.169.014.267.141,2.629-.3,2.98-3.121,2.46C30.338,124.677,30.338,123.665,30.338,122.54Z" transform="translate(-16.778 2.553)" fill="#747474"/>
        <path id="Path_1124" data-name="Path 1124" d="M98.8,125.662c0-.857-.028-1.743.028-2.615a.735.735,0,0,1,.52-.492,10.968,10.968,0,0,1,2.038.014c.225.028.408.351.6.548.028.028,0,.112.014.169C102.1,125.873,101.723,126.168,98.8,125.662Z" transform="translate(-13.169 2.551)" fill="#747474"/>
        <path id="Path_1125" data-name="Path 1125" d="M60.769,99.213c.9,0,1.743-.028,2.558.028.183.014.351.323.534.506.014.014,0,.056,0,.084.211,2.586-.422,3.093-3.093,2.46Z" transform="translate(-15.173 1.323)" fill="#747474"/>
        <path id="Path_1126" data-name="Path 1126" d="M66.33,99.239h3.093c0,.928.014,1.827-.014,2.727,0,.141-.281.281-.436.422-.042.028-.112.014-.169.014C66.189,102.613,66.007,102.388,66.33,99.239Z" transform="translate(-14.887 1.324)" fill="#747474"/>
        <path id="Path_1127" data-name="Path 1127" d="M44.678,98.329a.892.892,0,0,1,.239-1.42,2.009,2.009,0,0,1,1.406-.38,4.944,4.944,0,0,1,1.617.886,1.745,1.745,0,0,0,2.488-.112c.084.028.169.07.253.1a4.034,4.034,0,0,1-.337,1.125,1.205,1.205,0,0,1-1.518.6,6.257,6.257,0,0,1-1.223-.7C46.646,97.809,45.7,97.3,44.678,98.329Z" transform="translate(-16.035 1.18)" fill="#747474"/>
      </g>
    </g>
  </g>
</svg>
