<svg xmlns="http://www.w3.org/2000/svg" xmlns:xlink="http://www.w3.org/1999/xlink" width="300" height="143" viewBox="0 0 300 143">
  <defs>
    <clipPath id="clip-path">
      <rect id="Rectangle_240" data-name="Rectangle 240" width="300" height="143" transform="translate(110 1635)" fill="#ccc"/>
    </clipPath>
    <clipPath id="clip-path-2">
      <rect id="Rectangle_240-2" data-name="Rectangle 240" width="273.711" height="143" transform="translate(-0.442 0.483)" fill="#ccc"/>
    </clipPath>
  </defs>
  <g id="Mask_Group_6" data-name="Mask Group 6" transform="translate(-110 -1635)" clip-path="url(#clip-path)">
    <g id="Mask_Group_6-2" data-name="Mask Group 6" transform="translate(123.587 1634.518)" opacity="0.7" clip-path="url(#clip-path-2)">
      <g id="Zafa-logo" transform="translate(70.312)">
        <g id="Group_370" data-name="Group 370">
          <path id="Path_1270" data-name="Path 1270" d="M81.108,15.663c0-.273,0-.545.016-.818l.636-5.873A14.719,14.719,0,0,0,88.1,13.5c1.634.681,3.315,1.257,4.98,1.877,4.768,1.756,9.6,3.36,14.274,5.328a24.121,24.121,0,0,1,10.5,8.267c3.118,4.405,3.95,9.384,3.557,14.652a6.07,6.07,0,0,0-.515,1.528c-.076,1.229-.03,2.467-.03,3.844-.439-.363-.7-.559-.938-.756a19.193,19.193,0,0,0-5.308-8.645c-.136.923-.287,1.514-.318,2.1-.136,2.3-.273,4.586-.335,6.887a2.481,2.481,0,0,1-1.287,2.392,30.436,30.436,0,0,1-5.131,2.528c-6.7,1.953-12.594.2-17.664-4.435-1.484-1.347-2.755-2.921-4.117-4.405a.419.419,0,0,0-.046-.2,18.852,18.852,0,0,1-1.21-2.238c-1.151-3-2.24-6.024-3.361-9.049a.39.39,0,0,0-.016-.223c-.121-1.847-.335-3.708-.318-5.555C80.836,23.473,81,19.568,81.108,15.663Zm31.8,22.357a13.26,13.26,0,0,0-1.665-1.287c-3.421-1.71-6.781-3.6-10.308-5.041-4.874-1.983-9.9-3.617-14.859-5.4l-2.332-.862a11.608,11.608,0,0,0,.349,1.181,25.894,25.894,0,0,0,7.22,9.72c5.661,4.556,11.882,6.024,18.815,3.164a30.344,30.344,0,0,0,2.781-1.471ZM92.143,46.057c2.467,3.92,8.386,6.04,12.382,4.357a25.688,25.688,0,0,1-12.382-4.357Z" transform="translate(-10.257 -0.895)" fill="#595959"/>
          <path id="Path_1271" data-name="Path 1271" d="M50.965,83.2l-.242.287c-1.877,2.649-3.739,5.283-5.661,7.992a5,5,0,0,1,.106-.969c.726-2.376,1.332-4.814,2.24-7.114,3.3-8.355,8.7-12.959,18.966-12.927a71.644,71.644,0,0,1,15.348,2.074c8.839,1.953,17.513,4.692,26.61,5.343,10.006.712,18.21-1.847,23.31-11.67.106,1.257.212,2.528.3,3.784-.59,2.123-1.014,4.3-1.8,6.342-2.876,7.508-7.962,12.5-16.166,13.88a40.878,40.878,0,0,1-14.859-.606c-6.629-1.317-13.168-3.058-19.783-4.42-4.117-.848-8.31-1.317-12.472-1.967-.772,0-1.564-.016-2.332-.016h-4.85a2.918,2.918,0,0,0-.016-.363c10.762-4.389,21.721-3.814,32.786-1.09,1.3.454,2.6.894,3.89,1.347.046-.136.106-.273.151-.423-1.151-.515-2.3-1.014-3.451-1.528C83.9,77.036,74.457,74.614,64.35,76.294a22.578,22.578,0,0,0-13.385,6.9Z" transform="translate(-12.143 2.123)" fill="#595959"/>
          <path id="Path_1272" data-name="Path 1272" d="M84.2,104.13c-.62-.7-1.165-1.317-1.8-2.029-.712.756-1.271,1.362-1.893,2.029.7.67,1.271,1.211,1.893,1.787C83.063,105.25,83.624,104.689,84.2,104.13Zm3.587-2.011c-.67.7-1.241,1.287-1.923,1.967.681.651,1.287,1.211,1.787,1.695.712-.636,1.3-1.151,1.967-1.741-.636-.683-1.181-1.242-1.832-1.924Z" transform="translate(-10.274 4.015)" fill="#fdfdfd"/>
          <path id="Path_1273" data-name="Path 1273" d="M72.617,122.444c-.016-1.151-.09-2.3-.06-3.451.136-4.916,4.177-10.581,10.747-10.293,1.287.06,2.589-.016,3.89.016a12.136,12.136,0,0,1,1.271.151v.394a3.479,3.479,0,0,1-.848.212c-1.347.03-2.681.016-4.022.016-4.011,0-6.1,1.468-7.477,5.222a16.331,16.331,0,0,0-.166,9.324c1.1-2.876,3.663-3.724,6.085-4.753,1.634-.7,3.3-1.317,4.935-1.983a4.255,4.255,0,0,0,3.042-4.646,14.049,14.049,0,0,1,.03-2.876c.046-.409.469-.772.726-1.151.651,0,1.287.016,1.937.016-.016,5.6.136,11.217-.09,16.817-.121,3.042,1.075,4.828,4.072,4.828,2.831,0,5.661.016,8.491.016h2.134a8.512,8.512,0,0,0-.7-.636,12.005,12.005,0,0,1-4.108-14.821,10.449,10.449,0,0,1,7.583-6.222v.016h7.373c.016.182.03.349.06.53a5.085,5.085,0,0,1-1.059.223c-1.528.016-3.072.016-4.6-.03a5.9,5.9,0,0,0-5.783,3.315,14.676,14.676,0,0,0,.046,14.349,6.345,6.345,0,0,0,11.337-.2,13.972,13.972,0,0,0,1.5-5.328c.242-3.678.121-7.387.151-11.08v-1.665h2.8v2.755c0,2.921-.03,5.857,0,8.779.06,4.935-3.587,11.095-10.914,10.884-4.98-.136-9.975-.016-14.97-.03-3.345,0-4.022-.454-5.4-3.617a8.044,8.044,0,0,0-.832.682c-6.024,6.236-14.107,2.936-16.6-4.072-.182-.5-.318-1-.485-1.5A.335.335,0,0,0,72.617,122.444Zm17.619-6.368c-1.907,1.045-3.481,1.893-5.055,2.77a41.929,41.929,0,0,0-4.8,2.815,5.569,5.569,0,0,0-1.181,6.918,3.647,3.647,0,0,0,3.285,1.937c3.557.046,6.266-2.164,7.038-6.282a80.088,80.088,0,0,0,.709-8.158Z" transform="translate(-10.694 4.359)" fill="#595959"/>
          <path id="Path_1274" data-name="Path 1274" d="M19.852,21.91c1.8-1.726,3.587-3.463,5.4-5.161.67-.621.379-1.045-.121-1.544-1.6-1.59-3.164-3.209-4.783-4.768-.772-.726-.772-1.271-.016-2.011,2.2-2.134,4.357-4.313,6.509-6.509.7-.712,1.229-.894,2.011-.076Q32.1,5.2,35.472,8.44c.772.742.742,1.271-.016,2-1.831,1.756-3.6,3.575-5.494,5.474.454.53.832,1,1.257,1.423,1.452,1.452,2.921,2.9,4.405,4.329a1.011,1.011,0,0,1,.016,1.695c-2.346,2.346-4.678,4.678-6.978,7.054-.59.59-1.029.485-1.564-.06-2.316-2.362-4.662-4.692-6.962-7.068a3.3,3.3,0,0,1-.485-1.151,1.316,1.316,0,0,1,.2-.223Zm12.472.651c.106-.106.212-.212.318-.335a11.7,11.7,0,0,0-5.055-4.844c1.725,1.894,3.239,3.528,4.737,5.178Zm.151-13.168a10.138,10.138,0,0,0-4.889-5.041c1.71,1.77,3.3,3.4,4.889,5.04Z" transform="translate(-13.482 -1.299)" fill="#595959"/>
          <path id="Path_1275" data-name="Path 1275" d="M68.075,100.006c-.515.878-1.377,1.741-1.452,2.649-.2,2.558-.076,5.131-.076,7.932H72.54c0,.182.016.349.016.53H66.3v20.465H63.715V111.36c-1.287-.09-2.422-.166-3.541-.242v-.439c1.09-.076,2.18-.136,3.575-.223v-5.888c.09-.379.2-.756.287-1.151,1.877-4.435,4.692-5.783,9.067-4.405.848.273,1.229.651.862,1.6-1.6-.848-3.178-1.862-5.1-1.059C68.62,99.7,68.347,99.855,68.075,100.006Z" transform="translate(-11.346 3.825)" fill="#595959"/>
          <path id="Path_1276" data-name="Path 1276" d="M132.355,108.615a7.2,7.2,0,0,1,.257,1.362c.016,6.9.03,13.82-.016,20.722a12.066,12.066,0,0,1-.53,3.527,6.8,6.8,0,0,1-10.581,3.587,18.717,18.717,0,0,1-2.089-1.877c.076-.106.136-.2.212-.3.3.151.606.287.923.439l.223.223a11.135,11.135,0,0,0,1.787,1.392c3.148,1.62,6.055.409,6.9-3a20.274,20.274,0,0,0,.559-4.678c.076-4.874.016-9.763.03-14.635,0-2.24.06-4.5.09-6.736C130.857,108.63,131.6,108.615,132.355,108.615Z" transform="translate(-8.224 4.359)" fill="#595959"/>
          <path id="Path_1277" data-name="Path 1277" d="M44.842,131.261a24.168,24.168,0,0,1-2.921-.712,5.316,5.316,0,0,1-1.468-9.264A40.147,40.147,0,0,1,46.31,118.3c1.817-.923,3.617-1.877,5.418-2.831.076.287.136.575.212.862-2.452,1.257-4.935,2.467-7.357,3.8a5.6,5.6,0,0,0-3.345,4.678c-.121,1.983.257,3.769,2.074,4.859a5.672,5.672,0,0,0,5.994-.166,5.635,5.635,0,0,1,1.347-.681c-1.117,1.771-3.028,2-4.844,2.422C45.493,131.261,45.16,131.261,44.842,131.261Z" transform="translate(-12.498 4.72)" fill="#595959"/>
          <path id="Path_1278" data-name="Path 1278" d="M117.745,49.06c.076-.862.151-1.71.223-2.57.257.2.5.409.938.756,0-1.377-.046-2.619.03-3.844a5.877,5.877,0,0,1,.515-1.528q-.25,4.042-.515,8.083C118.548,49.65,118.139,49.363,117.745,49.06Z" transform="translate(-8.311 0.84)" fill="#a8a8a8"/>
          <path id="Path_1279" data-name="Path 1279" d="M127.321,66.455c.651-1.6,1.317-3.224,1.967-4.828.136.046.273.076.393.121-.681,2.831-1.377,5.676-2.059,8.506C127.534,68.983,127.428,67.726,127.321,66.455Z" transform="translate(-7.806 1.881)" fill="#a9a9a9"/>
          <path id="Path_1280" data-name="Path 1280" d="M123.226,50.5c.409.3.8.59,1.211.894-.166,2.528-.223,5.085-.515,7.6-.53,4.692-3.254,7.916-7.327,10.02a26.907,26.907,0,0,1-14.412,2.649c-14.747-1-27.186-7.175-37.917-17.12-.242-.223-.5-.439-.756-.67a3.014,3.014,0,0,0-.287-.121,11.442,11.442,0,0,0-.984.848A55.9,55.9,0,0,1,44.364,66.718c-.439.2-.832.454-1.257.681-3.088.848-6.16,1.877-9.294,2.513C28.136,71.048,22.46,71.03,17,68.7a.538.538,0,0,1-.136-.06c-3.511-1.847-3.194-1.241-2.9-4.935.273-3.5.559-6.978.681-10.475.166-5.161,1.332-9.884,5.51-13.381,4.541-2.845,9.823-3.708,14.712-5.631,6.585-2.589,10.445-7.523,12.289-14.2.287-1.059.454-2.149.67-3.224.2-.636.379-1.257.681-2.24.818,2.123,1.484,3.95,2.225,5.737A59.849,59.849,0,0,0,60.606,36.42c.756.862,1.564,1.695,2.286,2.57s1.287.878,2.011-.06a28.35,28.35,0,0,0,5.921-13.7.568.568,0,0,1,.3-.439c.121.772.273,1.544.379,2.332a31.772,31.772,0,0,1-1.847,16.534,1.767,1.767,0,0,0,.182,1.59c1.787,1.347,3.693,2.558,5.555,3.83a52.738,52.738,0,0,0,13.939,6.66,47.838,47.838,0,0,0,17.529,2.543c4.768-.242,9.324-1.287,13.138-4.329a29.09,29.09,0,0,0,3.224-3.453ZM38.568,64.637l4.042-2.452c-.06-.106-.121-.212-.182-.3-1.5.621-3,1.229-4.48,1.847a29.633,29.633,0,0,1-14.138,1C28.744,67.135,33.679,67.438,38.568,64.637Zm9.082-36.691c-.379,1.695-.651,3.148-1.014,4.586C44.728,40.086,40.4,45.492,32.875,48.061c-2.225.756-4.45,1.514-6.721,2.149a20.738,20.738,0,0,0-7.038,3.5,7.2,7.2,0,0,0-1.075,1.408,6.7,6.7,0,0,0,1.468,1.014,27.8,27.8,0,0,0,13.214,1.1,50.933,50.933,0,0,0,23.189-9.521c1.1-.782,1.075-1.362.423-2.437-1.862-3.058-3.708-6.145-5.344-9.354C49.753,33.455,48.845,30.822,47.649,27.946Z" transform="translate(-13.792 -0.6)" fill="#595959"/>
          <path id="Path_1281" data-name="Path 1281" d="M32.2,110.558H20.814v-.606c4.783-.016,9.581-.016,14.668,0-.894,1.484-1.6,2.709-2.346,3.92-3.118,5.116-6.327,10.166-9.324,15.364a3.058,3.058,0,0,1-4.022,1.65C23.856,124.211,27.9,117.582,32.2,110.558Z" transform="translate(-13.476 4.429)" fill="#595959"/>
          <path id="Path_1282" data-name="Path 1282" d="M51.811,116.663c-.076-.287-.136-.575-.212-.862.969-3.24-.606-5.434-3.95-5.51a8.348,8.348,0,0,0-6.629,3.072c-.423-1.045-.212-1.665.621-2.149a11.192,11.192,0,0,1,9.4-1.09c2.346.742,3.587,2.739,3.648,5.631.06,3.016,0,6.04.016,9.049a20.778,20.778,0,0,0,.136,2.57c.349,2.5.772,2.891,3.128,3.058a2.692,2.692,0,0,1-3.557.016,5.112,5.112,0,0,1-2.059-3.814c-.182-2.77-.2-5.54-.3-8.325a8.862,8.862,0,0,0-.238-1.643Z" transform="translate(-12.367 4.408)" fill="#595959"/>
          <path id="Path_1283" data-name="Path 1283" d="M35.575,129.908H25.191C26.038,129.272,33.894,129.106,35.575,129.908Z" transform="translate(-13.191 5.453)" fill="#595959"/>
          <path id="Path_1284" data-name="Path 1284" d="M111.763,104.345c.5-.742,1.014-1.484,1.564-2.3.756.742,1.332,1.287,2.029,1.953-.606.636-1.165,1.229-1.787,1.862-.67-.559-1.241-1.045-1.8-1.514Z" transform="translate(-8.626 4.012)" fill="#4e4e4e"/>
          <path id="Path_1285" data-name="Path 1285" d="M84.2,104.13c-.575.575-1.135,1.117-1.8,1.787-.606-.575-1.181-1.117-1.893-1.787.62-.67,1.181-1.271,1.893-2.029C83.033,102.813,83.578,103.418,84.2,104.13Z" transform="translate(-10.274 4.015)" fill="#595959"/>
          <path id="Path_1286" data-name="Path 1286" d="M87.517,102.111c.651.681,1.2,1.257,1.831,1.923-.67.59-1.257,1.1-1.967,1.741-.5-.485-1.1-1.045-1.787-1.695Z" transform="translate(-10.006 4.016)" fill="#595959"/>
          <path id="Path_1287" data-name="Path 1287" d="M68.476,8.092l4.588,4.632c1,1.075.7,1.862-.318,2.815-2.1,1.953-4.087,4.022-6.085,6.1-.726.756-1.257.782-2.011.016-2.164-2.24-4.375-4.42-6.6-6.6-.67-.651-.848-1.181-.106-1.907q3.5-3.405,6.948-6.872c.559-.559,1-.559,1.564.03A26.614,26.614,0,0,0,68.476,8.092ZM65.3,19.216a7.8,7.8,0,0,0-4.45-4.572C62.33,16.175,63.814,17.7,65.3,19.216Z" transform="translate(-11.489 -1.059)" fill="#595959"/>
          <path id="Path_1288" data-name="Path 1288" d="M130.161,102.1c.726.712,1.287,1.257,1.937,1.893-.651.681-1.181,1.257-1.877,1.983-.575-.726-1.075-1.392-1.634-2.1C129.011,103.4,129.556,102.781,130.161,102.1Z" transform="translate(-7.739 4.015)" fill="#595959"/>
          <path id="Path_1289" data-name="Path 1289" d="M136.425,43.173c1.09,1.151,2.164,2.3,3.27,3.436.5.5.8.954.166,1.574-2.589,2.558-5.161,5.131-7.78,7.75a3.687,3.687,0,0,1-.62-.393c-2.422-2.406-4.814-4.828-7.235-7.22-.606-.59-.67-1.045-.03-1.665q3.5-3.405,6.932-6.9c.67-.681,1.165-.606,1.8.046,1.117,1.151,2.316,2.256,3.5,3.375Zm-8.714,4.783c.818.969,2.18,2.57,3.541,4.193a8.136,8.136,0,0,0-3.546-4.193Z" transform="translate(-7.995 0.703)" fill="#595959"/>
        </g>
      </g>
    </g>
  </g>
</svg>
