<svg xmlns="http://www.w3.org/2000/svg" xmlns:xlink="http://www.w3.org/1999/xlink" width="300" height="143" viewBox="0 0 300 143">
  <defs>
    <clipPath id="clip-path">
      <rect id="Rectangle_235" data-name="Rectangle 235" width="300" height="143" transform="translate(110 1440)" fill="#ccc"/>
    </clipPath>
    <clipPath id="clip-path-2">
      <rect id="Rectangle_241" data-name="Rectangle 241" width="273.711" height="143" transform="translate(-0.544 0.483)" fill="#ccc"/>
    </clipPath>
  </defs>
  <g id="Mask_Group_1" data-name="Mask Group 1" transform="translate(-110 -1440)" clip-path="url(#clip-path)">
    <g id="Mask_Group_7" data-name="Mask Group 7" transform="translate(123.688 1439.518)" opacity="0.7" clip-path="url(#clip-path-2)">
      <g id="Amwal" transform="translate(44.347)">
        <path id="Path_1290" data-name="Path 1290" d="M178.938,132.071H15.082a8.121,8.121,0,0,1-8.11-8.11V19.877a8.121,8.121,0,0,1,8.11-8.11H178.938a8.121,8.121,0,0,1,8.11,8.11V123.961a8.081,8.081,0,0,1-8.11,8.11Z" transform="translate(-4.357 -11.767)" fill="#595959"/>
        <path id="Path_1291" data-name="Path 1291" d="M59.848,66.456H53.206c3.384-23.307-5.3-39.59-11.3-40.229-3.193-.32-14.687,5.427-11.941,40.229H22.939c-1.277-18.9,3-42.4,18.326-43.107C55.314,22.716,61.763,43.469,59.848,66.456Z" transform="translate(-3.527 -11.157)" fill="#fff"/>
        <path id="Path_1292" data-name="Path 1292" d="M41.535,41.55,29.717,53.364H53.349Z" transform="translate(-3.158 -10.198)" fill="#9e9e9e"/>
        <path id="Path_1293" data-name="Path 1293" d="M93.032,46.355V65.512h-8.3V49.229a.958.958,0,1,0-1.916,0V65.512h-8.3V49.229a.958.958,0,0,0-1.916,0V65.512H64.3V46.355a8.331,8.331,0,0,1,7.663-5.109H72.6a10.182,10.182,0,0,1,1.916.383,8.167,8.167,0,0,1,4.15,3,8.165,8.165,0,0,1,4.15-3,10.182,10.182,0,0,1,1.916-.383h.639a8.331,8.331,0,0,1,7.658,5.109Z" transform="translate(-1.335 -10.213)" fill="#fff"/>
        <path id="Path_1294" data-name="Path 1294" d="M95.838,61.01V41.853h8.3V58.136a.958.958,0,0,0,1.916,0V41.853h8.3V58.136a.958.958,0,1,0,1.916,0V41.853h8.3V61.01a8.331,8.331,0,0,1-7.663,5.109h-.639a10.181,10.181,0,0,1-1.916-.383,8.166,8.166,0,0,1-4.15-3,8.166,8.166,0,0,1-4.15,3,10.181,10.181,0,0,1-1.916.383H103.5a8.331,8.331,0,0,1-7.661-5.109Z" transform="translate(0.327 -10.181)" fill="#fff"/>
        <path id="Path_1295" data-name="Path 1295" d="M147.782,45.943v19.6h-7.663V50.542a2.234,2.234,0,0,0-4.469,0v3.512H138.2V60.44H135.65v5.109h-7.663V47.034a11.752,11.752,0,0,1,7.663-6.13,11.19,11.19,0,0,1,2.554-.32,9.745,9.745,0,0,1,1.916.191,11.574,11.574,0,0,1,7.662,5.168Z" transform="translate(2.022 -10.248)" fill="#fff"/>
        <line id="Line_188" data-name="Line 188" transform="translate(162.575 55.299)" fill="#fff"/>
        <path id="Path_1296" data-name="Path 1296" d="M159.242,64.3Z" transform="translate(3.653 -8.998)" fill="#fff"/>
        <path id="Path_1297" data-name="Path 1297" d="M162.531,58.488v7.024h-3.193a8.647,8.647,0,0,1-8.3-8.62V41.251h8.3V58.488Z" transform="translate(3.238 -10.213)" fill="#fff"/>
        <line id="Line_189" data-name="Line 189" x1="0.127" transform="translate(20.497 97.763)" fill="none" stroke="#000" stroke-miterlimit="10" stroke-width="0.642"/>
        <path id="Path_1298" data-name="Path 1298" d="M52.061,74.305v33.588a7,7,0,0,1-6.386,4.087H30.984a7,7,0,0,1-6.9-5.747,8.653,8.653,0,0,1-.127-1.277V87.715h8.3v16.407a2.123,2.123,0,0,0,2.107,2.107H42.35a2.123,2.123,0,0,0,2.107-2.107V74.305Z" transform="translate(-3.462 -8.471)" fill="#fff"/>
        <rect id="Rectangle_242" data-name="Rectangle 242" width="8.301" height="30.012" transform="translate(57.534 65.835)" fill="#fff"/>
        <rect id="Rectangle_243" data-name="Rectangle 243" width="8.301" height="30.012" transform="translate(156.829 66.154)" fill="#fff"/>
        <path id="Path_1299" data-name="Path 1299" d="M140.108,80.977h-9.514a8.421,8.421,0,0,0-8.429,8.429v4.406a4.415,4.415,0,0,1-4.406,4.406H98.536V84.366A3.946,3.946,0,0,0,97,81.939h0a3.813,3.813,0,0,0-2.234-.957H82.9a8.552,8.552,0,0,0-3.128.639,7.922,7.922,0,0,0-4.853,7.343v7.663a7.922,7.922,0,0,0,4.853,7.339h9.514a.958.958,0,1,1,0,1.916H76.192v5.747H90.559a12.442,12.442,0,0,0,1.6-.127,7.893,7.893,0,0,0,6.066-5.619,6.688,6.688,0,0,0,.314-1.916h24.2a.782.782,0,0,0,.639-.32,2.482,2.482,0,0,1,1.98-.957h.191a2.761,2.761,0,0,1,1.724.83h0a7.836,7.836,0,0,0,2.49.447h10.344a7.537,7.537,0,0,0,7.343-5.747,8.67,8.67,0,0,0,.191-1.852v-7.79a7.485,7.485,0,0,0-7.532-7.6ZM90.556,97.9H86.214a3.979,3.979,0,0,1-3.959-3.959V91.705a4.006,4.006,0,0,1,4.022-4.022h4.279ZM141,94.771a3.734,3.734,0,0,1-3.767,3.767h-4.6a3.734,3.734,0,0,1-3.767-3.767v-4.6a3.734,3.734,0,0,1,3.767-3.767h4.6A3.734,3.734,0,0,1,141,90.173Z" transform="translate(-0.775 -8.119)" fill="#fff"/>
        <g id="Group_371" data-name="Group 371" transform="translate(153.252 67.687)">
          <path id="Path_1300" data-name="Path 1300" d="M165.583,81.812c0,1.533-3.193,2.363-9.514,2.363a58.649,58.649,0,0,1-6-.256l.83-1.341a50.977,50.977,0,0,0,5.173.32,27.473,27.473,0,0,0,3.9-.191c.766-.127,1.213-.32,1.213-.639s-.383-.574-1.15-.766a30.072,30.072,0,0,0-3.9-.7,19.567,19.567,0,0,1-3.959-.894c-1.086-.383-1.66-.894-1.66-1.469,0-.7.7-1.213,2.171-1.6a25.706,25.706,0,0,1,6.194-.574q3.352,0,5.556.191l-.639,1.341a39.761,39.761,0,0,0-4.916-.32q-4.022,0-4.022.766c0,.256.32.511.957.639.511.127,1.724.32,3.512.574a25.042,25.042,0,0,1,4.343.894C164.945,80.6,165.583,81.108,165.583,81.812Z" transform="translate(-150.066 -76.064)" fill="#9e9e9e"/>
        </g>
        <g id="Group_372" data-name="Group 372" transform="translate(0 128.669)">
          <path id="Path_1301" data-name="Path 1301" d="M11.513,142.963H7.3L6.4,145.517H4.489L8.576,134.6H10.3l4.15,10.919H12.47Zm-3.64-1.527H11L9.4,136.9Z" transform="translate(-4.489 -133.96)" fill="#595959"/>
          <path id="Path_1302" data-name="Path 1302" d="M16.4,137.277l.064.83a3.031,3.031,0,0,1,2.363-1.022,2.218,2.218,0,0,1,2.234,1.213,2.818,2.818,0,0,1,2.49-1.213,2.458,2.458,0,0,1,1.98.766,3.152,3.152,0,0,1,.639,2.171v5.3H24.379v-5.236a1.9,1.9,0,0,0-.32-1.15,1.315,1.315,0,0,0-1.086-.383,1.766,1.766,0,0,0-1.022.32,1.817,1.817,0,0,0-.574.894v5.556H19.59v-5.3c0-.957-.511-1.4-1.469-1.4a1.651,1.651,0,0,0-1.533.894v5.874H14.8v-8.11h1.6Z" transform="translate(-3.945 -133.829)" fill="#595959"/>
          <path id="Path_1303" data-name="Path 1303" d="M34.662,142.826l1.277-5.619h1.787l-2.234,8.11H34.023L32.3,139.76l-1.724,5.556H29.106l-2.234-8.11h1.788L30,142.762l1.66-5.556H33Z" transform="translate(-3.309 -133.822)" fill="#595959"/>
          <path id="Path_1304" data-name="Path 1304" d="M43.319,145.326a3.185,3.185,0,0,1-.191-.766,3.026,3.026,0,0,1-4.087.191,2.186,2.186,0,0,1-.766-1.724,2.234,2.234,0,0,1,.957-1.98,4.7,4.7,0,0,1,2.746-.7h1.086v-.511a1.348,1.348,0,0,0-.383-1.022,1.4,1.4,0,0,0-1.086-.383,1.766,1.766,0,0,0-1.022.32.911.911,0,0,0-.383.766H38.4a2.075,2.075,0,0,1,.447-1.277,2.431,2.431,0,0,1,1.213-.894,4.875,4.875,0,0,1,1.724-.32,3.653,3.653,0,0,1,2.3.7,2.634,2.634,0,0,1,.894,1.98v3.64a4.146,4.146,0,0,0,.32,1.724v.127h-1.98Zm-1.983-1.277a1.874,1.874,0,0,0,1.022-.256,1.5,1.5,0,0,0,.7-.7v-1.532H42.1a2.585,2.585,0,0,0-1.533.383,1.1,1.1,0,0,0-.511,1.022,1.214,1.214,0,0,0,.32.83A1.428,1.428,0,0,0,41.336,144.049Z" transform="translate(-2.707 -133.832)" fill="#595959"/>
          <path id="Path_1305" data-name="Path 1305" d="M48.433,145.486H46.646V133.992h1.787Z" transform="translate(-2.266 -133.992)" fill="#595959"/>
          <path id="Path_1306" data-name="Path 1306" d="M56.2,141.436v4.022H54.289V134.538h4.15a4.111,4.111,0,0,1,2.873.957,3.24,3.24,0,0,1,1.086,2.49,3.016,3.016,0,0,1-1.022,2.49,4.48,4.48,0,0,1-2.937.894H56.2Zm0-1.533h2.3a2.1,2.1,0,0,0,1.533-.447,1.881,1.881,0,0,0,.511-1.4,1.987,1.987,0,0,0-.511-1.4,2.042,2.042,0,0,0-1.469-.511h-2.3V139.9Z" transform="translate(-1.863 -133.963)" fill="#595959"/>
          <path id="Path_1307" data-name="Path 1307" d="M68.372,145.326a3.184,3.184,0,0,1-.191-.766,3.026,3.026,0,0,1-4.087.191,2.186,2.186,0,0,1-.766-1.724,2.234,2.234,0,0,1,.957-1.98,4.7,4.7,0,0,1,2.746-.7h1.086v-.511a1.348,1.348,0,0,0-.383-1.022,1.4,1.4,0,0,0-1.086-.383,1.766,1.766,0,0,0-1.022.32.911.911,0,0,0-.383.766H63.456a2.075,2.075,0,0,1,.447-1.277,2.431,2.431,0,0,1,1.213-.894,4.875,4.875,0,0,1,1.724-.32,3.653,3.653,0,0,1,2.3.7,2.634,2.634,0,0,1,.894,1.98v3.64a4.146,4.146,0,0,0,.32,1.724v.127H68.372Zm-1.98-1.277a1.874,1.874,0,0,0,1.022-.256,1.5,1.5,0,0,0,.7-.7v-1.532H67.16a2.585,2.585,0,0,0-1.533.383,1.1,1.1,0,0,0-.511,1.022,1.214,1.214,0,0,0,.32.83,1.428,1.428,0,0,0,.955.255Z" transform="translate(-1.386 -133.832)" fill="#595959"/>
          <path id="Path_1308" data-name="Path 1308" d="M74.309,142.759l1.66-5.491h1.916l-3.193,9.323a2.657,2.657,0,0,1-2.49,2.043,5.011,5.011,0,0,1-.894-.127v-1.4h.32a1.509,1.509,0,0,0,1.022-.256,2.123,2.123,0,0,0,.574-.83l.256-.7-2.873-8.044h1.98Z" transform="translate(-1.003 -133.819)" fill="#595959"/>
          <path id="Path_1309" data-name="Path 1309" d="M80.391,137.277l.064.83a3.031,3.031,0,0,1,2.363-1.022,2.218,2.218,0,0,1,2.234,1.213,2.817,2.817,0,0,1,2.49-1.213,2.458,2.458,0,0,1,1.98.766,3.152,3.152,0,0,1,.639,2.171v5.3H88.37v-5.236a1.9,1.9,0,0,0-.32-1.15,1.315,1.315,0,0,0-1.086-.383,1.766,1.766,0,0,0-1.022.32,1.817,1.817,0,0,0-.574.894v5.556H83.58v-5.3c0-.957-.511-1.4-1.469-1.4a1.651,1.651,0,0,0-1.533.894v5.874H78.791v-8.11h1.6Z" transform="translate(-0.571 -133.829)" fill="#595959"/>
          <path id="Path_1310" data-name="Path 1310" d="M95.063,145.511a3.852,3.852,0,0,1-2.81-1.086,4.005,4.005,0,0,1-1.09-2.878v-.256a4.719,4.719,0,0,1,.447-2.171,3.338,3.338,0,0,1,1.341-1.469,3.9,3.9,0,0,1,1.916-.511,3.185,3.185,0,0,1,2.554,1.086,4.67,4.67,0,0,1,.894,3v.7H93.019a2.585,2.585,0,0,0,.639,1.6,2.023,2.023,0,0,0,1.469.574,2.4,2.4,0,0,0,2.043-1.022l.957.957a3.687,3.687,0,0,1-1.277,1.15A3.217,3.217,0,0,1,95.063,145.511Zm-.191-6.96a1.634,1.634,0,0,0-1.213.511,2.386,2.386,0,0,0-.574,1.469h3.448V140.4a2.176,2.176,0,0,0-.511-1.4,1.452,1.452,0,0,0-1.15-.448Z" transform="translate(0.082 -133.826)" fill="#595959"/>
          <path id="Path_1311" data-name="Path 1311" d="M101.138,137.273l.064.957a2.972,2.972,0,0,1,2.363-1.086c1.66,0,2.554.957,2.554,2.873v5.362h-1.787v-5.236a1.9,1.9,0,0,0-.32-1.15,1.315,1.315,0,0,0-1.086-.383,1.8,1.8,0,0,0-1.66,1.022v5.747H99.478v-8.11Z" transform="translate(0.519 -133.826)" fill="#595959"/>
          <path id="Path_1312" data-name="Path 1312" d="M110.011,135.387v1.98h1.4v1.341h-1.4v4.534a.7.7,0,0,0,.83.83,2.172,2.172,0,0,0,.639-.064v1.4a4.009,4.009,0,0,1-1.213.191q-2.107,0-2.107-2.3v-4.6h-1.341v-1.341h1.341v-1.98Z" transform="translate(0.906 -133.918)" fill="#595959"/>
          <path id="Path_1313" data-name="Path 1313" d="M117.248,143.152a.911.911,0,0,0-.383-.766,3.575,3.575,0,0,0-1.341-.447,6.116,6.116,0,0,1-1.533-.511,2.087,2.087,0,0,1-1.341-1.916,2.123,2.123,0,0,1,.894-1.724,3.592,3.592,0,0,1,2.234-.7,3.985,3.985,0,0,1,2.363.7,2.108,2.108,0,0,1,.894,1.852h-1.787a1.26,1.26,0,0,0-.383-.894,1.319,1.319,0,0,0-1.022-.32,1.539,1.539,0,0,0-.957.256.91.91,0,0,0-.383.766.7.7,0,0,0,.383.639,5.123,5.123,0,0,0,1.4.447,4.558,4.558,0,0,1,1.66.574,2.69,2.69,0,0,1,.894.766,2.153,2.153,0,0,1,.32,1.086,2.234,2.234,0,0,1-.894,1.788,3.849,3.849,0,0,1-2.363.7,4.079,4.079,0,0,1-1.788-.383,3.674,3.674,0,0,1-1.213-.957,2.123,2.123,0,0,1-.447-1.341h1.787a1.241,1.241,0,0,0,.511,1.022,1.821,1.821,0,0,0,1.213.32,1.708,1.708,0,0,0,1.086-.256C117.311,143.662,117.248,143.471,117.248,143.152Z" transform="translate(1.204 -133.829)" fill="#595959"/>
          <path id="Path_1314" data-name="Path 1314" d="M129.993,142.65a1.277,1.277,0,0,0-.511-1.086,5.9,5.9,0,0,0-1.852-.766,8.323,8.323,0,0,1-2.107-.894,2.727,2.727,0,0,1-.383-4.6,5.053,5.053,0,0,1,4.853-.383,3.307,3.307,0,0,1,1.4,1.213,3.212,3.212,0,0,1,.511,1.724h-1.916a1.829,1.829,0,0,0-.511-1.341,2.212,2.212,0,0,0-1.533-.511,2.5,2.5,0,0,0-1.469.383,1.2,1.2,0,0,0-.511,1.086,1.315,1.315,0,0,0,.574,1.022,5.167,5.167,0,0,0,1.852.766,7.913,7.913,0,0,1,2.043.83,3.782,3.782,0,0,1,1.15,1.086,2.645,2.645,0,0,1,.383,1.469,2.552,2.552,0,0,1-1.022,2.171,4.732,4.732,0,0,1-2.81.83,4.9,4.9,0,0,1-2.171-.447,4.179,4.179,0,0,1-1.533-1.213,2.854,2.854,0,0,1-.574-1.788h1.916a1.571,1.571,0,0,0,.639,1.4,2.973,2.973,0,0,0,1.787.511,2.372,2.372,0,0,0,1.469-.383C129.993,143.48,129.993,143.1,129.993,142.65Z" transform="translate(1.805 -133.966)" fill="#595959"/>
          <path id="Path_1315" data-name="Path 1315" d="M136.613,145.511a3.852,3.852,0,0,1-2.81-1.086,4.005,4.005,0,0,1-1.086-2.873V141.3a4.719,4.719,0,0,1,.447-2.171,3.338,3.338,0,0,1,1.341-1.469,3.9,3.9,0,0,1,1.916-.511,3.185,3.185,0,0,1,2.554,1.086,4.67,4.67,0,0,1,.894,3v.7h-5.3a2.585,2.585,0,0,0,.639,1.6,2.023,2.023,0,0,0,1.469.574,2.4,2.4,0,0,0,2.043-1.022l.957.957a3.687,3.687,0,0,1-1.277,1.15,3.217,3.217,0,0,1-1.788.321Zm-.191-6.96a1.634,1.634,0,0,0-1.213.511,2.386,2.386,0,0,0-.574,1.469h3.45V140.4a2.176,2.176,0,0,0-.511-1.4A1.452,1.452,0,0,0,136.422,138.551Z" transform="translate(2.272 -133.826)" fill="#595959"/>
          <path id="Path_1316" data-name="Path 1316" d="M145.242,138.937a3.108,3.108,0,0,0-.766-.064,1.609,1.609,0,0,0-1.66.957v5.556h-1.787v-8.11h1.724l.064.894a2.07,2.07,0,0,1,1.852-1.086,1.889,1.889,0,0,1,.639.127Z" transform="translate(2.71 -133.829)" fill="#595959"/>
          <path id="Path_1317" data-name="Path 1317" d="M149.277,143.018,151,137.209h1.852l-2.81,8.11h-1.6l-2.81-8.11h1.916Z" transform="translate(2.953 -133.822)" fill="#595959"/>
          <path id="Path_1318" data-name="Path 1318" d="M153.706,135.314a.961.961,0,0,1,.256-.7,1.277,1.277,0,0,1,1.533,0,1.094,1.094,0,0,1,0,1.4,1.277,1.277,0,0,1-1.533,0A.961.961,0,0,1,153.706,135.314Zm1.98,10.153H153.9v-8.11h1.788Z" transform="translate(3.378 -133.973)" fill="#595959"/>
          <path id="Path_1319" data-name="Path 1319" d="M160.924,144.042a1.788,1.788,0,0,0,1.15-.383,1.429,1.429,0,0,0,.511-.957h1.724a2.806,2.806,0,0,1-.447,1.4,2.752,2.752,0,0,1-1.213,1.022,3.535,3.535,0,0,1-1.66.383,3.463,3.463,0,0,1-2.681-1.086,4.424,4.424,0,0,1-1.022-3.066v-.191a4.281,4.281,0,0,1,.957-2.937,3.463,3.463,0,0,1,2.681-1.086,3.344,3.344,0,0,1,2.363.83,3.025,3.025,0,0,1,.957,2.234H162.52a1.836,1.836,0,0,0-.447-1.15,1.452,1.452,0,0,0-1.15-.447,1.528,1.528,0,0,0-1.341.639,3.257,3.257,0,0,0-.511,1.916v.32a3.367,3.367,0,0,0,.447,1.98A1.6,1.6,0,0,0,160.924,144.042Z" transform="translate(3.567 -133.826)" fill="#595959"/>
          <path id="Path_1320" data-name="Path 1320" d="M168.943,145.511a3.852,3.852,0,0,1-2.81-1.086,4.005,4.005,0,0,1-1.086-2.873V141.3a4.719,4.719,0,0,1,.447-2.171,3.338,3.338,0,0,1,1.341-1.469,3.9,3.9,0,0,1,1.916-.511,3.185,3.185,0,0,1,2.554,1.086,4.67,4.67,0,0,1,.894,3v.7h-5.3a2.585,2.585,0,0,0,.639,1.6,2.023,2.023,0,0,0,1.469.574,2.4,2.4,0,0,0,2.043-1.022l.957.957a3.687,3.687,0,0,1-1.277,1.15,3.326,3.326,0,0,1-1.787.321Zm-.191-6.96a1.634,1.634,0,0,0-1.213.511,2.386,2.386,0,0,0-.574,1.469h3.448V140.4a2.176,2.176,0,0,0-.511-1.4A1.538,1.538,0,0,0,168.752,138.551Z" transform="translate(3.976 -133.826)" fill="#595959"/>
          <path id="Path_1321" data-name="Path 1321" d="M177.844,143.152a.91.91,0,0,0-.383-.766,3.575,3.575,0,0,0-1.341-.447,6.116,6.116,0,0,1-1.533-.511,2.087,2.087,0,0,1-1.341-1.916,2.123,2.123,0,0,1,.894-1.724,3.592,3.592,0,0,1,2.234-.7,3.985,3.985,0,0,1,2.363.7,2.108,2.108,0,0,1,.894,1.852h-1.788a1.261,1.261,0,0,0-.383-.894,1.319,1.319,0,0,0-1.022-.32,1.539,1.539,0,0,0-.957.256.91.91,0,0,0-.383.766.7.7,0,0,0,.383.639,5.123,5.123,0,0,0,1.4.447,4.557,4.557,0,0,1,1.66.574,2.69,2.69,0,0,1,.894.766,2.153,2.153,0,0,1,.319,1.086,2.234,2.234,0,0,1-.894,1.788,3.849,3.849,0,0,1-2.363.7,4.079,4.079,0,0,1-1.788-.383,3.674,3.674,0,0,1-1.213-.957,2.123,2.123,0,0,1-.447-1.341h1.788a1.241,1.241,0,0,0,.511,1.022,1.821,1.821,0,0,0,1.213.32,1.708,1.708,0,0,0,1.086-.256C177.909,143.662,177.844,143.471,177.844,143.152Z" transform="translate(4.398 -133.829)" fill="#595959"/>
        </g>
      </g>
    </g>
  </g>
</svg>
