<svg xmlns="http://www.w3.org/2000/svg" xmlns:xlink="http://www.w3.org/1999/xlink" width="300" height="143" viewBox="0 0 300 143">
  <defs>
    <clipPath id="clip-path">
      <rect id="Rectangle_241" data-name="Rectangle 241" width="300" height="143" transform="translate(810 1635)" fill="#ccc"/>
    </clipPath>
    <clipPath id="clip-path-2">
      <rect id="Rectangle_238" data-name="Rectangle 238" width="272.594" height="143" transform="translate(0.258 0.149)" fill="#ccc"/>
    </clipPath>
  </defs>
  <g id="Mask_Group_8" data-name="Mask Group 8" transform="translate(-810 -1635)" clip-path="url(#clip-path)">
    <g id="Mask_Group_4" data-name="Mask Group 4" transform="translate(823.445 1634.852)" opacity="0.7" clip-path="url(#clip-path-2)">
      <g id="Layer_1_copy" transform="translate(19.433)">
        <g id="Group_368" data-name="Group 368">
          <g id="Group_367" data-name="Group 367">
            <path id="Path_1156" data-name="Path 1156" d="M140.8,84.053c.421,8.714.842,17.439,1.323,26.159.06,1.5.3,3.006.421,4.57-.962,1.443.842,2.346.661,3.668a2.511,2.511,0,0,1-1.984,1.924c-1.262.18-2.526.24-3.187-1.143-.421-.9-.482-1.865,1.022-2.646-7.577.661-14.793,0-22.069.24-5.953.18-5.953.121-8.3-5.232-.361-5.171-3.609-10.278-.361-15.575.18-.3-.541-.482-.782-.722A2.253,2.253,0,0,1,107,92.771c.6-1.143,1.865-.482,2.826-.842-1.143-1.2-.6-1.984.661-2.586a3.407,3.407,0,0,1,3.006,1.022,4.614,4.614,0,0,0-3.007-1.325,9.2,9.2,0,0,1-1.083-1.083c-.842-.842-1.5-1.8-.541-2.947s1.865-.18,2.706.24c.782.421,1.443,1.083,2.285,1.5a19.313,19.313,0,0,1-1.8-1.262c-.722-.6-2.165-.782-1.5-2.225a2.129,2.129,0,0,1,2.947-1.383,5.391,5.391,0,0,0,2.826,1.323,6.343,6.343,0,0,1-2.586-1.083c-1.143-.661-.842-1.5-.121-2.285a2,2,0,0,1,2.405-.782,20.23,20.23,0,0,1,3.248,2.165c-.6-.541-.24-.121-.541-.421-1.022-1.083-3.307-2.1-1.744-3.849,1.443-1.623,2.165,1.083,3.428,1.383.661.421,1.2.962,1.865,1.383a21.976,21.976,0,0,0-1.865-1.443c-.9-.842-2.645-1.443-1.8-3.067.782-1.443,1.865-3.067,4.029-2.646a3.624,3.624,0,0,0,2.1-.18c2.646-.541,5.232-.06,7.877.3,2.044.24,3.428,1.2,3.668,3.367a3.388,3.388,0,0,1-.9,2.766c1.984-.9,3.91-.3,5.893.06a1.968,1.968,0,0,1-.3,1.623C139.835,81.647,140.377,82.851,140.8,84.053Z" transform="translate(-10.966 -21.032)" fill="#595959"/>
            <path id="Path_1157" data-name="Path 1157" d="M143.04,118.665c.842-.3,1.083-1.083,1.262-1.865,3.248-1.744,6.736-.9,10.1-.6,1.2.121,1.564,1.143,1.564,2.285a8.572,8.572,0,0,0,.3,3.187c.121-2.044-1.5-4.57.9-6.675,3.788.06,7.577.421,11.425.18,3.307-.18,6.615,1.083,9.982-.121.121-.06.482.06.482.18a20.394,20.394,0,0,1,.121,7.637c-.18,1.623-2.044.842-3.128.842-31.992.06-63.923,0-95.915,0-.6,0-1.2-.06-1.865-.121-.541-.842-.24-1.8-.3-2.706-.06-5.412.722-6.074,6.133-5.532,1.323.121,2.466,1.143,4.089.541,1.022-.361,1.443,1.143,1.564,1.8-.842-1.684-.3-3.006,2.044-3.307a26.2,26.2,0,0,1,12.147-2.044c1.744.06,2.645-.3,2.586-2.346-.121-3.248,0-6.555.18-9.8a4.117,4.117,0,0,0-.842-2.526c.661-1.262-.06-2.405-.121-3.668a5.81,5.81,0,0,1,1.443-1.984c1.383-.06,1.022,1.5,1.8,1.984a2.911,2.911,0,0,1,2.586.9c-2.526.541-2.225,2.826-2.405,4.45-.24,1.744-.6,3.548,1.2,5.292.9.842.06,3.428.06,5.232a5.242,5.242,0,0,1,.3,4.029c-.361,1.083.6,1.083.9,1.564a4.767,4.767,0,0,0,4.33,2.285c1.8.06,3.668-.24,5.412.3a1.438,1.438,0,0,1,.9,1.262c-.06-.24.06-.842.842-1.262a70.942,70.942,0,0,1,15.154-.18,4.226,4.226,0,0,0,4.752.784Z" transform="translate(-12.488 -19.984)" fill="#1c1c1c"/>
            <path id="Path_1158" data-name="Path 1158" d="M136.033,77.855c-1.143-2.947-3.548-4.029-8.359-3.548a11.683,11.683,0,0,1-3.248-.121c-2.947.3-1.744-1.443-1.143-2.586.962-1.684,2.706-2.706,3.91-4.21-.361-1.083-1.623-.782-2.1-1.684-1.323-2.586-2.466-1.684-3.609.121a13.207,13.207,0,0,1-1.022,1.5c-1.865,2.405-2.405,2.466-4.75.24a10.685,10.685,0,0,0,2.1,1.924c3.248,2.1,3.248,3.609.06,5.833a6.038,6.038,0,0,1-2.826,1.083,4.259,4.259,0,0,1-2.526-.722c-.722-.481-1.2-1.383-2.165-1.564-1.022-.18-2.1-.24-2.225,1.2-.3,3.788-.24,3.788-3.367,1.744,0-3.006,2.165-5.051,3.128-7.637a46.259,46.259,0,0,1,2.285-4.57c.962-1.083,2.405-1.924,1.8-3.788.6-1.2,1.2-2.405,1.865-3.668,1.262-1.022,2.165-2.466,3.488-3.428.842-.6,1.865-1.2,2.706-.18.782.962-.18,1.623-.842,2.285l-1.083,1.083c2.526-2.346,3.728-2.285,6.133.06,1.022.962,1.5,2.526,3.006,2.947.722.18,1.8.541,2.225-.361.421-.962-.361-1.744-1.2-2.225-.661-.361-1.443-.121-2.1-.361-2.044-.722-4.149-1.383-3.849-4.27.782-.962,2.1-1.262,2.826-2.165,1.865-2.225,3.307-1.5,4.692.421,1.083,2.225,2.165,4.389,3.187,6.615.6,1.083-.18,2.826,1.623,3.248a4.273,4.273,0,0,1,.962,2.405c-2.586,2.225-2.586,2.706-.24,4.811.661.6,1.262,1.262,1.924,1.924,1.564,1.443,2.1,2.947.421,4.692C137,75.81,136.936,77.073,136.033,77.855Z" transform="translate(-11.074 -22.23)" fill="#131313"/>
            <path id="Path_1159" data-name="Path 1159" d="M68.762,160.755H62.207c3.248-3.067,3.428-7.156,4.631-10.824,1.5-4.45,2.586-9.081,3.91-13.53.361-1.2.06-3.128,1.684-3.248,1.8-.121,1.443,1.924,1.865,3.067,1.8,5.352,3.488,10.764,5.773,16.176,1.684-5.653,3.367-11.246,5.051-16.9.3-.9.121-2.285,1.5-2.346,1.684-.121,1.383,1.564,1.684,2.466,2.225,7.038,4.33,14.077,6.434,21.107a5.285,5.285,0,0,0,3.128,3.91H89.39c2.1-.9,1.8-2.346,1.443-3.788-1.262-4.631-2.526-9.26-4.089-13.951-1.5,5.833-4.33,11.425-4.029,17.8H75.437c2.225-1.083,2.044-2.346,1.623-3.849-1.323-4.692-2.526-9.384-4.029-14.077C71.407,148.669,68.707,154.2,68.762,160.755Z" transform="translate(-13.318 -17.816)" fill="#595959"/>
            <path id="Path_1160" data-name="Path 1160" d="M181.537,132.87c5.051.3,9.682-.661,14.188.782a10.061,10.061,0,0,1,6.976,7.516,21.115,21.115,0,0,1-.06,10.948c-1.323,5.171-5.352,8.359-11,8.6-3.248.121-6.555,0-9.922,0C184.243,157.405,184.243,136,181.537,132.87Z" transform="translate(-7.026 -17.833)" fill="#595959"/>
            <path id="Path_1161" data-name="Path 1161" d="M115.619,75.368c.541-.24,1.143-.482,1.684-.722,3.367-1.684,3.548-3.067.722-5.352-1.2-.962-1.984-2.346-3.728-2.826a1.865,1.865,0,0,1,2.645.541c1.323,1.744,2.346,1.022,3.307-.3.421-.6.782-1.2,1.2-1.8,2.285-3.367,2.285-3.307,4.811-.24.782.962,2.405.722,2.285.962-1.323,1.8-2.646,3.668-4.029,5.412-.782,1.022-1.443,1.924.482,2.405-.121.482-.3,1.083-.962.661-2.225-1.564-3.128.722-4.089,1.684-1.383,1.443,1.022,1.924,1.383,3.067l-.18.18c-1.383.3-2.165-2.586-3.248-1.083-.962,1.443,1.383,2.1,2.1,3.187.421.661,1.323.9,1.5,2.225-1.684-1.083-3.006-2.044-4.51-2.826-2.1-1.143-2.766-.06-2.526,1.984l-.18.18a2.082,2.082,0,0,0-2.706,1.383c-.361,1.443,1.262,1.2,1.984,1.744.9.6,1.924,1.083,2.947,1.684-.962,1.5-1.924.842-2.766.24-.661-.482-1.143-1.143-1.8-1.623-.6-.421-1.383-1.143-2.165-.361-.782.842-.18,1.383.541,1.984A8.808,8.808,0,0,1,111.35,89.2c.3.3.24.6-.06.9-1.022,1.2-1.022,1.2.9,3.307-1.443.6-4.811-2.285-4.029,2.1-1.323.06-1.022-1.323-1.684-1.865-.962-.421-1.984-1.383-2.947.06-1.262.421-1.323,2.165-2.706,2.466-1.022-.421-1.564.121-1.8,1.083a.654.654,0,0,1-.06.9c-1.924-.06-2.526.541-1.022,2.1.6.661,1.2,1.262,1.865,1.865l-.24.24c-1.143-.842-2.346-1.684-3.488-2.466-.6.121-.962-.121-1.022-.722,0-.962,1.022-.782,1.443-1.262.18-.361.361-.722.482-1.022-.3-1.262.9-.9,1.383-1.262a1.173,1.173,0,0,0,.541-1.262.541.541,0,0,1,.06-.842,1.517,1.517,0,0,0,1.865-.482c.482-.421.06-1.2.6-1.623.962,0,1.383-.6,1.564-1.443.361-.541,1.143-.121,1.443-.722.962-.842.361-1.564-.18-2.346.06-.06.18-.121.24-.24,1.984.9,2.346.121,1.744-1.684-.24-.962.482-1.684.541-2.586a9.728,9.728,0,0,0-.6-1.083c-.361-.722.3-.962.661-1.383.482-1.684-1.022-2.466-1.623-3.668,1.443-.962,1.744,1.143,3.128,1.022.842-1.5-2.766-4.33,1.143-4.992a2.973,2.973,0,0,1,3.548,2.165c.3,1.083-.962.782-1.262,1.383C114.115,77.293,114.115,77.293,115.619,75.368Z" transform="translate(-11.585 -21.547)"/>
            <path id="Path_1162" data-name="Path 1162" d="M134.661,77.165c0-.6.06-1.2.06-1.8.06-1.623,3.788-2.1,1.323-4.45a22.025,22.025,0,0,0-4.089-3.728c-.541-.3-1.323-1.383-1.143-1.383,2.1.06-.121-4.811,3.367-2.826,1.083,1.924,2.225,3.849,3.307,5.833.842,1.564,1.744,2.044,2.946.482A12.624,12.624,0,0,1,143.86,65.8c-.24,2.165-1.924,3.128-3.067,4.51-.361.482-.962.842-.482,1.564.421.6,1.083.482,1.684.24a.606.606,0,0,1,.06.9c.06.421-.842.6-.121,1.143a1.8,1.8,0,0,0,2.526-.24.678.678,0,0,1,.121.962c0,.842-.421,1.924,1.143,1.744.6-.121.842.06.661.661-.24.962.3,1.443,1.083,1.744.661-.121,1.022.121.842.842.482,1.984,1.443,1.2,2.346.361l4.149-4.33c.18.18.421.361.6.541-1.323,1.443-2.586,2.826-3.91,4.27-.6.661-1.443,1.383-.3,2.285,1.083.842,1.443-.361,1.924-.842,1.383-1.323,2.706-2.706,4.631-4.692-1.022,2.826-3.006,3.91-4.21,5.532-.421.6-1.323,1.2-.3,1.984.842.661,1.262-.06,1.744-.541,1.443-1.5,2.887-2.947,4.389-4.45a5.67,5.67,0,0,1,.6.6l-4.27,4.45c-.482.482-1.143.9-.421,1.744.842.962,1.443.3,1.984-.3,1.383-1.443,2.766-2.947,4.089-4.389a5.984,5.984,0,0,1,.661.6c-1.443,1.564-2.947,3.128-4.33,4.75-.421.482-1.143,1.022-.3,1.8.722.661,1.262.3,1.8-.3a32.4,32.4,0,0,1,4.57-4.51c-.482,2.225-2.285,3.367-3.668,4.811-1.143,1.143-1.383,1.984.24,2.766a.678.678,0,0,1,.962.121c-.24,1.323.541,1.623,1.564,1.8a.606.606,0,0,1,.9.06,1.441,1.441,0,0,0,.541,2.044c1.022.3,1.262-1.262,2.225-1.5a.751.751,0,0,1,1.022.121c.06,1.022-2.225,1.8-.3,2.947-.18,1.143-.6,1.924-1.984,1.262-.18-.18-.421-.361-.6-.541-.121-.782-.782-.661-1.262-.782a1.888,1.888,0,0,0-1.744-1.2c-.6.121-.842-.06-.661-.722a1.857,1.857,0,0,0-1.744-1.564c-.541-.361-.18-1.083-.661-1.443-2.285-1.5-2.346,1.443-3.668,1.8-.541.18-.722,0-.6-.6.541-.6,1.083-1.2,1.564-1.8,1.323-1.5.24-1.744-1.022-1.924-.541.18-.782,0-.6-.6-.18-.421-.421-.842-.6-1.262-1.022-.121-1.5-.9-1.924-1.744-1.623-.18-1.8-2.044-3.006-2.646a1.423,1.423,0,0,1-1.083-1.083c-.541-.6-1.083-1.2-1.984-.6a.478.478,0,0,1-.782,0c.421-.722.9-1.383-.06-2.1-.9-.722-1.323.121-1.744.541-1.262,1.323-2.466,2.706-3.668,4.029-1.564-1.083-2.165-2.225-.421-3.668,1.443.842,1.865-.482,2.826-1.383-.962-.24-1.564.541-2.285.361-1.684-1.684-1.443,1.262-2.586.962-.361-3.849-2.466.6-3.609-1.443C133.4,78.97,134.361,78.187,134.661,77.165Z" transform="translate(-9.702 -21.54)"/>
            <path id="Path_1163" data-name="Path 1163" d="M123.267,54.561c.9,2.225,2.225,3.849,4.931,3.367,2.1-.361,2.285,1.623,3.128,2.766.541.722-.24,2.044-.782,1.984-1.2-.121-2.646.661-3.668-.482-.9-.962-1.684-2.044-2.526-3.067-1.684-2.044-3.367-2.405-5.292-.18a2.041,2.041,0,0,1-2.766.9c1.2-.962,2.405-1.984,3.548-2.947.361-.3.842-.842.482-1.323-.421-.6-1.083-.361-1.623,0-1.5,1.022-2.165,3.006-4.27,3.248.482-1.443,1.022-2.887,1.5-4.33a7.039,7.039,0,0,1,.24-1.924c-.722-1.262-1.564-1.8-2.766-.421a16.071,16.071,0,0,1-2.165,1.865c-.3-.3-.541-.6-.842-.9a13.936,13.936,0,0,0,2.646-1.865c1.5-1.564.782-2.1-1.083-1.865a.744.744,0,0,1-.06-1.022c-.24-.361-.421-.722-.661-1.083-.3-.722-1.2-.18-1.564-.782-.24-1.2-.6-2.1-2.044-1.2a.541.541,0,0,1-.842-.06,1.493,1.493,0,0,0,.121-2.405c-.421-.421-.962-.661-1.2-1.262-.18-.24-.421-.482-.6-.722-.421-.421-1.684-.06-1.323-1.262-.6-.722-1.262-1.383-2.285-.962l-.121-.18c.6-3.548-1.564-1.383-2.766-1.262-.361-.962,1.924-1.262.6-2.405-1.383-1.2-1.984,1.083-3.187.661,1.623-2.1,1.623-2.1-.06-3.307-.541-.361-.121-1.2-.722-1.564-.361-.18-.722-.421-1.083-.6-.661.18-.842-.121-.661-.722-.18-.361-.421-.782-.6-1.143-.541-.541-2.1-.482-1.2-1.924,2.285-.361,3.91-2.1,6.194-2.586-1.022.722-1.984,1.5-3.006,2.165-.842.6-1.022,1.2-.06,1.865.541.24,1.2-.06,1.623.541-.482.661.18,1.143.3,1.684.24.541,1.022.24,1.323.722.6,2.1,1.684,1.684,2.887.541a.606.606,0,0,1,.9.06c-.3.842-1.984,1.143-1.143,2.346.6.962,1.383.06,2.1-.18a.318.318,0,0,1,.361.361c-.782,1.2-1.323,2.346.962,2.285.661-.24.782,0,.6.6.121,1.744,1.083,1.383,2.044.782a27.807,27.807,0,0,0,2.466-2.044l.6.6c-.782.661-1.564,1.262-2.285,1.924-1.443,1.323-.9,1.984.782,2.225l.3.121.06.3c-.06,1.143.6,1.623,1.623,1.744a.731.731,0,0,1,.962,0c-.661.661-.361,1.323.18,1.865.661.661,1.022-.121,1.443-.421.661-.482,1.262-1.022,2.225-1.744-.121,1.262-.842,1.623-1.323,2.165s-1.623.842-.661,1.865c.842.842,1.5.121,2.1-.361,1.143-.9,2.165-1.924,3.307-2.887l.541.541c-1.022.9-2.044,1.8-3.067,2.646-.541.482-1.143,1.022-.9,1.8.421,1.083,1.383.482,2.1.541.3.361.661.842,1.143.3.421-.482.9-1.083.3-1.8a1.9,1.9,0,0,1,1.383-1.383c1.2-.6,2.466-.9,3.187.541,1.2,2.165-.3,3.548-1.564,4.57.361-.6,1.383-1.022,2.044-1.8a1.06,1.06,0,0,1,1.623-.24c.6.541.121,1.143-.24,1.623a9.192,9.192,0,0,1-1.623,1.8A2.087,2.087,0,0,0,123.267,54.561Z" transform="translate(-11.777 -23.592)"/>
            <path id="Path_1164" data-name="Path 1164" d="M51.786,155.154c-2.1,3.849-5.051,5.653-9.081,5.593a8.529,8.529,0,0,1-1.443-16.958,9.216,9.216,0,0,1,10.4,5.653c.722,2.165.6,3.548-2.346,3.307-2.826-.18-5.713.06-8.6-.06-1.865-.06-2.044.842-1.564,2.285,1.143,3.367,4.33,4.27,6.675,1.865C48,154.553,48,154.553,51.786,155.154Z" transform="translate(-14.803 -17.265)" fill="#595959"/>
            <path id="Path_1165" data-name="Path 1165" d="M132.771,160.114c-3.609.361-7.1-.361-10.7-.121-4.089.3-6.555-3.307-6.795-8.238-.121-2.466.842-5.111-1.083-7.577h6.675a19.64,19.64,0,0,0-.3,10.7c.541,2.586,2.586,2.466,4.631,2.346,2.346-.121,1.684-1.865,1.744-3.128.06-1.865-.06-3.668.06-5.532a4.164,4.164,0,0,0-2.1-4.33h8.238C130.725,146.824,130.488,156.687,132.771,160.114Z" transform="translate(-10.576 -17.234)" fill="#595959"/>
            <path id="Path_1166" data-name="Path 1166" d="M153.567,160.12c2.285-3.307,2.044-13.35-.421-15.875,3.849-.482,7.577.24,11.3.06,4.029-.121,6.375,3.307,6.615,8.119.121,2.526-.6,5.111.842,7.637h-6.434a19.378,19.378,0,0,0,.361-10.464c-.482-2.405-2.285-2.827-4.51-2.646-2.346.24-2.044,1.924-1.924,3.367.3,3.248-1.143,6.736,1.323,9.8Z" transform="translate(-8.523 -17.239)" fill="#595959"/>
            <path id="Path_1167" data-name="Path 1167" d="M22.441,133.154c-1.984,1.564-1.744,3.548-1.744,5.474v16.3c0,.962-.24,2.285,1.383,2.165,3.849-.3,8.058,1.323,11.125-2.346.3.361.541.482.541.661.361,5.412.361,5.412-5.111,5.412H15.766c2.044-9.2,1.2-18.281.541-27.6C17.691,133.154,19.855,133.154,22.441,133.154Z" transform="translate(-15.766 -17.816)" fill="#595959"/>
            <path id="Path_1168" data-name="Path 1168" d="M115.038,151.972a9.059,9.059,0,0,1-18.1-.121c.06-4.811,3.91-8.359,9.141-8.359C111.189,143.559,115.038,147.222,115.038,151.972Z" transform="translate(-11.487 -17.271)" fill="#595959"/>
            <path id="Path_1169" data-name="Path 1169" d="M217.3,143.55c5.111.06,8.96,3.788,8.9,8.6a8.938,8.938,0,0,1-9.141,8.479,8.8,8.8,0,0,1-9.02-8.539C208.042,147.038,211.89,143.49,217.3,143.55Z" transform="translate(-5.628 -17.267)" fill="#595959"/>
            <path id="Path_1170" data-name="Path 1170" d="M133.343,62.13c-2.645.421-2.887,0-1.623-3.248,1.744.6,2.346-.962,3.067-1.865.722-.962-.541-1.564-1.083-2.225a20.919,20.919,0,0,1-3.006-4.149c1.383,1.323,2.766,2.706,4.149,4.029.421.421.962.9,1.564.541.782-.482.06-1.083-.06-1.564,0-.24.121-.361.361-.3,2.044,1.383,2.1-1.684,3.548-1.623a3.175,3.175,0,0,1,1.8-1.924V48.718c-.24-.3-.24-.541.06-.782.421-.06.661.842,1.262.3.541-.482.24-.842-.121-1.2-1.383-1.621-2.766-3.24-4.511-5.349,3.307.842,3.91,4.029,6.314,5.051.842-.482.06-1.564.782-2.165.361.121.722.18,1.083.3a4.427,4.427,0,0,1,1.865-1.924V41.864c-.18-.18-.24-.361-.121-.482.06-.18.121-.24.18-.24.482.06.9.541,1.443.06.18-.482-.06-1.083.482-1.5.9.421,1.323-.121,1.684-.782a.9.9,0,0,1,.18-1.083c.361.06.722.18,1.083.24.661-.361.3-1.564,1.323-1.684,1.083-1.2-.482-1.684-.661-2.526-.3-.661.06-.722.541-.6.722.361,1.684,3.548,2.1-.18.06-.482,1.443.782,1.744-.482.361-.842.962-1.143,1.8-.6-.18,3.006,3.187,4.27,3.788,7.938-1.984-2.526-3.428-4.389-4.811-6.194-.121,3.006,2.586,4.33,3.548,7.216-2.526-1.443-3.128-4.149-5.653-5.593.541,3.006,3.128,4.389,4.089,7.276-2.766-1.443-3.128-4.45-5.772-5.713.421,2.405,2.165,3.548,3.006,5.171.361.661,1.8,1.022.661,2.165-1.8-.482-2.526-2.1-3.488-3.367.6,1.5,2.225,2.405,2.766,4.089-.722,1.383-1.2.3-1.684-.24a27.882,27.882,0,0,0-3.91-4.089c.24,2.766,3.006,4.089,4.089,7.156-2.165-1.443-3.067-3.128-4.27-4.51-.361-.421-.782-1.143-1.443-.661-.661.421-.06,1.143-.06,1.684l-.06.06c-.722-.121-1.443-.722-2.1.06-.482.541.421.722.421,1.143-.482.661-1.443-.06-1.924.722.18.421.361.782.541,1.2.18.541-.06.661-.541.541-1.8-.962-1.262.361-1.2,1.262-.24.3-.482.3-.782.06-1.2.24-2.044.541-.722,1.865a41.136,41.136,0,0,1,3.91,4.57c-1.924-.782-3.006-2.586-4.45-3.849-.421-.361-.962-.962-1.443-.24-.18.24.24.9.361,1.383.24.6-.06.661-.541.6-.482-.3-.962-.962-1.5-.24-.9,1.143,1.022,1.5.782,2.706-.962.06-2.165-2.766-2.947.06-.3.482-1.022.121-1.262.722a15.848,15.848,0,0,1,.121,1.684c-.24.3-.541.3-.9.06C135.087,58.882,134.125,60.447,133.343,62.13Z" transform="translate(-9.706 -23.163)"/>
            <path id="Path_1171" data-name="Path 1171" d="M140.072,133.154c-.06,9.26-.782,18.341.541,27.542h-6.675c1.924-1.262,1.684-3.128,1.684-4.992V137.3c0-1.564-.06-3.067-2.526-4.149Z" transform="translate(-9.58 -17.816)" fill="#595959"/>
            <path id="Path_1172" data-name="Path 1172" d="M234.413,160.062H226.9c2.586-2.826,2.526-13.109-.06-15.752,3.488-.9,6.976.722,10.4-.18,1.022-.24,1.383.6,1.383,1.564,0,.9-.121,1.564-1.323,1.564-3.428-.06-4.692,1.744-4.21,5.051C233.391,154.831,232.127,157.717,234.413,160.062Z" transform="translate(-4.637 -17.243)" fill="#595959"/>
            <path id="Path_1173" data-name="Path 1173" d="M121.851,54.026c-1.924-.361-2.285-1.262-.842-2.586a14.262,14.262,0,0,0,2.947-3.067c-1.865.3-2.706,1.8-3.969,2.826-.421.361-.9,1.022-1.5.3-.541-.722.121-1.022.6-1.383a10.452,10.452,0,0,1,.9-.782,2.985,2.985,0,0,0,1.623-3.248c-.3-1.8-1.984-.782-2.947-1.2,1.924-2.405,4.45-4.811,2.706-8a2.394,2.394,0,0,1-.121-2.1c.121-.782.6-1.443,1.443-.722.541.482,1.984.6,1.083,1.984-1.262,1.865-.661,3.728.3,5.474a65,65,0,0,1,5.051,10.764c-2.165-1.022-2.165-.962-4.692.482C123.655,53.178,122.993,54.085,121.851,54.026Z" transform="translate(-10.361 -23.057)" fill="#5a5a5a"/>
            <path id="Path_1174" data-name="Path 1174" d="M144.293,160.054c1.744-2.466,1.684-13.23,0-15.875h5.953c-1.323,5.292-.9,10.524-.361,15.875Z" transform="translate(-8.99 -17.234)" fill="#595959"/>
            <path id="Path_1175" data-name="Path 1175" d="M91.945,113.283c.06,1.262-3.006.842-1.623,3.006a3.387,3.387,0,0,1-.3,3.91c-.9-.782-.482-1.744-.541-2.466-.121-1.022.121-2.225-1.143-2.526-1.865-.421.06,1.924-1.323,1.924-1.083-1.865-6.133-3.006-7.82-1.8-.782.541-.782,1.383-.782,2.225v4.871c-1.443-2.826-.24-5.893-.541-8.78-.06-.421.482-.6.9-.6C83.16,113.171,87.55,113.227,91.945,113.283Z" transform="translate(-12.501 -18.876)" fill="#4e4e4e"/>
            <path id="Path_1176" data-name="Path 1176" d="M163.925,97.166c1.022.121,1.262-.9,1.984-1.262,2.225-1.143,3.367-3.609,5.893-4.45-1.2,1.323-2.405,2.586-3.609,3.91-.541.6-1.744,1.2-.782,2.225.722.722,1.443-.06,2.1-.541.541-.421.842-1.143,1.684-1.083-1.383,3.128-5.653,7.337-10.278,9.441,1.323-1.262,2.766-2.466,3.969-3.849.541-.6,2.225-1.022.782-2.285-1.262-1.083-1.8.3-2.466.9-1.383,1.323-2.586,2.766-3.849,4.21a9.24,9.24,0,0,0-.782-.722c1.262-1.323,2.586-2.586,3.788-3.91C163.2,98.91,164.406,98.49,163.925,97.166Z" transform="translate(-8.237 -20.014)"/>
            <path id="Path_1177" data-name="Path 1177" d="M153.9,113.91c-1.262,2.285-.18,4.811-.782,7.276a1.938,1.938,0,0,1-.962-1.924c.421-3.428-1.443-3.788-4.149-3.609-2.346.18-4.692.06-7.038.06-1.022-.962-1.684-1.984-.18-3.067.361,1.262,1.383,1.262,2.405,1.262,3.128-.121,6.256.482,9.321-.482C152.943,113.309,153.484,113.73,153.9,113.91Z" transform="translate(-9.22 -18.896)" fill="#292929"/>
            <path id="Path_1178" data-name="Path 1178" d="M96.821,96.316c-.06.661-1.924.962-.482,1.984-1.323,1.083-1.022,1.984.18,2.947,1.564,1.262,3.128,2.645,4.631,3.969.06.06-.06.361-.18.782-2.1-1.684-3.91-4.149-6.194-4.75-2.887-.722-2.225-4.089-4.75-4.631,1.323-.3,1.924.782,2.766,1.383.661.421,1.262.782,1.924.18.842-.842-.06-1.262-.482-1.684-.782-.782-1.564-1.5-2.646-2.586C93.995,93.97,94.6,96.917,96.821,96.316Z" transform="translate(-11.851 -19.885)"/>
            <path id="Path_1179" data-name="Path 1179" d="M100.594,94.672c.842-.842.18-3.248,2.526-2.526,1.262-.121,1.443.9,1.684,1.8.962,1.262,2.586,2.526,0,3.728C102.939,97.318,101.856,95.935,100.594,94.672Z" transform="translate(-11.294 -19.984)"/>
            <path id="Path_1180" data-name="Path 1180" d="M205.523,139.417c-.6-.962-1.2-1.924-1.744-2.826a2.244,2.244,0,0,1,.361-3.067,1.925,1.925,0,0,1,2.766.06,2.06,2.06,0,0,1,.3,3.006C206.606,137.433,206.121,138.395,205.523,139.417Z" transform="translate(-5.876 -17.825)" fill="#595959"/>
            <path id="Path_1181" data-name="Path 1181" d="M147.2,138.755c1.5.121,2.346.842,2.285,2.285a2.022,2.022,0,0,1-2.044,2.165,2.123,2.123,0,0,1-2.405-2.165C144.916,139.594,145.878,138.932,147.2,138.755Z" transform="translate(-8.951 -17.521)" fill="#595959"/>
            <path id="Path_1182" data-name="Path 1182" d="M159.864,93.8a7.207,7.207,0,0,1,.661.722L156.2,99.21c-.361.361-.722.9-1.2.541-.782-.541-.121-1.022.3-1.443C156.8,96.8,158.305,95.3,159.864,93.8Z" transform="translate(-8.445 -19.89)"/>
            <path id="Path_1183" data-name="Path 1183" d="M151.021,85.17c.661.6,1.262,1.143,1.924,1.744-2.766.482-3.548,3.668-6.256,4.692C147.534,88.9,150.661,87.936,151.021,85.17Z" transform="translate(-8.864 -20.345)"/>
            <path id="Path_1185" data-name="Path 1185" d="M159.4,32.221c-.6.18-1.2.421-1.8.6-1.443-2.1-2.946-4.27-4.389-6.375C156.09,27.595,156.63,31.078,159.4,32.221Z" transform="translate(-8.52 -23.441)"/>
            <path id="Path_1186" data-name="Path 1186" d="M162.216,92.483c-.3,0-.6-.06-.9-.06,1.8-1.865,3.609-3.788,5.412-5.653a4.14,4.14,0,0,0,.782.661,23.515,23.515,0,0,1-5.292,5.052Z" transform="translate(-8.092 -19.6)"/>
            <path id="Path_1187" data-name="Path 1187" d="M145.7,76.726l-.661-.661a21.555,21.555,0,0,1,5.773-5.232C149.305,73.658,147.38,75.1,145.7,76.726Z" transform="translate(-8.951 -21.101)"/>
            <path id="Path_1188" data-name="Path 1188" d="M104.467,88.273c-.3.661-.842.661-1.443.722a28.517,28.517,0,0,1-6.314-5.653C100.258,84.245,101.4,87.733,104.467,88.273Z" transform="translate(-11.498 -20.441)"/>
            <path id="Path_1189" data-name="Path 1189" d="M141.812,49.1c-.6.661-1.2,1.262-1.8,1.924-.421-2.826-3.668-3.728-4.57-7.216,1.623,1.623,2.645,2.706,3.728,3.728C139.889,48.2,140.31,49.526,141.812,49.1Z" transform="translate(-9.457 -22.526)"/>
            <path id="Path_1190" data-name="Path 1190" d="M145.295,44.129c-.06.782.3,1.684-.782,2.165.661-1.684-.962-2.225-1.623-3.248-.722-1.2-2.346-1.8-2.766-3.969C142.648,40.575,143.791,42.5,145.295,44.129Z" transform="translate(-9.21 -22.776)"/>
            <path id="Path_1191" data-name="Path 1191" d="M154.043,36.445c-.421.6-.541,1.443-1.323,1.684-.3-2.887-3.187-4.27-4.029-7.4C151.217,32.3,151.878,35.122,154.043,36.445Z" transform="translate(-8.758 -23.215)"/>
            <path id="Path_1192" data-name="Path 1192" d="M101.49,90.3c0,.6.06,1.2-.6,1.623-.782-3.006-4.21-3.849-5.893-7.1C97.943,86.512,99.626,88.556,101.49,90.3Z" transform="translate(-11.589 -20.363)"/>
            <path id="Path_1193" data-name="Path 1193" d="M162.152,95.631c.722-.24,1.443-.421,1.262.782-2.706.722-3.668,3.488-6.555,5.292C158.063,98.519,160.588,97.5,162.152,95.631Z" transform="translate(-8.328 -19.803)"/>
            <path id="Path_1194" data-name="Path 1194" d="M146.806,45.506c.361-1.022,1.2-.661,1.924-.722a18.935,18.935,0,0,1,4.811,5.593c-2.165-.962-2.766-2.346-3.788-3.307C148.911,46.349,148.43,44.845,146.806,45.506Z" transform="translate(-8.857 -22.476)"/>
            <path id="Path_1195" data-name="Path 1195" d="M151.725,37.777l-.18,1.083a24.614,24.614,0,0,1-4.51-6.014C149.2,33.928,150.463,35.853,151.725,37.777Z" transform="translate(-8.845 -23.103)"/>
            <path id="Path_1196" data-name="Path 1196" d="M106.667,81.632a3.051,3.051,0,0,1-.541,2.586,21.939,21.939,0,0,1-5.532-4.931c2.225.421,3.248,1.865,4.45,2.887C106.066,83.136,106.306,82.353,106.667,81.632Z" transform="translate(-11.294 -20.656)"/>
            <path id="Path_1197" data-name="Path 1197" d="M98.823,96.469c0-.3.06-.6.06-.9,2.044,1.744,4.389,3.187,5.953,5.474C102.43,100.077,100.687,98.213,98.823,96.469Z" transform="translate(-11.387 -19.797)"/>
            <path id="Path_1199" data-name="Path 1199" d="M157.51,91a1.293,1.293,0,0,1,.661,1.443,33.228,33.228,0,0,1-5.653,5.593C153.48,94.725,157.149,94.067,157.51,91Z" transform="translate(-8.557 -20.038)"/>
            <path id="Path_1200" data-name="Path 1200" d="M153.418,88.084l.6.6-4.871,5.232a12.759,12.759,0,0,1,4.27-5.833Z" transform="translate(-8.734 -20.192)"/>
            <path id="Path_1201" data-name="Path 1201" d="M147.134,81.628l1.083,1.083c-1.8,1.684-3.609,3.428-5.412,5.111C143.53,85.177,146.115,83.975,147.134,81.628Z" transform="translate(-9.068 -20.532)"/>
            <path id="Path_1202" data-name="Path 1202" d="M99.181,92.236c0,.3-.06.541-.06.842l-5.953-5.051A11.067,11.067,0,0,1,99.181,92.236Z" transform="translate(-11.685 -20.194)"/>
            <path id="Path_1203" data-name="Path 1203" d="M150.017,39.586c0,.541.06,1.083-.482,1.5-.3-2.887-3.428-3.91-4.33-7.216A16.981,16.981,0,0,1,150.017,39.586Z" transform="translate(-8.942 -23.05)"/>
            <path id="Path_1204" data-name="Path 1204" d="M92.037,26.105c-.121.962.9,1.262,1.2,1.924-2.405-.18-3.428,2.405-6.014,2.947C88.49,28.69,91.136,28.153,92.037,26.105Z" transform="translate(-11.999 -23.46)"/>
            <path id="Path_1205" data-name="Path 1205" d="M147.534,79.146l-.842-.842c1.684-1.8,3.367-3.609,5.051-5.474.18.18.421.361.6.541C151.267,75.718,148.977,77.1,147.534,79.146Z" transform="translate(-8.864 -20.995)"/>
            <path id="Path_1206" data-name="Path 1206" d="M159.878,90.745c-.3-.06-.661-.06-.962-.121,1.684-2.1,3.367-4.21,5.111-6.256.421.421.842.842,1.323,1.262C163.487,87.317,161.683,89.061,159.878,90.745Z" transform="translate(-8.219 -19.936)"/>
            <path id="Path_1207" data-name="Path 1207" d="M141.554,72.589c0-.3-.06-.6-.06-.9,1.383-1.5,2.706-3.006,4.089-4.51A11.23,11.23,0,0,1,141.554,72.589Z" transform="translate(-9.137 -21.294)"/>
            <path id="Path_1208" data-name="Path 1208" d="M137.5,55.446c.18-.6.722-.661,1.262-.722a20.273,20.273,0,0,1,5.111,5.773C140.8,59.294,140.381,55.866,137.5,55.446Z" transform="translate(-9.349 -21.951)"/>
            <path id="Path_1209" data-name="Path 1209" d="M142.179,52.412c.18-.18.361-.421.541-.6a13.818,13.818,0,0,1,3.788,4.75,11.469,11.469,0,0,1-4.329-4.149Z" transform="translate(-9.101 -22.104)"/>
            <path id="Path_1210" data-name="Path 1210" d="M111.766,60.552c1.865,1.443,1.5,2.225-1.8,3.788A9.613,9.613,0,0,1,111.766,60.552Z" transform="translate(-10.8 -21.643)" fill="#5a5a5a"/>
            <path id="Path_1211" data-name="Path 1211" d="M95.441,30.276a1.376,1.376,0,0,1,.722,1.564,25.123,25.123,0,0,1-5.051,3.788C92.133,32.861,95.321,32.921,95.441,30.276Z" transform="translate(-11.793 -23.24)"/>
            <path id="Path_1212" data-name="Path 1212" d="M109.2,45.358a1.341,1.341,0,0,1,1.564.782c-2.346.121-3.187,2.526-5.713,2.766C106.432,47.762,107.815,46.559,109.2,45.358Z" transform="translate(-11.059 -22.445)"/>
            <path id="Path_1213" data-name="Path 1213" d="M144.979,48.387c.24,0,.541-.06.782-.06a14.15,14.15,0,0,1,4.029,4.811C147.564,52.173,146.541,49.949,144.979,48.387Z" transform="translate(-8.953 -22.288)"/>
            <path id="Path_1214" data-name="Path 1214" d="M146.863,47.153l.541-.541,4.871,3.969c-.3.3-.6.661-.962.962C149.329,50.641,148.251,48.717,146.863,47.153Z" transform="translate(-8.854 -22.378)"/>
            <path id="Path_1215" data-name="Path 1215" d="M115.314,51.125c.421.722.782,1.383-.24,1.924-1.143.842-2.285,1.623-3.969,2.887C112.066,53.29,114.05,52.508,115.314,51.125Z" transform="translate(-10.74 -22.14)"/>
            <path id="Path_1216" data-name="Path 1216" d="M141.807,47.3c0,.24-.06.541-.06.782-1.5-1.623-3.067-3.248-5.051-5.474a16.25,16.25,0,0,1,5.111,4.692Z" transform="translate(-9.39 -22.588)"/>
            <path id="Path_1217" data-name="Path 1217" d="M143.956,74.39c-.06-.3-.06-.661-.121-.962a15.1,15.1,0,0,1,4.149-3.91C147.2,71.564,145.4,72.826,143.956,74.39Z" transform="translate(-9.013 -21.171)"/>
            <path id="Path_1218" data-name="Path 1218" d="M144.488,81.058h.782a16.757,16.757,0,0,1-4.692,4.51A10.555,10.555,0,0,1,144.488,81.058Z" transform="translate(-9.186 -20.562)"/>
            <path id="Path_1219" data-name="Path 1219" d="M103.607,38.843c.421.421.9.842,1.323,1.262-2.526-.18-3.128,2.646-5.593,3.367C100.359,41.249,102.464,40.467,103.607,38.843Z" transform="translate(-11.36 -22.787)"/>
            <path id="Path_1220" data-name="Path 1220" d="M136.81,57.126c.3,0,.6-.06.9-.06a14.3,14.3,0,0,1,3.91,4.75,17.855,17.855,0,0,1-4.812-4.69Z" transform="translate(-9.384 -21.826)"/>
            <path id="Path_1221" data-name="Path 1221" d="M153.4,92.2l.6.6a10.539,10.539,0,0,1-3.428,3.248C150.82,93.82,152.2,93.1,153.4,92.2Z" transform="translate(-8.658 -19.975)"/>
            <path id="Path_1222" data-name="Path 1222" d="M97.866,30.414c-.541-.06-1.143,0-1.323-.722,2.225-.06,3.248-2.526,6.014-3.187a15.691,15.691,0,0,1-4.691,3.909Z" transform="translate(-11.507 -23.439)"/>
            <path id="Path_1223" data-name="Path 1223" d="M148.154,40.907c0,.24-.06.482-.06.722-1.5-1.684-3.187-3.248-4.029-5.412C145.628,37.6,147.372,38.8,148.154,40.907Z" transform="translate(-9.002 -22.926)"/>
            <path id="Path_1224" data-name="Path 1224" d="M96.334,28.105c-.6-.06-1.2.06-1.623-.541,2.044-.06,3.006-2.285,5.653-2.887a11.36,11.36,0,0,1-4.03,3.428Z" transform="translate(-11.604 -23.535)"/>
            <path id="Path_1225" data-name="Path 1225" d="M93.767,29.019a7.208,7.208,0,0,1,.661.722c-1.564,1.2-3.128,2.405-4.631,3.609C90.459,31.183,92.384,30.342,93.767,29.019Z" transform="translate(-11.862 -23.306)"/>
            <path id="Path_1226" data-name="Path 1226" d="M110.352,41.553h-.962c1.383-1.323,2.766-2.586,4.089-3.91l.6.6A19.817,19.817,0,0,1,110.352,41.553Z" transform="translate(-10.83 -22.851)"/>
            <path id="Path_1227" data-name="Path 1227" d="M104.108,36.258l-.6-.6c1.443-1.143,2.586-2.646,5.051-3.668A16.245,16.245,0,0,1,104.108,36.258Z" transform="translate(-11.141 -23.149)"/>
            <path id="Path_1228" data-name="Path 1228" d="M104.139,86.012a12.624,12.624,0,0,1-4.631-4.27,12.289,12.289,0,0,1,4.871,4.089l-.06.18Z" transform="translate(-11.351 -20.526)" fill="#292929"/>
            <path id="Path_1229" data-name="Path 1229" d="M136.262,52.788a12.327,12.327,0,0,1-3.91-4.692,14.859,14.859,0,0,1,4.27,4.389,1.594,1.594,0,0,1-.36.3Z" transform="translate(-9.619 -22.3)"/>
            <path id="Path_1230" data-name="Path 1230" d="M148.108,42.524c-.6.661-1.262,1.262-1.865,1.924.541-2.225-2.165-2.766-2.466-4.692C145.823,39.757,145.823,43.005,148.108,42.524Z" transform="translate(-9.017 -22.739)"/>
            <path id="Path_1231" data-name="Path 1231" d="M149.019,85.628a17.374,17.374,0,0,1-4.27,3.788C146.128,88.153,147.58,86.89,149.019,85.628Z" transform="translate(-8.965 -20.322)"/>
            <path id="Path_1232" data-name="Path 1232" d="M153.9,33.387c-.18.18-.361.421-.541.6a18.481,18.481,0,0,1-3.187-4.57C152.341,30.26,152.943,32,153.9,33.387Z" transform="translate(-8.679 -23.284)"/>
            <path id="Path_1233" data-name="Path 1233" d="M111.312,47.126c0,.361.06.661.06,1.022l-3.609,3.428a5.67,5.67,0,0,0-.6-.6C108.546,49.715,109.931,48.39,111.312,47.126Z" transform="translate(-10.947 -22.35)"/>
            <path id="Path_1234" data-name="Path 1234" d="M105.428,40.728a1.935,1.935,0,0,1,1.2,1.262c-1.865-.121-2.346,2.1-4.21,2.466C102.662,42.532,104.887,42.292,105.428,40.728Z" transform="translate(-11.198 -22.688)"/>
            <path id="Path_1235" data-name="Path 1235" d="M165.879,93.02c-.361-.06-.661-.06-1.022-.121,1.262-1.262,2.586-2.526,3.849-3.788l.482.482C168.044,90.736,166.961,91.879,165.879,93.02Z" transform="translate(-8.536 -19.02)"/>
            <path id="Path_1236" data-name="Path 1236" d="M101.429,37.939a8.967,8.967,0,0,1-4.149,3.307,7.872,7.872,0,0,1,4.03-3.485Z" transform="translate(-11.468 -22.845)"/>
            <path id="Path_1237" data-name="Path 1237" d="M150.351,43.642a5.54,5.54,0,0,1,2.947,3.969c-1.022-1.262-2.766-2.044-3.006-3.91Z" transform="translate(-8.674 -22.535)"/>
            <path id="Path_1238" data-name="Path 1238" d="M98.487,94.115c-.482.421-.9.842-1.383,1.262-1.022-.962-1.984-1.865-3.307-3.067C96.021,92.071,96.683,94.657,98.487,94.115Z" transform="translate(-11.652 -19.97)"/>
            <path id="Path_1239" data-name="Path 1239" d="M106.4,44.213a4.259,4.259,0,0,1,.842.06,8.826,8.826,0,0,1-3.91,3.128,7.852,7.852,0,0,1,3.068-3.188Z" transform="translate(-11.15 -22.505)"/>
            <path id="Path_1240" data-name="Path 1240" d="M99.577,100.251c1.564.482,2.405,1.744,3.307,2.947a6.681,6.681,0,0,1-3.548-2.706.223.223,0,0,1,.241-.241Z" transform="translate(-11.36 -19.55)"/>
            <path id="Path_1241" data-name="Path 1241" d="M101.441,30.961c-.3,0-.6-.06-.9-.06a5.891,5.891,0,0,1,3.367-2.225,4.4,4.4,0,0,1-2.466,2.286Z" transform="translate(-11.297 -23.324)"/>
            <path id="Path_1242" data-name="Path 1242" d="M106.619,79.306c-.24.482-.421.9-.661,1.383-1.022-.9-2.044-1.744-3.307-2.826C104.695,77.322,105.056,79.727,106.619,79.306Z" transform="translate(-11.185 -20.735)"/>
            <path id="Path_1243" data-name="Path 1243" d="M102.251,33.1a7.455,7.455,0,0,1,3.488-2.708,8.071,8.071,0,0,1-3.128,3.067.542.542,0,0,1-.36-.359Z" transform="translate(-11.207 -23.233)"/>
            <path id="Path_1244" data-name="Path 1244" d="M137.243,49.228A3.777,3.777,0,0,1,134.3,46.04C135.258,47.124,136.221,48.151,137.243,49.228Z" transform="translate(-9.516 -22.409)"/>
            <path id="Path_1245" data-name="Path 1245" d="M107.506,39.437a8.391,8.391,0,0,1,3.668-2.706,6.358,6.358,0,0,1-3.367,3.128C107.625,39.8,107.566,39.617,107.506,39.437Z" transform="translate(-10.929 -22.899)"/>
            <path id="Path_1246" data-name="Path 1246" d="M109.44,114.644c-1.262-.3-1.022-.962-.782-1.984a18.21,18.21,0,0,0,.24-3.668c.6.482,1.744.661,1.5,1.684-.722,2.706.782,3.307,2.947,3.307l24.114-.18c.661,0,1.924-.482,1.323.962-1.262,3.006.722,2.947,2.645,3.006-1.083.661-2.645.541-3.006,2.285-.962-.842-.541-1.684-.722-2.466a4.54,4.54,0,0,0-4.389-2.165c-2.887.121-5.713.121-8.6,0a3.26,3.26,0,0,0-3.609,2.165c-.06.661-.06,1.323-.121,2.165-.722-.722-.3-1.744-1.2-2.165a4.55,4.55,0,0,0-4.389-2.1C113.408,115.545,111.3,115.964,109.44,114.644Z" transform="translate(-10.879 -19.089)" fill="#292929"/>
            <path id="Path_1247" data-name="Path 1247" d="M135.784,91.556c-.3.842-.782,1.744.24,2.466a4.624,4.624,0,0,1,1.083,1.083c.962,1.262.661,2.706.361,4.149-.121.541-.6.661-1.2.541-1.564-.3-2.1-1.443-2.405-2.826a6.411,6.411,0,0,0-.421-1.143c.482-1.2,0-2.405.06-3.548C133.616,90.534,134.461,90.053,135.784,91.556Z" transform="translate(-9.562 -20.056)" fill="#c8c8c8"/>
            <path id="Path_1248" data-name="Path 1248" d="M139.236,79.047c1.083-.541,1.684-3.128,3.187-1.564,1.262,1.323-.9,2.225-1.684,3.187-1.083,1.443-1.924,1.443-2.044-.661A6.867,6.867,0,0,0,139.236,79.047Z" transform="translate(-9.285 -20.776)" fill="#f7efea"/>
            <path id="Path_1249" data-name="Path 1249" d="M135.85,91.621c-1.022-.482-1.865-.782-1.8.962,0,1.143.421,2.346-.541,3.367-.24-1.143.18-2.405-.842-3.428-1.2-1.262.842-1.443,1.022-2.346.121-.661,1.323-.962,2.1-.541C136.744,90.117,136.327,90.9,135.85,91.621Z" transform="translate(-9.623 -20.121)" fill="#fff"/>
            <path id="Path_1250" data-name="Path 1250" d="M110.59,88.816a4.552,4.552,0,0,1,.06-.9c1.684.421,4.089,0,3.788,3.006C112.756,90.8,112.334,88.514,110.59,88.816Z" transform="translate(-10.766 -20.201)"/>
            <path id="Path_1251" data-name="Path 1251" d="M113.568,81.571c.9.06,1.623.9,2.645.361.541-.3.9.24,1.083.722a.829.829,0,0,1-.18,1.083c-.482.421-.962.18-1.323-.18-.722-.661-1.865-.9-2.346-1.865Z" transform="translate(-10.617 -20.535)"/>
            <path id="Path_1252" data-name="Path 1252" d="M119.965,78.03c1.564.361,2.285,1.684,3.187,2.887-1.5-.421-2.285-1.684-3.307-2.706Z" transform="translate(-10.279 -20.722)"/>
            <path id="Path_1253" data-name="Path 1253" d="M120.493,117.314c-.782-2.044-.6-3.187,2.1-3.067a89.591,89.591,0,0,0,11.365,0c2.405-.121,3.488.6,3.128,3.006a152.815,152.815,0,0,1-16.6.06Z" transform="translate(-10.266 -18.813)" fill="#979797"/>
            <path id="Path_1254" data-name="Path 1254" d="M109.391,114.364c2.526,0,5.111.121,7.637-.06,2.466-.18,3.067.9,2.706,3.006-2.1,0-4.21.06-6.314.06C111.375,117.311,109.691,116.77,109.391,114.364Z" transform="translate(-10.83 -18.81)" fill="#979797"/>
            <path id="Path_1255" data-name="Path 1255" d="M106.42,105.963c1.865,3.128,1.143,6.133,0,9.141Z" transform="translate(-10.986 -19.249)" fill="#979797"/>
            <path id="Path_1256" data-name="Path 1256" d="M104.736,94.043c-.541-.6-1.143-1.2-1.684-1.8-.121-.962-.06-1.984,1.2-1.984,1.2,0,1.684.9,1.924,1.984C105.878,93.02,106.356,94.4,104.736,94.043Z" transform="translate(-11.166 -20.077)"/>
            <path id="Path_1257" data-name="Path 1257" d="M114.855,74.75c1.083,1.143.06,1.924-.661,2.405-1.443.9-2.526-.661-3.849-.842a.975.975,0,0,1-.782-1.143c.361-1.865,2.225.06,2.947-1.083C113.231,74.27,114.013,74.51,114.855,74.75Z" transform="translate(-10.822 -20.929)" fill="#979797"/>
            <path id="Path_1258" data-name="Path 1258" d="M187.136,146.479v-8.3c0-.962,0-1.744,1.323-2.044a8.741,8.741,0,0,1,10.764,6.976c1.684,8.178-2.346,13.831-9.8,13.831-1.684,0-2.405-.482-2.285-2.225C187.2,152.011,187.136,149.245,187.136,146.479Z" transform="translate(-6.732 -17.671)" fill="#f2f2f2"/>
            <path id="Path_1259" data-name="Path 1259" d="M112.234,78.677a1.291,1.291,0,0,1-1.083,1.262,1.732,1.732,0,0,1-2.044-1.323c-.18-.6.18-1.564,1.022-1.443a2.418,2.418,0,0,1,2.1,1.5Z" transform="translate(-10.847 -20.767)" fill="#979797"/>
            <path id="Path_1260" data-name="Path 1260" d="M46.782,150.28h-6.8c-1.2,0-1.383-.6-.9-1.564.782-1.5,1.865-2.887,3.728-2.766C45.1,146.128,46.3,147.754,46.782,150.28Z" transform="translate(-14.549 -17.141)" fill="#f2f2f2"/>
            <path id="Path_1261" data-name="Path 1261" d="M101.279,151.75c.06-3.548,2.044-6.375,4.51-6.314,2.346.06,4.27,2.766,4.45,6.133.18,3.668-1.984,6.976-4.57,6.915C103.143,158.484,101.217,155.538,101.279,151.75Z" transform="translate(-11.258 -17.168)" fill="#f2f2f2"/>
            <path id="Path_1262" data-name="Path 1262" d="M212.326,151.987c0-3.428,1.984-6.375,4.389-6.494,2.466-.121,4.692,3.006,4.692,6.555,0,3.367-2.044,6.314-4.45,6.434C214.37,158.541,212.326,155.656,212.326,151.987Z" transform="translate(-5.403 -17.166)" fill="#f2f2f2"/>
          </g>
        </g>
      </g>
    </g>
  </g>
</svg>
