<svg xmlns="http://www.w3.org/2000/svg" xmlns:xlink="http://www.w3.org/1999/xlink" width="300" height="143" viewBox="0 0 300 143">
  <defs>
    <clipPath id="clip-path">
      <rect id="Rectangle_243" data-name="Rectangle 243" width="300" height="143" transform="translate(1160 1635)" fill="#ccc"/>
    </clipPath>
  </defs>
  <g id="Mask_Group_9" data-name="Mask Group 9" transform="translate(-1160 -1635)" clip-path="url(#clip-path)">
    <g id="Group_377" data-name="Group 377" transform="translate(-585.044 175.149)">
      <g id="Arya-logo" transform="translate(1847.943 1459.655)">
        <g id="Group_373" data-name="Group 373">
          <path id="Path_1322" data-name="Path 1322" d="M189.513,117.508c.081-.11.178-.243.26-.357a66.939,66.939,0,0,1-3.976-13.323,15.73,15.73,0,0,0-10.242-11.749,5.926,5.926,0,0,1-.73-.422c.146-.065.195-.11.243-.11a7.924,7.924,0,0,1,.892.195,15.69,15.69,0,0,0,14.9-3.1c3.261-2.6,6.654-5,10-7.48.422-.308.892-.55,1.493-.925-.568-.243-.973-.44-1.379-.568q-4.674-1.558-9.35-3.08a17.38,17.38,0,0,0-13.8,1.178,29.022,29.022,0,0,0-8.958,7.37c2.564-.747,5.03-1.526,7.529-2.142,3.326-.827,6.82-.957,7.81-.341-5.761.973-11.035,2.807-15.6,6.49.66.341,1.25.632,1.834.925-.016.048-.048.1-.065.146l-2-.422c1.4,5.81,4.56,10.434,8.309,14.752-4.5-2.807-7.514-6.945-10.484-11.213a44.218,44.218,0,0,0,.892,6.248,19.341,19.341,0,0,0,5.745,10.434,15.576,15.576,0,0,0,4.3,2.905C181.221,114.588,185.391,116,189.513,117.508Zm-30.689-14.85v.584c-.146,3.278-.55,6.556-.389,9.8.228,4.527.88,9.04,1.331,13.567a81.273,81.273,0,0,1,.195,18.63,34.609,34.609,0,0,1-7.546,18c-1.607,1.947-3.424,3.716-5.128,5.534a6.175,6.175,0,0,0,.682-.211,20.7,20.7,0,0,0,8.228-5.777,33.776,33.776,0,0,0,8.179-21.713,131.934,131.934,0,0,0-1.363-21.469,66,66,0,0,1,.341-21.437c.357-1.769.827-3.506,1.25-5.274-1.347,1.185-2.64,2.386-4.008,3.489a12.276,12.276,0,0,1-4.527,2.5,24.23,24.23,0,0,0,7.692-8.925c-1.7.211-3.23.341-4.722.568a11.293,11.293,0,0,0-9.25,6.9c-.812,1.85-1.737,3.63-2.677,5.421-.5.973-1.152,1.882-1.882,3.08,4.769-.711,9.46-.466,13.6-3.258Zm-11.99,51.3c-.048.016-.081.033-.13.048a3.911,3.911,0,0,0,0-.617c-.146-.909-.26-1.834-.454-2.727-1.622-7.027-5.582-12.058-12.463-14.572a36.6,36.6,0,0,0-9.379-1.558,36.938,36.938,0,0,1-12.479-3.1c-2.759-1.3-3.424-2.922-2.321-5.745.649-1.639,1.477-3.229,2.288-4.8a1.54,1.54,0,0,0-.243-2.11,11.013,11.013,0,0,1-1.266-1.347c-.44-.6-1.1-1.2-.519-2.09a1.889,1.889,0,0,1,2.42-.762c.195.065.389.11.8.228-.73-.957-1.379-1.672-1.882-2.466-1.022-1.574-1.622-3.1,1.022-3.927a1.908,1.908,0,0,0,.178-.081c2.466-1.185,2.807-2.42,1.266-4.69-.44-.649-.942-1.266-1.412-1.9-.66-.909-1.379-1.785-1.98-2.742a1.624,1.624,0,0,1,.925-2.612c1.152-.44,2.321-.812,3.456-1.281,3.57-1.461,7.156-2.922,10.208-5.39a5.6,5.6,0,0,0,2.171-3.364c.163-.844.422-1.65.568-2.5a62.628,62.628,0,0,1,9.02-23.693c.13-.195.26-.389.389-.6s.228-.406.33-.6a35.308,35.308,0,0,0-6.751,7.838,37.486,37.486,0,0,0-5.6,15.384c-.487,3.261-1.43,6.135-4.885,7.384-.163.065-.308.146-.471.211-3.067,1.25-6.1,2.564-9.2,3.732-3.229,1.217-4.366,4.057-2.612,7.04a18.176,18.176,0,0,0,1.7,2.434c.66.827,1.444,1.574,2.175,2.369-3.878,1.7-5.274,2.792-2.97,7.27-.211.146-.422.308-.649.454a3,3,0,0,0-1.3,3.57,10.725,10.725,0,0,0,1.54,2.84,1.2,1.2,0,0,1,.11,1.444,44.046,44.046,0,0,0-1.915,4.62,6.137,6.137,0,0,0,2.84,7.692,32.914,32.914,0,0,0,6.313,2.6c4.2,1.3,8.6,1.444,12.933,1.98,6.621.844,11.976,3.943,15.384,9.867a63.492,63.492,0,0,1,2.843,6.275Zm17.526-79.55c1.915,3.018,2.581,6.426,3.181,9.915a20.857,20.857,0,0,0,1.25-3.85c1.022-4.95.276-9.444-3.586-13.1-.6-.568-1.12-1.2-1.7-1.769-1.12-1.071-2.256-2.142-3.326-3.148-.584,3.1-1.1,6.07-1.687,9.04-.617,3.116-.632,6.118,1.217,8.877a26.879,26.879,0,0,0,5.356,5.7,25.645,25.645,0,0,0-.7-11.663Zm9.79,73.74c4.544-3.52,6.54-8.244,5.112-13.777-1.022-3.96-3.213-7.37-5.176-10.873-2.175-3.862-4.284-7.757-6.28-11.717a31.158,31.158,0,0,1-1.526-4.69,19.194,19.194,0,0,0,.1,7.335c.925,4.56,3.051,8.666,4.933,12.87a93.212,93.212,0,0,1,3.781,9.494,14.065,14.065,0,0,1-.946,11.36Zm-9.705-60.87c-.762-1.087-1.412-2-2.061-2.905a11.475,11.475,0,0,0-11.506-4.917c-2.4.293-4.84.178-7.254.26-.178,0-.373.017-.827.048,1.574,2.028,3.051,3.83,4.446,5.729,3.554,4.852,9.948,5.582,15.3,3.85-5.858-1.882-8.13-2.937-8.942-4.251A21.532,21.532,0,0,0,164.445,87.276Zm-32.813,7.709c1.331.536,2.3-.13,3.294-.682.065.1.13.195.211.308-.389.243-.779.487-1.2.747a5.477,5.477,0,0,0,5.5-1.932,7.828,7.828,0,0,1-8.341-2.937c-1.72.389-3.213.714-4.657,1.038.925.7,2.126.471,3.326.308a2.877,2.877,0,0,0,.016.373c-.747.163-1.493.308-2.271.471,1.038,1.038,2.223.844,3.506.7-.422.228-.844.44-1.25.66.016.081.016.146.033.228h2.889c-.394.283-.653.461-1.059.72Z" transform="translate(-106.131 -58.958)" fill="#fff"/>
          <path id="Path_1323" data-name="Path 1323" d="M536.752,213.986c-4.122-1.526-8.293-2.922-12.349-4.609a15.575,15.575,0,0,1-4.3-2.9,19.284,19.284,0,0,1-5.745-10.434,43.888,43.888,0,0,1-.892-6.248c2.986,4.268,5.988,8.406,10.484,11.213-3.749-4.316-6.93-8.958-8.309-14.752l2,.422c.017-.048.048-.1.065-.146-.584-.293-1.168-.584-1.834-.925,4.56-3.684,9.834-5.517,15.6-6.49-.99-.632-4.479-.487-7.81.341-2.5.617-4.965,1.412-7.529,2.142a28.614,28.614,0,0,1,8.958-7.37,17.379,17.379,0,0,1,13.81-1.185q4.674,1.533,9.35,3.08c.406.13.812.33,1.379.568-.6.373-1.071.6-1.493.925-3.343,2.483-6.75,4.885-10,7.48a15.7,15.7,0,0,1-14.9,3.1c-.293-.081-.6-.13-.892-.195-.048-.017-.11.048-.243.11a5.92,5.92,0,0,0,.73.422,15.73,15.73,0,0,1,10.24,11.749,69.491,69.491,0,0,0,3.976,13.323,2.933,2.933,0,0,0-.294.384Z" transform="translate(-453.37 -155.435)" fill="#595959"/>
          <path id="Path_1324" data-name="Path 1324" d="M384.634,281.852c-4.138,2.792-8.828,2.564-13.615,3.278.73-1.2,1.363-2.11,1.882-3.08.942-1.785,1.87-3.586,2.677-5.421a11.249,11.249,0,0,1,9.25-6.9c1.509-.228,3.018-.373,4.722-.568a24.359,24.359,0,0,1-7.692,8.925,12.149,12.149,0,0,0,4.527-2.5c1.363-1.1,2.661-2.3,4.008-3.489-.422,1.769-.909,3.506-1.25,5.274a66.45,66.45,0,0,0-.341,21.437,131.93,131.93,0,0,1,1.363,21.469A33.953,33.953,0,0,1,381.986,342a20.7,20.7,0,0,1-8.228,5.777,6.185,6.185,0,0,1-.682.211c1.7-1.834,3.52-3.6,5.128-5.534a34.665,34.665,0,0,0,7.546-18,81.287,81.287,0,0,0-.195-18.63c-.454-4.527-1.1-9.038-1.331-13.567-.163-3.261.243-6.539.389-9.8a5.6,5.6,0,0,0,.02-.6Z" transform="translate(-331.939 -238.15)" fill="#595959"/>
          <path id="Path_1325" data-name="Path 1325" d="M147.035,154.332c-.925-2.077-1.687-4.251-2.807-6.215-3.41-5.907-8.747-9.02-15.384-9.867-4.333-.55-8.73-.7-12.933-1.98a32.081,32.081,0,0,1-6.313-2.6,6.153,6.153,0,0,1-2.84-7.692,42.649,42.649,0,0,1,1.915-4.62,1.2,1.2,0,0,0-.11-1.444,12.051,12.051,0,0,1-1.54-2.84,3.023,3.023,0,0,1,1.3-3.571c.211-.146.44-.308.649-.454-2.321-4.463-.909-5.566,2.97-7.27-.747-.8-1.509-1.54-2.175-2.369a19.792,19.792,0,0,1-1.709-2.436c-1.737-2.986-.617-5.83,2.612-7.04,3.1-1.168,6.135-2.483,9.2-3.732.163-.065.308-.163.471-.211,3.456-1.25,4.4-4.122,4.885-7.384a37.485,37.485,0,0,1,5.6-15.384,34.816,34.816,0,0,1,6.75-7.827c-.11.195-.211.406-.33.6s-.26.406-.389.6a62.628,62.628,0,0,0-9.02,23.693c-.146.844-.406,1.65-.568,2.5a5.625,5.625,0,0,1-2.175,3.359c-3.051,2.451-6.637,3.911-10.208,5.39-1.136.471-2.3.844-3.456,1.281a1.624,1.624,0,0,0-.925,2.612c.6.957,1.314,1.834,1.98,2.742.471.632.957,1.25,1.412,1.9,1.54,2.256,1.2,3.506-1.266,4.69a.869.869,0,0,1-.178.081c-2.64.827-2.045,2.353-1.022,3.927.519.8,1.152,1.526,1.882,2.466-.422-.11-.617-.163-.8-.228a1.883,1.883,0,0,0-2.42.762c-.6.892.065,1.477.519,2.09a9.888,9.888,0,0,0,1.266,1.347,1.54,1.54,0,0,1,.243,2.11,48.172,48.172,0,0,0-2.288,4.8c-1.1,2.824-.44,4.446,2.321,5.745a37.226,37.226,0,0,0,12.479,3.1,36.829,36.829,0,0,1,9.379,1.558c6.88,2.516,10.857,7.546,12.463,14.572.211.892.33,1.817.454,2.727a3.91,3.91,0,0,1,0,.617.143.143,0,0,1,.1-.112Z" transform="translate(-106.333 -59.333)" fill="#595959"/>
          <path id="Path_1326" data-name="Path 1326" d="M464.71,94.849a25.784,25.784,0,0,1,.7,11.7,26.877,26.877,0,0,1-5.356-5.7c-1.85-2.775-1.834-5.777-1.217-8.877.584-2.97,1.12-5.955,1.687-9.038,1.071,1.022,2.207,2.077,3.326,3.148.584.568,1.12,1.2,1.7,1.769,3.862,3.63,4.592,8.13,3.586,13.1a24.154,24.154,0,0,1-1.25,3.85C467.291,101.258,466.625,97.851,464.71,94.849Z" transform="translate(-406.483 -79.4)" fill="#595959"/>
          <path id="Path_1327" data-name="Path 1327" d="M519.8,426.359a13.97,13.97,0,0,0,.926-11.342,94.012,94.012,0,0,0-3.781-9.494c-1.882-4.2-4.008-8.309-4.933-12.87a19.192,19.192,0,0,1-.1-7.335,31.156,31.156,0,0,0,1.526,4.69c2,3.96,4.106,7.855,6.28,11.717,1.98,3.506,4.155,6.913,5.176,10.873C526.334,418.1,524.354,422.837,519.8,426.359Z" transform="translate(-451.784 -337.169)" fill="#595959"/>
          <path id="Path_1328" data-name="Path 1328" d="M376.188,205a21.433,21.433,0,0,1-10.857-2.207c.812,1.32,3.08,2.369,8.942,4.268-5.339,1.737-11.749,1.006-15.3-3.85-1.379-1.9-2.872-3.7-4.446-5.729.454-.033.649-.048.827-.048,2.42-.081,4.868.032,7.254-.26a11.5,11.5,0,0,1,11.506,4.917C374.788,203,375.418,203.912,376.188,205Z" transform="translate(-317.874 -176.681)" fill="#595959"/>
          <path id="Path_1329" data-name="Path 1329" d="M248.852,277.177c.389-.276.66-.454,1.038-.714H247c-.016-.081-.016-.146-.032-.228.422-.228.844-.44,1.25-.66-1.266.146-2.466.341-3.506-.7.779-.163,1.526-.33,2.271-.471a2.866,2.866,0,0,0-.016-.373c-1.2.178-2.4.389-3.326-.308,1.444-.33,2.937-.649,4.657-1.038a7.838,7.838,0,0,0,8.341,2.937,5.488,5.488,0,0,1-5.5,1.932c.422-.26.812-.5,1.2-.747-.065-.1-.13-.195-.211-.308C251.156,277.063,250.182,277.728,248.852,277.177Z" transform="translate(-223.356 -241.151)" fill="#595959"/>
        </g>
      </g>
      <text id="Aray_Clinic" data-name="Aray Clinic" transform="translate(1832.544 1596.051)" fill="#595959" font-size="25" font-family="Roboto-Regular, Roboto" letter-spacing="0.03em"><tspan x="0" y="0">Aray Clinic</tspan></text>
    </g>
  </g>
</svg>
