<svg xmlns="http://www.w3.org/2000/svg" xmlns:xlink="http://www.w3.org/1999/xlink" width="300" height="143" viewBox="0 0 300 143">
  <defs>
    <clipPath id="clip-path">
      <rect id="Rectangle_237" data-name="Rectangle 237" width="300" height="143" transform="translate(1160 1440)" fill="#ccc"/>
    </clipPath>
  </defs>
  <g id="Mask_Group_4" data-name="Mask Group 4" transform="translate(-1160 -1440)" clip-path="url(#clip-path)">
    <g id="Layer_1_copy" transform="translate(1216.758 1425.356)">
      <g id="Group_376" data-name="Group 376" transform="translate(30.823 15.272)">
        <path id="Path_1346" data-name="Path 1346" d="M179.607,78.472c-.875-.067-1.848,0-2.724,0-2.96.067-7.571-.134-10.531,0-.068-.031-3.074-10.947-3.1-10.949-.026.055-2.868,10.958-2.886,10.949-2.018,0-6.992-.067-9.01,0,.032-.021-2.06-5.934-2.06-5.934-.012.042-2.1,5.909-2.131,5.934-2.086-.067-5.642,0-7.8,0h0c0-9.552,0-19.106-.067-28.591.032-.025.01-2.974,0-3.015,11.907.74,24.124,5.121,31.723,14.4a41.939,41.939,0,0,1,8.585,17.2Z" transform="translate(-63.535 -28.77)" fill="#9e9e9e"/>
        <path id="Path_1331" data-name="Path 1331" d="M129.374,129.981V37.915c13.383-1.229,30.775,2.069,42.542,17,13.383,16.874,12.413,37.046,4.4,51.657C167.326,122.74,149.029,131.985,129.374,129.981Zm5.754-86.052v64.4c0,4.59-.195,9.181-.259,13.771a5.155,5.155,0,0,0,0,1.726c2.263-.195,5.108-.238,7.37-.5a45.437,45.437,0,0,0,20.811-9.492,2.73,2.73,0,0,0-1.221-.4A26.062,26.062,0,0,1,147.218,106a27.989,27.989,0,0,1-6.207-9.31c-.711-1.874-.259-3.232,1.362-3.814,1.617-.647,2.651.064,3.621,1.81,1.422,2.521,2.78,5.367,4.849,7.305a25.311,25.311,0,0,0,13.9,6.336,3.76,3.76,0,0,0,4.4-2,38.977,38.977,0,0,0,5.992-14.666,37.166,37.166,0,0,0,.344-14.1c-.323-1.167-.584-2.328-.9-3.556a39.235,39.235,0,0,0-8.211-15.969c-7.305-8.922-16.939-13.383-28.383-14.094-1.508-.021-2.721,0-2.85,0Z" transform="translate(-58.701 -24.08)" fill="#595959"/>
        <path id="Path_1332" data-name="Path 1332" d="M83.327,124.07c.064,0,0-1.7,0-2.48v-69.2c0-2.844-.066-8.2,0-8.357-1.1-.129-3.814-.933-4.913-1.062-2.651-.711-5.3-1.422-7.952-2.2a14.514,14.514,0,0,1-1.746-.84c6.594-2.068,13.384-2.391,20.3-2.133,0,30.775-.215,61.4-.215,92.173-17.133,1.362-31.529-3.6-42.262-16.982-11.187-14.159-13.124-30.128-6.594-47l5.431,2.521a16.161,16.161,0,0,1-.323,1.874c-4.586,13.32-2.522,25.669,5.238,37.176a2.121,2.121,0,0,0,1.681.9c9.374-.9,16.681-4.913,20.56-13.9.778-1.746,2-2.328,3.556-1.746a2.6,2.6,0,0,1,1.42,3.687c-3.556,8.922-10.019,14.482-19.4,16.615-.711.195-1.487.323-2.263.452,3.75,4.138,14.094,9.051,20.428,9.762C80.092,123.83,82.615,124.07,83.327,124.07Z" transform="translate(-27.458 -24.095)" fill="#595959"/>
        <path id="Path_1333" data-name="Path 1333" d="M162.448,196.827c3.491-.195,7.305-.711,11.055.323,4.009,1.167,7.112,3.427,8.017,7.759a11.345,11.345,0,0,1-4.332,11.831c-3.879,3.039-8.4,3.427-13.124,2.587-1.229-.195-1.556-1.229-1.487-2.392.064-2.716.195-5.5.195-8.211C162.77,204.844,162.577,200.9,162.448,196.827Zm3.362,2.263a14.774,14.774,0,0,0-.129,1.617c-.064,3.943-.129,7.952-.195,11.9,0,4.59.129,4.72,4.784,4.332a8.844,8.844,0,0,0,8.211-7.177c.711-4.59-1.229-8.34-5.172-10.019-2.391-1.035-4.848-.841-7.5-.647Z" transform="translate(-69.792 -77.349)" fill="#595959"/>
        <path id="Path_1334" data-name="Path 1334" d="M132.1,196.95c2.457.711,2.716,1.487,1.1,3.168-2.263,2.328-4.59,4.59-7.112,7.112,3.75,3.621,7.435,7.177,11.25,10.8-.647,1.81-1.681,2.2-3.427.584-2.069-1.94-3.943-4.073-5.948-6.142-1.487-1.556-3.039-3.039-4.526-4.525a4.453,4.453,0,0,0-.517.195c.195,3.427.389,6.918.647,10.668a2.451,2.451,0,0,1-.778.389c-1.746.647-2.587.195-2.587-1.746,0-3.362.195-6.724.195-10.085,0-3.168-.259-6.336-.452-9.892a8.916,8.916,0,0,1,1.293-.452c1.422-.389,2.133.129,2.069,1.556,0,2.328-.195,4.655-.259,6.982v1.617C126.533,203.932,129.7,200.893,132.1,196.95Z" transform="translate(-55.537 -77.472)" fill="#595959"/>
        <path id="Path_1335" data-name="Path 1335" d="M69.922,214.53a8.568,8.568,0,0,1-8.663,8.6,7.834,7.834,0,0,1-8.147-7.952c0-4.913,3.621-8.4,8.728-8.47a7.83,7.83,0,0,1,8.082,7.823Zm-2.587.389c0-3.621-2.263-6.013-5.754-6.013-3.556,0-5.948,2.521-5.948,6.271a5.655,5.655,0,0,0,5.819,5.883c3.491,0,5.883-2.458,5.883-6.143Z" transform="translate(-33.126 -80.764)" fill="#595959"/>
        <path id="Path_1336" data-name="Path 1336" d="M85.153,218.54a9.159,9.159,0,0,1-1.167.517c-1.94.647-2.651.195-2.587-1.81.064-5.5.195-10.992.259-16.422v-2c-2.521.195-4.849.389-7.5.584-.064-.517-.517-1.556-.195-2.069a3.21,3.21,0,0,1,2.263-.778c3.362,0,6.724.259,10.085.259,1.81,0,3.685-.323,5.883-.517.064.517.389,1.487.064,1.94a2.986,2.986,0,0,1-2.069.973,55.559,55.559,0,0,1-5.56-.323C84.376,205.48,83.73,211.944,85.153,218.54Z" transform="translate(-40.081 -77.273)" fill="#595959"/>
        <path id="Path_1337" data-name="Path 1337" d="M195.045,216.435a28.45,28.45,0,0,0,3.814.323,3.145,3.145,0,0,0,2.521-5.108,15.319,15.319,0,0,0-2.2-2.392c-.389-.389-.778-.647-1.167-1.034-2-1.94-3.75-3.943-2.521-7.048,1.167-2.844,4.849-5.3,7.823-5.172,1.681.064,2.457.778,2.133,2.069-.195.778-.584,1.293-1.556.9a5.983,5.983,0,0,0-1.487-.259c-1.746-.064-3.3.323-4.138,2.069-.778,1.617-.323,3.1,1.293,4.72,1.293,1.293,2.651,2.457,3.814,3.814,2.133,2.457,2.069,4.913-.064,7.37a8.192,8.192,0,0,1-6.659,2.78C194.462,219.473,193.946,218.245,195.045,216.435Z" transform="translate(-80.536 -77.173)" fill="#595959"/>
        <path id="Path_1338" data-name="Path 1338" d="M40.947,197.722c-.064,0,.195-.129.389-.195,2.457-.973,3.232-.452,3.232,2.133-.064,4.009-.259,8.082-.259,12.09,0,2.328.323,4.72.517,7.241a1.722,1.722,0,0,1-.518.259c-2.328.84-3.1.323-3.1-2.2.064-4.009.259-8.082.259-12.09C41.464,202.571,41.141,200.243,40.947,197.722Z" transform="translate(-29.042 -77.533)" fill="#595959"/>
        <path id="Path_1339" data-name="Path 1339" d="M149.413,197.723a3.967,3.967,0,0,1,.711-.323c2.2-.778,2.974-.195,2.909,2.133-.064,3.943-.259,7.823-.259,11.77,0,2.521.323,4.978.517,7.693-.064,0-.389.195-.711.323-2.263.778-2.974.259-2.909-2.133.064-4.009.259-7.952.259-11.965C149.865,202.767,149.607,200.31,149.413,197.723Z" transform="translate(-65.421 -77.534)" fill="#595959"/>
        <path id="Path_1353" data-name="Path 1353" d="M75.157,104.259a5.672,5.672,0,0,1-5.819,5.948,5.982,5.982,0,1,1,0-11.965,5.726,5.726,0,0,1,5.819,6.016Z" transform="translate(-36.551 -44.391)" fill="#595959"/>
        <path id="Path_1356" data-name="Path 1356" d="M176.05,98.928Z" transform="translate(-72.598 -44.62)" fill="#111"/>
        <path id="Path_1330" data-name="Path 1330" d="M34.727,59.564c-4.025-3.5-5.4-4.771-7.665-7.872a22.092,22.092,0,0,1-2.471-4.708c.033.033,6.981,3.52,10.807,5.064a58.894,58.894,0,0,0-4.16-6.241c-4.922-7.949-8.725-14.7-8.12-23.757.067-.738.358-2.476.492-3.21a16.068,16.068,0,0,1,1.32,2.341c2.081,3.624,4.295,7.181,7.516,9.933a20.313,20.313,0,0,0,4.4,3.155,4.657,4.657,0,0,0,2.267.866,22.391,22.391,0,0,1-2.267-9.453,19.011,19.011,0,0,1,2.077-8.153c.14,0,5.38,15.358,13.25,15.431a21.636,21.636,0,0,1,0-10.417c.7.63,6.51,7.72,13.406,11.224A42.342,42.342,0,0,0,79.242,37.5v9.273c-.067,4.563,0,9.046,0,13.61,0,1.141.055,3.787,0,3.841A75.22,75.22,0,0,1,56.2,66.073c-5.613-.2-11.478-2.282-14.563-3.087a44.68,44.68,0,0,1-6.912-3.422Z" transform="translate(-23.202 -18.156)" fill="#9e9e9e"/>
        <g id="Layer_2" data-name="Layer 2" transform="translate(91.494 56.764)">
          <g id="Layer_1" data-name="Layer 1" transform="translate(0 -0.973)">
            <path id="Path_1383" data-name="Path 1383" d="M9.348,0c2.685.058,5.37,1.722,6.984,5.049a2.665,2.665,0,0,1-.768,3.424,2.558,2.558,0,0,1-3.6-1.3A3.765,3.765,0,0,0,8.336,4.912,3.638,3.638,0,0,0,4.805,7.12c-.778,1.527-1.547,1.9-2.86,1.634A2.305,2.305,0,0,1,.233,5.35C1.547,1.945,4.572,0,9.348,0Z" fill="#595959"/>
          </g>
        </g>
      </g>
    </g>
  </g>
</svg>
