<svg xmlns="http://www.w3.org/2000/svg" xmlns:xlink="http://www.w3.org/1999/xlink" width="245" height="128" viewBox="0 0 245 128">
  <defs>
    <clipPath id="clip-path">
      <rect id="Rectangle_240" data-name="Rectangle 240" width="245" height="128" transform="translate(-0.396 0.432)" fill="#ccc"/>
    </clipPath>
  </defs>
  <g id="Mask_Group_6" data-name="Mask Group 6" transform="translate(0.396 -0.432)" opacity="0.7" clip-path="url(#clip-path)">
    <g id="Zafa-logo" transform="translate(62.937 0)">
      <g id="Group_370" data-name="Group 370" transform="translate(0 0)">
        <path id="Path_1270" data-name="Path 1270" d="M72.6,14.02c0-.244,0-.488.014-.732.176-1.626.352-3.252.569-5.257a13.175,13.175,0,0,0,5.677,4.051c1.463.61,2.967,1.125,4.458,1.68,4.268,1.572,8.59,3.008,12.777,4.769a21.591,21.591,0,0,1,9.4,7.4c2.791,3.943,3.536,8.4,3.184,13.115a5.433,5.433,0,0,0-.461,1.368c-.068,1.1-.027,2.208-.027,3.441-.393-.325-.623-.5-.84-.677A17.18,17.18,0,0,0,102.6,35.44c-.122.826-.257,1.355-.285,1.883-.122,2.059-.244,4.105-.3,6.165a2.221,2.221,0,0,1-1.152,2.141,27.243,27.243,0,0,1-4.593,2.263c-6,1.748-11.273.176-15.811-3.97-1.328-1.206-2.466-2.615-3.685-3.943a.375.375,0,0,0-.041-.176A16.873,16.873,0,0,1,75.65,37.8c-1.03-2.683-2.005-5.392-3.008-8.1a.349.349,0,0,0-.014-.2c-.108-1.653-.3-3.319-.285-4.972C72.357,21.011,72.506,17.515,72.6,14.02Zm28.466,20.012a11.869,11.869,0,0,0-1.49-1.152c-3.062-1.531-6.07-3.225-9.227-4.512-4.363-1.775-8.861-3.238-13.3-4.837l-2.087-.772a10.39,10.39,0,0,0,.312,1.057,23.178,23.178,0,0,0,6.463,8.7c5.067,4.078,10.636,5.392,16.841,2.832A27.161,27.161,0,0,0,101.067,34.031ZM82.478,41.226c2.208,3.509,7.506,5.406,11.083,3.9A22.993,22.993,0,0,1,82.478,41.226Z" transform="translate(-9.181 -0.801)" fill="#747474"/>
        <path id="Path_1271" data-name="Path 1271" d="M45.619,74.469l-.217.257c-1.68,2.371-3.347,4.729-5.067,7.154a4.473,4.473,0,0,1,.095-.867c.65-2.127,1.192-4.309,2.005-6.368,2.954-7.479,7.791-11.6,16.977-11.571a64.128,64.128,0,0,1,13.738,1.856c7.912,1.748,15.676,4.2,23.819,4.783,8.956.637,16.3-1.653,20.865-10.446.095,1.125.19,2.263.271,3.387-.528,1.9-.908,3.848-1.612,5.677-2.574,6.72-7.127,11.191-14.47,12.424a36.59,36.59,0,0,1-13.3-.542c-5.934-1.179-11.787-2.737-17.708-3.956-3.685-.759-7.438-1.179-11.164-1.761-.691,0-1.4-.014-2.087-.014H53.423a2.611,2.611,0,0,0-.014-.325c9.633-3.929,19.443-3.414,29.347-.976,1.165.406,2.33.8,3.482,1.206.041-.122.095-.244.135-.379-1.03-.461-2.059-.908-3.089-1.368C75.1,68.955,66.647,66.787,57.6,68.291A20.21,20.21,0,0,0,45.619,74.469Z" transform="translate(-10.869 1.9)" fill="#747474"/>
        <path id="Path_1272" data-name="Path 1272" d="M75.366,93.207c-.555-.623-1.043-1.179-1.612-1.816-.637.677-1.138,1.219-1.694,1.816.623.6,1.138,1.084,1.694,1.6C74.35,94.21,74.852,93.708,75.366,93.207Zm3.211-1.8c-.6.623-1.111,1.152-1.721,1.761.61.583,1.152,1.084,1.6,1.517.637-.569,1.165-1.03,1.761-1.558C79.648,92.516,79.16,92.015,78.577,91.405Z" transform="translate(-9.196 3.594)" fill="#fdfdfd"/>
        <path id="Path_1273" data-name="Path 1273" d="M65,109.6c-.014-1.03-.081-2.059-.054-3.089.122-4.4,3.739-9.471,9.62-9.213,1.152.054,2.317-.014,3.482.014a10.856,10.856,0,0,1,1.138.135V97.8a3.115,3.115,0,0,1-.759.19c-1.206.027-2.4.014-3.6.014-3.59,0-5.46,1.314-6.693,4.674a14.618,14.618,0,0,0-.149,8.346c.989-2.574,3.279-3.333,5.447-4.254,1.463-.623,2.954-1.179,4.417-1.775a3.809,3.809,0,0,0,2.723-4.159,12.576,12.576,0,0,1,.027-2.574c.041-.366.42-.691.65-1.03.583,0,1.152.014,1.734.014-.014,5.013.122,10.04-.081,15.053-.108,2.723.962,4.322,3.645,4.322,2.534,0,5.067.014,7.6.014h1.91a7.622,7.622,0,0,0-.623-.569A10.746,10.746,0,0,1,91.757,102.8a9.353,9.353,0,0,1,6.788-5.569v.014h6.6c.014.163.027.312.054.474a4.552,4.552,0,0,1-.948.2c-1.368.014-2.75.014-4.119-.027a5.28,5.28,0,0,0-5.176,2.967,13.137,13.137,0,0,0,.041,12.844,5.679,5.679,0,0,0,10.148-.176,12.507,12.507,0,0,0,1.341-4.769c.217-3.292.108-6.612.135-9.918v-1.49h2.507v2.466c0,2.615-.027,5.243,0,7.858.054,4.417-3.211,9.931-9.769,9.742-4.458-.122-8.929-.014-13.4-.027-2.994,0-3.6-.406-4.837-3.238a7.2,7.2,0,0,0-.745.61c-5.392,5.582-12.627,2.628-14.863-3.645-.163-.447-.285-.894-.434-1.341A.3.3,0,0,0,65,109.6Zm15.771-5.7c-1.707.935-3.116,1.694-4.525,2.479a37.53,37.53,0,0,0-4.295,2.52,4.985,4.985,0,0,0-1.057,6.192,3.264,3.264,0,0,0,2.94,1.734c3.184.041,5.609-1.937,6.3-5.623A71.689,71.689,0,0,0,80.769,103.9Z" transform="translate(-9.572 3.902)" fill="#747474"/>
        <path id="Path_1274" data-name="Path 1274" d="M17.77,19.612c1.612-1.545,3.211-3.1,4.837-4.62.6-.556.339-.935-.108-1.382-1.436-1.423-2.832-2.872-4.281-4.268-.691-.65-.691-1.138-.014-1.8,1.965-1.91,3.9-3.861,5.826-5.826.623-.637,1.1-.8,1.8-.068q2.906,3.008,5.921,5.907c.691.664.664,1.138-.014,1.788-1.639,1.572-3.225,3.2-4.918,4.9.406.474.745.894,1.125,1.274,1.3,1.3,2.615,2.6,3.943,3.875a.905.905,0,0,1,.014,1.517c-2.1,2.1-4.187,4.187-6.246,6.314-.528.528-.921.434-1.4-.054-2.073-2.114-4.173-4.2-6.232-6.327a2.953,2.953,0,0,1-.434-1.03A1.178,1.178,0,0,1,17.77,19.612Zm11.164.583c.095-.095.19-.19.285-.3a10.475,10.475,0,0,0-4.525-4.336C26.238,17.254,27.593,18.717,28.934,20.194Zm.135-11.787a9.075,9.075,0,0,0-4.376-4.512C26.224,5.48,27.647,6.943,29.069,8.407Z" transform="translate(-12.068 -1.163)" fill="#747474"/>
        <path id="Path_1275" data-name="Path 1275" d="M60.934,89.516c-.461.786-1.233,1.558-1.3,2.371-.176,2.29-.068,4.593-.068,7.1h5.365c0,.163.014.312.014.474h-5.6v18.318H57.032v-18.1c-1.152-.081-2.168-.149-3.17-.217v-.393c.976-.068,1.951-.122,3.2-.2v-5.27c.081-.339.176-.677.257-1.03,1.68-3.97,4.2-5.176,8.116-3.943.759.244,1.1.583.772,1.436-1.436-.759-2.845-1.667-4.566-.948C61.422,89.245,61.178,89.381,60.934,89.516Z" transform="translate(-10.156 3.424)" fill="#747474"/>
        <path id="Path_1276" data-name="Path 1276" d="M118.472,97.222a6.441,6.441,0,0,1,.23,1.219c.014,6.178.027,12.37-.014,18.548a10.8,10.8,0,0,1-.474,3.157,6.091,6.091,0,0,1-9.471,3.211,16.752,16.752,0,0,1-1.87-1.68c.068-.095.122-.176.19-.271.271.135.542.257.826.393l.2.2a9.967,9.967,0,0,0,1.6,1.246c2.818,1.45,5.42.366,6.178-2.683a18.146,18.146,0,0,0,.5-4.187c.068-4.363.014-8.739.027-13.1,0-2.005.054-4.024.081-6.029C117.131,97.235,117.795,97.222,118.472,97.222Z" transform="translate(-7.361 3.902)" fill="#747474"/>
        <path id="Path_1277" data-name="Path 1277" d="M40.138,117.492a21.633,21.633,0,0,1-2.615-.637,4.758,4.758,0,0,1-1.314-8.292,35.937,35.937,0,0,1,5.243-2.669c1.626-.826,3.238-1.68,4.85-2.534.068.257.122.515.19.772-2.195,1.125-4.417,2.208-6.585,3.4a5.012,5.012,0,0,0-2.994,4.187c-.108,1.775.23,3.374,1.856,4.349a5.077,5.077,0,0,0,5.365-.149,5.045,5.045,0,0,1,1.206-.61c-1,1.585-2.71,1.788-4.336,2.168C40.721,117.492,40.423,117.492,40.138,117.492Z" transform="translate(-11.187 4.225)" fill="#747474"/>
        <path id="Path_1278" data-name="Path 1278" d="M105.394,43.914c.068-.772.135-1.531.2-2.3.23.176.447.366.84.677,0-1.233-.041-2.344.027-3.441a5.26,5.26,0,0,1,.461-1.368c-.149,2.412-.3,4.823-.461,7.235C106.113,44.442,105.747,44.185,105.394,43.914Z" transform="translate(-7.439 0.752)" fill="#a8a8a8"/>
        <path id="Path_1279" data-name="Path 1279" d="M113.966,59.484c.583-1.436,1.179-2.886,1.761-4.322.122.041.244.068.352.108-.61,2.534-1.233,5.081-1.843,7.614C114.156,61.747,114.061,60.622,113.966,59.484Z" transform="translate(-6.987 1.684)" fill="#a9a9a9"/>
        <path id="Path_1280" data-name="Path 1280" d="M110.3,45.2c.366.271.718.528,1.084.8-.149,2.263-.2,4.552-.461,6.8-.474,4.2-2.913,7.086-6.558,8.969a24.085,24.085,0,0,1-12.9,2.371c-13.2-.894-24.334-6.422-33.94-15.324-.217-.2-.447-.393-.677-.6a2.7,2.7,0,0,0-.257-.108,10.244,10.244,0,0,0-.881.759,50.033,50.033,0,0,1-16,10.853c-.393.176-.745.406-1.125.61-2.764.759-5.514,1.68-8.319,2.249-5.081,1.016-10.162,1-15.053-1.084a.482.482,0,0,1-.122-.054c-3.143-1.653-2.859-1.111-2.6-4.417.244-3.13.5-6.246.61-9.376.149-4.62,1.192-8.847,4.932-11.977,4.065-2.547,8.793-3.319,13.169-5.04,5.894-2.317,9.349-6.734,11-12.709.257-.948.406-1.924.6-2.886.176-.569.339-1.125.61-2.005.732,1.9,1.328,3.536,1.992,5.135A53.571,53.571,0,0,0,54.249,32.6c.677.772,1.4,1.517,2.046,2.3s1.152.786,1.8-.054a25.376,25.376,0,0,0,5.3-12.262.508.508,0,0,1,.271-.393c.108.691.244,1.382.339,2.087a28.439,28.439,0,0,1-1.653,14.8,1.582,1.582,0,0,0,.163,1.423c1.6,1.206,3.306,2.29,4.972,3.428A47.206,47.206,0,0,0,79.964,49.89a42.82,42.82,0,0,0,15.69,2.276c4.268-.217,8.346-1.152,11.76-3.875A26.039,26.039,0,0,0,110.3,45.2ZM34.522,57.857l3.618-2.195c-.054-.095-.108-.19-.163-.271-1.341.556-2.683,1.1-4.01,1.653a26.525,26.525,0,0,1-12.655.894C25.729,60.093,30.146,60.364,34.522,57.857Zm8.129-32.842c-.339,1.517-.583,2.818-.908,4.105-1.707,6.761-5.582,11.6-12.316,13.9-1.992.677-3.983,1.355-6.016,1.924a18.563,18.563,0,0,0-6.3,3.13,6.447,6.447,0,0,0-.962,1.26,6,6,0,0,0,1.314.908,24.881,24.881,0,0,0,11.828.989,45.59,45.59,0,0,0,20.757-8.522c.989-.7.962-1.219.379-2.181-1.667-2.737-3.319-5.5-4.783-8.373C44.534,29.946,43.721,27.589,42.651,25.015Z" transform="translate(-12.345 -0.537)" fill="#747474"/>
        <path id="Path_1281" data-name="Path 1281" d="M28.819,98.961H18.631v-.542c4.281-.014,8.576-.014,13.129,0-.8,1.328-1.436,2.425-2.1,3.509-2.791,4.579-5.663,9.1-8.346,13.752a2.737,2.737,0,0,1-3.6,1.477C21.354,111.182,24.972,105.248,28.819,98.961Z" transform="translate(-12.062 3.964)" fill="#747474"/>
        <path id="Path_1282" data-name="Path 1282" d="M46.376,104.426c-.068-.257-.122-.515-.19-.772.867-2.9-.542-4.864-3.536-4.932a7.472,7.472,0,0,0-5.934,2.75c-.379-.935-.19-1.49.556-1.924a10.018,10.018,0,0,1,8.414-.976c2.1.664,3.211,2.452,3.265,5.04.054,2.7,0,5.406.014,8.1a18.6,18.6,0,0,0,.122,2.3c.312,2.236.691,2.588,2.8,2.737a2.41,2.41,0,0,1-3.184.014,4.576,4.576,0,0,1-1.843-3.414c-.163-2.479-.176-4.959-.271-7.452A7.932,7.932,0,0,0,46.376,104.426Z" transform="translate(-11.07 3.946)" fill="#747474"/>
        <path id="Path_1283" data-name="Path 1283" d="M31.843,116.281H22.549C23.307,115.712,30.339,115.563,31.843,116.281Z" transform="translate(-11.807 4.881)" fill="#747474"/>
        <path id="Path_1284" data-name="Path 1284" d="M100.04,93.4c.447-.664.908-1.328,1.4-2.059.677.664,1.192,1.152,1.816,1.748-.542.569-1.043,1.1-1.6,1.667-.6-.5-1.111-.935-1.612-1.355Z" transform="translate(-7.721 3.591)" fill="#747474"/>
        <path id="Path_1285" data-name="Path 1285" d="M75.366,93.207c-.515.515-1.016,1-1.612,1.6-.542-.515-1.057-1-1.694-1.6.555-.6,1.057-1.138,1.694-1.816C74.323,92.028,74.811,92.57,75.366,93.207Z" transform="translate(-9.196 3.594)" fill="#747474"/>
        <path id="Path_1286" data-name="Path 1286" d="M78.337,91.4c.583.61,1.07,1.125,1.639,1.721-.6.528-1.125.989-1.761,1.558-.447-.434-.989-.935-1.6-1.517Z" transform="translate(-8.956 3.595)" fill="#747474"/>
        <path id="Path_1287" data-name="Path 1287" d="M61.293,7.243,65.4,11.389c.894.962.623,1.667-.285,2.52-1.883,1.748-3.658,3.6-5.447,5.46-.65.677-1.125.7-1.8.014-1.937-2.005-3.916-3.956-5.907-5.907-.6-.583-.759-1.057-.095-1.707q3.13-3.048,6.219-6.151c.5-.5.894-.5,1.4.027C60.033,6.227,60.683,6.715,61.293,7.243ZM58.448,17.2a6.982,6.982,0,0,0-3.983-4.092C55.792,14.478,57.12,15.847,58.448,17.2Z" transform="translate(-10.284 -0.948)" fill="#747474"/>
        <path id="Path_1288" data-name="Path 1288" d="M116.508,91.392c.65.637,1.152,1.125,1.734,1.694-.583.61-1.057,1.125-1.68,1.775-.515-.65-.962-1.246-1.463-1.883C115.478,92.557,115.966,92,116.508,91.392Z" transform="translate(-6.927 3.594)" fill="#747474"/>
        <path id="Path_1289" data-name="Path 1289" d="M122.115,38.644c.976,1.03,1.937,2.059,2.927,3.076.447.447.718.854.149,1.409-2.317,2.29-4.62,4.593-6.964,6.937a3.3,3.3,0,0,1-.555-.352c-2.168-2.154-4.309-4.322-6.476-6.463-.542-.528-.6-.935-.027-1.49q3.13-3.048,6.205-6.178c.6-.61,1.043-.542,1.612.041,1,1.03,2.073,2.019,3.13,3.021Zm-7.8,4.281c.732.867,1.951,2.3,3.17,3.753A7.283,7.283,0,0,0,114.311,42.925Z" transform="translate(-7.156 0.629)" fill="#747474"/>
      </g>
    </g>
  </g>
</svg>
