<svg xmlns="http://www.w3.org/2000/svg" xmlns:xlink="http://www.w3.org/1999/xlink" width="245" height="128" viewBox="0 0 245 128">
  <defs>
    <clipPath id="clip-path">
      <rect id="Rectangle_241" data-name="Rectangle 241" width="245" height="128" transform="translate(-0.487 0.432)" fill="#ccc"/>
    </clipPath>
  </defs>
  <g id="Mask_Group_7" data-name="Mask Group 7" transform="translate(0.487 -0.432)" opacity="0.7" clip-path="url(#clip-path)">
    <g id="Amwal" transform="translate(39.695 0)">
      <path id="Path_1290" data-name="Path 1290" d="M160.168,118.217H13.5a7.269,7.269,0,0,1-7.259-7.259V17.792A7.269,7.269,0,0,1,13.5,10.533H160.168a7.269,7.269,0,0,1,7.259,7.259v93.166A7.233,7.233,0,0,1,160.168,118.217Z" transform="translate(-3.9 -10.533)" fill="#747474"/>
      <path id="Path_1291" data-name="Path 1291" d="M53.57,59.485H47.625c3.029-20.862-4.744-35.437-10.117-36.009-2.858-.286-13.146,4.858-10.688,36.009H20.533C19.39,42.567,23.219,21.533,36.937,20.9,49.512,20.333,55.284,38.909,53.57,59.485Z" transform="translate(-3.157 -9.987)" fill="#fff"/>
      <path id="Path_1292" data-name="Path 1292" d="M37.178,37.192,26.6,47.766H47.753Z" transform="translate(-2.827 -9.128)" fill="#acacac"/>
      <path id="Path_1293" data-name="Path 1293" d="M83.273,41.493V58.64h-7.43V44.065a.857.857,0,1,0-1.715,0V58.64H66.7V44.065a.857.857,0,1,0-1.715,0V58.64h-7.43V41.493a7.457,7.457,0,0,1,6.859-4.573h.572a9.114,9.114,0,0,1,1.715.343,7.31,7.31,0,0,1,3.715,2.686,7.309,7.309,0,0,1,3.715-2.686,9.114,9.114,0,0,1,1.715-.343h.572A7.457,7.457,0,0,1,83.273,41.493Z" transform="translate(-1.195 -9.142)" fill="#fff"/>
      <path id="Path_1294" data-name="Path 1294" d="M85.785,54.61V37.463h7.43V52.038a.857.857,0,1,0,1.715,0V37.463h7.43V52.038a.857.857,0,1,0,1.715,0V37.463h7.43V54.61a7.457,7.457,0,0,1-6.859,4.573h-.572a9.113,9.113,0,0,1-1.715-.343,7.309,7.309,0,0,1-3.715-2.686,7.309,7.309,0,0,1-3.715,2.686,9.113,9.113,0,0,1-1.715.343h-.572A7.457,7.457,0,0,1,85.785,54.61Z" transform="translate(0.293 -9.113)" fill="#fff"/>
      <path id="Path_1295" data-name="Path 1295" d="M132.28,41.124V58.672h-6.859V45.24a2,2,0,1,0-4,0v3.144h2.286V54.1h-2.286v4.573h-6.859V42.1a10.519,10.519,0,0,1,6.859-5.487,10.016,10.016,0,0,1,2.286-.286,8.723,8.723,0,0,1,1.715.171A10.36,10.36,0,0,1,132.28,41.124Z" transform="translate(1.81 -9.173)" fill="#fff"/>
      <line id="Line_188" data-name="Line 188" transform="translate(145.522 49.498)" fill="#fff"/>
      <path id="Path_1296" data-name="Path 1296" d="M142.538,57.552h0Z" transform="translate(3.27 -8.054)" fill="#fff"/>
      <path id="Path_1297" data-name="Path 1297" d="M145.482,52.353V58.64h-2.858a7.74,7.74,0,0,1-7.43-7.716v-14h7.43V52.353Z" transform="translate(2.898 -9.142)" fill="#fff"/>
      <line id="Line_189" data-name="Line 189" x1="0.114" transform="translate(18.347 87.508)" fill="none" stroke="#000" stroke-miterlimit="10" stroke-width="0.575"/>
      <path id="Path_1298" data-name="Path 1298" d="M46.6,66.511V96.576a6.266,6.266,0,0,1-5.716,3.658H27.734a6.267,6.267,0,0,1-6.173-5.144,7.746,7.746,0,0,1-.114-1.143V78.514h7.43V93.2a1.9,1.9,0,0,0,1.886,1.886h7.145A1.9,1.9,0,0,0,39.794,93.2V66.511Z" transform="translate(-3.099 -7.582)" fill="#fff"/>
      <rect id="Rectangle_242" data-name="Rectangle 242" width="7.43" height="26.864" transform="translate(51.499 58.929)" fill="#fff"/>
      <rect id="Rectangle_243" data-name="Rectangle 243" width="7.43" height="26.864" transform="translate(140.378 59.215)" fill="#fff"/>
      <path id="Path_1299" data-name="Path 1299" d="M125.411,72.483h-8.516a7.538,7.538,0,0,0-7.545,7.545v3.944a3.952,3.952,0,0,1-3.944,3.944H88.2v-12.4a3.532,3.532,0,0,0-1.372-2.172h0a3.413,3.413,0,0,0-2-.857H74.2a7.655,7.655,0,0,0-2.8.572,7.091,7.091,0,0,0-4.344,6.573v6.859A7.091,7.091,0,0,0,71.4,93.06h8.516a.857.857,0,0,1,0,1.715H68.2v5.144h12.86a11.136,11.136,0,0,0,1.429-.114,7.065,7.065,0,0,0,5.43-5.03A5.986,5.986,0,0,0,88.2,93.06h21.663a.7.7,0,0,0,.572-.286,2.222,2.222,0,0,1,1.772-.857h.171a2.471,2.471,0,0,1,1.543.743h0a7.014,7.014,0,0,0,2.229.4h9.259a6.746,6.746,0,0,0,6.573-5.144,7.76,7.76,0,0,0,.171-1.658V79.285A6.7,6.7,0,0,0,125.411,72.483ZM81.057,87.63H77.171a3.562,3.562,0,0,1-3.544-3.544v-2a3.586,3.586,0,0,1,3.6-3.6h3.83Zm45.154-2.8a3.342,3.342,0,0,1-3.372,3.372h-4.115a3.342,3.342,0,0,1-3.372-3.372V80.714a3.342,3.342,0,0,1,3.372-3.372h4.115a3.342,3.342,0,0,1,3.372,3.372Z" transform="translate(-0.694 -7.267)" fill="#fff"/>
      <g id="Group_371" data-name="Group 371" transform="translate(137.177 60.587)">
        <path id="Path_1300" data-name="Path 1300" d="M148.214,73.23c0,1.372-2.858,2.115-8.516,2.115a52.5,52.5,0,0,1-5.373-.229l.743-1.2a45.628,45.628,0,0,0,4.63.286,24.592,24.592,0,0,0,3.487-.171c.686-.114,1.086-.286,1.086-.572s-.343-.514-1.029-.686a26.918,26.918,0,0,0-3.487-.629,17.514,17.514,0,0,1-3.544-.8c-.972-.343-1.486-.8-1.486-1.315,0-.629.629-1.086,1.943-1.429a23.01,23.01,0,0,1,5.544-.514q3,0,4.973.171l-.572,1.2a35.588,35.588,0,0,0-4.4-.286q-3.6,0-3.6.686c0,.229.286.457.857.572.457.114,1.543.286,3.144.514a22.416,22.416,0,0,1,3.887.8C147.643,72.144,148.214,72.6,148.214,73.23Z" transform="translate(-134.325 -68.085)" fill="#acacac"/>
      </g>
      <g id="Group_372" data-name="Group 372" transform="translate(0 115.172)">
        <path id="Path_1301" data-name="Path 1301" d="M10.305,127.967H6.533l-.8,2.286H4.018l3.658-9.774H9.219l3.715,9.774H11.162ZM7.047,126.6h2.8l-1.429-4.058Z" transform="translate(-4.018 -119.908)" fill="#4e4e4e"/>
        <path id="Path_1302" data-name="Path 1302" d="M14.677,122.877l.057.743a2.713,2.713,0,0,1,2.115-.915,1.985,1.985,0,0,1,2,1.086,2.522,2.522,0,0,1,2.229-1.086,2.2,2.2,0,0,1,1.772.686,2.821,2.821,0,0,1,.572,1.943v4.744h-1.6v-4.687a1.7,1.7,0,0,0-.286-1.029,1.177,1.177,0,0,0-.972-.343,1.581,1.581,0,0,0-.915.286,1.626,1.626,0,0,0-.514.8v4.973h-1.6v-4.744c0-.857-.457-1.257-1.315-1.257a1.478,1.478,0,0,0-1.372.8v5.258h-1.6v-7.259h1.429Z" transform="translate(-3.531 -119.791)" fill="#4e4e4e"/>
        <path id="Path_1303" data-name="Path 1303" d="M31.026,127.844l1.143-5.03h1.6l-2,7.259H30.454L28.911,125.1l-1.543,4.973H26.053l-2-7.259h1.6l1.2,4.973,1.486-4.973h1.2Z" transform="translate(-2.962 -119.785)" fill="#4e4e4e"/>
        <path id="Path_1304" data-name="Path 1304" d="M38.775,130.082a2.851,2.851,0,0,1-.171-.686,2.709,2.709,0,0,1-3.658.171,1.957,1.957,0,0,1-.686-1.543,2,2,0,0,1,.857-1.772,4.206,4.206,0,0,1,2.458-.629h.972v-.457a1.207,1.207,0,0,0-.343-.915,1.257,1.257,0,0,0-.972-.343,1.581,1.581,0,0,0-.915.286.815.815,0,0,0-.343.686h-1.6a1.857,1.857,0,0,1,.4-1.143,2.176,2.176,0,0,1,1.086-.8,4.364,4.364,0,0,1,1.543-.286,3.27,3.27,0,0,1,2.058.629,2.358,2.358,0,0,1,.8,1.772v3.258a3.711,3.711,0,0,0,.286,1.543v.114H38.775ZM37,128.939a1.677,1.677,0,0,0,.915-.229,1.341,1.341,0,0,0,.629-.629V126.71h-.857a2.314,2.314,0,0,0-1.372.343.981.981,0,0,0-.457.915,1.087,1.087,0,0,0,.286.743A1.278,1.278,0,0,0,37,128.939Z" transform="translate(-2.423 -119.794)" fill="#4e4e4e"/>
        <path id="Path_1305" data-name="Path 1305" d="M43.353,130.225h-1.6V119.937h1.6Z" transform="translate(-2.028 -119.937)" fill="#4e4e4e"/>
        <path id="Path_1306" data-name="Path 1306" d="M50.308,126.6v3.6H48.594v-9.774h3.715a3.68,3.68,0,0,1,2.572.857,2.9,2.9,0,0,1,.972,2.229,2.7,2.7,0,0,1-.915,2.229,4.01,4.01,0,0,1-2.629.8h-2Zm0-1.372h2.058a1.878,1.878,0,0,0,1.372-.4,1.684,1.684,0,0,0,.457-1.257,1.779,1.779,0,0,0-.457-1.257,1.828,1.828,0,0,0-1.315-.457H50.366v3.372Z" transform="translate(-1.668 -119.911)" fill="#4e4e4e"/>
        <path id="Path_1307" data-name="Path 1307" d="M61.2,130.082a2.85,2.85,0,0,1-.171-.686,2.709,2.709,0,0,1-3.658.171,1.957,1.957,0,0,1-.686-1.543,2,2,0,0,1,.857-1.772A4.206,4.206,0,0,1,60,125.624h.972v-.457a1.207,1.207,0,0,0-.343-.915,1.257,1.257,0,0,0-.972-.343,1.581,1.581,0,0,0-.915.286.815.815,0,0,0-.343.686H56.8a1.857,1.857,0,0,1,.4-1.143,2.176,2.176,0,0,1,1.086-.8,4.364,4.364,0,0,1,1.543-.286,3.27,3.27,0,0,1,2.058.629,2.358,2.358,0,0,1,.8,1.772v3.258a3.711,3.711,0,0,0,.286,1.543v.114H61.2Zm-1.772-1.143a1.677,1.677,0,0,0,.915-.229,1.341,1.341,0,0,0,.629-.629V126.71h-.857a2.314,2.314,0,0,0-1.372.343.981.981,0,0,0-.457.915,1.087,1.087,0,0,0,.286.743A1.278,1.278,0,0,0,59.427,128.939Z" transform="translate(-1.241 -119.794)" fill="#4e4e4e"/>
        <path id="Path_1308" data-name="Path 1308" d="M66.514,127.784,68,122.869h1.715l-2.858,8.345a2.378,2.378,0,0,1-2.229,1.829,4.485,4.485,0,0,1-.8-.114v-1.257h.286a1.351,1.351,0,0,0,.915-.229,1.9,1.9,0,0,0,.514-.743l.229-.629-2.572-7.2h1.772Z" transform="translate(-0.898 -119.782)" fill="#4e4e4e"/>
        <path id="Path_1309" data-name="Path 1309" d="M71.958,122.877l.057.743a2.713,2.713,0,0,1,2.115-.915,1.985,1.985,0,0,1,2,1.086,2.522,2.522,0,0,1,2.229-1.086,2.2,2.2,0,0,1,1.772.686,2.821,2.821,0,0,1,.572,1.943v4.744H79.1v-4.687a1.7,1.7,0,0,0-.286-1.029,1.177,1.177,0,0,0-.972-.343,1.581,1.581,0,0,0-.915.286,1.626,1.626,0,0,0-.514.8v4.973h-1.6v-4.744c0-.857-.457-1.257-1.315-1.257a1.478,1.478,0,0,0-1.372.8v5.258h-1.6v-7.259h1.429Z" transform="translate(-0.511 -119.791)" fill="#4e4e4e"/>
        <path id="Path_1310" data-name="Path 1310" d="M85.091,130.248a3.448,3.448,0,0,1-2.515-.972A3.585,3.585,0,0,1,81.6,126.7v-.229a4.224,4.224,0,0,1,.4-1.943,2.988,2.988,0,0,1,1.2-1.315,3.492,3.492,0,0,1,1.715-.457,2.851,2.851,0,0,1,2.286.972,4.18,4.18,0,0,1,.8,2.686v.629H83.262a2.314,2.314,0,0,0,.572,1.429,1.811,1.811,0,0,0,1.315.514,2.149,2.149,0,0,0,1.829-.915l.857.857a3.3,3.3,0,0,1-1.143,1.029A2.879,2.879,0,0,1,85.091,130.248Zm-.171-6.23a1.463,1.463,0,0,0-1.086.457,2.136,2.136,0,0,0-.514,1.315h3.086v-.114a1.948,1.948,0,0,0-.457-1.257A1.3,1.3,0,0,0,84.92,124.018Z" transform="translate(0.073 -119.788)" fill="#4e4e4e"/>
        <path id="Path_1311" data-name="Path 1311" d="M90.529,122.874l.057.857a2.66,2.66,0,0,1,2.115-.972c1.486,0,2.286.857,2.286,2.572v4.8h-1.6v-4.687a1.7,1.7,0,0,0-.286-1.029,1.177,1.177,0,0,0-.972-.343,1.608,1.608,0,0,0-1.486.915v5.144h-1.6v-7.259Z" transform="translate(0.465 -119.788)" fill="#4e4e4e"/>
        <path id="Path_1312" data-name="Path 1312" d="M98.471,121.186v1.772h1.257v1.2H98.471v4.058a.629.629,0,0,0,.743.743,1.944,1.944,0,0,0,.572-.057v1.257a3.589,3.589,0,0,1-1.086.171q-1.886,0-1.886-2.058v-4.115h-1.2v-1.2h1.2v-1.772Z" transform="translate(0.811 -119.871)" fill="#4e4e4e"/>
        <path id="Path_1313" data-name="Path 1313" d="M104.949,128.136a.815.815,0,0,0-.343-.686,3.2,3.2,0,0,0-1.2-.4,5.474,5.474,0,0,1-1.372-.457,1.868,1.868,0,0,1-1.2-1.715,1.9,1.9,0,0,1,.8-1.543,3.215,3.215,0,0,1,2-.629,3.567,3.567,0,0,1,2.115.629,1.887,1.887,0,0,1,.8,1.658h-1.6a1.128,1.128,0,0,0-.343-.8,1.181,1.181,0,0,0-.915-.286,1.378,1.378,0,0,0-.857.229.815.815,0,0,0-.343.686.629.629,0,0,0,.343.572,4.585,4.585,0,0,0,1.257.4,4.08,4.08,0,0,1,1.486.514,2.408,2.408,0,0,1,.8.686,1.927,1.927,0,0,1,.286.972,2,2,0,0,1-.8,1.6,3.445,3.445,0,0,1-2.115.629,3.651,3.651,0,0,1-1.6-.343,3.289,3.289,0,0,1-1.086-.857,1.9,1.9,0,0,1-.4-1.2h1.6a1.111,1.111,0,0,0,.457.915,1.63,1.63,0,0,0,1.086.286,1.529,1.529,0,0,0,.972-.229C105.006,128.593,104.949,128.422,104.949,128.136Z" transform="translate(1.078 -119.791)" fill="#4e4e4e"/>
        <path id="Path_1314" data-name="Path 1314" d="M116.357,127.687a1.143,1.143,0,0,0-.457-.972,5.278,5.278,0,0,0-1.658-.686,7.45,7.45,0,0,1-1.886-.8,2.441,2.441,0,0,1-.343-4.115,4.523,4.523,0,0,1,4.344-.343,2.96,2.96,0,0,1,1.257,1.086,2.875,2.875,0,0,1,.457,1.543h-1.715a1.637,1.637,0,0,0-.457-1.2,1.98,1.98,0,0,0-1.372-.457,2.241,2.241,0,0,0-1.315.343,1.075,1.075,0,0,0-.457.972,1.177,1.177,0,0,0,.514.915,4.625,4.625,0,0,0,1.658.686,7.082,7.082,0,0,1,1.829.743,3.385,3.385,0,0,1,1.029.972,2.368,2.368,0,0,1,.343,1.315,2.284,2.284,0,0,1-.915,1.943,4.236,4.236,0,0,1-2.515.743,4.386,4.386,0,0,1-1.943-.4,3.741,3.741,0,0,1-1.372-1.086,2.555,2.555,0,0,1-.514-1.6h1.715a1.406,1.406,0,0,0,.572,1.257,2.661,2.661,0,0,0,1.6.457,2.123,2.123,0,0,0,1.315-.343C116.357,128.43,116.357,128.087,116.357,127.687Z" transform="translate(1.616 -119.914)" fill="#4e4e4e"/>
        <path id="Path_1315" data-name="Path 1315" d="M122.283,130.248a3.448,3.448,0,0,1-2.515-.972,3.585,3.585,0,0,1-.972-2.572v-.229a4.224,4.224,0,0,1,.4-1.943,2.988,2.988,0,0,1,1.2-1.315,3.492,3.492,0,0,1,1.715-.457,2.851,2.851,0,0,1,2.286.972,4.18,4.18,0,0,1,.8,2.686v.629h-4.744a2.314,2.314,0,0,0,.572,1.429,1.811,1.811,0,0,0,1.315.514,2.149,2.149,0,0,0,1.829-.915l.857.857a3.3,3.3,0,0,1-1.143,1.029A2.879,2.879,0,0,1,122.283,130.248Zm-.171-6.23a1.463,1.463,0,0,0-1.086.457,2.136,2.136,0,0,0-.514,1.315H123.6v-.114a1.948,1.948,0,0,0-.457-1.257A1.3,1.3,0,0,0,122.112,124.018Z" transform="translate(2.034 -119.788)" fill="#4e4e4e"/>
        <path id="Path_1316" data-name="Path 1316" d="M130.007,124.363a2.783,2.783,0,0,0-.686-.057,1.44,1.44,0,0,0-1.486.857v4.973h-1.6v-7.259h1.543l.057.8a1.853,1.853,0,0,1,1.658-.972,1.691,1.691,0,0,1,.572.114Z" transform="translate(2.426 -119.791)" fill="#4e4e4e"/>
        <path id="Path_1317" data-name="Path 1317" d="M133.619,128.016l1.543-5.2h1.658l-2.515,7.259h-1.429l-2.515-7.259h1.715Z" transform="translate(2.643 -119.785)" fill="#4e4e4e"/>
        <path id="Path_1318" data-name="Path 1318" d="M137.583,121.12a.86.86,0,0,1,.229-.629,1.143,1.143,0,0,1,1.372,0,.979.979,0,0,1,0,1.257,1.143,1.143,0,0,1-1.372,0A.86.86,0,0,1,137.583,121.12Zm1.772,9.088h-1.6v-7.259h1.6Z" transform="translate(3.024 -119.92)" fill="#4e4e4e"/>
        <path id="Path_1319" data-name="Path 1319" d="M144.044,128.933a1.6,1.6,0,0,0,1.029-.343,1.279,1.279,0,0,0,.457-.857h1.543a2.512,2.512,0,0,1-.4,1.257,2.463,2.463,0,0,1-1.086.915,3.164,3.164,0,0,1-1.486.343,3.1,3.1,0,0,1-2.4-.972,3.96,3.96,0,0,1-.915-2.744v-.171a3.832,3.832,0,0,1,.857-2.629,3.1,3.1,0,0,1,2.4-.972,2.993,2.993,0,0,1,2.115.743,2.708,2.708,0,0,1,.857,2h-1.543a1.643,1.643,0,0,0-.4-1.029,1.3,1.3,0,0,0-1.029-.4,1.368,1.368,0,0,0-1.2.572,2.916,2.916,0,0,0-.457,1.715v.286a3.014,3.014,0,0,0,.4,1.772A1.431,1.431,0,0,0,144.044,128.933Z" transform="translate(3.193 -119.788)" fill="#4e4e4e"/>
        <path id="Path_1320" data-name="Path 1320" d="M151.222,130.248a3.448,3.448,0,0,1-2.515-.972,3.585,3.585,0,0,1-.972-2.572v-.229a4.224,4.224,0,0,1,.4-1.943,2.988,2.988,0,0,1,1.2-1.315,3.492,3.492,0,0,1,1.715-.457,2.851,2.851,0,0,1,2.286.972,4.18,4.18,0,0,1,.8,2.686v.629h-4.744a2.314,2.314,0,0,0,.572,1.429,1.811,1.811,0,0,0,1.315.514,2.149,2.149,0,0,0,1.829-.915l.857.857a3.3,3.3,0,0,1-1.143,1.029A2.977,2.977,0,0,1,151.222,130.248Zm-.171-6.23a1.463,1.463,0,0,0-1.086.457,2.136,2.136,0,0,0-.514,1.315h3.086v-.114a1.948,1.948,0,0,0-.457-1.257A1.377,1.377,0,0,0,151.051,124.018Z" transform="translate(3.559 -119.788)" fill="#4e4e4e"/>
        <path id="Path_1321" data-name="Path 1321" d="M159.189,128.136a.815.815,0,0,0-.343-.686,3.2,3.2,0,0,0-1.2-.4,5.474,5.474,0,0,1-1.372-.457,1.868,1.868,0,0,1-1.2-1.715,1.9,1.9,0,0,1,.8-1.543,3.215,3.215,0,0,1,2-.629,3.567,3.567,0,0,1,2.115.629,1.887,1.887,0,0,1,.8,1.658h-1.6a1.129,1.129,0,0,0-.343-.8,1.181,1.181,0,0,0-.915-.286,1.378,1.378,0,0,0-.857.229.815.815,0,0,0-.343.686.629.629,0,0,0,.343.572,4.585,4.585,0,0,0,1.257.4,4.079,4.079,0,0,1,1.486.514,2.408,2.408,0,0,1,.8.686,1.927,1.927,0,0,1,.286.972,2,2,0,0,1-.8,1.6,3.445,3.445,0,0,1-2.115.629,3.651,3.651,0,0,1-1.6-.343,3.289,3.289,0,0,1-1.086-.857,1.9,1.9,0,0,1-.4-1.2h1.6a1.111,1.111,0,0,0,.457.915,1.63,1.63,0,0,0,1.086.286,1.529,1.529,0,0,0,.972-.229C159.247,128.593,159.189,128.422,159.189,128.136Z" transform="translate(3.937 -119.791)" fill="#4e4e4e"/>
      </g>
    </g>
  </g>
</svg>
