<svg xmlns="http://www.w3.org/2000/svg" xmlns:xlink="http://www.w3.org/1999/xlink" width="300" height="143" viewBox="0 0 300 143">
  <defs>
    <clipPath id="clip-path">
      <rect id="Rectangle_238" data-name="Rectangle 238" width="300" height="143" transform="translate(810 1440)" fill="#ccc"/>
    </clipPath>
    <clipPath id="clip-path-2">
      <rect id="Rectangle_239" data-name="Rectangle 239" width="272.594" height="143" transform="translate(-0.283 0.483)" fill="#ccc"/>
    </clipPath>
  </defs>
  <g id="Mask_Group_3" data-name="Mask Group 3" transform="translate(-810 -1440)" clip-path="url(#clip-path)">
    <g id="Mask_Group_5" data-name="Mask Group 5" transform="translate(823.985 1439.518)" opacity="0.7" clip-path="url(#clip-path-2)">
      <g id="XO-logo" transform="translate(55.138)">
        <g id="Group_369" data-name="Group 369">
          <path id="Path_1263" data-name="Path 1263" d="M7.857,10.364a2.919,2.919,0,0,1,1.4-.182c7.118-.017,14.218.017,21.338-.034a3.107,3.107,0,0,1,3.071,1.788q9.759,17.609,19.62,35.171a10.934,10.934,0,0,0,1.437,2.279,25.975,25.975,0,0,0,1.8-3.582,66.774,66.774,0,0,1,10.6-18A54.257,54.257,0,0,1,97.413,9.654a61.38,61.38,0,0,1,14.73-1.685A57.9,57.9,0,0,1,169,58.932c1.519,12.289-.066,24.131-5.846,35.159-8.8,16.811-22.613,27.083-41.27,30.7a57.009,57.009,0,0,1-31.607-2.527c-13.426-5.1-23.335-14.218-30.2-26.753a63.92,63.92,0,0,1-3.616-7.96,23.223,23.223,0,0,0-1.7-3.633,7.536,7.536,0,0,0-1.341,1.932q-7.9,13.7-15.784,27.435c-1.634,2.84-3.287,5.664-4.872,8.538a3.14,3.14,0,0,1-3.088,1.788c-7.15-.049-14.3-.034-21.45-.049H6.965a4.051,4.051,0,0,1,.842-1.8L24.056,96.145q8.714-13.7,17.455-27.4c.2-.3.38-.611.559-.908a2.645,2.645,0,0,0,.017-2.939q-.644-1.065-1.341-2.13Q24.974,37.649,9.063,12.512a12.239,12.239,0,0,1-1.205-2.148ZM111.78,30.891a34.6,34.6,0,0,0-7.038.726c-11.284,2.428-19.3,8.983-24.309,19.305a45.123,45.123,0,0,0-4.1,17.009,26.8,26.8,0,0,0,3.488,14.83A40.6,40.6,0,0,0,96.686,99.309a30.3,30.3,0,0,0,21.716,2.9c11.048-2.543,19.288-8.786,24.26-19.074a38.94,38.94,0,0,0,3.6-20.048,32.477,32.477,0,0,0-6.724-18.033c-7.015-9.049-16.214-13.921-27.757-14.168Z" transform="translate(-6.965 -7.962)" fill="#595959"/>
          <path id="Path_1264" data-name="Path 1264" d="M67.533,133.025v1.9c.017,2.956.049,5.912.066,8.868,0,1.04-.017,1.04-1.09,1.057-.512.017-1.04.017-1.552,0-.809-.034-.826-.066-.875-.925v-14.5c0-.28,0-.559.017-.842a.482.482,0,0,1,.528-.512c1.156,0,2.311,0,3.463-.017.447,0,.611.314.793.628,1.717,3.1,3.616,6.127,5.07,9.384a2.27,2.27,0,0,0,.559.974c.214-.231.132-.512.112-.76-.165-3.039-.165-6.061-.132-9.1,0-1.106.017-1.106,1.14-1.123,2.328-.034,2.328-.034,2.328,2.346v12.93c0,.314-.017.645-.017.957a.463.463,0,0,1-.495.528H74.353c-.4,0-.528-.314-.677-.594-1.833-3.369-3.8-6.655-5.433-10.123C68.061,133.768,68.012,133.339,67.533,133.025Z" transform="translate(-3.954 -1.631)" fill="#595959"/>
          <path id="Path_1265" data-name="Path 1265" d="M157.787,136.957a5.752,5.752,0,0,1,2.234,3.7c.265,1.04.559,2.081.842,3.121a1.452,1.452,0,0,1,.083,1.005,25.268,25.268,0,0,1-3.171.066c-.463,0-.594-.346-.711-.694-.28-.925-.528-1.833-.776-2.758-.1-.38-.182-.776-.3-1.156a2.413,2.413,0,0,0-2.857-1.948c-.559.034-.793.231-.776.793.017,1.239,0,2.477,0,3.716,0,.447-.017.875,0,1.322.017.479-.149.76-.677.76-.842-.017-1.668,0-2.51-.017-.4,0-.578-.2-.578-.594,0-.231-.017-.479-.017-.711v-14c0-1.222,0-1.255,1.239-1.371a30.224,30.224,0,0,1,5.863-.066,7.979,7.979,0,0,1,1.634.335,4.169,4.169,0,0,1,3.22,3.484,4.339,4.339,0,0,1-1.965,4.558,4.021,4.021,0,0,0-.781.457Zm-5.433-3.831h0c.017.594,0,1.189.017,1.8,0,.314.112.545.463.559a5.28,5.28,0,0,0,2.807-.38,2.234,2.234,0,0,0,1.173-2.3,2.034,2.034,0,0,0-1.6-1.85,5.453,5.453,0,0,0-2.13-.132c-.463.049-.726.231-.711.743s-.017,1.04-.017,1.555Z" transform="translate(0.501 -1.633)" fill="#595959"/>
          <path id="Path_1266" data-name="Path 1266" d="M121.763,136.459v-7.432c.034-.925.049-.942.942-.974h8.372c1.04,0,1.057.017,1.074,1.09,0,2.394.182,2-1.916,2.031-1.271.017-2.559.017-3.831,0-.545,0-.809.215-.809.776-.017,3.2-.28,2.676,2.378,2.725,1.04.017,2.081.017,3.1.017.495,0,.711.215.694.726-.049,2.774.363,2.3-2.2,2.346-1.04.017-2.081.017-3.1.017-.594,0-.875.248-.875.859q.025,1.14,0,2.279c-.017.628.3.826.875.826q2.458-.025,4.9,0c1.09,0,1.123.017,1.106,1.156-.017,2.279.265,1.948-1.965,1.965-2.559.017-5.1.017-7.663,0-1.04,0-1.074-.017-1.074-1.074C121.747,141.331,121.763,138.9,121.763,136.459Z" transform="translate(-0.913 -1.631)" fill="#595959"/>
          <path id="Path_1267" data-name="Path 1267" d="M37.288,136.409v-7.2c0-1.14.017-1.156,1.106-1.156,2.708,0,5.433-.017,8.141,0,1.074,0,1.106.017,1.106,1.057,0,2.428.248,2.031-2,2.065q-1.858.025-3.716,0c-.611-.017-.875.215-.859.842.017.594-.017,1.205,0,1.8.034.793.083.859.942.875,1.354.017,2.708,0,4.079.017,1.14.017,1.173.017,1.156,1.123-.017,2.147.314,1.932-1.882,1.948-1.123.017-2.234-.017-3.352.017-.826.017-.894.1-.925.894-.034.677-.017,1.354,0,2.031.017,1.023.034,1.023,1.123,1.04,1.552.017,3.121,0,4.673,0,1.074,0,1.106.017,1.09,1.04-.017,2.444.265,2.048-2,2.065-2.559.017-5.119.017-7.663,0-.991,0-1.005-.017-1.023-1.005Z" transform="translate(-5.366 -1.631)" fill="#595959"/>
          <path id="Path_1268" data-name="Path 1268" d="M17.333,145.123A12.439,12.439,0,0,1,15,144.957a7.736,7.736,0,0,1-6.721-7.7,8.6,8.6,0,0,1,8.736-9.446,12.032,12.032,0,0,1,3.435.346c1.04.265,1.14.4.875,1.388-.165.611-.1,1.4-.594,1.767s-1.123-.182-1.7-.248a10.645,10.645,0,0,0-1.916-.1,4.908,4.908,0,0,0-4.789,4.756,10.429,10.429,0,0,0,0,1.437,4.9,4.9,0,0,0,4.855,4.8,8.9,8.9,0,0,0,2.956-.335c.512-.149.743,0,.826.512a11.76,11.76,0,0,0,.3,1.519c.182.628-.112.875-.66,1.005a11.934,11.934,0,0,1-3.27.455Z" transform="translate(-6.896 -1.643)" fill="#595959"/>
          <path id="Path_1269" data-name="Path 1269" d="M97.88,137.995c0-1.882.017-3.748,0-5.632-.017-1.106-.049-1.123-1.173-1.14-.842-.017-1.668-.017-2.51,0-.528.017-.776-.182-.809-.76-.182-2.411-.2-2.411,2.262-2.411h9.331c1.288,0,1.3,0,1.3,1.222,0,2.246.149,1.916-1.9,1.948-.594.017-1.205-.017-1.8.017-.793.034-.859.1-.908.925-.017.28,0,.559,0,.842v10.173c0,.314-.017.645,0,.957,0,.479-.182.743-.711.711-.559-.034-1.123,0-1.668,0-1.322-.017-1.4.265-1.4-1.452C97.88,141.595,97.88,139.795,97.88,137.995Z" transform="translate(-2.412 -1.631)" fill="#595959"/>
        </g>
      </g>
    </g>
  </g>
</svg>
