<svg xmlns="http://www.w3.org/2000/svg" xmlns:xlink="http://www.w3.org/1999/xlink" width="300" height="143" viewBox="0 0 300 143">
  <defs>
    <clipPath id="clip-path">
      <rect id="Rectangle_236" data-name="Rectangle 236" width="300" height="143" transform="translate(460 1440)" fill="#ccc"/>
    </clipPath>
  </defs>
  <g id="Mask_Group_2" data-name="Mask Group 2" transform="translate(-460 -1440)" clip-path="url(#clip-path)">
    <g id="IOT_LOGO_Maker_PRINT" transform="translate(508.136 1389.821)">
      <path id="Path_1357" data-name="Path 1357" d="M65.014,80.8A12.2,12.2,0,1,0,77.216,93a12.2,12.2,0,0,0-12.2-12.2" transform="translate(-2.284 -13.982)" fill="#8d8d8d"/>
      <path id="Path_1358" data-name="Path 1358" d="M70.5,78.492a14.352,14.352,0,0,1,5.434,5.243,13.92,13.92,0,0,1,2,7.34,14.087,14.087,0,0,1-2,7.388,14.714,14.714,0,0,1-5.434,5.243,15.858,15.858,0,0,1-15.253,0,14.714,14.714,0,0,1-5.434-5.243,14.546,14.546,0,0,1,0-14.729,14.714,14.714,0,0,1,5.434-5.243,16.206,16.206,0,0,1,15.253,0M57.821,82.258a10.17,10.17,0,0,0-3.718,3.67,9.86,9.86,0,0,0-1.383,5.1A10.159,10.159,0,0,0,54.1,96.177a10.679,10.679,0,0,0,3.718,3.718,9.986,9.986,0,0,0,5.1,1.383,9.69,9.69,0,0,0,5.052-1.383,10.152,10.152,0,0,0,5-8.866,9.826,9.826,0,0,0-1.334-5.1,10.412,10.412,0,0,0-3.671-3.67,9.774,9.774,0,0,0-5.052-1.334,10.068,10.068,0,0,0-5.1,1.334" transform="translate(0 -12.059)" fill="#595959"/>
      <path id="Path_1359" data-name="Path 1359" d="M185.354,122.028a19.638,19.638,0,1,0,19.638,19.638,19.638,19.638,0,0,0-19.638-19.638" transform="translate(-53.843 -32.811)" fill="#8d8d8d"/>
      <path id="Path_1360" data-name="Path 1360" d="M194.238,118.236a23.326,23.326,0,0,1,8.723,32.127,23.65,23.65,0,0,1-8.723,8.484,25.423,25.423,0,0,1-24.5,0,22.956,22.956,0,0,1-8.723-8.484,23.563,23.563,0,0,1,0-23.686,23.165,23.165,0,0,1,8.723-8.437,24.847,24.847,0,0,1,12.25-3.05,25.235,25.235,0,0,1,12.25,3.05m-20.4,6.1a16.606,16.606,0,0,0-6.006,5.91,15.691,15.691,0,0,0-2.241,8.2,16.154,16.154,0,0,0,2.241,8.294,16.492,16.492,0,0,0,6.006,6.006,15.814,15.814,0,0,0,8.2,2.241,15.213,15.213,0,0,0,8.151-2.241,16.605,16.605,0,0,0,5.91-6.006,16.113,16.113,0,0,0,2.193-8.294,15.651,15.651,0,0,0-2.193-8.2,16.717,16.717,0,0,0-5.91-5.91,15.6,15.6,0,0,0-8.151-2.193,16.367,16.367,0,0,0-8.2,2.193" transform="translate(-50.238 -29.686)" fill="#595959"/>
      <path id="Path_1361" data-name="Path 1361" d="M129.817,177.209a6.911,6.911,0,1,0,6.911,6.911,6.911,6.911,0,0,0-6.911-6.911" transform="translate(-34.293 -58.01)" fill="#8d8d8d"/>
      <path id="Path_1362" data-name="Path 1362" d="M133.048,175.849a7.908,7.908,0,0,1,3.05,2.956,8.2,8.2,0,0,1,1.14,4.147,7.755,7.755,0,0,1-1.14,4.147,8.246,8.246,0,0,1-3.05,2.956,8.941,8.941,0,0,1-8.58,0,7.908,7.908,0,0,1-3.05-2.956,8.088,8.088,0,0,1,0-8.294,8.246,8.246,0,0,1,3.05-2.956,8.7,8.7,0,0,1,4.29-1.1,8.833,8.833,0,0,1,4.29,1.1m-7.194,2.145a5.769,5.769,0,0,0-2.1,2.049,5.409,5.409,0,0,0-.762,2.907,5.69,5.69,0,0,0,.811,2.907,5.894,5.894,0,0,0,2.1,2.1,5.744,5.744,0,0,0,5.72-9.962,5.358,5.358,0,0,0-2.86-.762,6.15,6.15,0,0,0-2.907.762" transform="translate(-33.092 -56.888)" fill="#595959"/>
      <path id="Path_1363" data-name="Path 1363" d="M83.7,134.837a3.948,3.948,0,1,0,2.8,1.156,3.956,3.956,0,0,0-2.8-1.156" transform="translate(-14.583 -38.66)" fill="#8d8d8d"/>
      <path id="Path_1364" data-name="Path 1364" d="M85.505,134.052a4.655,4.655,0,0,1,0,8.151,5.264,5.264,0,0,1-4.957,0,4.692,4.692,0,0,1-1.763-1.716,4.893,4.893,0,0,1,0-4.766,4.253,4.253,0,0,1,1.763-1.667,4.913,4.913,0,0,1,2.478-.619,5.3,5.3,0,0,1,2.478.619m-4.1,1.24a2.872,2.872,0,0,0-1.191,1.191,3.22,3.22,0,0,0-.429,1.667,3.345,3.345,0,0,0,.429,1.667A3.178,3.178,0,0,0,81.4,141.01a3.345,3.345,0,0,0,1.667.429,3.169,3.169,0,0,0,1.62-.429,3.562,3.562,0,0,0,1.191-1.191,3.458,3.458,0,0,0,0-3.334,3.229,3.229,0,0,0-2.806-1.622,3.345,3.345,0,0,0-1.667.429" transform="translate(-13.862 -38.019)" fill="#595959"/>
      <path id="Path_1365" data-name="Path 1365" d="M130.108,71.322a3.948,3.948,0,1,0,2.8,1.156,3.956,3.956,0,0,0-2.8-1.156" transform="translate(-35.775 -9.655)" fill="#d6d6d6"/>
      <path id="Path_1366" data-name="Path 1366" d="M131.913,70.538a4.655,4.655,0,0,1,0,8.151,5.264,5.264,0,0,1-4.957,0,4.693,4.693,0,0,1-1.763-1.716,4.893,4.893,0,0,1,0-4.766,4.253,4.253,0,0,1,1.763-1.667,4.913,4.913,0,0,1,2.478-.619,5.452,5.452,0,0,1,2.478.619m-4.147,1.24a2.872,2.872,0,0,0-1.191,1.191,3.22,3.22,0,0,0-.429,1.667,3.345,3.345,0,0,0,.429,1.667,3.177,3.177,0,0,0,1.191,1.191,3.345,3.345,0,0,0,1.667.429,3.169,3.169,0,0,0,1.62-.429,3.562,3.562,0,0,0,1.191-1.191,3.458,3.458,0,0,0,0-3.334,3.229,3.229,0,0,0-2.813-1.62,3.478,3.478,0,0,0-1.667.429" transform="translate(-35.054 -9.014)" fill="#595959"/>
      <path id="Path_1367" data-name="Path 1367" d="M218.744,90.534a5.951,5.951,0,1,0,4.263,1.743,6.006,6.006,0,0,0-4.263-1.743" transform="translate(-75.316 -18.429)" fill="#8d8d8d"/>
      <path id="Path_1368" data-name="Path 1368" d="M221.483,89.295a6.614,6.614,0,0,1,2.67,2.574,7.056,7.056,0,0,1,0,7.245,7.409,7.409,0,0,1-2.67,2.621,7.914,7.914,0,0,1-7.531,0,7.117,7.117,0,0,1-2.67-9.867,6.93,6.93,0,0,1,2.67-2.574,7.751,7.751,0,0,1,3.765-.954,8.317,8.317,0,0,1,3.765.954M215.238,91.2a5.2,5.2,0,0,0-1.859,1.812,4.669,4.669,0,0,0-.668,2.527,5.127,5.127,0,0,0,.668,2.527,5.772,5.772,0,0,0,1.859,1.859,4.669,4.669,0,0,0,2.527.668,4.879,4.879,0,0,0,4.29-2.527,5.115,5.115,0,0,0,0-5.052,4.724,4.724,0,0,0-1.812-1.812,4.95,4.95,0,0,0-2.478-.668,4.2,4.2,0,0,0-2.527.668" transform="translate(-74.195 -17.427)" fill="#595959"/>
      <path id="Path_1369" data-name="Path 1369" d="M188.365,53.163A8.437,8.437,0,1,0,196.8,61.6a8.437,8.437,0,0,0-8.437-8.437" transform="translate(-60.333 -1.362)" fill="#d6d6d6"/>
      <path id="Path_1370" data-name="Path 1370" d="M192.149,51.514a10.007,10.007,0,0,1,3.765,13.823,10.314,10.314,0,0,1-9.055,5,10.519,10.519,0,0,1-5.291-1.334A10.062,10.062,0,0,1,177.8,55.137a9.825,9.825,0,0,1,3.765-3.622,10.9,10.9,0,0,1,5.291-1.335,10.519,10.519,0,0,1,5.291,1.334m-8.819,2.622A6.92,6.92,0,0,0,179.8,60.19a7.165,7.165,0,0,0,.954,3.575,7.392,7.392,0,0,0,2.574,2.574,7,7,0,0,0,7.054,0,6.894,6.894,0,0,0,2.527-2.574,7.165,7.165,0,0,0,.954-3.575,6.861,6.861,0,0,0-.954-3.527,7.127,7.127,0,0,0-2.527-2.527,6.861,6.861,0,0,0-3.526-.953,7.122,7.122,0,0,0-3.528.954" transform="translate(-58.731)" fill="#595959"/>
      <path id="Path_1371" data-name="Path 1371" d="M75.847,157.47a9.438,9.438,0,1,0,9.438,9.438,9.438,9.438,0,0,0-9.438-9.438" transform="translate(-8.493 -48.996)" fill="#d6d6d6"/>
      <path id="Path_1372" data-name="Path 1372" d="M80.083,155.7a11.4,11.4,0,0,1,4.194,4.051,10.989,10.989,0,0,1,1.526,5.672,10.866,10.866,0,0,1-1.526,5.672,11.054,11.054,0,0,1-4.194,4.051,12.37,12.37,0,0,1-11.726,0,11.4,11.4,0,0,1-4.194-4.051,11.092,11.092,0,0,1,4.194-15.4,12.369,12.369,0,0,1,11.726,0m-9.771,2.909a8.083,8.083,0,0,0-2.86,2.807,7.833,7.833,0,0,0,.047,7.912,8.215,8.215,0,0,0,2.86,2.86,7.515,7.515,0,0,0,3.908,1.053,7.4,7.4,0,0,0,3.908-1.053,7.706,7.706,0,0,0,2.813-2.86,7.84,7.84,0,0,0-2.812-10.719,7.4,7.4,0,0,0-3.908-1.053,7.564,7.564,0,0,0-3.956,1.053" transform="translate(-6.771 -47.514)" fill="#595959"/>
      <path id="Path_1373" data-name="Path 1373" d="M128.654,218.7a14.872,14.872,0,1,0,14.868,14.87,14.872,14.872,0,0,0-14.868-14.87" transform="translate(-30.126 -76.96)" fill="#d6d6d6"/>
      <path id="Path_1374" data-name="Path 1374" d="M135.374,215.775A17.292,17.292,0,0,1,142,222.115a17.644,17.644,0,0,1,0,17.874,17.89,17.89,0,0,1-6.625,6.435,19.317,19.317,0,0,1-18.589,0,17.442,17.442,0,0,1,0-30.647,19.662,19.662,0,0,1,18.589,0m-15.44,4.623a12.258,12.258,0,0,0-6.2,10.677,11.833,11.833,0,0,0,1.716,6.244,12.876,12.876,0,0,0,4.529,4.528,12.2,12.2,0,0,0,6.2,1.667,11.9,11.9,0,0,0,6.149-1.667,12.5,12.5,0,0,0,6.149-10.772,11.948,11.948,0,0,0-1.667-6.2,12.241,12.241,0,0,0-4.48-4.48,11.9,11.9,0,0,0-6.149-1.667,12.245,12.245,0,0,0-6.244,1.667" transform="translate(-27.362 -74.556)" fill="#595959"/>
      <rect id="Rectangle_244" data-name="Rectangle 244" width="6.006" height="35.558" transform="translate(92.616 79.018)" fill="#595959"/>
      <rect id="Rectangle_245" data-name="Rectangle 245" width="5.624" height="33.318" transform="translate(102.578 61.286)" fill="#595959"/>
      <rect id="Rectangle_246" data-name="Rectangle 246" width="6.006" height="35.558" transform="translate(81.415 79.018)" fill="#595959"/>
      <rect id="Rectangle_247" data-name="Rectangle 247" width="6.006" height="35.558" transform="translate(67.068 138.741)" fill="#595959"/>
      <path id="Path_1375" data-name="Path 1375" d="M204.963,213.177v5.338H193.714V248.64h-6.006V218.515h-11.2v-5.338Z" transform="translate(-58.771 -74.436)" fill="#595959"/>
      <path id="Path_1376" data-name="Path 1376" d="M137.832,237.828a4.011,4.011,0,0,0-2.907,1.287,4.058,4.058,0,0,0-1.14,2.956,4.2,4.2,0,0,0,1.287,2.907,4.131,4.131,0,0,0,2.527,1.14h.476a4.151,4.151,0,0,0,4.043-4.24,4.223,4.223,0,0,0-4.29-4.051" transform="translate(-39.258 -85.692)" fill="#9e9e9e"/>
      <path id="Path_1377" data-name="Path 1377" d="M141.31,238.549l1.716-.047-.1-5.148-1.716.047a10.338,10.338,0,0,0-.715-1.667l1.191-1.24-3.718-3.575-1.191,1.24a9.173,9.173,0,0,0-1.716-.668l-.047-2.384-5.148.1.047,2.384a10.341,10.341,0,0,0-1.667.715l-1.24-1.191-3.579,3.716,1.24,1.191a9.175,9.175,0,0,0-.668,1.716l-1.716.047.1,5.148,1.716-.047a10.338,10.338,0,0,0,.715,1.667l-1.191,1.24,3.718,3.575,1.191-1.24a9.173,9.173,0,0,0,1.716.668l.047,2.384,5.148-.1L135.4,244.7a10.34,10.34,0,0,0,1.667-.715l1.24,1.191,3.575-3.718-1.24-1.191a6.763,6.763,0,0,0,.668-1.716m-1.235-.807a8.779,8.779,0,0,1-.905,2.335l-.286.476,1,.954-1.573,1.667-1-.954-.476.333a6.98,6.98,0,0,1-2.288,1l-.526.143.047,2.1-2.288.047-.047-2.1-.572-.1a8.78,8.78,0,0,1-2.335-.905l-.476-.286-.954,1-1.667-1.573.954-1-.286-.476a6.98,6.98,0,0,1-1-2.288l-.143-.572-1.43.047-.047-2.288,1.43-.047.1-.572a8.78,8.78,0,0,1,.905-2.335l.286-.476-1-.954,1.573-1.667,1,.954.476-.333a6.98,6.98,0,0,1,2.288-1l.572-.143-.047-2.1,2.288-.047.047,2.1.572.1a8.78,8.78,0,0,1,2.335.905l.476.286.954-1,1.667,1.573-.954,1,.333.476a6.98,6.98,0,0,1,1,2.288l.143.572,1.43-.047.047,2.288-1.383.047Z" transform="translate(-34.013 -79.883)" fill="#9e9e9e"/>
      <path id="Path_1378" data-name="Path 1378" d="M84.534,286.254l5.1,9.819,5.052-9.819h2.86v14.729H95.259V289.924L90.4,299.413H88.824l-4.862-9.485v11.058H81.674V286.254Z" transform="translate(-15.464 -107.807)" fill="#595959"/>
      <path id="Path_1379" data-name="Path 1379" d="M125.924,297.646h-7.436l-1.43,3.334h-2.574l6.482-14.729h2.527l6.435,14.729h-2.67Zm-.954-2.193-2.764-6.53-2.764,6.53Z" transform="translate(-30.447 -107.807)" fill="#595959"/>
      <path id="Path_1380" data-name="Path 1380" d="M156.411,300.982l-4.862-6.53-2.478,2.72v3.813h-2.479V286.254h2.478v7.72l7.007-7.72h2.956l-5.72,6.244,6.1,8.484Z" transform="translate(-45.11 -107.807)" fill="#595959"/>
      <path id="Path_1381" data-name="Path 1381" d="M184.888,286.254v2.241H176.88v3.957h7.194v2.241H176.88v4.051h8.294v2.241H174.4V286.254Z" transform="translate(-57.81 -107.807)" fill="#595959"/>
      <path id="Path_1382" data-name="Path 1382" d="M209.141,300.942l-2.67-4.48h-4.147v4.433h-2.483V286.166H205.8a6.518,6.518,0,0,1,4.386,1.334,4.527,4.527,0,0,1,1.573,3.718,5.058,5.058,0,0,1-.811,3,4.7,4.7,0,0,1-2.241,1.812L212,300.945Zm-3.385-6.673a4.05,4.05,0,0,0,2.67-.762,2.655,2.655,0,0,0,.905-2.241,2.522,2.522,0,0,0-.905-2.145,4.244,4.244,0,0,0-2.67-.715h-3.479v5.815h3.479Z" transform="translate(-69.427 -107.767)" fill="#595959"/>
    </g>
  </g>
</svg>
