<svg xmlns="http://www.w3.org/2000/svg" xmlns:xlink="http://www.w3.org/1999/xlink" width="260" height="206" viewBox="0 0 260 206">
  <defs>
    <clipPath id="clip-path">
      <rect id="Rectangle_236" data-name="Rectangle 236" width="260" height="206" transform="translate(830 1412)" fill="#dcdcdc"/>
    </clipPath>
  </defs>
  <g id="Mask_Group_2" data-name="Mask Group 2" transform="translate(-830 -1412)" clip-path="url(#clip-path)">
    <g id="Untitled-21" transform="translate(840.363 1405.884)">
      <g id="Group_343" data-name="Group 343" transform="translate(-13 -1)">
        <path id="Path_885" data-name="Path 885" d="M189.435,85.468c.128-.154.281-.33.408-.484-3.086-5.764-4.616-11.924-6.248-18.062-2.091-7.81-7.5-13.046-16.091-15.928a9.773,9.773,0,0,1-1.148-.572c.23-.088.306-.154.383-.154a14.165,14.165,0,0,1,1.4.264,27.7,27.7,0,0,0,23.41-4.2c5.126-3.52,10.455-6.776,15.709-10.142.663-.418,1.4-.748,2.346-1.254-.893-.33-1.53-.594-2.168-.77q-7.344-2.112-14.689-4.18a31.243,31.243,0,0,0-21.7,1.606,44.86,44.86,0,0,0-14.077,9.988c4.029-1.012,7.905-2.068,11.833-2.9,5.228-1.122,10.71-1.3,12.266-.462-9.053,1.32-17.341,3.806-24.507,8.8,1.046.462,1.964.858,2.882,1.254-.025.066-.076.132-.1.2-.969-.176-1.938-.352-3.137-.572,2.193,7.876,7.166,14.146,13.057,20-7.064-3.806-11.807-9.416-16.474-15.2a52.268,52.268,0,0,0,1.4,8.47A25.469,25.469,0,0,0,163.22,75.3a25.011,25.011,0,0,0,6.758,3.938C176.4,81.508,182.957,83.422,189.435,85.468Zm-48.223-20.13v.792c-.23,4.444-.867,8.888-.612,13.288.357,6.138,1.377,12.254,2.091,18.392.969,8.4,1.581,16.808.306,25.255a43.817,43.817,0,0,1-11.858,24.4c-2.525,2.64-5.381,5.038-8.058,7.5a10.879,10.879,0,0,0,1.071-.286,32.962,32.962,0,0,0,12.929-7.832,42.346,42.346,0,0,0,12.853-29.435c.408-9.768-.714-19.448-2.142-29.105-1.454-9.724-1.683-19.4.536-29.061.561-2.4,1.3-4.752,1.964-7.15-2.117,1.606-4.157,3.234-6.3,4.73a20.347,20.347,0,0,1-7.115,3.388c4.9-3.256,9.257-6.886,12.088-12.1-2.678.286-5.075.462-7.421.77-6.758.88-11.705,3.85-14.536,9.35-1.275,2.508-2.729,4.928-4.208,7.348-.791,1.32-1.811,2.552-2.958,4.18C127.339,68.793,134.709,69.122,141.212,65.339ZM122.367,134.9c-.076.022-.128.044-.2.066a4.576,4.576,0,0,0,0-.836c-.23-1.232-.408-2.486-.714-3.7-2.55-9.526-8.772-16.346-19.585-19.756-4.743-1.5-9.741-1.716-14.74-2.112a65.672,65.672,0,0,1-19.61-4.2c-4.335-1.76-5.381-3.96-3.647-7.788a69.449,69.449,0,0,1,3.6-6.512c.663-1.1.714-1.98-.383-2.86a16.115,16.115,0,0,1-1.989-1.826c-.689-.814-1.734-1.628-.816-2.838.918-1.166,2.066-1.5,3.8-1.034.306.088.612.154,1.25.308-1.148-1.3-2.168-2.266-2.958-3.344-1.607-2.134-2.55-4.2,1.607-5.324.1-.022.2-.088.281-.11,3.876-1.606,4.412-3.278,1.989-6.358-.689-.88-1.479-1.716-2.219-2.574-1.046-1.232-2.168-2.42-3.111-3.718-1.122-1.54-.51-2.9,1.454-3.542,1.811-.594,3.647-1.1,5.432-1.738,5.61-1.98,11.246-3.96,16.04-7.3a7.593,7.593,0,0,0,3.417-4.554c.255-1.144.663-2.244.893-3.388A78.257,78.257,0,0,1,106.327,7.744c.2-.264.408-.528.612-.814.179-.264.357-.55.51-.814A50.689,50.689,0,0,0,96.84,16.742a46.637,46.637,0,0,0-8.8,20.856c-.765,4.422-2.244,8.316-7.676,10.01-.255.088-.485.2-.74.286-4.82,1.694-9.588,3.476-14.459,5.06-5.075,1.65-6.86,5.5-4.106,9.548a24.964,24.964,0,0,0,2.678,3.3c1.046,1.122,2.27,2.134,3.417,3.212-6.095,2.31-8.288,3.784-4.667,9.856-.332.2-.663.418-1.02.616-1.938,1.188-2.805,2.9-2.04,4.84a14.053,14.053,0,0,0,2.423,3.85,1.454,1.454,0,0,1,.179,1.958,55.462,55.462,0,0,0-3.009,6.27c-1.607,4.268-.051,8.25,4.463,10.428a56.627,56.627,0,0,0,9.92,3.52c6.6,1.76,13.516,1.958,20.324,2.684,10.4,1.144,18.82,5.346,24.175,13.376A80.885,80.885,0,0,1,122.367,134.9Zm78.39,40c-1.632,0-2.933.066-4.208-.022-1.4-.11-1.836.33-1.811,1.562.051,3.7.051,7.414-.128,11.132-.1,2.442-1.479,3.564-4.259,3.652-2.907.088-5.814.132-8.7,0-4.31-.2-5.687-1.518-5.687-5.258-.026-5.522,0-11.044,0-16.544,0-3.784,0-3.762-4.463-3.674-.995.022-1.454.22-1.454,1.166.051,7.238-.051,14.476.076,21.692.1,5.192,3.443,7.854,9.486,7.854h58.041c.587,0,1.148-.044,1.785-.066v-5.06c-.638-.022-1.224-.066-1.785-.066-4.08,0-8.16-.044-12.241.022a2.576,2.576,0,0,1-2.652-1.408,7.777,7.777,0,0,1,.2-8.162c2.193-3.52,8.135-3.564,10.506-.11.23.33.459.682.714,1.078,1.683-.7,3.264-1.364,4.82-2.024-1.811-4.51-7.8-6.974-13.669-5.786a11.738,11.738,0,0,0-7.166,4.18c-2.933,3.718-3.035,7.766-1.352,12.034H199.686C201.522,185.676,200.349,180.352,200.757,174.9Zm-147.447.022v1.694c0,3.608,0,7.238-.051,10.846-.026,2.552-1.2,3.7-4.157,3.784-3.009.088-6.018.11-9.027-.044-3.9-.22-5.253-1.452-5.3-4.84-.077-4.6-.051-9.174-.051-13.772,0-1.892.051-3.806-.051-5.7-.026-.4-.561-1.056-.918-1.078-1.581-.11-3.188-.044-4.871-.044a10.654,10.654,0,0,0-.1,1.078c0,7.04-.051,14.08.026,21.142.051,4.906,2.831,8.1,7.65,8.316,5.2.22,10.43.154,15.607-.066,3.927-.176,6.63-2.508,6.86-5.918.306-4.8.23-9.636.255-14.454a1.336,1.336,0,0,0-.944-.9C56.7,174.852,55.146,174.918,53.31,174.918Zm96.6-147.881c3.009,4.092,4.055,8.712,5,13.442a25.615,25.615,0,0,0,1.964-5.214c1.607-6.71.434-12.8-5.636-17.754-.944-.77-1.76-1.628-2.678-2.4-1.76-1.452-3.545-2.9-5.228-4.268-.918,4.2-1.734,8.228-2.652,12.254-.969,4.224-.995,8.294,1.913,12.034A39.32,39.32,0,0,0,151,42.855C152.28,37.355,151.438,32.185,149.908,27.037Zm15.377,99.988c7.14-4.774,10.277-11.176,8.033-18.678-1.607-5.368-5.049-9.988-8.135-14.74-3.417-5.236-6.732-10.516-9.869-15.884-1.122-1.914-1.581-4.114-2.4-6.358a22.52,22.52,0,0,0,.153,9.944c1.454,6.182,4.794,11.748,7.752,17.446a116.811,116.811,0,0,1,5.942,12.87A16.745,16.745,0,0,1,165.285,127.025Zm-15.25-82.52c-1.2-1.474-2.219-2.706-3.239-3.938-4.488-5.324-10.455-7.48-18.08-6.666-3.774.4-7.6.242-11.4.352-.281,0-.587.022-1.3.066,2.474,2.75,4.794,5.192,6.987,7.766,5.585,6.578,15.632,7.568,24.048,5.214-9.206-2.574-12.776-4-14.051-5.786C138.432,43.581,143.839,44.989,150.035,44.505ZM137.9,196.236a3.134,3.134,0,0,0,.638.154c8.109.022,16.219.022,24.328.044.944,0,1.2-.374,1.173-1.1-.051-1.716.051-3.432-.025-5.148-.178-3.168-.74-6.314-2.78-9.02-4-5.324-10.379-6.644-16.5-6.182-.281.022-.765.418-.765.66-.076,1.232-.025,2.486-.025,3.828.791.044,1.428.066,2.04.088,7.421.176,11.628,3.762,12.037,10.12.077,1.188-.255,1.65-1.734,1.628-5.534-.066-11.067-.022-16.6-.022-.561,0-1.122.044-1.76.088C137.9,193.046,137.9,194.608,137.9,196.236ZM77.1,185.214h.255v-6.8c0-3.476,0-3.41-4.055-3.5-1.556-.044-1.887.44-1.887,1.65.051,5.412,0,10.846.051,16.258.026,3.564-1.454,6.974-6.656,7.238a1.441,1.441,0,0,0-1.1.726c-.867,3.168-.025,3.916,3.672,3.41,5.891-.814,9.053-3.41,9.639-8.558A94.876,94.876,0,0,0,77.1,185.214Zm12.19,11.176V169.33c0-3.74,0-3.7-4.284-3.7-1.25,0-1.556.4-1.556,1.386.051,2.508,0,4.994,0,7.5,0,6.8,0,13.618.026,20.416,0,.616-.23,1.408.944,1.43C85.977,196.434,87.507,196.39,89.292,196.39Zm9.18-141.435c2.091.726,3.621-.176,5.177-.924.1.132.2.264.332.418-.612.33-1.224.66-1.887,1.012a9.391,9.391,0,0,0,8.645-2.618c-5.559.99-10.022-.484-13.108-3.982-2.7.528-5.049.968-7.319,1.408,1.454.946,3.341.638,5.228.418a3.363,3.363,0,0,0,.026.506c-1.173.22-2.346.418-3.57.638,1.632,1.408,3.494,1.144,5.508.946-.663.308-1.326.594-1.964.9.026.11.026.2.051.308h4.539C99.518,54.339,99.11,54.581,98.472,54.955ZM48.567,206.883c0-1.452.051-2.728-.026-4.026-.026-.33-.459-.924-.74-.946-1.632-.088-3.264-.044-4.973-.044v4.994C44.716,206.883,46.5,206.883,48.567,206.883Zm146.07-4.972c0,1.518-.026,2.948.025,4.356,0,.242.485.638.765.66,1.581.066,3.162.022,4.871.022v-4.84l-4.386-.264C195.58,201.846,195.274,201.89,194.637,201.912ZM53.361,201.89V206.8c5.126.814,5.916.264,5.661-3.85,0-.132.051-.308-.026-.418-.179-.242-.434-.616-.663-.616C56.7,201.868,55.069,201.89,53.361,201.89ZM184.1,206.773c5.33.792,5.993.33,5.789-3.718,0-.088.051-.22-.025-.264-.357-.308-.689-.814-1.1-.858a20.759,20.759,0,0,0-3.7-.022,1.268,1.268,0,0,0-.944.77C184.054,204.046,184.1,205.432,184.1,206.773Zm-72.627-43.317v4.818c4.845.99,5.993.2,5.61-3.85,0-.044.026-.11,0-.132-.306-.286-.612-.77-.969-.792C114.614,163.39,113.11,163.456,111.478,163.456Zm10.608.044c-.587,4.928-.255,5.28,4.463,4.95.1,0,.255.022.306-.022.281-.2.791-.418.791-.66.076-1.408.026-2.816.026-4.268Zm-41.363-1.65c1.836-1.606,3.57-.814,5.3.176a13.452,13.452,0,0,0,2.219,1.1A2.337,2.337,0,0,0,91,162.18a5.69,5.69,0,0,0,.612-1.76c-.153-.044-.306-.11-.459-.154a3.53,3.53,0,0,1-4.514.176,9.478,9.478,0,0,0-2.933-1.386,4.123,4.123,0,0,0-2.55.594C80.366,160.091,79.831,160.882,80.723,161.85Z" transform="translate(0)" fill="#979797"/>
        <path id="Path_886" data-name="Path 886" d="M172.4,85.468c-6.477-2.068-13.031-3.96-19.406-6.248a25.011,25.011,0,0,1-6.758-3.938,25.4,25.4,0,0,1-9.027-14.146,51.873,51.873,0,0,1-1.4-8.47c4.692,5.786,9.41,11.4,16.474,15.2-5.891-5.852-10.889-12.144-13.057-20,1.2.22,2.168.4,3.137.572.026-.066.077-.132.1-.2-.918-.4-1.836-.792-2.882-1.254,7.166-4.994,15.454-7.48,24.507-8.8-1.556-.858-7.038-.66-12.266.462-3.927.836-7.8,1.914-11.833,2.9a44.224,44.224,0,0,1,14.077-9.988,31.243,31.243,0,0,1,21.7-1.606q7.344,2.079,14.689,4.18c.638.176,1.275.44,2.168.77-.944.506-1.683.814-2.346,1.254-5.253,3.366-10.608,6.622-15.709,10.142a27.717,27.717,0,0,1-23.41,4.2c-.459-.11-.944-.176-1.4-.264-.076-.022-.179.066-.383.154a9.77,9.77,0,0,0,1.148.572c8.594,2.882,14,8.118,16.091,15.928,1.658,6.116,3.188,12.3,6.248,18.062A6.747,6.747,0,0,0,172.4,85.468Z" transform="translate(17.038)" fill="#979797"/>
        <path id="Path_887" data-name="Path 887" d="M128.709,65.339c-6.5,3.784-13.873,3.476-21.4,4.444,1.148-1.628,2.142-2.86,2.958-4.18,1.479-2.42,2.933-4.862,4.208-7.348,2.805-5.5,7.752-8.47,14.536-9.35,2.372-.308,4.743-.506,7.421-.77-2.831,5.214-7.191,8.822-12.088,12.1a20.135,20.135,0,0,0,7.115-3.388c2.142-1.5,4.182-3.124,6.3-4.73-.663,2.4-1.428,4.752-1.964,7.15-2.219,9.658-1.964,19.338-.535,29.061,1.428,9.658,2.55,19.338,2.142,29.105a42.565,42.565,0,0,1-12.853,29.435,32.961,32.961,0,0,1-12.929,7.832,10.876,10.876,0,0,1-1.071.286c2.678-2.486,5.534-4.884,8.058-7.5a43.886,43.886,0,0,0,11.858-24.4c1.275-8.426.663-16.83-.306-25.255-.714-6.138-1.734-12.254-2.091-18.392-.255-4.422.383-8.866.612-13.288A6.36,6.36,0,0,0,128.709,65.339Z" transform="translate(12.503)" fill="#979797"/>
        <path id="Path_888" data-name="Path 888" d="M118.289,134.9a88.09,88.09,0,0,0-4.412-8.426c-5.355-8.008-13.745-12.232-24.175-13.376-6.809-.748-13.72-.946-20.324-2.684a55.19,55.19,0,0,1-9.92-3.52c-4.488-2.178-6.069-6.16-4.463-10.428A53.709,53.709,0,0,1,58,90.2a1.456,1.456,0,0,0-.179-1.958A15.789,15.789,0,0,1,55.4,84.39c-.765-1.936.128-3.652,2.04-4.84.332-.2.689-.418,1.02-.616-3.647-6.05-1.428-7.546,4.667-9.856-1.173-1.078-2.372-2.09-3.417-3.212a27.185,27.185,0,0,1-2.678-3.3c-2.729-4.048-.969-7.9,4.106-9.548,4.871-1.584,9.639-3.366,14.459-5.06.255-.088.485-.22.74-.286,5.432-1.694,6.911-5.588,7.676-10.01a46.638,46.638,0,0,1,8.8-20.856A49.584,49.584,0,0,1,103.421,6.182c-.179.264-.332.55-.51.814-.2.286-.408.55-.612.814A78.257,78.257,0,0,0,88.121,39.929c-.23,1.144-.638,2.244-.893,3.388a7.629,7.629,0,0,1-3.417,4.554c-4.794,3.322-10.43,5.3-16.04,7.3-1.785.638-3.621,1.144-5.432,1.738-1.964.638-2.576,2-1.454,3.542.944,1.3,2.066,2.486,3.111,3.718.74.858,1.5,1.694,2.219,2.574C68.638,69.8,68.1,71.5,64.226,73.1a1.481,1.481,0,0,1-.281.11c-4.157,1.122-3.213,3.19-1.607,5.324.816,1.078,1.811,2.068,2.958,3.344-.663-.154-.969-.22-1.25-.308-1.734-.462-2.907-.132-3.8,1.034-.944,1.21.1,2,.816,2.838a14.468,14.468,0,0,0,1.989,1.826c1.1.88,1.046,1.76.383,2.86a61.8,61.8,0,0,0-3.6,6.512c-1.734,3.828-.689,6.028,3.647,7.788a66.187,66.187,0,0,0,19.61,4.2c4.973.4,9.971.616,14.74,2.112,10.812,3.41,17.06,10.23,19.585,19.756a36.534,36.534,0,0,1,.714,3.7,4.575,4.575,0,0,1,0,.836C118.161,134.945,118.238,134.923,118.289,134.9Z" transform="translate(4.078)" fill="#979797"/>
        <path id="Path_889" data-name="Path 889" d="M181.356,174.9c-.434,5.456.74,10.8-1.071,16.192h17.137c-1.683-4.246-1.581-8.294,1.352-12.034a11.81,11.81,0,0,1,7.166-4.18c5.865-1.188,11.858,1.276,13.669,5.786-1.556.66-3.137,1.32-4.82,2.024-.255-.4-.485-.726-.714-1.078-2.372-3.454-8.313-3.41-10.506.11a7.777,7.777,0,0,0-.2,8.162,2.566,2.566,0,0,0,2.652,1.408c4.08-.066,8.16-.044,12.241-.022.587,0,1.148.044,1.785.066v5.06c-.638.022-1.224.066-1.785.066H160.216c-6.069,0-9.41-2.662-9.486-7.854-.128-7.238-.025-14.454-.076-21.692,0-.946.459-1.144,1.454-1.166,4.437-.088,4.437-.11,4.463,3.674v16.544c0,3.74,1.377,5.06,5.687,5.258,2.882.132,5.814.11,8.7,0,2.78-.088,4.157-1.21,4.259-3.652.153-3.7.179-7.414.128-11.132-.025-1.232.408-1.65,1.811-1.562C178.449,174.962,179.724,174.9,181.356,174.9Z" transform="translate(19.401)" fill="#979797"/>
        <path id="Path_890" data-name="Path 890" d="M53.31,174.918c1.836,0,3.392-.066,4.922.044.357.022.969.594.944.9-.026,4.818.051,9.636-.255,14.454-.2,3.388-2.933,5.742-6.86,5.918-5.2.22-10.43.286-15.607.066-4.82-.2-7.6-3.41-7.65-8.316-.077-7.04-.026-14.08-.026-21.142a10.655,10.655,0,0,1,.1-1.078c1.683,0,3.29-.066,4.871.044.357.022.893.7.918,1.078.1,1.892.051,3.806.051,5.7,0,4.6-.026,9.174.051,13.772.051,3.388,1.4,4.62,5.3,4.84,3.009.154,6.018.132,9.027.044,2.958-.088,4.131-1.21,4.157-3.784.051-3.608.026-7.238.051-10.846Z" transform="translate(0)" fill="#979797"/>
        <path id="Path_891" data-name="Path 891" d="M134.621,27.037c1.53,5.148,2.372,10.318,1.1,15.862a39.32,39.32,0,0,1-8.415-7.722c-2.907-3.762-2.882-7.832-1.913-12.034.918-4.026,1.76-8.074,2.652-12.254,1.683,1.386,3.468,2.816,5.228,4.268.918.77,1.76,1.628,2.678,2.4,6.069,4.928,7.217,11.022,5.636,17.754a29.655,29.655,0,0,1-1.964,5.214C138.676,35.749,137.63,31.129,134.621,27.037Z" transform="translate(15.287)" fill="#979797"/>
        <path id="Path_892" data-name="Path 892" d="M121.962,184.862c.025,6.8-5.253,11.528-12.929,11.572-7.65.022-13.108-4.862-13.159-11.77-.026-6.578,5.457-11.4,13.006-11.418C116.555,173.18,121.936,177.976,121.962,184.862Zm-5.916-.022a21.67,21.67,0,0,0-.944-3.322,6.381,6.381,0,0,0-5.687-3.74,6.55,6.55,0,0,0-6.146,2.6,7.685,7.685,0,0,0,.485,9.064,6.932,6.932,0,0,0,6.324,2.31,5.941,5.941,0,0,0,5.126-3.74A19.135,19.135,0,0,0,116.045,184.84Z" transform="translate(10.682)" fill="#979797"/>
        <path id="Path_893" data-name="Path 893" d="M148.307,127.025a16.626,16.626,0,0,0,1.454-15.378,117.776,117.776,0,0,0-5.942-12.87c-2.958-5.7-6.3-11.264-7.752-17.446a22.52,22.52,0,0,1-.153-9.944c.816,2.244,1.275,4.444,2.4,6.358,3.137,5.368,6.452,10.648,9.869,15.884,3.111,4.752,6.528,9.372,8.135,14.74C158.584,115.827,155.473,122.251,148.307,127.025Z" transform="translate(16.978)" fill="#979797"/>
        <path id="Path_894" data-name="Path 894" d="M138.058,44.505c-6.222.484-11.6-.924-17.06-2.992,1.275,1.782,4.845,3.212,14.051,5.786-8.39,2.354-18.463,1.364-24.048-5.214-2.168-2.574-4.514-5.016-6.987-7.766.714-.044,1.02-.066,1.3-.066,3.8-.11,7.65.044,11.4-.352,7.625-.814,13.592,1.364,18.08,6.666C135.865,41.8,136.859,43.031,138.058,44.505Z" transform="translate(11.978)" fill="#979797"/>
        <path id="Path_895" data-name="Path 895" d="M122.911,196.236v-4.884c.638-.022,1.2-.088,1.76-.088,5.534,0,11.067-.044,16.6.022,1.479.022,1.811-.44,1.734-1.628-.408-6.358-4.641-9.922-12.037-10.12-.638-.022-1.25-.044-2.04-.088,0-1.364-.051-2.6.026-3.828a1.083,1.083,0,0,1,.765-.66c6.146-.462,12.521.858,16.5,6.182,2.04,2.728,2.6,5.852,2.78,9.02.1,1.716,0,3.432.026,5.148.025.726-.23,1.122-1.173,1.1-8.109-.022-16.219-.022-24.328-.044A1.894,1.894,0,0,1,122.911,196.236Z" transform="translate(14.986)" fill="#979797"/>
        <path id="Path_896" data-name="Path 896" d="M72.346,185.214a94.359,94.359,0,0,1-.076,10.406c-.587,5.148-3.749,7.744-9.639,8.558-3.7.506-4.539-.242-3.672-3.41a1.488,1.488,0,0,1,1.1-.726c5.2-.264,6.681-3.674,6.656-7.238-.051-5.412,0-10.846-.051-16.258-.026-1.232.332-1.694,1.887-1.65,4.055.11,4.055.022,4.055,3.5v6.8A1.1,1.1,0,0,1,72.346,185.214Z" transform="translate(4.756)" fill="#979797"/>
        <path id="Path_897" data-name="Path 897" d="M81.782,196.39c-1.785,0-3.315.022-4.871,0-1.173-.022-.944-.814-.944-1.43-.026-6.8-.026-13.618-.026-20.416,0-2.508.051-4.994,0-7.5-.025-.99.306-1.386,1.556-1.386,4.284,0,4.284-.044,4.284,3.7v23.759C81.782,194.1,81.782,195.136,81.782,196.39Z" transform="translate(7.51)" fill="#979797"/>
        <path id="Path_898" data-name="Path 898" d="M90.024,54.955c.612-.374,1.046-.616,1.632-.968H87.117c-.026-.11-.026-.2-.051-.308.663-.308,1.326-.594,1.964-.9-1.989.2-3.876.462-5.508-.946,1.224-.22,2.4-.44,3.57-.638a3.363,3.363,0,0,0-.026-.506c-1.887.242-3.774.528-5.228-.418,2.27-.44,4.616-.88,7.319-1.408,3.111,3.5,7.548,4.972,13.108,3.982a9.412,9.412,0,0,1-8.645,2.618c.663-.352,1.275-.682,1.887-1.012-.1-.132-.2-.264-.332-.418C93.645,54.779,92.115,55.681,90.024,54.955Z" transform="translate(8.448)" fill="#979797"/>
        <path id="Path_899" data-name="Path 899" d="M46.638,206.883H40.875V201.89c1.709,0,3.341-.044,4.973.044a1.209,1.209,0,0,1,.74.946C46.689,204.156,46.638,205.454,46.638,206.883Z" transform="translate(1.928)" fill="#979797"/>
        <path id="Path_900" data-name="Path 900" d="M171.861,201.912c.638-.022.944-.066,1.275-.044l4.386.264v4.84c-1.683,0-3.29.022-4.871-.022a1.083,1.083,0,0,1-.765-.66C171.836,204.86,171.861,203.43,171.861,201.912Z" transform="translate(22.776)" fill="#979797"/>
        <path id="Path_901" data-name="Path 901" d="M49.983,201.89c1.683,0,3.341-.022,4.973.022.23,0,.459.374.663.616.077.088.026.264.026.418.255,4.114-.536,4.664-5.661,3.85C49.983,205.234,49.983,203.65,49.983,201.89Z" transform="translate(3.378)" fill="#979797"/>
        <path id="Path_902" data-name="Path 902" d="M162.776,206.773c0-1.342-.051-2.728.051-4.092a1.268,1.268,0,0,1,.944-.77,23.058,23.058,0,0,1,3.7.022c.408.044.74.55,1.1.858.051.044,0,.176.026.264C168.769,207.1,168.08,207.565,162.776,206.773Z" transform="translate(21.329)" fill="#979797"/>
        <path id="Path_903" data-name="Path 903" d="M100.12,163.456c1.632,0,3.162-.044,4.641.044.332.022.638.506.969.792.026.022,0,.088,0,.132.383,4.048-.765,4.84-5.61,3.85Z" transform="translate(11.358)" fill="#979797"/>
        <path id="Path_904" data-name="Path 904" d="M109.3,163.5h5.61c0,1.452.025,2.86-.025,4.268,0,.22-.51.44-.791.66a.693.693,0,0,1-.306.022C109.046,168.78,108.715,168.428,109.3,163.5Z" transform="translate(12.785)" fill="#979797"/>
        <path id="Path_905" data-name="Path 905" d="M73.652,161.85c-.893-.968-.357-1.76.434-2.222a4.085,4.085,0,0,1,2.55-.594,9.479,9.479,0,0,1,2.933,1.386,3.527,3.527,0,0,0,4.514-.176c.153.044.306.11.459.154a5.69,5.69,0,0,1-.612,1.76,2.337,2.337,0,0,1-2.754.946,11.919,11.919,0,0,1-2.219-1.1C77.222,161.036,75.514,160.245,73.652,161.85Z" transform="translate(7.071)" fill="#979797"/>
      </g>
    </g>
  </g>
</svg>
