<svg xmlns="http://www.w3.org/2000/svg" xmlns:xlink="http://www.w3.org/1999/xlink" width="260" height="201" viewBox="0 0 260 201">
  <defs>
    <clipPath id="clip-path">
      <rect id="Rectangle_241" data-name="Rectangle 241" width="260" height="201" transform="translate(692 1633)" fill="#dcdcdc"/>
    </clipPath>
  </defs>
  <g id="Mask_Group_4" data-name="Mask Group 4" transform="translate(-692 -1633)" clip-path="url(#clip-path)">
    <g id="Untitled-2112" transform="translate(690.78 1617.457)">
      <g id="Group_345" data-name="Group 345">
        <path id="Path_926" data-name="Path 926" d="M37.126,112.765c0-1.12.049-2.069,0-3.019a7.854,7.854,0,0,0-3.116-5.916c-4.139-3.384-14.242-4.114-19.135,1.242a14.938,14.938,0,0,0-3.7,10.273c-.1,4.626.657,9.032,4.309,12.367,4.674,4.309,13.8,4.528,18.721.487a8.246,8.246,0,0,0,3.165-6.622V119.07c2.8.316,5.648.584,8.5,1.022.316.049.73.974.755,1.485a14.41,14.41,0,0,1-6.89,13.024,22.6,22.6,0,0,1-9.446,3.287,34.384,34.384,0,0,1-13.828-.657c-8.642-2.288-14.047-8.594-15.021-17.455a28.221,28.221,0,0,1,.511-10.006c1.7-6.792,5.77-11.612,12.294-14.047a30.737,30.737,0,0,1,23.42.73c5.794,2.483,8.91,7.06,8.959,13.536,0,1.047-.316,1.582-1.412,1.7C42.555,112.01,39.877,112.4,37.126,112.765Z" fill="#979797"/>
        <path id="Path_927" data-name="Path 927" d="M237.7,126.593V137.4h-9.008V94.75h8.983v16.676c.511-.56.755-.779.949-1.047,4.528-5.94,14.193-5.77,18.624-2.775,5.064,3.408,5.185,11.393.146,15.215a37.531,37.531,0,0,1-4.406,2.581c2.678,3.871,5.38,7.839,8.229,11.953-.463.049-.779.146-1.1.146-2.581,0-5.161-.024-7.742.024a1.925,1.925,0,0,1-1.9-1c-1.85-2.97-3.822-5.867-5.7-8.813a2.008,2.008,0,0,0-2.094-1.144C241.111,126.69,239.5,126.593,237.7,126.593Zm4.139-4.6v.049a13.537,13.537,0,0,0,2.629-.024,25.518,25.518,0,0,0,5.258-1.485,4.139,4.139,0,0,0,2.313-4.6,4.262,4.262,0,0,0-3.457-3.676,8.4,8.4,0,0,0-10.882,8.74c.049.706.268,1.022.949,1.022C239.723,121.992,240.77,121.992,241.841,121.992Z" fill="#979797"/>
        <path id="Path_928" data-name="Path 928" d="M52.779,121.894c0-9.032,5.77-15.289,14.8-16.141a24.4,24.4,0,0,1,9.835.8c6.111,1.9,9.835,5.964,10.785,12.343.828,5.551-.146,10.663-4.309,14.777a15.536,15.536,0,0,1-7.6,3.993A24.19,24.19,0,0,1,64,137.4C56.8,135.284,52.779,129.709,52.779,121.894Zm26.682.341a47.1,47.1,0,0,0-1.242-5.794c-1.144-3.214-3.871-4.918-7.376-4.942-3.725-.024-6.427,1.558-7.669,4.747a15.107,15.107,0,0,0,.1,11.564c1.29,3.092,3.8,4.479,7.084,4.577,3.311.1,6.086-1.022,7.474-4.139A44.253,44.253,0,0,0,79.461,122.235Z" fill="#979797"/>
        <path id="Path_929" data-name="Path 929" d="M188.575,122.04c-.049,8.935-5.7,15.24-14.631,15.946a29.343,29.343,0,0,1-8.886-.463c-9.275-2.069-13.049-9.519-12.026-18.015.949-7.912,6.573-13.146,14.7-13.73a30.9,30.9,0,0,1,8.35.414C184.119,107.872,188.6,113.739,188.575,122.04Zm-9.008-.1a43.246,43.246,0,0,0-1.485-5.94c-1.339-3.287-4.09-4.552-7.523-4.479-3.335.049-5.916,1.436-7.206,4.6a15.018,15.018,0,0,0,.049,11.832c1.339,3.189,4.041,4.5,7.425,4.479s6.038-1.388,7.328-4.6A47.367,47.367,0,0,0,179.567,121.943Z" fill="#979797"/>
        <path id="Path_930" data-name="Path 930" d="M202.3,106.387c.438,2.118.852,4.236,1.363,6.719.316-.682.487-.974.633-1.29a10.089,10.089,0,0,1,11.588-5.624,7.537,7.537,0,0,1,5.867,5.258,12.949,12.949,0,0,1,.463,6.938,1.384,1.384,0,0,1-.755.949c-2.313.609-4.65,1.12-6.987,1.655-.073-1.461-.073-2.824-.243-4.163-.316-2.386-1.607-3.9-3.384-4.212a4.36,4.36,0,0,0-4.991,2.824,15.108,15.108,0,0,0-1.12,5.185c-.146,5.064-.049,10.127-.049,15.191v1.607h-9.129V106.411C197.826,106.387,200.017,106.387,202.3,106.387Z" fill="#979797"/>
        <path id="Path_931" data-name="Path 931" d="M117.561,137.5c-3.238,0-6.281.049-9.3-.049-.39,0-.925-.633-1.12-1.1-3.846-9.056-7.644-18.137-11.466-27.193-1.826-4.333-3.652-8.642-5.453-12.976-.195-.463-.365-.925-.584-1.509,3.189,0,6.232-.024,9.251.049.365,0,.9.536,1.071.949q4.893,11.5,9.689,23.006c2.434,5.818,4.869,11.612,7.328,17.431A9.933,9.933,0,0,1,117.561,137.5Z" fill="#979797"/>
        <path id="Path_932" data-name="Path 932" d="M109.941,94.652c3.262,0,6.281-.049,9.3.049.414.024.974.706,1.193,1.193q4.6,10.773,9.1,21.594,3.871,9.2,7.742,18.429c.195.463.365.925.609,1.558-3.262,0-6.354.024-9.47-.049-.341,0-.779-.682-.974-1.12Q122.15,123.817,116.9,111.28C114.639,105.851,112.351,100.373,109.941,94.652Z" fill="#979797"/>
        <path id="Path_933" data-name="Path 933" d="M151.814,94.652c-3.189,10.054-6.281,19.841-9.47,29.92-.268-.56-.438-.9-.56-1.242-1.485-3.6-2.994-7.206-4.431-10.833a3.059,3.059,0,0,1-.146-1.8c1.388-4.966,2.873-9.884,4.26-14.85.268-.925.633-1.242,1.607-1.217C145.9,94.7,148.747,94.652,151.814,94.652Z" fill="#979797"/>
      </g>
    </g>
  </g>
</svg>
