<svg xmlns="http://www.w3.org/2000/svg" width="389.1" height="238.602" viewBox="0 0 389.1 238.602">
  <g id="Layer_1_copy" transform="translate(-27.6 -41.3)">
    <g id="Group_348" data-name="Group 348">
      <g id="Group_347" data-name="Group 347">
        <path id="Path_941" data-name="Path 941" d="M243.5,146.1c.7,14.5,1.4,29,2.2,43.5.1,2.5.5,5,.7,7.6-1.6,2.4,1.4,3.9,1.1,6.1a4.176,4.176,0,0,1-3.3,3.2c-2.1.3-4.2.4-5.3-1.9-.7-1.5-.8-3.1,1.7-4.4-12.6,1.1-24.6,0-36.7.4-9.9.3-9.9.2-13.8-8.7-.6-8.6-6-17.1-.6-25.9.3-.5-.9-.8-1.3-1.2-1-1.3-1.7-2.7-.9-4.2,1-1.9,3.1-.8,4.7-1.4-1.9-2-1-3.3,1.1-4.3,2.1-.5,3.6.6,5,1.7-1.3-1.6-3.1-1.8-5-2.2a15.3,15.3,0,0,1-1.8-1.8c-1.4-1.4-2.5-3-.9-4.9s3.1-.3,4.5.4c1.3.7,2.4,1.8,3.8,2.5a32.119,32.119,0,0,1-3-2.1c-1.2-1-3.6-1.3-2.5-3.7.9-2,2.5-3.3,4.9-2.3,1.4.9,2.6,2.1,4.7,2.2a10.549,10.549,0,0,1-4.3-1.8c-1.9-1.1-1.4-2.5-.2-3.8,1.1-1.2,2.3-2,4-1.3,1.9.7,3.2,2.2,5.4,3.6-1-.9-.4-.2-.9-.7-1.7-1.8-5.5-3.5-2.9-6.4,2.4-2.7,3.6,1.8,5.7,2.3,1.1.7,2,1.6,3.1,2.3a36.543,36.543,0,0,0-3.1-2.4c-1.5-1.4-4.4-2.4-3-5.1,1.3-2.4,3.1-5.1,6.7-4.4a6.028,6.028,0,0,0,3.5-.3c4.4-.9,8.7-.1,13.1.5,3.4.4,5.7,2,6.1,5.6a5.635,5.635,0,0,1-1.5,4.6c3.3-1.5,6.5-.5,9.8.1a3.273,3.273,0,0,1-.5,2.7C241.9,142.1,242.8,144.1,243.5,146.1Z" fill="#7e7e7e"/>
        <path id="Path_942" data-name="Path 942" d="M244.7,205.4c1.4-.5,1.8-1.8,2.1-3.1,5.4-2.9,11.2-1.5,16.8-1,2,.2,2.6,1.9,2.6,3.8,0,2-.1,4,.5,5.3.2-3.4-2.5-7.6,1.5-11.1,6.3.1,12.6.7,19,.3,5.5-.3,11,1.8,16.6-.2.2-.1.8.1.8.3a33.915,33.915,0,0,1,.2,12.7c-.3,2.7-3.4,1.4-5.2,1.4-53.2.1-106.3,0-159.5,0-1,0-2-.1-3.1-.2-.9-1.4-.4-3-.5-4.5-.1-9,1.2-10.1,10.2-9.2,2.2.2,4.1,1.9,6.8.9,1.7-.6,2.4,1.9,2.6,3-1.4-2.8-.5-5,3.4-5.5a43.577,43.577,0,0,1,20.2-3.4c2.9.1,4.4-.5,4.3-3.9-.2-5.4,0-10.9.3-16.3a6.847,6.847,0,0,0-1.4-4.2c1.1-2.1-.1-4-.2-6.1a9.664,9.664,0,0,1,2.4-3.3c2.3-.1,1.7,2.5,3,3.3,1.5,0,3.1,0,4.3,1.5-4.2.9-3.7,4.7-4,7.4-.4,2.9-1,5.9,2,8.8,1.5,1.4.1,5.7.1,8.7a8.717,8.717,0,0,1,.5,6.7c-.6,1.8,1,1.8,1.5,2.6,1.6,2.7,4.1,3.7,7.2,3.8,3,.1,6.1-.4,9,.5a2.391,2.391,0,0,1,1.5,2.1c-.1-.4.1-1.4,1.4-2.1,8.4-1.3,16.8-.8,25.2-.3A7.028,7.028,0,0,0,244.7,205.4Z" fill="#747474"/>
        <path id="Path_943" data-name="Path 943" d="M235.4,133.8c-1.9-4.9-5.9-6.7-13.9-5.9a19.429,19.429,0,0,1-5.4-.2c-4.9.5-2.9-2.4-1.9-4.3,1.6-2.8,4.5-4.5,6.5-7-.6-1.8-2.7-1.3-3.5-2.8-2.2-4.3-4.1-2.8-6,.2a21.957,21.957,0,0,1-1.7,2.5c-3.1,4-4,4.1-7.9.4a17.767,17.767,0,0,0,3.5,3.2c5.4,3.5,5.4,6,.1,9.7a10.043,10.043,0,0,1-4.7,1.8,7.083,7.083,0,0,1-4.2-1.2c-1.2-.8-2-2.3-3.6-2.6-1.7-.3-3.5-.4-3.7,2-.5,6.3-.4,6.3-5.6,2.9,0-5,3.6-8.4,5.2-12.7a76.935,76.935,0,0,1,3.8-7.6c1.6-1.8,4-3.2,3-6.3,1-2,2-4,3.1-6.1,2.1-1.7,3.6-4.1,5.8-5.7,1.4-1,3.1-2,4.5-.3,1.3,1.6-.3,2.7-1.4,3.8l-1.8,1.8c4.2-3.9,6.2-3.8,10.2.1,1.7,1.6,2.5,4.2,5,4.9,1.2.3,3,.9,3.7-.6.7-1.6-.6-2.9-2-3.7-1.1-.6-2.4-.2-3.5-.6-3.4-1.2-6.9-2.3-6.4-7.1,1.3-1.6,3.5-2.1,4.7-3.6,3.1-3.7,5.5-2.5,7.8.7,1.8,3.7,3.6,7.3,5.3,11,1,1.8-.3,4.7,2.7,5.4a7.107,7.107,0,0,1,1.6,4c-4.3,3.7-4.3,4.5-.4,8,1.1,1,2.1,2.1,3.2,3.2,2.6,2.4,3.5,4.9.7,7.8C237,130.4,236.9,132.5,235.4,133.8Z" fill="#6b6b6b"/>
        <path id="Path_944" data-name="Path 944" d="M119.8,279H108.9c5.4-5.1,5.7-11.9,7.7-18,2.5-7.4,4.3-15.1,6.5-22.5.6-2,.1-5.2,2.8-5.4,3-.2,2.4,3.2,3.1,5.1,3,8.9,5.8,17.9,9.6,26.9,2.8-9.4,5.6-18.7,8.4-28.1.5-1.5.2-3.8,2.5-3.9,2.8-.2,2.3,2.6,2.8,4.1,3.7,11.7,7.2,23.4,10.7,35.1.7,2.5,1.6,4.8,5.2,6.5H154.1c3.5-1.5,3-3.9,2.4-6.3-2.1-7.7-4.2-15.4-6.8-23.2-2.5,9.7-7.2,19-6.7,29.6H130.9c3.7-1.8,3.4-3.9,2.7-6.4-2.2-7.8-4.2-15.6-6.7-23.4C124.2,258.9,119.7,268.1,119.8,279Z" fill="#979797"/>
        <path id="Path_945" data-name="Path 945" d="M317.8,232.6c8.4.5,16.1-1.1,23.6,1.3,6.2,2,10,6.3,11.6,12.5a35.106,35.106,0,0,1-.1,18.2c-2.2,8.6-8.9,13.9-18.3,14.3-5.4.2-10.9,0-16.5,0C322.3,273.4,322.3,237.8,317.8,232.6Z" fill="#979797"/>
        <path id="Path_946" data-name="Path 946" d="M200.6,130.8c.9-.4,1.9-.8,2.8-1.2,5.6-2.8,5.9-5.1,1.2-8.9-2-1.6-3.3-3.9-6.2-4.7,2-1.2,3.4-.3,4.4.9,2.2,2.9,3.9,1.7,5.5-.5.7-1,1.3-2,2-3,3.8-5.6,3.8-5.5,8-.4,1.3,1.6,4,1.2,3.8,1.6-2.2,3-4.4,6.1-6.7,9-1.3,1.7-2.4,3.2.8,4-.2.8-.5,1.8-1.6,1.1-3.7-2.6-5.2,1.2-6.8,2.8-2.3,2.4,1.7,3.2,2.3,5.1l-.3.3c-2.3.5-3.6-4.3-5.4-1.8-1.6,2.4,2.3,3.5,3.5,5.3.7,1.1,2.2,1.5,2.5,3.7-2.8-1.8-5-3.4-7.5-4.7-3.5-1.9-4.6-.1-4.2,3.3l-.3.3c-2.2-.5-4,.4-4.5,2.3-.6,2.4,2.1,2,3.3,2.9,1.5,1,3.2,1.8,4.9,2.8-1.6,2.5-3.2,1.4-4.6.4-1.1-.8-1.9-1.9-3-2.7-1-.7-2.3-1.9-3.6-.6-1.3,1.4-.3,2.3.9,3.3a14.648,14.648,0,0,1,1.7,2.4c.5.5.4,1-.1,1.5-1.7,2-1.7,2,1.5,5.5-2.4,1-8-3.8-6.7,3.5-2.2.1-1.7-2.2-2.8-3.1-1.6-.7-3.3-2.3-4.9.1-2.1.7-2.2,3.6-4.5,4.1-1.7-.7-2.6.2-3,1.8a1.087,1.087,0,0,1-.1,1.5c-3.2-.1-4.2.9-1.7,3.5,1,1.1,2,2.1,3.1,3.1l-.4.4c-1.9-1.4-3.9-2.8-5.8-4.1-1,.2-1.6-.2-1.7-1.2,0-1.6,1.7-1.3,2.4-2.1.3-.6.6-1.2.8-1.7-.5-2.1,1.5-1.5,2.3-2.1a1.951,1.951,0,0,0,.9-2.1.9.9,0,0,1,.1-1.4,2.523,2.523,0,0,0,3.1-.8c.8-.7.1-2,1-2.7,1.6,0,2.3-1,2.6-2.4.6-.9,1.9-.2,2.4-1.2,1.6-1.4.6-2.6-.3-3.9.1-.1.3-.2.4-.4,3.3,1.5,3.9.2,2.9-2.8-.4-1.6.8-2.8.9-4.3a16.181,16.181,0,0,0-1-1.8c-.6-1.2.5-1.6,1.1-2.3.8-2.8-1.7-4.1-2.7-6.1,2.4-1.6,2.9,1.9,5.2,1.7,1.4-2.5-4.6-7.2,1.9-8.3,2.8-.5,4.9.8,5.9,3.6.5,1.8-1.6,1.3-2.1,2.3C198.1,134,198.1,134,200.6,130.8Z" fill="#a4a4a4"/>
        <path id="Path_947" data-name="Path 947" d="M235.4,133.8c0-1,.1-2,.1-3,.1-2.7,6.3-3.5,2.2-7.4-2.2-2.1-4-4.6-6.8-6.2-.9-.5-2.2-2.3-1.9-2.3,3.5.1-.2-8,5.6-4.7,1.8,3.2,3.7,6.4,5.5,9.7,1.4,2.6,2.9,3.4,4.9.8,1.7-2.2,3.3-4.4,5.7-5.8-.4,3.6-3.2,5.2-5.1,7.5-.6.8-1.6,1.4-.8,2.6.7,1,1.8.8,2.8.4a1.007,1.007,0,0,1,.1,1.5c.1.7-1.4,1-.2,1.9,1.6,1.2,2.9.7,4.2-.4a1.127,1.127,0,0,1,.2,1.6c0,1.4-.7,3.2,1.9,2.9,1-.2,1.4.1,1.1,1.1-.4,1.6.5,2.4,1.8,2.9,1.1-.2,1.7.2,1.4,1.4.8,3.3,2.4,2,3.9.6l6.9-7.2c.3.3.7.6,1,.9-2.2,2.4-4.3,4.7-6.5,7.1-1,1.1-2.4,2.3-.5,3.8,1.8,1.4,2.4-.6,3.2-1.4,2.3-2.2,4.5-4.5,7.7-7.8-1.7,4.7-5,6.5-7,9.2-.7,1-2.2,2-.5,3.3,1.4,1.1,2.1-.1,2.9-.9,2.4-2.5,4.8-4.9,7.3-7.4a9.429,9.429,0,0,1,1,1c-2.4,2.5-4.7,4.9-7.1,7.4-.8.8-1.9,1.5-.7,2.9,1.4,1.6,2.4.5,3.3-.5,2.3-2.4,4.6-4.9,6.8-7.3a9.959,9.959,0,0,1,1.1,1c-2.4,2.6-4.9,5.2-7.2,7.9-.7.8-1.9,1.7-.5,3,1.2,1.1,2.1.5,3-.5a53.879,53.879,0,0,1,7.6-7.5c-.8,3.7-3.8,5.6-6.1,8-1.9,1.9-2.3,3.3.4,4.6a1.127,1.127,0,0,1,1.6.2c-.4,2.2.9,2.7,2.6,3a1.007,1.007,0,0,1,1.5.1c-.8,1.4-.1,3.1.9,3.4,1.7.5,2.1-2.1,3.7-2.5a1.248,1.248,0,0,1,1.7.2c.1,1.7-3.7,3-.5,4.9-.3,1.9-1,3.2-3.3,2.1-.3-.3-.7-.6-1-.9-.2-1.3-1.3-1.1-2.1-1.3a3.139,3.139,0,0,0-2.9-2c-1,.2-1.4-.1-1.1-1.2a3.089,3.089,0,0,0-2.9-2.6c-.9-.6-.3-1.8-1.1-2.4-3.8-2.5-3.9,2.4-6.1,3-.9.3-1.2,0-1-1,.9-1,1.8-2,2.6-3,2.2-2.5.4-2.9-1.7-3.2-.9.3-1.3,0-1-1-.3-.7-.7-1.4-1-2.1-1.7-.2-2.5-1.5-3.2-2.9-2.7-.3-3-3.4-5-4.4a2.367,2.367,0,0,1-1.8-1.8c-.9-1-1.8-2-3.3-1a.8.8,0,0,1-1.3,0c.7-1.2,1.5-2.3-.1-3.5-1.5-1.2-2.2.2-2.9.9-2.1,2.2-4.1,4.5-6.1,6.7-2.6-1.8-3.6-3.7-.7-6.1,2.4,1.4,3.1-.8,4.7-2.3-1.6-.4-2.6.9-3.8.6-2.8-2.8-2.4,2.1-4.3,1.6-.6-6.4-4.1,1-6-2.4C233.3,136.8,234.9,135.5,235.4,133.8Z" fill="#a4a4a4"/>
        <path id="Path_948" data-name="Path 948" d="M213,92.8c1.5,3.7,3.7,6.4,8.2,5.6,3.5-.6,3.8,2.7,5.2,4.6.9,1.2-.4,3.4-1.3,3.3-2-.2-4.4,1.1-6.1-.8-1.5-1.6-2.8-3.4-4.2-5.1-2.8-3.4-5.6-4-8.8-.3-.9,1.1-1.7,2.5-4.6,1.5,2-1.6,4-3.3,5.9-4.9.6-.5,1.4-1.4.8-2.2-.7-1-1.8-.6-2.7,0-2.5,1.7-3.6,5-7.1,5.4.8-2.4,1.7-4.8,2.5-7.2a11.7,11.7,0,0,1,.4-3.2c-1.2-2.1-2.6-3-4.6-.7a26.725,26.725,0,0,1-3.6,3.1c-.5-.5-.9-1-1.4-1.5a23.176,23.176,0,0,0,4.4-3.1c2.5-2.6,1.3-3.5-1.8-3.1a1.238,1.238,0,0,1-.1-1.7c-.4-.6-.7-1.2-1.1-1.8-.5-1.2-2-.3-2.6-1.3-.4-2-1-3.5-3.4-2a.9.9,0,0,1-1.4-.1c1.3-1.2,1.6-2.6.2-4-.7-.7-1.6-1.1-2-2.1-.3-.4-.7-.8-1-1.2-.7-.7-2.8-.1-2.2-2.1-1-1.2-2.1-2.3-3.8-1.6l-.2-.3c1-5.9-2.6-2.3-4.6-2.1-.6-1.6,3.2-2.1,1-4-2.3-2-3.3,1.8-5.3,1.1,2.7-3.5,2.7-3.5-.1-5.5-.9-.6-.2-2-1.2-2.6-.6-.3-1.2-.7-1.8-1-1.1.3-1.4-.2-1.1-1.2-.3-.6-.7-1.3-1-1.9-.9-.9-3.5-.8-2-3.2,3.8-.6,6.5-3.5,10.3-4.3-1.7,1.2-3.3,2.5-5,3.6-1.4,1-1.7,2-.1,3.1.9.4,2-.1,2.7.9-.8,1.1.3,1.9.5,2.8.4.9,1.7.4,2.2,1.2,1,3.5,2.8,2.8,4.8.9a1.007,1.007,0,0,1,1.5.1c-.5,1.4-3.3,1.9-1.9,3.9,1,1.6,2.3.1,3.5-.3a.53.53,0,0,1,.6.6c-1.3,2-2.2,3.9,1.6,3.8,1.1-.4,1.3,0,1,1,.2,2.9,1.8,2.3,3.4,1.3a46.242,46.242,0,0,0,4.1-3.4l1,1c-1.3,1.1-2.6,2.1-3.8,3.2-2.4,2.2-1.5,3.3,1.3,3.7l.5.2.1.5c-.1,1.9,1,2.7,2.7,2.9a1.215,1.215,0,0,1,1.6,0c-1.1,1.1-.6,2.2.3,3.1,1.1,1.1,1.7-.2,2.4-.7,1.1-.8,2.1-1.7,3.7-2.9-.2,2.1-1.4,2.7-2.2,3.6s-2.7,1.4-1.1,3.1c1.4,1.4,2.5.2,3.5-.6,1.9-1.5,3.6-3.2,5.5-4.8l.9.9c-1.7,1.5-3.4,3-5.1,4.4-.9.8-1.9,1.7-1.5,3,.7,1.8,2.3.8,3.5.9.5.6,1.1,1.4,1.9.5.7-.8,1.5-1.8.5-3a3.159,3.159,0,0,1,2.3-2.3c2-1,4.1-1.5,5.3.9,2,3.6-.5,5.9-2.6,7.6.6-1,2.3-1.7,3.4-3a1.762,1.762,0,0,1,2.7-.4c1,.9.2,1.9-.4,2.7a15.285,15.285,0,0,1-2.7,3C212.1,89.6,212.1,91.1,213,92.8Z" fill="#a4a4a4"/>
        <path id="Path_949" data-name="Path 949" d="M89.1,270.6c-3.5,6.4-8.4,9.4-15.1,9.3a14.638,14.638,0,0,1-14.4-13.2c-.4-7.1,4.5-13.3,12-15,7.1-1.6,15.1,2.8,17.3,9.4,1.2,3.6,1,5.9-3.9,5.5-4.7-.3-9.5.1-14.3-.1-3.1-.1-3.4,1.4-2.6,3.8,1.9,5.6,7.2,7.1,11.1,3.1C82.8,269.6,82.8,269.6,89.1,270.6Z" fill="#979797"/>
        <path id="Path_950" data-name="Path 950" d="M230.8,278.9c-6,.6-11.8-.6-17.8-.2-6.8.5-10.9-5.5-11.3-13.7-.2-4.1,1.4-8.5-1.8-12.6H211c-2.1,5.9-1.7,11.9-.5,17.8.9,4.3,4.3,4.1,7.7,3.9,3.9-.2,2.8-3.1,2.9-5.2.1-3.1-.1-6.1.1-9.2.1-2.6-.1-5.1-3.5-7.2h13.7C227.4,256.8,227,273.2,230.8,278.9Z" fill="#979797"/>
        <path id="Path_951" data-name="Path 951" d="M268.8,278.9c3.8-5.5,3.4-22.2-.7-26.4,6.4-.8,12.6.4,18.8.1,6.7-.2,10.6,5.5,11,13.5.2,4.2-1,8.5,1.4,12.7H288.6c2.1-5.8,1.7-11.7.6-17.4-.8-4-3.8-4.7-7.5-4.4-3.9.4-3.4,3.2-3.2,5.6.5,5.4-1.9,11.2,2.2,16.3Z" fill="#979797"/>
        <path id="Path_952" data-name="Path 952" d="M38.7,233.1c-3.3,2.6-2.9,5.9-2.9,9.1v27.1c0,1.6-.4,3.8,2.3,3.6,6.4-.5,13.4,2.2,18.5-3.9.5.6.9.8.9,1.1.6,9,.6,9-8.5,9H27.6c3.4-15.3,2-30.4.9-45.9C30.8,233.1,34.4,233.1,38.7,233.1Z" fill="#979797"/>
        <path id="Path_953" data-name="Path 953" d="M199.8,265.3c0,8.1-6.8,14.4-15.4,14.3-8.2-.1-14.8-6.6-14.7-14.5.1-8,6.5-13.9,15.2-13.9C193.4,251.3,199.8,257.4,199.8,265.3Z" fill="#979797"/>
        <path id="Path_954" data-name="Path 954" d="M379.6,251.3c8.5.1,14.9,6.3,14.8,14.3-.1,7.8-7,14.1-15.2,14.1-8.4-.1-15-6.4-15-14.2C364.2,257.1,370.6,251.2,379.6,251.3Z" fill="#979797"/>
        <path id="Path_955" data-name="Path 955" d="M233.2,106.1c-4.4.7-4.8,0-2.7-5.4,2.9,1,3.9-1.6,5.1-3.1,1.2-1.6-.9-2.6-1.8-3.7-1.8-2.2-3.7-4.2-5-6.9,2.3,2.2,4.6,4.5,6.9,6.7.7.7,1.6,1.5,2.6.9,1.3-.8.1-1.8-.1-2.6,0-.4.2-.6.6-.5,3.4,2.3,3.5-2.8,5.9-2.7a5.28,5.28,0,0,1,3-3.2V83.8c-.4-.5-.4-.9.1-1.3.7-.1,1.1,1.4,2.1.5.9-.8.4-1.4-.2-2-2.3-2.7-4.6-5.4-7.5-8.9,5.5,1.4,6.5,6.7,10.5,8.4,1.4-.8.1-2.6,1.3-3.6.6.2,1.2.3,1.8.5a7.362,7.362,0,0,1,3.1-3.2V72.4c-.3-.3-.4-.6-.2-.8.1-.3.2-.4.3-.4.8.1,1.5.9,2.4.1.3-.8-.1-1.8.8-2.5,1.5.7,2.2-.2,2.8-1.3a1.5,1.5,0,0,1,.3-1.8c.6.1,1.2.3,1.8.4,1.1-.6.5-2.6,2.2-2.8,1.8-2-.8-2.8-1.1-4.2-.5-1.1.1-1.2.9-1,1.2.6,2.8,5.9,3.5-.3.1-.8,2.4,1.3,2.9-.8.6-1.4,1.6-1.9,3-1-.3,5,5.3,7.1,6.3,13.2-3.3-4.2-5.7-7.3-8-10.3-.2,5,4.3,7.2,5.9,12-4.2-2.4-5.2-6.9-9.4-9.3.9,5,5.2,7.3,6.8,12.1-4.6-2.4-5.2-7.4-9.6-9.5.7,4,3.6,5.9,5,8.6.6,1.1,3,1.7,1.1,3.6-3-.8-4.2-3.5-5.8-5.6,1,2.5,3.7,4,4.6,6.8-1.2,2.3-2,.5-2.8-.4a46.364,46.364,0,0,0-6.5-6.8c.4,4.6,5,6.8,6.8,11.9-3.6-2.4-5.1-5.2-7.1-7.5-.6-.7-1.3-1.9-2.4-1.1-1.1.7-.1,1.9-.1,2.8l-.1.1c-1.2-.2-2.4-1.2-3.5.1-.8.9.7,1.2.7,1.9-.8,1.1-2.4-.1-3.2,1.2.3.7.6,1.3.9,2,.3.9-.1,1.1-.9.9-3-1.6-2.1.6-2,2.1-.4.5-.8.5-1.3.1-2,.4-3.4.9-1.2,3.1a68.4,68.4,0,0,1,6.5,7.6c-3.2-1.3-5-4.3-7.4-6.4-.7-.6-1.6-1.6-2.4-.4-.3.4.4,1.5.6,2.3.4,1-.1,1.1-.9,1-.8-.5-1.6-1.6-2.5-.4-1.5,1.9,1.7,2.5,1.3,4.5-1.6.1-3.6-4.6-4.9.1-.5.8-1.7.2-2.1,1.2a26.351,26.351,0,0,1,.2,2.8c-.4.5-.9.5-1.5.1C236.1,100.7,234.5,103.3,233.2,106.1Z" fill="#979797"/>
        <path id="Path_956" data-name="Path 956" d="M244.6,233.1c-.1,15.4-1.3,30.5.9,45.8H234.4c3.2-2.1,2.8-5.2,2.8-8.3V240c0-2.6-.1-5.1-4.2-6.9Z" fill="#979797"/>
        <path id="Path_957" data-name="Path 957" d="M409.7,278.8H397.2c4.3-4.7,4.2-21.8-.1-26.2,5.8-1.5,11.6,1.2,17.3-.3,1.7-.4,2.3,1,2.3,2.6,0,1.5-.2,2.6-2.2,2.6-5.7-.1-7.8,2.9-7,8.4C408,270.1,405.9,274.9,409.7,278.8Z" fill="#979797"/>
        <path id="Path_958" data-name="Path 958" d="M213,92.8c-3.2-.6-3.8-2.1-1.4-4.3,1.7-1.6,3.7-3,4.9-5.1-3.1.5-4.5,3-6.6,4.7-.7.6-1.5,1.7-2.5.5-.9-1.2.2-1.7,1-2.3a17.383,17.383,0,0,1,1.5-1.3,4.964,4.964,0,0,0,2.7-5.4c-.5-3-3.3-1.3-4.9-2,3.2-4,7.4-8,4.5-13.3-.9-1.7-.4-2.4-.2-3.5.2-1.3,1-2.4,2.4-1.2.9.8,3.3,1,1.8,3.3-2.1,3.1-1.1,6.2.5,9.1a108.09,108.09,0,0,1,8.4,17.9c-3.6-1.7-3.6-1.6-7.8.8C216,91.4,214.9,92.9,213,92.8Z" fill="#6b6b6b"/>
        <path id="Path_959" data-name="Path 959" d="M252.6,278.8c2.9-4.1,2.8-22,0-26.4h9.9c-2.2,8.8-1.5,17.5-.6,26.4Z" fill="#979797"/>
        <path id="Path_960" data-name="Path 960" d="M159.7,198.3c.1,2.1-5,1.4-2.7,5a5.633,5.633,0,0,1-.5,6.5c-1.5-1.3-.8-2.9-.9-4.1-.2-1.7.2-3.7-1.9-4.2-3.1-.7.1,3.2-2.2,3.2-1.8-3.1-10.2-5-13-3-1.3.9-1.3,2.3-1.3,3.7v8.1c-2.4-4.7-.4-9.8-.9-14.6-.1-.7.8-1,1.5-1C145.1,198.1,152.4,198.2,159.7,198.3Z" fill="#979797"/>
        <path id="Path_961" data-name="Path 961" d="M286.5,169.6c1.7.2,2.1-1.5,3.3-2.1,3.7-1.9,5.6-6,9.8-7.4-2,2.2-4,4.3-6,6.5-.9,1-2.9,2-1.3,3.7,1.2,1.2,2.4-.1,3.5-.9.9-.7,1.4-1.9,2.8-1.8-2.3,5.2-9.4,12.2-17.1,15.7,2.2-2.1,4.6-4.1,6.6-6.4.9-1,3.7-1.7,1.3-3.8-2.1-1.8-3,.5-4.1,1.5-2.3,2.2-4.3,4.6-6.4,7a15.379,15.379,0,0,0-1.3-1.2c2.1-2.2,4.3-4.3,6.3-6.5C285.3,172.5,287.3,171.8,286.5,169.6Z" fill="#979797"/>
        <path id="Path_962" data-name="Path 962" d="M268.2,199.3c-2.1,3.8-.3,8-1.3,12.1a3.223,3.223,0,0,1-1.6-3.2c.7-5.7-2.4-6.3-6.9-6-3.9.3-7.8.1-11.7.1-1.7-1.6-2.8-3.3-.3-5.1.6,2.1,2.3,2.1,4,2.1,5.2-.2,10.4.8,15.5-.8C266.6,198.3,267.5,199,268.2,199.3Z" fill="#979797"/>
        <path id="Path_963" data-name="Path 963" d="M168.9,168.4c-.1,1.1-3.2,1.6-.8,3.3-2.2,1.8-1.7,3.3.3,4.9,2.6,2.1,5.2,4.4,7.7,6.6.1.1-.1.6-.3,1.3-3.5-2.8-6.5-6.9-10.3-7.9-4.8-1.2-3.7-6.8-7.9-7.7,2.2-.5,3.2,1.3,4.6,2.3,1.1.7,2.1,1.3,3.2.3,1.4-1.4-.1-2.1-.8-2.8-1.3-1.3-2.6-2.5-4.4-4.3C164.2,164.5,165.2,169.4,168.9,168.4Z" fill="#979797"/>
        <path id="Path_964" data-name="Path 964" d="M176.1,165.5c1.4-1.4.3-5.4,4.2-4.2,2.1-.2,2.4,1.5,2.8,3,1.6,2.1,4.3,4.2,0,6.2C180,169.9,178.2,167.6,176.1,165.5Z" fill="#979797"/>
        <path id="Path_965" data-name="Path 965" d="M359.6,243.5c-1-1.6-2-3.2-2.9-4.7-1-1.8-1.1-3.7.6-5.1a3.2,3.2,0,0,1,4.6.1c1.7,1.5,1.7,3.1.5,5C361.4,240.2,360.6,241.8,359.6,243.5Z" fill="#979797"/>
        <path id="Path_966" data-name="Path 966" d="M257.5,242.9c2.5.2,3.9,1.4,3.8,3.8-.1,2.1-1.2,3.5-3.4,3.6-2.4.1-3.8-1.2-4-3.6S255.3,243.2,257.5,242.9Z" fill="#979797"/>
        <path id="Path_967" data-name="Path 967" d="M279.4,164.2a11.988,11.988,0,0,1,1.1,1.2l-7.2,7.8c-.6.6-1.2,1.5-2,.9-1.3-.9-.2-1.7.5-2.4C274.3,169.2,276.8,166.7,279.4,164.2Z" fill="#979797"/>
        <path id="Path_968" data-name="Path 968" d="M264,149.1c1.1,1,2.1,1.9,3.2,2.9-4.6.8-5.9,6.1-10.4,7.8C258.2,155.3,263.4,153.7,264,149.1Z" fill="#979797"/>
        <path id="Path_969" data-name="Path 969" d="M275.3,77.5c-3-2.8-5.9-5.7-7.4-9.5.3-.3.7-.6,1-.9,2.5,3.1,5,6.1,7.6,9.2Z" fill="#979797"/>
        <path id="Path_970" data-name="Path 970" d="M278.5,55.9c-1,.3-2,.7-3,1-2.4-3.5-4.9-7.1-7.3-10.6C273,48.2,273.9,54,278.5,55.9Z" fill="#979797"/>
        <path id="Path_971" data-name="Path 971" d="M283.9,161.4c-.5,0-1-.1-1.5-.1,3-3.1,6-6.3,9-9.4a6.885,6.885,0,0,0,1.3,1.1C290.4,156.3,287.2,158.9,283.9,161.4Z" fill="#979797"/>
        <path id="Path_972" data-name="Path 972" d="M255,133.8l-1.1-1.1c2.6-2.9,5-6.1,9.6-8.7C261,128.7,257.8,131.1,255,133.8Z" fill="#979797"/>
        <path id="Path_973" data-name="Path 973" d="M182.2,154.1c-.5,1.1-1.4,1.1-2.4,1.2-3.6-2.6-7.1-5.1-10.5-9.4C175.2,147.4,177.1,153.2,182.2,154.1Z" fill="#979797"/>
        <path id="Path_974" data-name="Path 974" d="M247.7,85.5c-1,1.1-2,2.1-3,3.2-.7-4.7-6.1-6.2-7.6-12,2.7,2.7,4.4,4.5,6.2,6.2C244.5,84,245.2,86.2,247.7,85.5Z" fill="#979797"/>
        <path id="Path_975" data-name="Path 975" d="M253.9,76.8c-.1,1.3.5,2.8-1.3,3.6,1.1-2.8-1.6-3.7-2.7-5.4-1.2-2-3.9-3-4.6-6.6C249.5,70.9,251.4,74.1,253.9,76.8Z" fill="#979797"/>
        <path id="Path_976" data-name="Path 976" d="M269.2,63.3c-.7,1-.9,2.4-2.2,2.8-.5-4.8-5.3-7.1-6.7-12.3C264.5,56.4,265.6,61.1,269.2,63.3Z" fill="#979797"/>
        <path id="Path_977" data-name="Path 977" d="M177.1,157.6c0,1,.1,2-1,2.7-1.3-5-7-6.4-9.8-11.8C171.2,151.3,174,154.7,177.1,157.6Z" fill="#979797"/>
        <path id="Path_978" data-name="Path 978" d="M283.4,167.4c1.2-.4,2.4-.7,2.1,1.3-4.5,1.2-6.1,5.8-10.9,8.8C276.6,172.2,280.8,170.5,283.4,167.4Z" fill="#979797"/>
        <path id="Path_979" data-name="Path 979" d="M257,79.6c.6-1.7,2-1.1,3.2-1.2a31.488,31.488,0,0,1,8,9.3c-3.6-1.6-4.6-3.9-6.3-5.5C260.5,81,259.7,78.5,257,79.6Z" fill="#979797"/>
        <path id="Path_980" data-name="Path 980" d="M265.2,65.7l-.3,1.8a40.93,40.93,0,0,1-7.5-10C261,59.3,263.1,62.5,265.2,65.7Z" fill="#979797"/>
        <path id="Path_981" data-name="Path 981" d="M186.2,142.7c.6,1.6-.2,3-.9,4.3a36.484,36.484,0,0,1-9.2-8.2c3.7.7,5.4,3.1,7.4,4.8C185.2,145.2,185.6,143.9,186.2,142.7Z" fill="#979797"/>
        <path id="Path_982" data-name="Path 982" d="M173,168.8c0-.5.1-1,.1-1.5,3.4,2.9,7.3,5.3,9.9,9.1C179,174.8,176.1,171.7,173,168.8Z" fill="#979797"/>
        <path id="Path_983" data-name="Path 983" d="M205.6,79.8c2-.3,2.5.4,1.4,2-.9,1.4-.7,4.1-3.2,3.7-1.9-.3-1-2.1-.6-3.3C203.4,80.9,204.6,80.4,205.6,79.8Z" fill="#979797"/>
        <path id="Path_984" data-name="Path 984" d="M275.3,159.3a2.149,2.149,0,0,1,1.1,2.4A55.258,55.258,0,0,1,267,171C268.6,165.5,274.7,164.4,275.3,159.3Z" fill="#979797"/>
        <path id="Path_985" data-name="Path 985" d="M268.2,154.2l1,1-8.1,8.7C262.4,159.7,265.2,156.8,268.2,154.2Z" fill="#979797"/>
        <path id="Path_986" data-name="Path 986" d="M257.2,142.9l1.8,1.8c-3,2.8-6,5.7-9,8.5C251.2,148.8,255.5,146.8,257.2,142.9Z" fill="#979797"/>
        <path id="Path_987" data-name="Path 987" d="M173.1,161.1c0,.5-.1.9-.1,1.4l-9.9-8.4C167.5,155.1,170.4,157.9,173.1,161.1Z" fill="#979797"/>
        <path id="Path_988" data-name="Path 988" d="M262.2,68.8c0,.9.1,1.8-.8,2.5-.5-4.8-5.7-6.5-7.2-12A28.234,28.234,0,0,1,262.2,68.8Z" fill="#979797"/>
        <path id="Path_989" data-name="Path 989" d="M160.7,45.7c-.2,1.6,1.5,2.1,2,3.2-4-.3-5.7,4-10,4.9C154.8,50,159.2,49.1,160.7,45.7Z" fill="#979797"/>
        <path id="Path_990" data-name="Path 990" d="M258.2,138l-1.4-1.4c2.8-3,5.6-6,8.4-9.1.3.3.7.6,1,.9C264.4,132.3,260.6,134.6,258.2,138Z" fill="#979797"/>
        <path id="Path_991" data-name="Path 991" d="M279.8,158.3c-.5-.1-1.1-.1-1.6-.2,2.8-3.5,5.6-7,8.5-10.4.7.7,1.4,1.4,2.2,2.1C285.8,152.6,282.8,155.5,279.8,158.3Z" fill="#979797"/>
        <path id="Path_992" data-name="Path 992" d="M247.8,126.6c0-.5-.1-1-.1-1.5,2.3-2.5,4.5-5,6.8-7.5C253.3,121.7,250.6,124.2,247.8,126.6Z" fill="#979797"/>
        <path id="Path_993" data-name="Path 993" d="M240.7,97c.3-1,1.2-1.1,2.1-1.2a33.714,33.714,0,0,1,8.5,9.6C246.2,103.4,245.5,97.7,240.7,97Z" fill="#979797"/>
        <path id="Path_994" data-name="Path 994" d="M248.9,91.7c.3-.3.6-.7.9-1a22.98,22.98,0,0,1,6.3,7.9A19.072,19.072,0,0,1,248.9,91.7Z" fill="#979797"/>
        <path id="Path_995" data-name="Path 995" d="M195.5,106c3.1,2.4,2.5,3.7-3,6.3A15.987,15.987,0,0,1,195.5,106Z" fill="#6b6b6b"/>
        <path id="Path_996" data-name="Path 996" d="M166.7,53a2.29,2.29,0,0,1,1.2,2.6,41.777,41.777,0,0,1-8.4,6.3C161.2,57.3,166.5,57.4,166.7,53Z" fill="#979797"/>
        <path id="Path_997" data-name="Path 997" d="M190.8,79.4a2.236,2.236,0,0,1,2.6,1.3c-3.9.2-5.3,4.2-9.5,4.6C186.2,83.4,188.5,81.4,190.8,79.4Z" fill="#979797"/>
        <path id="Path_998" data-name="Path 998" d="M253.8,84.7c.4,0,.9-.1,1.3-.1a23.53,23.53,0,0,1,6.7,8C258.1,91,256.4,87.3,253.8,84.7Z" fill="#979797"/>
        <path id="Path_999" data-name="Path 999" d="M257.1,82.5l.9-.9,8.1,6.6c-.5.5-1,1.1-1.6,1.6C261.2,88.3,259.4,85.1,257.1,82.5Z" fill="#979797"/>
        <path id="Path_1000" data-name="Path 1000" d="M201.5,89.5c.7,1.2,1.3,2.3-.4,3.2-1.9,1.4-3.8,2.7-6.6,4.8C196.1,93.1,199.4,91.8,201.5,89.5Z" fill="#979797"/>
        <path id="Path_1001" data-name="Path 1001" d="M247.8,82.4c0,.4-.1.9-.1,1.3-2.5-2.7-5.1-5.4-8.4-9.1C243.4,76.8,245.6,79.7,247.8,82.4Z" fill="#979797"/>
        <path id="Path_1002" data-name="Path 1002" d="M252,129.8c-.1-.5-.1-1.1-.2-1.6a25.111,25.111,0,0,1,6.9-6.5C257.4,125.1,254.4,127.2,252,129.8Z" fill="#979797"/>
        <path id="Path_1003" data-name="Path 1003" d="M252.6,141.9h1.3c-2.3,2.8-4.5,5.7-7.8,7.5A17.553,17.553,0,0,1,252.6,141.9Z" fill="#979797"/>
        <path id="Path_1004" data-name="Path 1004" d="M181,68c.7.7,1.5,1.4,2.2,2.1-4.2-.3-5.2,4.4-9.3,5.6C175.6,72,179.1,70.7,181,68Z" fill="#979797"/>
        <path id="Path_1005" data-name="Path 1005" d="M239.5,100c.5,0,1-.1,1.5-.1,2.5,2.3,5.1,4.6,6.5,7.9A29.693,29.693,0,0,1,239.5,100Z" fill="#979797"/>
        <path id="Path_1006" data-name="Path 1006" d="M268.3,161.4l1,1a17.526,17.526,0,0,1-5.7,5.4C264,164.1,266.3,162.9,268.3,161.4Z" fill="#979797"/>
        <path id="Path_1007" data-name="Path 1007" d="M171.2,52.9c-.9-.1-1.9,0-2.2-1.2,3.7-.1,5.4-4.2,10-5.3A26.093,26.093,0,0,1,171.2,52.9Z" fill="#979797"/>
        <path id="Path_1008" data-name="Path 1008" d="M259,71.2c0,.4-.1.8-.1,1.2-2.5-2.8-5.3-5.4-6.7-9C254.8,65.7,257.7,67.7,259,71.2Z" fill="#979797"/>
        <path id="Path_1009" data-name="Path 1009" d="M168.5,48.9c-1-.1-2,.1-2.7-.9,3.4-.1,5-3.8,9.4-4.8A18.89,18.89,0,0,1,168.5,48.9Z" fill="#979797"/>
        <path id="Path_1010" data-name="Path 1010" d="M163.8,50.8a11.986,11.986,0,0,1,1.1,1.2c-2.6,2-5.2,4-7.7,6C158.3,54.4,161.5,53,163.8,50.8Z" fill="#979797"/>
        <path id="Path_1011" data-name="Path 1011" d="M193.1,72.4h-1.6c2.3-2.2,4.6-4.3,6.8-6.5l1,1A32.954,32.954,0,0,1,193.1,72.4Z" fill="#979797"/>
        <path id="Path_1012" data-name="Path 1012" d="M182.2,63.1l-1-1c2.4-1.9,4.3-4.4,8.4-6.1C187.2,59.6,184.6,61.3,182.2,63.1Z" fill="#979797"/>
        <path id="Path_1013" data-name="Path 1013" d="M181.9,150.2c-3.3-1.6-5.6-4.2-7.7-7.1a20.434,20.434,0,0,1,8.1,6.8l-.1.3Z" fill="#979797"/>
        <path id="Path_1014" data-name="Path 1014" d="M238.2,92c-2.7-2.2-5.1-4.5-6.5-7.8a24.71,24.71,0,0,1,7.1,7.3A2.651,2.651,0,0,1,238.2,92Z" fill="#979797"/>
        <path id="Path_1015" data-name="Path 1015" d="M258.9,74.2c-1,1.1-2.1,2.1-3.1,3.2.9-3.7-3.6-4.6-4.1-7.8C255.1,69.6,255.1,75,258.9,74.2Z" fill="#979797"/>
        <path id="Path_1016" data-name="Path 1016" d="M260.5,149.9a28.892,28.892,0,0,1-7.1,6.3C255.7,154.1,258.1,152,260.5,149.9Z" fill="#979797"/>
        <path id="Path_1017" data-name="Path 1017" d="M269.1,58.1c-.3.3-.6.7-.9,1a30.732,30.732,0,0,1-5.3-7.6C266.5,52.9,267.5,55.8,269.1,58.1Z" fill="#979797"/>
        <path id="Path_1018" data-name="Path 1018" d="M194.5,82.5c0,.6.1,1.1.1,1.7l-6,5.7a9.429,9.429,0,0,0-1-1C189.9,86.8,192.2,84.6,194.5,82.5Z" fill="#979797"/>
        <path id="Path_1019" data-name="Path 1019" d="M184.3,71.3a3.217,3.217,0,0,1,2,2.1c-3.1-.2-3.9,3.5-7,4.1C179.7,74.3,183.4,73.9,184.3,71.3Z" fill="#979797"/>
        <path id="Path_1020" data-name="Path 1020" d="M290.3,162.5c-.6-.1-1.1-.1-1.7-.2,2.1-2.1,4.3-4.2,6.4-6.3l.8.8C293.9,158.7,292.1,160.6,290.3,162.5Z" fill="#979797"/>
        <path id="Path_1021" data-name="Path 1021" d="M177.2,66.4c-1.6,2.7-4.2,4.2-6.9,5.5a13.09,13.09,0,0,1,6.7-5.8Z" fill="#979797"/>
        <path id="Path_1022" data-name="Path 1022" d="M263.2,76.4a9.213,9.213,0,0,1,4.9,6.6c-1.7-2.1-4.6-3.4-5-6.5Z" fill="#979797"/>
        <path id="Path_1023" data-name="Path 1023" d="M172,164.6c-.8.7-1.5,1.4-2.3,2.1-1.7-1.6-3.3-3.1-5.5-5.1C167.9,161.2,169,165.5,172,164.6Z" fill="#979797"/>
        <path id="Path_1024" data-name="Path 1024" d="M186,77.4a7.084,7.084,0,0,1,1.4.1,14.678,14.678,0,0,1-6.5,5.2A13.056,13.056,0,0,1,186,77.4Z" fill="#979797"/>
        <path id="Path_1025" data-name="Path 1025" d="M174.3,175.5c2.6.8,4,2.9,5.5,4.9a11.109,11.109,0,0,1-5.9-4.5A.366.366,0,0,1,174.3,175.5Z" fill="#979797"/>
        <path id="Path_1026" data-name="Path 1026" d="M177.5,54c-.5,0-1-.1-1.5-.1a9.8,9.8,0,0,1,5.6-3.7A7.309,7.309,0,0,1,177.5,54Z" fill="#979797"/>
        <path id="Path_1027" data-name="Path 1027" d="M186.3,138.7c-.4.8-.7,1.5-1.1,2.3-1.7-1.5-3.4-2.9-5.5-4.7C183.1,135.4,183.7,139.4,186.3,138.7Z" fill="#979797"/>
        <path id="Path_1028" data-name="Path 1028" d="M179,57.7a12.4,12.4,0,0,1,5.8-4.5,13.42,13.42,0,0,1-5.2,5.1A.9.9,0,0,1,179,57.7Z" fill="#979797"/>
        <path id="Path_1029" data-name="Path 1029" d="M240,85.9c-2.8-.6-4.3-2.6-4.9-5.3C236.7,82.4,238.3,84.1,240,85.9Z" fill="#979797"/>
        <path id="Path_1030" data-name="Path 1030" d="M188.2,68.8a13.953,13.953,0,0,1,6.1-4.5,10.573,10.573,0,0,1-5.6,5.2C188.4,69.4,188.3,69.1,188.2,68.8Z" fill="#979797"/>
        <path id="Path_1031" data-name="Path 1031" d="M191.5,200.2c-2.1-.5-1.7-1.6-1.3-3.3.5-1.9.3-4,.4-6.1,1,.8,2.9,1.1,2.5,2.8-1.2,4.5,1.3,5.5,4.9,5.5l40.1-.3c1.1,0,3.2-.8,2.2,1.6-2.1,5,1.2,4.9,4.4,5-1.8,1.1-4.4.9-5,3.8-1.6-1.4-.9-2.8-1.2-4.1-1.7-2.7-4.1-3.7-7.3-3.6-4.8.2-9.5.2-14.3,0-2.9-.1-4.9.8-6,3.6-.1,1.1-.1,2.2-.2,3.6-1.2-1.2-.5-2.9-2-3.6-1.7-2.7-4.2-3.6-7.3-3.5C198.1,201.7,194.6,202.4,191.5,200.2Z" fill="#979797"/>
        <path id="Path_1032" data-name="Path 1032" d="M237.5,160.2c-.5,1.4-1.3,2.9.4,4.1a7.69,7.69,0,0,1,1.8,1.8c1.6,2.1,1.1,4.5.6,6.9-.2.9-1,1.1-2,.9-2.6-.5-3.5-2.4-4-4.7a10.663,10.663,0,0,0-.7-1.9c.8-2,0-4,.1-5.9C233.9,158.5,235.3,157.7,237.5,160.2Z" fill="#979797"/>
        <path id="Path_1033" data-name="Path 1033" d="M243.7,138.2c1.8-.9,2.8-5.2,5.3-2.6,2.1,2.2-1.5,3.7-2.8,5.3-1.8,2.4-3.2,2.4-3.4-1.1A11.416,11.416,0,0,0,243.7,138.2Z" fill="#979797"/>
        <path id="Path_1034" data-name="Path 1034" d="M237.5,160.2c-1.7-.8-3.1-1.3-3,1.6,0,1.9.7,3.9-.9,5.6-.4-1.9.3-4-1.4-5.7-2-2.1,1.4-2.4,1.7-3.9.2-1.1,2.2-1.6,3.5-.9C239,157.7,238.3,159,237.5,160.2Z" fill="#979797"/>
        <path id="Path_1035" data-name="Path 1035" d="M193.6,155.4a7.568,7.568,0,0,1,.1-1.5c2.8.7,6.8,0,6.3,5C197.2,158.7,196.5,154.9,193.6,155.4Z" fill="#979797"/>
        <path id="Path_1036" data-name="Path 1036" d="M198.8,142.8c1.5.1,2.7,1.5,4.4.6.9-.5,1.5.4,1.8,1.2a1.378,1.378,0,0,1-.3,1.8c-.8.7-1.6.3-2.2-.3-1.2-1.1-3.1-1.5-3.9-3.1Z" fill="#979797"/>
        <path id="Path_1037" data-name="Path 1037" d="M210,136.6c2.6.6,3.8,2.8,5.3,4.8-2.5-.7-3.8-2.8-5.5-4.5Z" fill="#979797"/>
        <path id="Path_1038" data-name="Path 1038" d="M210.9,205.1c-1.3-3.4-1-5.3,3.5-5.1a148.99,148.99,0,0,0,18.9,0c4-.2,5.8,1,5.2,5A254.112,254.112,0,0,1,210.9,205.1Z" fill="#979797"/>
        <path id="Path_1039" data-name="Path 1039" d="M191.5,200.2c4.2,0,8.5.2,12.7-.1,4.1-.3,5.1,1.5,4.5,5-3.5,0-7,.1-10.5.1C194.8,205.1,192,204.2,191.5,200.2Z" fill="#979797"/>
        <path id="Path_1040" data-name="Path 1040" d="M186.3,185.5c3.1,5.2,1.9,10.2,0,15.2Z" fill="#979797"/>
        <path id="Path_1041" data-name="Path 1041" d="M183.2,164.3c-.9-1-1.9-2-2.8-3-.2-1.6-.1-3.3,2-3.3,2,0,2.8,1.5,3.2,3.3C185.1,162.6,185.9,164.9,183.2,164.3Z" fill="#979797"/>
        <path id="Path_1042" data-name="Path 1042" d="M200.6,130.8c1.8,1.9.1,3.2-1.1,4-2.4,1.5-4.2-1.1-6.4-1.4a1.622,1.622,0,0,1-1.3-1.9c.6-3.1,3.7.1,4.9-1.8C197.9,130,199.2,130.4,200.6,130.8Z" fill="#979797"/>
        <path id="Path_1043" data-name="Path 1043" d="M327.6,255.5V241.7c0-1.6,0-2.9,2.2-3.4,8.6-1.8,16.1,3,17.9,11.6,2.8,13.6-3.9,23-16.3,23-2.8,0-4-.8-3.8-3.7C327.7,264.7,327.6,260.1,327.6,255.5Z" fill="#f2f2f2"/>
        <path id="Path_1044" data-name="Path 1044" d="M196.2,137.6a2.148,2.148,0,0,1-1.8,2.1c-1.8.4-2.9-.8-3.4-2.2-.3-1,.3-2.6,1.7-2.4A4.021,4.021,0,0,1,196.2,137.6Z" fill="#979797"/>
        <path id="Path_1045" data-name="Path 1045" d="M81.2,262.7H69.9c-2,0-2.3-1-1.5-2.6,1.3-2.5,3.1-4.8,6.2-4.6C78.4,255.8,80.4,258.5,81.2,262.7Z" fill="#f2f2f2"/>
        <path id="Path_1046" data-name="Path 1046" d="M177.3,265.1c.1-5.9,3.4-10.6,7.5-10.5,3.9.1,7.1,4.6,7.4,10.2.3,6.1-3.3,11.6-7.6,11.5C180.4,276.3,177.2,271.4,177.3,265.1Z" fill="#f2f2f2"/>
        <path id="Path_1047" data-name="Path 1047" d="M371.7,265.5c0-5.7,3.3-10.6,7.3-10.8,4.1-.2,7.8,5,7.8,10.9,0,5.6-3.4,10.5-7.4,10.7C375.1,276.4,371.7,271.6,371.7,265.5Z" fill="#f2f2f2"/>
      </g>
    </g>
  </g>
</svg>
