<svg xmlns="http://www.w3.org/2000/svg" width="195" height="167.58" viewBox="0 0 195 167.58">
  <g id="Group_351" data-name="Group 351" transform="translate(-207 -1662.42)">
    <g id="Layer_1" transform="translate(202.299 1645.6)">
      <g id="Group_350" data-name="Group 350" transform="translate(35.7 16.82)">
        <g id="Group_349" data-name="Group 349">
          <path id="Path_1048" data-name="Path 1048" d="M255.5,164.137c-.123-.37-.534-.247-.781-.411a11.137,11.137,0,0,1-3.494-3.7A40.493,40.493,0,0,1,249.25,156c-.534-1.192-.9-2.466-1.356-3.7a11.53,11.53,0,0,0-.37-1.274h0c-.206-.575-.329-1.151-.493-1.726a64.321,64.321,0,0,1-1.521-7.932,1.2,1.2,0,0,1-.082-.37c-.041-1.439-.206-2.877-.329-4.274-.247-2.425-.123-4.809-.205-7.234a1.734,1.734,0,0,1,.123-.9c.082-1.644.123-3.288.288-4.932.247-2.384.575-4.809.986-7.152a35.877,35.877,0,0,1,1.192-5.138,13.607,13.607,0,0,0,.493-1.726,20.251,20.251,0,0,1,.781-2.219c.411-.986.822-1.973,1.315-2.918a16.106,16.106,0,0,1,1.356-2.3c.205-.206.329-.493.534-.74a8.033,8.033,0,0,1,2.219-2.014c.288-.123.493-.329.781-.452l.493-.247c.288-.205.7,0,.986-.247h0a.918.918,0,0,1,.575-.123c5.1-.37,10.193-.082,15.248-.206h.329c.247.041.617-.164.658.206.082.37-.288.452-.575.534a1.381,1.381,0,0,0-.658.411,6.239,6.239,0,0,1-1.274,1.274,14.158,14.158,0,0,0-2.261,2.713c-.164.288-.452.493-.534.822-.041.041-.041.082-.082.123a1,1,0,0,0-.37.863c-.411,1.028-.945,2.014-1.274,3.041a5.578,5.578,0,0,0-.7,2.261,65.756,65.756,0,0,0-2.014,8.96,16.734,16.734,0,0,0-.411,2.877,98.1,98.1,0,0,0-.247,10.44c0,1.356.329,2.713.247,4.069v2.055a7.336,7.336,0,0,0,.411,2.3c.247,1.151.37,2.3.575,3.452.041.164,0,.329.123.452a.312.312,0,0,1,.082.164c-.041.617.329,1.192.288,1.85a3.743,3.743,0,0,0,.37,1.48c.041.041.041.123.082.164.082.493-.082,1.028.452,1.356.534,1.069.863,2.178,1.315,3.247a24.235,24.235,0,0,0,3.247,5.549,5.354,5.354,0,0,1,.411.617,4.11,4.11,0,0,0,2.918,2.137c.617-.041,1.192.164,1.85.082a6.855,6.855,0,0,0,3.987-2.343,1.093,1.093,0,0,1,.452-.411,3.719,3.719,0,0,0,1.48-2.055c.534-1.192,1.151-2.343,1.685-3.535a6.564,6.564,0,0,1,.411-.945,1.264,1.264,0,0,0,.452-1.028,13.12,13.12,0,0,0,.534-1.808c.205-.575.329-1.192.493-1.808a.214.214,0,0,1,.082-.164,6.038,6.038,0,0,0,.329-2.261c.205-1.11.411-2.178.575-3.288.206-1.192.288-2.425.452-3.617.288-1.932.206-3.863.37-5.8a30.772,30.772,0,0,0-.082-7.275,15.155,15.155,0,0,1-.041-1.932,17.871,17.871,0,0,0-.411-4.439,10.416,10.416,0,0,1-.288-1.562,6.4,6.4,0,0,0-.452-2.466c-.37-1.315-.658-2.63-1.069-3.946a3.076,3.076,0,0,0-.411-1.48,12,12,0,0,1-.575-1.274,9.1,9.1,0,0,0-1.192-2.918,20.689,20.689,0,0,0-1.85-3.041,15.42,15.42,0,0,0-1.808-2.178c-.247-.288-.534-.534-.822-.822a1.018,1.018,0,0,0-.575-.329c-.164-.041-.411-.082-.329-.329.041-.206.247-.164.411-.206h.288a.8.8,0,0,1,.288.041,1.432,1.432,0,0,0,.7.247.312.312,0,0,1,.164.082,2.3,2.3,0,0,0,.986.411,1.13,1.13,0,0,1,.658.411,1.046,1.046,0,0,0,.493.452.963.963,0,0,1,.493.493h0a3.313,3.313,0,0,1,1.028,1.233,6.742,6.742,0,0,1,.986,1.767c.164.123,0,.411.247.493a.41.41,0,0,1,.164.206,1.042,1.042,0,0,0,.411.74.478.478,0,0,1,.082.411c-.041.082,0,.123.082.123a5.675,5.675,0,0,1,.986,2.219l.247.863c.329.74.534,1.521.822,2.3a2.213,2.213,0,0,0,.288.534,11.074,11.074,0,0,1,.658,2.548.308.308,0,0,0,.041.205,9.859,9.859,0,0,1,.617,2.466,4.19,4.19,0,0,0,.164,1.439c.041.041.041.123.082.206,0,.9.37,1.767.288,2.672a.862.862,0,0,0,.164.452,8.507,8.507,0,0,0,.288,2.014,19.479,19.479,0,0,0,.247,3.083v.247c.082,3.083,0,6.124,0,9.207v.247a11.551,11.551,0,0,0-.247,2.672c-.041.452.123.9-.123,1.356a.077.077,0,0,0,0,.123c-.164,1.069-.123,2.178-.37,3.288-.123.575-.206,1.151-.37,1.685h0c-.164.658-.206,1.315-.329,1.973-.041.164-.041.37-.164.493v.206c-.123.247-.041.534-.247.781-.041.041-.041.082,0,.082a19.524,19.524,0,0,1-1.233,4.6h0a13.6,13.6,0,0,1-.493,1.726h0a14.489,14.489,0,0,1-1.233,2.959h0a6.819,6.819,0,0,1-1.48,2.466h0a5.92,5.92,0,0,1-1.521,1.973,5.711,5.711,0,0,1-.863.863,7.061,7.061,0,0,1-3.124,1.315,25.391,25.391,0,0,1-3.946.206c-3.452.041-6.946,0-10.44,0-1.4,0-2.754-.041-4.151,0a11.883,11.883,0,0,1-2.425-.329c-.37-.288-.575-.37-.74-.534Z" transform="translate(-158.911 -64.723)" fill="#979797"/>
          <path id="Path_1049" data-name="Path 1049" d="M40.961,46.5A3.5,3.5,0,0,0,40.3,48.39a20.161,20.161,0,0,0-.329,2.754v88.572a28.053,28.053,0,0,0,.247,3.206,22.781,22.781,0,0,0,.74,2.754h0a2.978,2.978,0,0,1,.493,1.028h0a5.868,5.868,0,0,1,.617,1.11,12.453,12.453,0,0,0,3.247,3.617,3.7,3.7,0,0,1,.411.37,2.483,2.483,0,0,0,1.233.7,3.1,3.1,0,0,1,.7.411h0c.288.164.658.164.863.452.164.164.206.288-.041.411a1.5,1.5,0,0,1-.945.164,9.06,9.06,0,0,0-1.48-.164.37.37,0,0,1-.206-.041,1.631,1.631,0,0,0-.986-.164,12.219,12.219,0,0,1-2.836-1.192,4.549,4.549,0,0,1-1.6-1.192,3.078,3.078,0,0,1-.986-.781,10.021,10.021,0,0,1-1.6-1.891.863.863,0,0,0-.411-.74.214.214,0,0,1-.082-.164,8.8,8.8,0,0,0-.411-.9,10.084,10.084,0,0,1-1.192-4.85q-.062-18.8-.041-37.607V51.76a16.152,16.152,0,0,1,1.315-6.535,10.016,10.016,0,0,1,1.6-2.507c.123-.164.329-.247.329-.493h0a1.752,1.752,0,0,1,.452-.493l.863-.74a2.1,2.1,0,0,0,1.069-.822A9.865,9.865,0,0,1,43.879,38.9a24.406,24.406,0,0,0,2.877-.7.371.371,0,0,1,.206-.041,14.511,14.511,0,0,1,1.891,0c.247,0,.617-.082.7.247.041.247-.329.288-.534.411a.312.312,0,0,1-.164.082c-.247.123-.534.041-.74.247-.411.247-.9.37-1.315.658a2.514,2.514,0,0,1-.493.206,9.93,9.93,0,0,1-1.48,1.11,14.247,14.247,0,0,0-2.507,2.713c-.534.658-.74,1.521-1.233,2.178C41.084,46.088,41,46.294,40.961,46.5Z" transform="translate(-35.7 -29.368)" fill="#979797"/>
          <path id="Path_1050" data-name="Path 1050" d="M150.493,145.1a.521.521,0,0,1,.041-.247,9.3,9.3,0,0,0,.37-2.384V55.463a18.31,18.31,0,0,0-.493-5.96c.123-.822-.411-1.48-.617-2.178a12.1,12.1,0,0,0-1.767-2.754,11.874,11.874,0,0,0-4.316-3.206h-.123a.371.371,0,0,1-.206-.041,6.008,6.008,0,0,1-1.274-.575v-.041c-.206-.411.123-.493.411-.534.575-.041,1.151,0,1.726,0a.905.905,0,0,1,.329.041,9.837,9.837,0,0,0,1.891.493.312.312,0,0,1,.164.082c.205.206.493.123.781.206a2.671,2.671,0,0,1,.945.37h0a10.351,10.351,0,0,1,2.959,1.973h0c.164.617.863.822,1.11,1.4.082.247.329.411.493.617.329.247.288.74.617.986l.493.986a16.2,16.2,0,0,0,.74,1.973,19.613,19.613,0,0,1,.534,4.891q0,43.9-.041,87.832a11.328,11.328,0,0,1-1.808,6.124c-.534.822-1.192,1.48-1.726,2.3-.123.164-.411.082-.452.37-.288.288-.658.493-.986.781h0a4.328,4.328,0,0,0-1.028.74,12.42,12.42,0,0,1-1.48.74,6.263,6.263,0,0,1-1.48.493h0c-.329.206-.781.041-1.11.329a.37.37,0,0,1-.206.041,2.636,2.636,0,0,0-1.48.247,3.036,3.036,0,0,1-.863,0c-.164,0-.37,0-.37-.205-.041-.206.164-.247.329-.288a.9.9,0,0,0,.206-.123,13.852,13.852,0,0,0,3.535-2.1,10.376,10.376,0,0,0,1.685-1.6,4.425,4.425,0,0,1,.74-.986h0a2.785,2.785,0,0,0,.493-.986c.329-.37.411-.9.7-1.274C150.123,146.09,150.328,145.6,150.493,145.1Z" transform="translate(-98.336 -30.564)" fill="#979797"/>
          <path id="Path_1051" data-name="Path 1051" d="M62.565,138.3c-.041-2.548-.082-5.138-.082-7.686-.082-10.563.288-21.167.37-31.73.082-8.138.247-16.276.37-24.414v-.945a3.11,3.11,0,0,0,0-1.069c.123-1.562,0-3.124.041-4.644a2.245,2.245,0,0,1,.041-.74V65.143c.123-1.274,0-2.507.041-3.781a3.047,3.047,0,0,1,.041-.863c0-.7,0-1.356.041-2.055.164-.534-.082-1.11.123-1.644.37.082.164.37.206.575a4.974,4.974,0,0,1,.041.781c.123,1.233,0,2.507.041,3.74a6.609,6.609,0,0,0,.041,1.274,11.531,11.531,0,0,0,0,1.685,1.6,1.6,0,0,1,.082.617c0,1.562-.082,3.083.041,4.644,0,.7,0,1.4.041,2.055V75.46c.123,9.042.288,18.043.37,27.085.123,10.234.452,20.468.329,30.661-.041,3.7-.164,7.439-.288,11.138v.617h0c-.164.822.041,1.685-.123,2.507v.7c-.123.617.041,1.274-.082,1.891a5.24,5.24,0,0,1-.041.822c-.123.493.041,1.028-.082,1.521,0,.247-.041.452-.041.7-.123.575.041,1.192-.082,1.767a1.686,1.686,0,0,1-.041.452c-.123.493.041,1.028-.123,1.521v.452c-.164.493.123,1.028-.164,1.521-.617.082-.206-.411-.329-.617-.164-.452.041-.945-.123-1.4v-.575c-.164-.493.041-1.028-.082-1.521a3.988,3.988,0,0,0-.041-.7c-.123-.452.041-.945-.082-1.4a2.713,2.713,0,0,0-.041-.575c-.164-.658.041-1.356-.082-2.014v-.575c-.164-.658.041-1.356-.123-2.014v-.945a10.918,10.918,0,0,1-.041-2.014,1.779,1.779,0,0,0-.041-.658c0-.452,0-.863-.041-1.315-.123-.863.041-1.767-.082-2.63Z" transform="translate(-51.468 -40.368)" fill="#747474"/>
          <path id="Path_1052" data-name="Path 1052" d="M19.668,1.951h-1.11a1.541,1.541,0,0,0-.863,0c-1.315.041-2.672-.082-3.987-.041-2.219.041-4.439-.123-6.7-.123-.411,0-.822-.164-1.233-.206A7.5,7.5,0,0,0,2.241,2.2h0A5.2,5.2,0,0,0,.6,3.965c-.082.123-.206.288-.411.206S-.02,3.924.021,3.759c.082-.37-.041-.74.247-1.069h0A4.593,4.593,0,0,1,1.912.594C2.2.43,2.488.389,2.734.225h0c.206-.247.493-.206.781-.206a33.985,33.985,0,0,1,4.11.206A1.266,1.266,0,0,0,8.406.1.615.615,0,0,1,8.94.06c1.028.452,2.1.123,3.124.206C15.763.677,19.5.471,23.2.512c3.206-.164,6.412.123,9.618,0a10.749,10.749,0,0,1,1.151,0A15.777,15.777,0,0,0,37.094.8a3.779,3.779,0,0,1,2.877,1.891h0a5.5,5.5,0,0,1,.658,1.521c0,.822-.123.9-.658.575a5,5,0,0,0-2.055-1.973c-.164-.247-.493-.164-.7-.288-.082-.041-.123-.041-.206-.082A6.369,6.369,0,0,0,35.245,2.4c-.575.082-1.11-.288-1.685-.247-1.644.041-3.247,0-4.891.041-1.521,0-3.041-.082-4.562-.041h-3.74C20.12,2.074,19.873,2.115,19.668,1.951Z" transform="matrix(1, -0.017, 0.017, 1, 9.627, 3.081)" fill="#979797"/>
          <path id="Path_1053" data-name="Path 1053" d="M62.666,258.9a14.081,14.081,0,0,1,.082,2.63A14.08,14.08,0,0,1,62.666,258.9Z" transform="translate(-51.569 -159.403)" fill="#979797"/>
          <path id="Path_1054" data-name="Path 1054" d="M202.175,106.349c1.808,0,3.576.041,5.384.041h6.33c.534,0,.658.041.411.617a74.52,74.52,0,0,0-5.384,18.249,71.3,71.3,0,0,0,.493,24.537,67.17,67.17,0,0,0,4.562,14.632c.534,1.274.493,1.315-.863,1.315-3.452,0-6.9,0-10.357-.041-.452,0-.617.082-.617.617,0,1.891,0,3.822-.041,5.713a9.851,9.851,0,0,1-9.165,9.741c-.617.041-1.192.082-1.808.082l1.356-.617a10.326,10.326,0,0,0,6.247-9.576c.082-1.808,0-3.658.041-5.466,0-.452-.164-.493-.534-.493-.9,0-1.808,0-2.713-.082a6.138,6.138,0,0,1-4.932-3.494,42.394,42.394,0,0,1-4.891-13.645,73.262,73.262,0,0,1-.493-20.55,46.7,46.7,0,0,1,2.713-12.741,21.953,21.953,0,0,1,3.37-6.165,6.514,6.514,0,0,1,4.85-2.507l2.589-.123a.912.912,0,0,1,.452-.205h2.589A.452.452,0,0,1,202.175,106.349Z" transform="translate(-123.468 -69.449)" fill="#747474"/>
          <path id="Path_1055" data-name="Path 1055" d="M148.615,51.6c.206.123.123.329.123.493.411,6.083.617,12.166.658,18.29.082,9.083-.206,18.208-.288,27.291-.082,8.179-.247,16.358-.37,24.537a1.092,1.092,0,0,1-.123.781c-.164-.164-.082-.37-.082-.493-.123-8.631-.288-17.221-.411-25.852-.123-8.343-.37-16.687-.329-25.03.041-6.576.247-13.152.7-19.687C148.533,51.806,148.492,51.682,148.615,51.6Z" transform="translate(-101.72 -37.305)" fill="#747474"/>
          <path id="Path_1056" data-name="Path 1056" d="M210.6,71.422a2.921,2.921,0,0,1,.74,1.233c.164.575.534,1.069.7,1.644a8.131,8.131,0,0,1,.411,1.726,1.045,1.045,0,0,0,.164.7.707.707,0,0,1,.082.493,28.283,28.283,0,0,0-.164,4.932c-.041,1.315,0,1.315-1.315,1.315a9.27,9.27,0,0,0-1.069,0c-.493.041-.7-.164-.7-.658.041-1.85.082-3.74-.041-5.59a6.554,6.554,0,0,0-.575-2.795,14.176,14.176,0,0,0-1.973-3.411c-.247-.288-.617-.452-.781-.822a3.453,3.453,0,0,0-.986-.74l-1.233-.74a2.24,2.24,0,0,0-.986-.493h0c-.206-.411-.041-.617.411-.617a1.649,1.649,0,0,1,.617.123h0c.9.123,1.767.452,2.672.617a.249.249,0,0,1,.247.123c.411.247.863.493,1.274.7.206.206.617.164.74.493h0c.247.288.617.37.822.7C209.944,70.806,210.4,71.011,210.6,71.422Z" transform="translate(-134.113 -46.729)" fill="#979797"/>
          <path id="Path_1057" data-name="Path 1057" d="M182.791,91.486a3.222,3.222,0,0,1,.74-2.343,1.33,1.33,0,0,1,1.932-.082,3.392,3.392,0,0,1,0,4.521,1.481,1.481,0,0,1-2.261-.493A3.01,3.01,0,0,1,182.791,91.486Z" transform="translate(-122.332 -59.148)" fill="#747474"/>
          <path id="Path_1058" data-name="Path 1058" d="M217.585,81.608c.411.164.452.534.534.945a51.662,51.662,0,0,1,.206,7.563c0,.329.123.452.452.411.575,0,1.151-.041,1.726,0,.452.041.575-.123.575-.575V85.225a.953.953,0,0,1,.164-.74.338.338,0,0,0,.041-.288c-.37-1.192-.329-2.507-1.11-3.617a1.266,1.266,0,0,1-.123-.781,4.456,4.456,0,0,1,.986,2.137c.822,2.918.37,5.877.493,8.837h-3.452c0-1.685-.041-3.37,0-5.055a9.741,9.741,0,0,0-.452-3.452A1.779,1.779,0,0,1,217.585,81.608Z" transform="translate(-142.823 -53.915)" fill="#979797"/>
          <path id="Path_1059" data-name="Path 1059" d="M273.988,245.677h.123c.206.206.534,0,.781.206a1.78,1.78,0,0,1,.206.041c.206.206.534,0,.781.247h0c.37.288.863-.041,1.233.247h0c.123.206-.041.288-.206.329a3.09,3.09,0,0,1-.617,0H266.015a5.058,5.058,0,0,1-2.055-.37,9,9,0,0,1-4.768-4.192,12.8,12.8,0,0,1-.945-2.014c-.164-.247-.041-.534-.247-.74h0c0-.37.082-.411.452-.206a4.142,4.142,0,0,0,1.4.74,3.607,3.607,0,0,1,.863.493c.9.452,1.808.945,2.713,1.356a36.721,36.721,0,0,0,3.494,1.439c.082.041.164.123.247.164.164.247.534,0,.7.288l1.233.493c.206.206.534.041.781.206h0c.206.206.534.041.74.247a8.885,8.885,0,0,1,1.767.575,2.16,2.16,0,0,0,.7.164C273.372,245.635,273.742,245.43,273.988,245.677Z" transform="translate(-166.633 -147.742)" fill="#979797"/>
          <path id="Path_1060" data-name="Path 1060" d="M30.579,2.713A2.868,2.868,0,0,0,28.236,1.48c-3.987-.082-7.974-.247-11.96-.329C12.865,1.069,9.412.945,6,.9a3.266,3.266,0,0,0-2.63.986c-.123.123-.329.247-.247.452.082.164.288.123.452.123,2.384.041,4.768.288,7.152.206.9.123,1.85.082,2.754.123,1.932.041,3.863,0,5.8.082a1.138,1.138,0,0,1,.37.041h.123a.154.154,0,0,1,0,.247c-3.041,0-6.124.082-9.165-.041-1.151-.041-2.261-.206-3.411-.206-.534,0-1.11.164-1.6-.206a.678.678,0,0,0-.493,0,3.189,3.189,0,0,1-2.384.041,3.322,3.322,0,0,0-.658-.041H0a3.1,3.1,0,0,1,1.726-.206c.945-.041.945,0,1.028-.986.164,0,.206-.164.288-.288A3.092,3.092,0,0,1,4.685,0h8.056a.694.694,0,0,0,.206.082c3.083.082,6.124.247,9.207.123h.37c.123.164.288.123.452.123,1.6.041,3.206.123,4.809.123a4.051,4.051,0,0,1,2.384.9,2,2,0,0,0,.288.123,1.12,1.12,0,0,0,.247.493c.206.206.082.534.247.74h0C30.908,3.206,30.743,2.795,30.579,2.713Z" transform="matrix(1, -0.017, 0.017, 1, 12.646, 0.54)" fill="#979797"/>
          <path id="Path_1061" data-name="Path 1061" d="M201,234.4a43.935,43.935,0,0,0,13.851,5.384h-5.138c-.781,0-1.562-.041-2.343,0-2.589.206-4.274-1.233-5.59-3.247A4.453,4.453,0,0,1,201,234.4Z" transform="translate(-133.061 -144.973)" fill="#979797"/>
          <path id="Path_1062" data-name="Path 1062" d="M294.871,154.765a3.814,3.814,0,0,0,3.946-.986,9.987,9.987,0,0,0,2.672-4.809,41.309,41.309,0,0,0,1.48-11.878,30.961,30.961,0,0,0-.9-8.713,15.385,15.385,0,0,0-1.11-2.877c-.164.164-.082.37-.082.534a85.86,85.86,0,0,1-.534,12.577,32.208,32.208,0,0,1-4.192,12.7c-.411.7-.9,1.315-1.356,1.973a.548.548,0,0,1-.206.247,29.957,29.957,0,0,1-.945-4.028,60.625,60.625,0,0,1-.123-18.084,33.847,33.847,0,0,1,3.7-11.919,11.132,11.132,0,0,1,2.384-3,4.589,4.589,0,0,1,6.453,0,13.675,13.675,0,0,1,3.452,5.138,41.332,41.332,0,0,1,2.959,12.536,58.1,58.1,0,0,1-1.11,18.66,28.068,28.068,0,0,1-3.206,8.261,10.149,10.149,0,0,1-2.466,2.836,4.424,4.424,0,0,1-5.754-.082,9.764,9.764,0,0,1-1.973-2.137A23.567,23.567,0,0,1,294.871,154.765Z" transform="translate(-187.187 -74.75)" fill="#747474"/>
        </g>
      </g>
    </g>
    <text id="PHOTONECT" transform="translate(207 1819)" fill="#979797" font-size="30" font-family="Poppins-SemiBold, Poppins" font-weight="600" letter-spacing="0.05em"><tspan x="0" y="0">PHOTONECT</tspan></text>
  </g>
</svg>
