<svg xmlns="http://www.w3.org/2000/svg" xmlns:xlink="http://www.w3.org/1999/xlink" width="237" height="183" viewBox="0 0 237 183">
  <defs>
    <clipPath id="clip-path">
      <rect id="Rectangle_238" data-name="Rectangle 238" width="237" height="183" transform="translate(416 1633)" fill="#dcdcdc"/>
    </clipPath>
  </defs>
  <g id="Mask_Group_5" data-name="Mask Group 5" transform="translate(-416 -1633)" clip-path="url(#clip-path)">
    <g id="Untitled-21121" transform="translate(430.716 1633)">
      <g id="Group_346" data-name="Group 346" transform="translate(0 0)">
        <path id="Path_934" data-name="Path 934" d="M11.412,14.813a3.733,3.733,0,0,1,1.795-.232c9.1-.021,18.179.021,27.279-.042a3.972,3.972,0,0,1,3.927,2.28Q56.891,39.336,69.5,61.791A13.98,13.98,0,0,0,71.333,64.7a33.209,33.209,0,0,0,2.3-4.582A85.373,85.373,0,0,1,87.189,37.109c10.24-12.183,23.31-19.657,38.723-23.2a78.476,78.476,0,0,1,18.834-2.154c19.34.359,36.126,7.094,50.188,20.354,12.9,12.162,20.311,27.216,22.507,44.8,1.942,15.709-.084,30.847-7.474,44.951-11.254,21.494-28.9,34.627-52.763,39.251a72.887,72.887,0,0,1-40.412-3.23c-17.166-6.524-29.834-18.179-38.617-34.2A81.723,81.723,0,0,1,73.55,113.5a29.693,29.693,0,0,0-2.175-4.645,9.636,9.636,0,0,0-1.71,2.47q-10.1,17.514-20.185,35.07c-2.09,3.632-4.2,7.242-6.229,10.916a4.014,4.014,0,0,1-3.948,2.28c-9.142-.063-18.285-.042-27.427-.063h-1.6a5.18,5.18,0,0,1,1.077-2.3q10.388-16.374,20.776-32.748Q43.272,106.964,54.442,89.45c.253-.38.486-.781.718-1.161a3.382,3.382,0,0,0,.021-3.758q-.823-1.362-1.71-2.724Q33.3,49.693,12.953,17.558A15.647,15.647,0,0,1,11.412,14.813ZM144.281,41.057a44.236,44.236,0,0,0-8.994.929c-14.421,3.1-24.682,11.486-31.08,24.682a57.692,57.692,0,0,0-5.236,21.747,34.261,34.261,0,0,0,4.455,18.96,51.913,51.913,0,0,0,21.557,21.156,38.744,38.744,0,0,0,27.765,3.716c14.125-3.252,24.661-11.233,31.016-24.386a49.787,49.787,0,0,0,4.6-25.632,41.522,41.522,0,0,0-8.593-23.056C170.8,47.6,159.039,41.374,144.281,41.057Z" transform="translate(-10.271 -11.742)" fill="#979797"/>
        <path id="Path_935" data-name="Path 935" d="M98.915,195.2v2.428c.021,3.779.063,7.559.084,11.338,0,1.33-.021,1.33-1.394,1.351-.655.021-1.33.021-1.985,0-1.035-.042-1.056-.084-1.119-1.182V190.595c0-.359,0-.718.021-1.077a.616.616,0,0,1,.676-.655c1.478,0,2.956,0,4.434-.021.57,0,.781.4,1.013.8,2.2,3.969,4.624,7.833,6.482,11.993a2.9,2.9,0,0,0,.718,1.246c.274-.3.169-.655.148-.971-.211-3.885-.211-7.749-.169-11.634,0-1.415.021-1.415,1.457-1.436,2.977-.042,2.977-.042,2.977,3v16.532c0,.4-.021.823-.021,1.225a.591.591,0,0,1-.633.676h-3.969c-.507,0-.676-.4-.866-.76-2.344-4.307-4.856-8.509-6.946-12.943C99.591,196.148,99.528,195.6,98.915,195.2Z" transform="translate(-17.627 -27.207)" fill="#979797"/>
        <path id="Path_936" data-name="Path 936" d="M230.884,200.218a7.354,7.354,0,0,1,2.85,4.73c.338,1.33.718,2.66,1.077,3.991a1.864,1.864,0,0,1,.106,1.288,32.319,32.319,0,0,1-4.054.084c-.591,0-.76-.443-.908-.887-.359-1.182-.676-2.344-.992-3.526-.127-.486-.232-.992-.38-1.478-.612-1.942-1.626-2.6-3.653-2.491-.718.042-1.013.3-.992,1.013.021,1.584,0,3.167,0,4.751,0,.57-.021,1.119,0,1.689.021.612-.19.971-.866.971-1.077-.021-2.132,0-3.209-.021-.507,0-.739-.253-.739-.76,0-.3-.021-.612-.021-.908v-17.9c0-1.562,0-1.6,1.584-1.752a38.644,38.644,0,0,1,7.5-.084,10.2,10.2,0,0,1,2.09.422,5.331,5.331,0,0,1,4.117,4.455,5.548,5.548,0,0,1-2.513,5.827A5.139,5.139,0,0,0,230.884,200.218Zm-6.946-4.9h0c.021.76,0,1.52.021,2.3,0,.4.148.7.591.718a6.75,6.75,0,0,0,3.589-.486,2.852,2.852,0,0,0,1.5-2.935,2.6,2.6,0,0,0-2.048-2.365,6.971,6.971,0,0,0-2.724-.169c-.591.063-.929.3-.908.95C223.959,193.989,223.938,194.665,223.938,195.319Z" transform="translate(-28.508 -27.202)" fill="#979797"/>
        <path id="Path_937" data-name="Path 937" d="M179.566,199.59v-9.5c.042-1.182.063-1.2,1.2-1.246h10.7c1.33,0,1.351.021,1.372,1.394,0,3.062.232,2.555-2.449,2.6-1.626.021-3.273.021-4.9,0-.7,0-1.035.274-1.035.992-.021,4.1-.359,3.42,3.04,3.484,1.33.021,2.66.021,3.969.021.633,0,.908.274.887.929-.063,3.547.465,2.935-2.808,3-1.33.021-2.66.021-3.969.021-.76,0-1.119.317-1.119,1.1q.032,1.457,0,2.914c-.021.8.38,1.056,1.119,1.056q3.135-.032,6.271,0c1.393,0,1.436.021,1.415,1.478-.021,2.914.338,2.491-2.513,2.513-3.273.021-6.524.021-9.8,0-1.33,0-1.372-.021-1.372-1.372C179.545,205.819,179.566,202.715,179.566,199.59Z" transform="translate(-25.055 -27.208)" fill="#979797"/>
        <path id="Path_938" data-name="Path 938" d="M54.99,199.526V190.32c0-1.457.021-1.478,1.415-1.478,3.463,0,6.946-.021,10.409,0,1.372,0,1.415.021,1.415,1.351,0,3.1.317,2.6-2.555,2.639q-2.375.032-4.751,0c-.781-.021-1.119.274-1.1,1.077.021.76-.021,1.541,0,2.3.042,1.013.106,1.1,1.2,1.119,1.731.021,3.463,0,5.215.021,1.457.021,1.5.021,1.478,1.436-.021,2.745.4,2.47-2.407,2.491-1.436.021-2.85-.021-4.286.021-1.056.021-1.14.127-1.182,1.14-.042.866-.021,1.731,0,2.6.021,1.309.042,1.309,1.436,1.33,1.985.021,3.991,0,5.975,0,1.372,0,1.415.021,1.394,1.33-.021,3.125.338,2.618-2.555,2.639-3.273.021-6.545.021-9.8,0-1.267,0-1.288-.021-1.309-1.288Z" transform="translate(-14.177 -27.207)" fill="#979797"/>
        <path id="Path_939" data-name="Path 939" d="M23.783,210.623a15.9,15.9,0,0,1-2.977-.211c-5.236-.992-8.3-4.518-8.593-9.839-.359-6.883,4.286-11.887,11.169-12.077a15.384,15.384,0,0,1,4.392.443c1.33.338,1.457.507,1.119,1.774-.211.781-.127,1.795-.76,2.259-.612.443-1.436-.232-2.175-.317a13.609,13.609,0,0,0-2.449-.127,6.275,6.275,0,0,0-6.123,6.081,13.334,13.334,0,0,0,0,1.837,6.26,6.26,0,0,0,6.207,6.144,11.378,11.378,0,0,0,3.779-.422c.655-.19.95,0,1.056.655a15.037,15.037,0,0,0,.38,1.942c.232.8-.148,1.119-.845,1.288A15.259,15.259,0,0,1,23.783,210.623Z" transform="translate(-10.439 -27.177)" fill="#979797"/>
        <path id="Path_940" data-name="Path 940" d="M143.451,201.554c0-2.407.021-4.793,0-7.2-.021-1.415-.063-1.436-1.5-1.457-1.077-.021-2.132-.021-3.209,0-.676.021-.992-.232-1.035-.971-.232-3.083-.253-3.083,2.893-3.083H152.53c1.647,0,1.668,0,1.668,1.562,0,2.871.19,2.449-2.428,2.491-.76.021-1.541-.021-2.3.021-1.013.042-1.1.127-1.161,1.182-.021.359,0,.718,0,1.077v13.006c0,.4-.021.823,0,1.225,0,.612-.232.95-.908.908-.718-.042-1.436,0-2.132,0-1.689-.021-1.795.338-1.795-1.858C143.451,206.156,143.451,203.855,143.451,201.554Z" transform="translate(-21.392 -27.208)" fill="#979797"/>
      </g>
    </g>
  </g>
</svg>
