<svg xmlns="http://www.w3.org/2000/svg" xmlns:xlink="http://www.w3.org/1999/xlink" width="260" height="201" viewBox="0 0 260 201">
  <defs>
    <clipPath id="clip-path">
      <rect id="Rectangle_237" data-name="Rectangle 237" width="260" height="201" transform="translate(1106 1412)" fill="#979797"/>
    </clipPath>
  </defs>
  <g id="Mask_Group_3" data-name="Mask Group 3" transform="translate(-1106 -1412)" clip-path="url(#clip-path)">
    <g id="Untitled-211" transform="translate(1123.046 1410.084)">
      <g id="Group_344" data-name="Group 344">
        <path id="Path_906" data-name="Path 906" d="M119.592,22.6c0-.382,0-.763.021-1.145.276-2.545.551-5.089.891-8.227a20.619,20.619,0,0,0,8.885,6.34c2.29.954,4.644,1.76,6.976,2.629,6.679,2.46,13.443,4.707,20,7.464a33.79,33.79,0,0,1,14.716,11.578c4.368,6.17,5.534,13.147,4.983,20.526a8.5,8.5,0,0,0-.721,2.142c-.106,1.718-.042,3.456-.042,5.386-.615-.509-.975-.785-1.315-1.06-1.505-4.453-3.52-8.588-7.443-12.108-.191,1.293-.4,2.12-.445,2.947-.191,3.223-.382,6.425-.466,9.648a3.476,3.476,0,0,1-1.8,3.35c-2.375,1.23-4.665,2.8-7.188,3.541-9.393,2.735-17.642.276-24.745-6.213-2.078-1.887-3.859-4.092-5.768-6.17a.587.587,0,0,0-.064-.276,26.406,26.406,0,0,1-1.7-3.138c-1.612-4.2-3.138-8.439-4.707-12.68a.546.546,0,0,0-.021-.318c-.17-2.587-.466-5.2-.445-7.782C119.21,33.545,119.444,28.074,119.592,22.6Zm44.55,31.319a18.575,18.575,0,0,0-2.332-1.8c-4.792-2.4-9.5-5.047-14.44-7.061-6.828-2.778-13.868-5.068-20.823-7.57-.975-.36-1.951-.721-3.265-1.209a16.257,16.257,0,0,0,.488,1.654,36.274,36.274,0,0,0,10.114,13.613c7.93,6.382,16.645,8.439,26.357,4.432A42.506,42.506,0,0,0,164.142,53.922ZM135.05,65.182c3.456,5.492,11.747,8.461,17.345,6.107A35.985,35.985,0,0,1,135.05,65.182Z" fill="#979797"/>
        <path id="Path_907" data-name="Path 907" d="M74.724,121.437c-.106.127-.233.276-.339.4-2.629,3.711-5.237,7.4-7.93,11.2a7,7,0,0,1,.148-1.357c1.018-3.329,1.866-6.743,3.138-9.966,4.623-11.7,12.192-18.151,26.569-18.108,7.337.021,14.419,1.336,21.5,2.9,12.383,2.735,24.533,6.573,37.277,7.485,14.016,1,25.509-2.587,32.655-16.348.148,1.76.3,3.541.424,5.3-.827,2.969-1.421,6.022-2.523,8.885-4.029,10.517-11.153,17.515-22.646,19.444-7.019,1.187-13.974.509-20.823-.848-9.287-1.845-18.448-4.283-27.714-6.192-5.768-1.187-11.641-1.845-17.472-2.757-1.081,0-2.184-.021-3.265-.021H86.937a4.086,4.086,0,0,0-.021-.509c15.076-6.149,30.428-5.343,45.928-1.527,1.824.636,3.647,1.251,5.449,1.887.064-.191.148-.382.212-.594-1.612-.721-3.223-1.421-4.835-2.142-12.807-5.768-26.039-9.16-40.2-6.807C86.259,113,79.792,115.881,74.724,121.437Z" fill="#979797"/>
        <path id="Path_908" data-name="Path 908" d="M123.9,153.413c-.869-.975-1.633-1.845-2.523-2.841-1,1.06-1.781,1.908-2.651,2.841.975.933,1.781,1.7,2.651,2.5C122.306,154.982,123.091,154.2,123.9,153.413Zm5.025-2.82c-.933.975-1.739,1.8-2.693,2.757.954.912,1.8,1.7,2.5,2.375,1-.891,1.824-1.612,2.757-2.438C130.6,152.331,129.834,151.547,128.922,150.593Z" fill="#979797"/>
        <path id="Path_909" data-name="Path 909" d="M107.081,179.558c-.021-1.612-.127-3.223-.085-4.835.191-6.891,5.852-14.822,15.055-14.419,1.8.085,3.626-.021,5.449.021a16.991,16.991,0,0,1,1.781.212v.551a4.874,4.874,0,0,1-1.187.3c-1.887.042-3.753.021-5.64.021-5.619,0-8.545,2.057-10.475,7.315-1.315,3.562-1.463,9.818-.233,13.062,1.548-4.029,5.131-5.216,8.524-6.658,2.29-.975,4.623-1.845,6.913-2.778,2.9-1.187,4.559-3.181,4.262-6.51a19.682,19.682,0,0,1,.042-4.029c.064-.573.657-1.081,1.018-1.612.912,0,1.8.021,2.714.021-.021,7.846.191,15.712-.127,23.558-.17,4.262,1.506,6.764,5.7,6.764,3.965,0,7.93.021,11.9.021h2.99a11.925,11.925,0,0,0-.975-.891,16.818,16.818,0,0,1-5.746-20.759,14.637,14.637,0,0,1,10.623-8.715v.021H169.91c.021.254.042.488.085.742a7.125,7.125,0,0,1-1.484.318c-2.142.021-4.3.021-6.446-.042a8.263,8.263,0,0,0-8.1,4.644c-3.414,6.658-3.52,13.528.064,20.1a8.888,8.888,0,0,0,15.882-.276,19.574,19.574,0,0,0,2.1-7.464c.339-5.153.17-10.348.212-15.522v-2.332h3.923v3.859c0,4.092-.042,8.206,0,12.3.085,6.913-5.025,15.543-15.288,15.246-6.976-.191-13.974-.021-20.971-.042-4.686,0-5.64-.636-7.57-5.068a11.269,11.269,0,0,0-1.166.954c-8.439,8.736-19.762,4.114-23.261-5.7-.254-.7-.445-1.4-.679-2.1A.473.473,0,0,0,107.081,179.558Zm24.682-8.927c-2.672,1.463-4.877,2.651-7.082,3.88a58.739,58.739,0,0,0-6.722,3.944c-2.778,2.1-3.435,6.679-1.654,9.69a5.108,5.108,0,0,0,4.6,2.714c4.983.064,8.779-3.032,9.86-8.8C131.466,178.328,131.445,174.49,131.763,170.631Z" fill="#979797"/>
        <path id="Path_910" data-name="Path 910" d="M29.262,30.789c2.523-2.417,5.025-4.856,7.57-7.231.933-.869.53-1.463-.17-2.163-2.248-2.226-4.432-4.5-6.7-6.679C28.88,13.7,28.88,12.935,29.94,11.9c3.075-2.99,6.107-6.043,9.118-9.118.975-1,1.718-1.251,2.82-.106q4.548,4.707,9.266,9.245c1.081,1.039,1.039,1.781-.021,2.8-2.566,2.46-5.047,5-7.7,7.676.636.742,1.166,1.4,1.76,1.993,2.036,2.036,4.092,4.071,6.17,6.064a1.417,1.417,0,0,1,.021,2.375c-3.287,3.287-6.552,6.552-9.775,9.881-.827.827-1.442.679-2.184-.085-3.244-3.308-6.531-6.573-9.754-9.9a4.622,4.622,0,0,1-.679-1.612A1.844,1.844,0,0,1,29.262,30.789Zm17.472.912c.148-.148.3-.3.445-.466A16.394,16.394,0,0,0,40.1,24.449C42.515,27.1,44.635,29.389,46.734,31.7Zm.212-18.448A14.2,14.2,0,0,0,40.1,6.192C42.493,8.673,44.72,10.963,46.946,13.253Z" fill="#979797"/>
        <path id="Path_911" data-name="Path 911" d="M99.808,147.37c-.721,1.23-1.93,2.438-2.036,3.711-.276,3.584-.106,7.188-.106,11.111h8.4c0,.254.021.488.021.742H97.328V191.6H93.7V163.273c-1.8-.127-3.393-.233-4.962-.339v-.615c1.527-.106,3.053-.191,5-.318v-8.248c.127-.53.276-1.06.4-1.612,2.629-6.213,6.573-8.1,12.7-6.17,1.187.382,1.718.912,1.209,2.248-2.248-1.187-4.453-2.608-7.146-1.484C100.572,146.945,100.19,147.158,99.808,147.37Z" fill="#979797"/>
        <path id="Path_912" data-name="Path 912" d="M194.231,160.177a10.081,10.081,0,0,1,.36,1.908c.021,9.669.042,19.359-.021,29.029a16.9,16.9,0,0,1-.742,4.941c-2.1,6.488-9.16,8.842-14.822,5.025a26.217,26.217,0,0,1-2.926-2.629c.106-.148.191-.276.3-.424.424.212.848.4,1.293.615l.318.318a15.6,15.6,0,0,0,2.5,1.951c4.41,2.269,8.482.573,9.669-4.2a28.4,28.4,0,0,0,.785-6.552c.106-6.828.021-13.677.042-20.5,0-3.138.085-6.3.127-9.436C192.132,160.2,193.171,160.177,194.231,160.177Z" fill="#979797"/>
        <path id="Path_913" data-name="Path 913" d="M65.648,192.407a33.854,33.854,0,0,1-4.092-1A7.446,7.446,0,0,1,59.5,178.434c2.438-1.8,5.449-2.778,8.206-4.177,2.545-1.293,5.068-2.629,7.591-3.965.106.4.191.806.3,1.209-3.435,1.76-6.913,3.456-10.305,5.322-2.566,1.4-4.5,3.371-4.686,6.552-.17,2.778.36,5.28,2.9,6.807,2.8,1.675,5.64,1.293,8.4-.233a7.9,7.9,0,0,1,1.887-.954c-1.569,2.481-4.241,2.8-6.785,3.393C66.56,192.407,66.094,192.407,65.648,192.407Z" fill="#979797"/>
        <path id="Path_914" data-name="Path 914" d="M173.642,71.819c.106-1.209.212-2.4.318-3.6.36.276.7.573,1.315,1.06,0-1.93-.064-3.668.042-5.386a8.231,8.231,0,0,1,.721-2.142c-.233,3.774-.467,7.549-.721,11.323C174.765,72.646,174.193,72.243,173.642,71.819Z" fill="#979797"/>
        <path id="Path_915" data-name="Path 915" d="M187.764,97.646c.912-2.248,1.845-4.517,2.757-6.764.191.064.382.106.551.17-.954,3.965-1.93,7.952-2.884,11.917C188.061,101.187,187.912,99.427,187.764,97.646Z" fill="#979797"/>
        <path id="Path_916" data-name="Path 916" d="M173.642,71.819c.573.424,1.124.827,1.7,1.251-.233,3.541-.318,7.125-.721,10.645-.742,6.573-4.559,11.09-10.263,14.037-6.319,3.265-13.168,4.177-20.186,3.711-20.653-1.4-38.083-10.051-53.117-23.982-.339-.318-.7-.615-1.06-.933a4.229,4.229,0,0,0-.4-.17,16.034,16.034,0,0,0-1.378,1.187A78.3,78.3,0,0,1,63.167,94.55c-.615.276-1.166.636-1.76.954-4.326,1.187-8.63,2.629-13.019,3.52-7.952,1.59-15.9,1.569-23.558-1.7a.753.753,0,0,1-.191-.085c-4.919-2.587-4.474-1.739-4.071-6.913.382-4.9.785-9.775.954-14.673.233-7.231,1.866-13.846,7.718-18.745C35.6,52.926,43,51.717,49.851,49.024c9.224-3.626,14.631-10.539,17.218-19.89.4-1.484.636-3.011.933-4.517.276-.891.53-1.76.954-3.138,1.145,2.969,2.078,5.534,3.117,8.036A83.839,83.839,0,0,0,85.92,52.1c1.06,1.209,2.184,2.375,3.2,3.6,1.039,1.251,1.8,1.23,2.82-.085a39.714,39.714,0,0,0,8.291-19.19.794.794,0,0,1,.424-.615c.17,1.081.382,2.163.53,3.265A44.508,44.508,0,0,1,98.6,62.235a2.477,2.477,0,0,0,.254,2.226c2.5,1.887,5.174,3.584,7.782,5.365a73.878,73.878,0,0,0,19.529,9.33,67.015,67.015,0,0,0,24.555,3.562c6.679-.339,13.062-1.8,18.405-6.064A40.753,40.753,0,0,0,173.642,71.819Zm-118.6,19.8,5.662-3.435c-.085-.148-.17-.3-.254-.424-2.1.869-4.2,1.718-6.276,2.587a41.512,41.512,0,0,1-19.8,1.4C41.285,95.122,48.2,95.546,55.046,91.624Zm12.723-51.4c-.53,2.375-.912,4.41-1.421,6.425C63.676,57.23,57.612,64.8,47.073,68.4c-3.117,1.06-6.234,2.12-9.415,3.011a29.052,29.052,0,0,0-9.86,4.9,10.09,10.09,0,0,0-1.506,1.972,9.394,9.394,0,0,0,2.057,1.421c6.022,2.205,12.277,2.332,18.511,1.548,11.98-1.548,22.689-6.361,32.485-13.337,1.548-1.1,1.506-1.908.594-3.414-2.608-4.283-5.2-8.609-7.485-13.1C70.716,47.943,69.444,44.253,67.769,40.224Z" fill="#979797"/>
        <path id="Path_917" data-name="Path 917" d="M46.565,163H30.619v-.848c6.7-.021,13.422-.021,20.547,0-1.251,2.078-2.248,3.8-3.287,5.492-4.368,7.167-8.863,14.249-13.062,21.522-1.357,2.332-2.884,3.075-5.64,2.311C34.881,182.123,40.543,172.836,46.565,163Z" fill="#979797"/>
        <path id="Path_918" data-name="Path 918" d="M75.593,171.521c-.106-.4-.191-.806-.3-1.209,1.357-4.538-.848-7.612-5.534-7.718a11.693,11.693,0,0,0-9.287,4.3c-.594-1.463-.3-2.332.869-3.011a15.679,15.679,0,0,1,13.168-1.527c3.287,1.039,5.025,3.838,5.11,7.888.085,4.22,0,8.46.021,12.68a29.112,29.112,0,0,0,.191,3.6c.488,3.5,1.081,4.05,4.389,4.283a3.772,3.772,0,0,1-4.983.021,7.162,7.162,0,0,1-2.884-5.343c-.254-3.88-.276-7.761-.424-11.662A12.414,12.414,0,0,0,75.593,171.521Z" fill="#979797"/>
        <path id="Path_919" data-name="Path 919" d="M51.7,191.538H37.15C38.337,190.647,49.342,190.414,51.7,191.538Z" fill="#979797"/>
        <path id="Path_920" data-name="Path 920" d="M164.821,153.71c.7-1.039,1.421-2.078,2.184-3.223,1.06,1.039,1.866,1.8,2.841,2.735-.848.891-1.633,1.718-2.5,2.608-.933-.785-1.739-1.463-2.523-2.12Z" fill="#979797"/>
        <path id="Path_921" data-name="Path 921" d="M123.9,153.413c-.806.806-1.59,1.569-2.523,2.5-.848-.806-1.654-1.569-2.651-2.5.869-.933,1.654-1.781,2.651-2.841C122.264,151.568,123.027,152.416,123.9,153.413Z" fill="#979797"/>
        <path id="Path_922" data-name="Path 922" d="M128.922,150.593c.912.954,1.675,1.76,2.566,2.693-.933.827-1.76,1.548-2.757,2.438-.7-.679-1.548-1.463-2.5-2.375C127.183,152.374,127.989,151.547,128.922,150.593Z" fill="#979797"/>
        <path id="Path_923" data-name="Path 923" d="M100.169,11.768l6.425,6.489c1.4,1.506.975,2.608-.445,3.944-2.947,2.735-5.725,5.64-8.524,8.545-1.018,1.06-1.76,1.1-2.82.021-3.032-3.138-6.128-6.192-9.245-9.245-.933-.912-1.187-1.654-.148-2.672q4.9-4.771,9.733-9.627c.785-.785,1.4-.785,2.184.042C98.2,10.178,99.215,10.941,100.169,11.768ZM95.716,27.353a10.926,10.926,0,0,0-6.234-6.4C91.56,23.091,93.638,25.233,95.716,27.353Z" fill="#979797"/>
        <path id="Path_924" data-name="Path 924" d="M191.835,150.571c1.018,1,1.8,1.76,2.714,2.651-.912.954-1.654,1.76-2.629,2.778-.806-1.018-1.505-1.951-2.29-2.947C190.223,152.395,190.987,151.526,191.835,150.571Z" fill="#979797"/>
        <path id="Path_925" data-name="Path 925" d="M200.253,63.38c1.527,1.612,3.032,3.223,4.58,4.813.7.7,1.124,1.336.233,2.205-3.626,3.584-7.231,7.188-10.9,10.857a5.166,5.166,0,0,1-.869-.551c-3.393-3.371-6.743-6.764-10.136-10.114-.848-.827-.933-1.463-.042-2.332q4.9-4.771,9.712-9.669c.933-.954,1.633-.848,2.523.064,1.569,1.612,3.244,3.159,4.9,4.729Zm-12.214,6.7c1.145,1.357,3.053,3.6,4.962,5.874A11.4,11.4,0,0,0,188.039,70.08Z" fill="#979797"/>
      </g>
    </g>
  </g>
</svg>
