<svg id="Layer_1" data-name="Layer 1" xmlns="http://www.w3.org/2000/svg" viewBox="0 0 816.85 1188.5"><defs><style>.cls-1{fill:#2f2e41;}.cls-2,.cls-7{fill:#e45a5c;}.cls-3{fill:#f2f2f2;}.cls-4{fill:#ffb8b8;}.cls-5{fill:#3f3d56;}.cls-6,.cls-7{font-size:830.4px;font-family:Poppins-Regular, Poppins;}.cls-6{fill:#8c151b;}</style></defs><path class="cls-1" d="M730.35,729.91c30.72-9.23,63.37-18.84,87.73-40.77,21.77-19.6,36.47-49.53,27.45-78.92s-36-48.88-63.79-58.61c-15.78-5.51-32.3-8.57-48.81-11-17.94-2.61-36-4.75-54-6.81q-109.43-12.52-219.68-15.3c-36.26-.91-72.52-.89-108.79-.36-32.4.47-66.51.46-96.56-13.31-23.37-10.71-44.58-30.18-51.09-55.78-7.52-29.55,6.34-59.64,26.23-81,10.48-11.27,22.74-20.77,35.37-29.5,13.72-9.47,27.9-18.27,42.4-26.48a590.2,590.2,0,0,1,89.24-41.14c15.22-5.53,30.65-10.31,46.23-14.71,13.15-3.72,26.34-7.44,39.05-12.51,24.57-9.79,47.93-26.37,54.18-53.57,5.92-25.77-4.06-53.74-21.56-72.89-20.25-22.15-50.78-31.86-80-33.43-32.86-1.76-65,6.46-95.85,16.9-32.94,11.13-65.17,23.93-98.8,32.94a663.64,663.64,0,0,1-101.69,18.91c-16.81,1.79-34.12,3.81-51,2.44-14.17-1.15-28.27-5.32-38.72-15.38-9-8.62-14.29-20.47-12.45-33,.33-2.27,3.78-1.3,3.45,1C36.61,122.81,47,136.84,59.71,144c14.74,8.31,32.67,8.32,49.08,7.37a642.58,642.58,0,0,0,105.65-15.27c34.13-7.8,67-18.94,99.91-30.84C345.57,94,377.49,82.94,410.84,80.49c28.94-2.13,59.39,2.09,84.6,17.21,22.15,13.3,38.45,35.46,43.64,60.9,5.07,24.86-2,49.87-20.77,67.22-19.48,18-46.19,25.64-71.08,32.71-31.58,9-62.47,19.45-92.38,33.06A580,580,0,0,0,268,340.45c-26.56,18.14-52.76,41-61.16,73.34-3.91,15.08-3.19,31.07,3.36,45.32,5.82,12.66,15.4,23.31,26.57,31.53,26.64,19.6,60.22,23.63,92.4,24,36.14.45,72.29-.77,108.44-.18q110.54,1.82,220.6,13.46,27.58,2.91,55.09,6.45c16.5,2.12,33.06,4.23,49.27,8,28.84,6.7,56.91,19.57,74.83,44a73.11,73.11,0,0,1,14.26,36.34c1.26,13.75-2.11,27.54-8.33,39.77-13.76,27.08-39.55,44.31-66.93,55.63-14.66,6.06-29.87,10.65-45.06,15.21-2.21.67-3.15-2.79-.95-3.45Z" transform="translate(-35.03 92)"/><circle class="cls-2" cx="76.67" cy="217.96" r="28.65"/><circle class="cls-2" cx="514.44" cy="585.5" r="28.65"/><circle class="cls-3" cx="650.74" cy="626.18" r="28.65"/><circle class="cls-2" cx="787.65" cy="715.05" r="28.65"/><circle class="cls-1" cx="648.52" cy="409.04" r="35.81"/><polygon class="cls-4" points="582.35 813.83 567.72 813.83 560.76 757.38 582.35 757.38 582.35 813.83"/><path class="cls-1" d="M592.29,717.64h28.23v17.77h-46A17.77,17.77,0,0,1,592.29,717.64Z" transform="translate(-35.03 92)"/><polygon class="cls-4" points="695.74 813.83 681.11 813.83 674.15 757.38 695.75 757.38 695.74 813.83"/><path class="cls-1" d="M705.69,717.64h28.22v17.77h-46A17.77,17.77,0,0,1,705.69,717.64Z" transform="translate(-35.03 92)"/><circle class="cls-4" cx="643.08" cy="415.74" r="29.32"/><path class="cls-1" d="M695.58,447.63l13.12-30.14A37.45,37.45,0,0,0,700.4,375a38.35,38.35,0,0,0-3.66-3.19A37,37,0,0,0,674.07,364a38.26,38.26,0,0,0-16,3.56l-1.28.59c-.82.4-1.64.83-2.42,1.27a37.79,37.79,0,0,0-18.74,28.5l-5.79,48.51c-1.46,3.81-53.4,141.31-35.24,246.29a5.35,5.35,0,0,0,4.56,4.38l18.42,2.5a5.37,5.37,0,0,0,6-4.21l30.9-147.3a4.18,4.18,0,0,1,8.12-.28l43.66,154.91a5.33,5.33,0,0,0,5.14,3.91,6,6,0,0,0,1-.09l22.5-4.34a5.34,5.34,0,0,0,4.34-5.74C736,659.56,718.39,474.88,695.58,447.63Z" transform="translate(-35.03 92)"/><path class="cls-4" d="M564.18,348.14a12,12,0,0,0,10.53,13.31,12.4,12.4,0,0,0,2.11.06l16.39,39.38,12.4-18.38-17.47-34.58a12.06,12.06,0,0,0-24,.21Z" transform="translate(-35.03 92)"/><path class="cls-4" d="M676.48,487.28a12,12,0,0,0,10.06-15.41L721,446.76,700.26,439,670.7,464a12.07,12.07,0,0,0,5.78,23.26Z" transform="translate(-35.03 92)"/><path class="cls-1" d="M620.28,427.14a20,20,0,0,1-3.94-.39,19.44,19.44,0,0,1-14.26-11.47l-23-28a5.37,5.37,0,0,1,.75-7.56,4.67,4.67,0,0,1,.58-.41l16.33-10.11a5.37,5.37,0,0,1,7.4,1.74l0,0,16.18,26.65,31-22.9a11.61,11.61,0,0,1,13.5,18.58l-30.93,28.21A19.43,19.43,0,0,1,620.28,427.14Z" transform="translate(-35.03 92)"/><path class="cls-1" d="M704,469.24h-.13a5.41,5.41,0,0,1-4-1.87l-14.52-16.94a5.38,5.38,0,0,1,.58-7.58,5,5,0,0,1,.52-.39l27.19-18.13-24.64-29.61a11.6,11.6,0,0,1,17.77-14.54l29.94,29.25a19.73,19.73,0,0,1-4.38,32.16l-24.47,26A5.4,5.4,0,0,1,704,469.24Z" transform="translate(-35.03 92)"/><path class="cls-2" d="M670.65,406.82a5.46,5.46,0,0,1-5.12-3.71l-10.92-33.45a3.69,3.69,0,0,1,1.91-4.45l.35-.17,1-.45a38.77,38.77,0,0,1,16.24-3.6,37.36,37.36,0,0,1,20.48,6.15,3.74,3.74,0,0,1,1.08,5.13l-20.47,32.07A5.35,5.35,0,0,1,670.65,406.82Z" transform="translate(-35.03 92)"/><circle class="cls-1" cx="676.75" cy="381.34" r="11.72"/><path class="cls-1" d="M671.61,276.46h0a31,31,0,0,0-31,31v13.13h16.15l7.72-13.13,2.32,13.13h49l-13.13-13.13A31,31,0,0,0,671.61,276.46Z" transform="translate(-35.03 92)"/><path class="cls-1" d="M717.8,281.31a18.09,18.09,0,0,1,19.67-12.41c7.47,1.25,13.37,7.25,16.89,14s5.14,14.2,7.51,21.39,5.72,14.43,11.69,19.08,15.13,5.92,21,1.13A24,24,0,0,1,749.82,333c-3.09-5.5-3.89-11.95-4.81-18.2s-2.11-12.71-5.8-17.83-10.61-8.47-16.48-6.14Z" transform="translate(-35.03 92)"/><polygon class="cls-4" points="146.45 810.37 161.08 810.37 168.04 753.93 146.44 753.93 146.45 810.37"/><path class="cls-1" d="M224.33,732h-46V714.19h28.22A17.77,17.77,0,0,1,224.33,732Z" transform="translate(-35.03 92)"/><polygon class="cls-4" points="93.93 810.37 108.56 810.37 115.52 753.93 93.92 753.93 93.93 810.37"/><path class="cls-1" d="M171.81,732h-46V714.19H154A17.77,17.77,0,0,1,171.81,732Z" transform="translate(-35.03 92)"/><path class="cls-1" d="M141.74,701l-14.29-.75a5.58,5.58,0,0,1-5.28-5.86v-.07l17.08-189.14,78.67,21.22,7.58-2.06-23.7,167.44a5.62,5.62,0,0,1-5.2,4.71l-15.41.72a5.58,5.58,0,0,1-5.88-5.27c0-.15,0-.3,0-.46L178.1,591a1.86,1.86,0,0,0-3.68-.43l-26.92,106a5.54,5.54,0,0,1-5.45,4.45Z" transform="translate(-35.03 92)"/><circle class="cls-4" cx="149.07" cy="413.11" r="29.32"/><path class="cls-2" d="M135.29,407.24l3.23,69.55,1.16,25.3a5.55,5.55,0,0,0,3.67,5L219,534.46a5.41,5.41,0,0,0,1.91.33,5.54,5.54,0,0,0,5.57-5.51,1.27,1.27,0,0,0,0-.2L223.32,404a44.08,44.08,0,0,0-36.69-42.59l-2.22-.32a43.29,43.29,0,0,0-34.81,11.27,44.46,44.46,0,0,0-14.31,34.85Z" transform="translate(-35.03 92)"/><path class="cls-4" d="M255.06,520.58a12,12,0,0,1-7.91-15,11.64,11.64,0,0,1,1.5-3.14L223,468.32,245.14,467l20.95,32.58a12.07,12.07,0,0,1-11,21.05Z" transform="translate(-35.03 92)"/><path class="cls-2" d="M237,496.24a5.54,5.54,0,0,1-3-3l-38.62-92a14.88,14.88,0,1,1,27.43-11.53v0l38.63,92a5.58,5.58,0,0,1-3,7.3l-17.14,7.2a5.59,5.59,0,0,1-4.27,0Z" transform="translate(-35.03 92)"/><path class="cls-5" d="M174.68,493l37.09-71a5.83,5.83,0,0,1,7.85-2.46l53.84,28.12a5.82,5.82,0,0,1,2.47,7.85l-37.1,71A5.83,5.83,0,0,1,231,529l-53.84-28.12A5.81,5.81,0,0,1,174.68,493Z" transform="translate(-35.03 92)"/><path class="cls-4" d="M199.55,460.54A12,12,0,0,0,181,455.22l-35.54-23.58-.06,22.16,33.76,19a12.06,12.06,0,0,0,20.36-12.25Z" transform="translate(-35.03 92)"/><path class="cls-2" d="M154.62,465.52l-29.05-23a20.48,20.48,0,0,1-9.34-32.38l26.37-34.57a12.05,12.05,0,0,1,20.45,12.28L142.18,422l30.67,14.55A5.58,5.58,0,0,1,175.5,444c-.1.2-.21.4-.33.59L162.8,464.13a5.6,5.6,0,0,1-3.78,2.52h-.1A5.54,5.54,0,0,1,154.62,465.52Z" transform="translate(-35.03 92)"/><path class="cls-1" d="M162,340.74a2.53,2.53,0,0,1,1.59-3.23,2.21,2.21,0,0,1,.63-.13,5.83,5.83,0,0,1,4.14,2,16.46,16.46,0,0,0,3.67,3.15c1.42.72,3.34.61,4.15-.75s.24-3-.22-4.48A44.34,44.34,0,0,1,174,325.68c-.13-4.42.49-9,2.94-12.47,3.16-4.45,8.8-6.14,14.14-6S201.63,309,206.92,310c1.83.36,4,.54,5.2-.87s.82-3.94.27-6c-1.44-5.28-3-10.73-6.29-15a22.54,22.54,0,0,0-14.4-8.1,34.54,34.54,0,0,0-16.06,1.82,43.07,43.07,0,0,0-21.11,14.71,34.91,34.91,0,0,0-6.66,25.78,31.85,31.85,0,0,0,11.8,20.12Z" transform="translate(-35.03 92)"/><text class="cls-6" transform="translate(183.93 713.51)">?</text><text class="cls-7" transform="translate(172.85 705.01)">?</text></svg>