<svg xmlns="http://www.w3.org/2000/svg" width="158.329" height="242.881" viewBox="0 0 158.329 242.881">
  <g id="Layer_2" data-name="Layer 2" transform="translate(0.028 0.001)">
    <g id="Hi_Influencer_Logo" data-name="Hi Influencer Logo" transform="translate(-0.028 -0.001)">
      <g id="Final_Logo" data-name="Final Logo" transform="translate(0 0)">
        <g id="Smoke" transform="translate(53.956 183.933)">
          <path id="Path_12" data-name="Path 12" d="M147.83,293.563c0,5.762-.054,11.524,0,17.286a6.093,6.093,0,0,1-4.537,5.606,5.851,5.851,0,0,1-6.374-3.306,6.543,6.543,0,0,1-.531-2.558V276.3a5.592,5.592,0,0,1,3.184-5.306,5.66,5.66,0,0,1,8.225,5.143v17.429Z" transform="translate(-97.541 -270.376)" fill="#f2f2f2"/>
          <path id="Path_13" data-name="Path 13" d="M119.133,312.29v17.293a5.708,5.708,0,1,1-11.415-.082v-34.45a5.7,5.7,0,1,1,11.381-.476c.075,3.02,0,6.041,0,9.061v8.653Z" transform="translate(-88.375 -276.368)" fill="#f2f2f2"/>
          <path id="Path_14" data-name="Path 14" d="M79.31,293.584V276.427a5.667,5.667,0,0,1,10.884-2.252,7.679,7.679,0,0,1,.5,2.721v33.477a5.993,5.993,0,0,1-2.8,5.558,5.6,5.6,0,0,1-8.578-4.626C79.255,305.393,79.31,299.482,79.31,293.584Z" transform="translate(-79.287 -270.486)" fill="#f2f2f2"/>
        </g>
        <g id="Rocket">
          <path id="Path_15" data-name="Path 15" d="M195.372,195.3a22.7,22.7,0,0,1-5.089-.3,47.245,47.245,0,0,1-13.735-3.8,40.911,40.911,0,0,1-10.83-6.993,46.048,46.048,0,0,1-11.565-15.51,41.877,41.877,0,0,1-3.354-12.429c-.476-4.034-.218-8.075-.286-12.116-.32-17.851-.1-35.708-.306-53.559a64.57,64.57,0,0,0-3.361-20.919,42.178,42.178,0,0,0-17.687-22.2,59.953,59.953,0,0,0-12.83-6.123h0V0a3.85,3.85,0,0,1,.925.1A100.681,100.681,0,0,1,135.289,5.9a99.32,99.32,0,0,1,21.633,12.769c2.238,1.742,4.408,3.558,6.5,5.483A100.587,100.587,0,0,1,193.154,74.15a105.82,105.82,0,0,1,2.272,13.136,21.116,21.116,0,0,1,.054,2.367V193.88A3.866,3.866,0,0,1,195.372,195.3Z" transform="translate(-37.174 0.001)" fill="#f2f2f2"/>
          <path id="Path_16" data-name="Path 16" d="M.114,195.3A22.7,22.7,0,0,0,5.2,195a47.245,47.245,0,0,0,13.735-3.8,40.911,40.911,0,0,0,10.83-6.993A46.048,46.048,0,0,0,41.332,168.7a41.877,41.877,0,0,0,3.32-12.429c.476-4.034.218-8.075.286-12.116.32-17.851.1-35.708.306-53.559A64.572,64.572,0,0,1,48.6,69.674a42.177,42.177,0,0,1,17.728-22.2,59.953,59.953,0,0,1,12.83-6.123H79.2V0a3.85,3.85,0,0,0-.925.1A100.682,100.682,0,0,0,60.2,5.9,99.321,99.321,0,0,0,38.563,18.673c-2.238,1.742-4.408,3.558-6.5,5.483A100.587,100.587,0,0,0,2.331,74.15,105.827,105.827,0,0,0,.059,87.28a21.09,21.09,0,0,0-.068,2.367V193.88A3.864,3.864,0,0,0,.114,195.3Z" transform="translate(0.028 0.001)" fill="#f2f2f2"/>
        </g>
      </g>
      <path id="Hider_2" data-name="Hider 2" d="M99.507,2.918,107.276.728a7.544,7.544,0,0,1,4.082,0L119.011,2.9a7.225,7.225,0,0,1,5.3,7.361l-1.585,25.674a7.367,7.367,0,0,1-10.531,6.068h0a7.483,7.483,0,0,0-5.857-.218l-.537.2a7.354,7.354,0,0,1-10.027-6.286L94.215,10.279a7.225,7.225,0,0,1,5.293-7.361Z" transform="translate(-30.1 -0.142)" fill="#f2f2f2"/>
    </g>
  </g>
</svg>
