<svg xmlns="http://www.w3.org/2000/svg" viewBox="0 0 232.7 357.03"><defs><style>.cls-1{fill:#d45252;}</style></defs><g id="Layer_2" data-name="Layer 2"><g id="Hi_Influencer_Logo" data-name="Hi Influencer Logo"><g id="Final_Logo" data-name="Final Logo"><g id="Smoke"><path class="cls-1" d="M153.21,304.46c0,8.47-.08,16.94,0,25.41.05,3.76-3.33,7.65-6.67,8.24a8.6,8.6,0,0,1-9.37-4.86,9.62,9.62,0,0,1-.78-3.76q0-25.22,0-50.41a8.22,8.22,0,0,1,4.68-7.8,8.32,8.32,0,0,1,12.09,7.56q0,9.84,0,19.68v5.94Z"/><path class="cls-1" d="M124.5,323.18c0,8.47,0,16.95,0,25.42a8.26,8.26,0,0,1-6.2,8.17c-6.32,1.4-10.56-3.1-10.58-8.29,0-9.77,0-19.54,0-29.32,0-7.11,0-14.21,0-21.32a8.37,8.37,0,0,1,16.73-.7c.11,4.44,0,8.88,0,13.32v12.72Z"/><path class="cls-1" d="M79.32,304.33c0-8.41,0-16.82,0-25.22a8.33,8.33,0,0,1,16-3.31,11.29,11.29,0,0,1,.74,4q0,24.61,0,49.21c0,3.4-1.06,6.29-4.12,8.17a8.23,8.23,0,0,1-12.61-6.8C79.24,321.69,79.32,313,79.32,304.33Z"/></g><g id="Rocket"><path class="cls-1" d="M232.52,287.08a33.37,33.37,0,0,1-7.48-.44,69.45,69.45,0,0,1-20.19-5.58,60.14,60.14,0,0,1-15.92-10.28,67.69,67.69,0,0,1-17-22.8A61.56,61.56,0,0,1,167,229.71c-.7-5.93-.32-11.87-.42-17.81-.47-26.24-.15-52.49-.45-78.73a94.92,94.92,0,0,0-4.94-30.75,62,62,0,0,0-26-32.63,88.13,88.13,0,0,0-18.86-9l0,0V0a5.66,5.66,0,0,1,1.36.14A148,148,0,0,1,144.2,8.68,146,146,0,0,1,176,27.45c3.29,2.56,6.48,5.23,9.55,8.06A147.86,147.86,0,0,1,229.26,109a155.56,155.56,0,0,1,3.34,19.31,31,31,0,0,1,.08,3.48V285A5.68,5.68,0,0,1,232.52,287.08Z"/><path class="cls-1" d="M.18,287.08a33.37,33.37,0,0,0,7.48-.44,69.45,69.45,0,0,0,20.19-5.58,60.14,60.14,0,0,0,15.92-10.28,67.69,67.69,0,0,0,17-22.8,61.56,61.56,0,0,0,4.88-18.27c.7-5.93.32-11.87.42-17.81.47-26.24.15-52.49.45-78.73a94.92,94.92,0,0,1,4.94-30.75A62,62,0,0,1,97.52,69.79a88.13,88.13,0,0,1,18.86-9l.05,0V0a5.66,5.66,0,0,0-1.36.14A148,148,0,0,0,88.5,8.68,146,146,0,0,0,56.7,27.45c-3.29,2.56-6.48,5.23-9.55,8.06A147.86,147.86,0,0,0,3.44,109,155.56,155.56,0,0,0,.1,128.3,31,31,0,0,0,0,131.78V285A5.68,5.68,0,0,0,.18,287.08Z"/></g></g><path id="Hider_2" data-name="Hider 2" class="cls-1" d="M102,4.08,113.42.86a11.09,11.09,0,0,1,6,0l11.25,3.2a10.62,10.62,0,0,1,7.79,10.82l-2.33,37.74a10.83,10.83,0,0,1-15.48,8.92h0a11,11,0,0,0-8.61-.32l-.79.3a10.81,10.81,0,0,1-14.74-9.24L94.22,14.9A10.62,10.62,0,0,1,102,4.08Z"/></g></g></svg>