<?xml  version="1.0" encoding="utf-8"?>
<!-- Generator: Adobe Illustrator 25.1.0, SVG Export Plug-In . SVG Version: 6.00 Build 0)  -->
<svg width="500" version="1.1" id="Layer_1" xmlns="http://www.w3.org/2000/svg" xmlns:xlink="http://www.w3.org/1999/xlink" x="0px" y="0px"
	 viewBox="0 0 940 1035" style="enable-background:new 0 0 940 1035;" xml:space="preserve">
<style type="text/css">
	.st0{fill:#FCFCFC;}
	.st1{fill:#F2F2F2;}
	.st2{fill:#D45252;}
	.st3{fill:#FFFFFF;}
	.st4{fill:none;stroke:#FFFFFF;stroke-width:3;stroke-linecap:round;stroke-linejoin:round;stroke-miterlimit:10;}
	.st5{fill:none;stroke:#FFFFFF;stroke-linecap:round;stroke-linejoin:round;stroke-miterlimit:10;}
	.st6{fill:#CCCCCC;}
</style>
<polygon class="st0" points="519.4,693.5 527.3,696.7 518.8,699.1 516.1,707.3 513.8,698.8 505.5,696.1 514.1,693.9 516.7,685.5 "/>
<g id="MAIN" transform="translate(-1099.1 -204.5)">
	<g id="Layer_1_1_" transform="translate(24)">
		<path id="Path_1" class="st1" d="M1957.6,1200.8c0.1,13.7-3.5,27.1-10.2,39H1206c-7.2-12.2-11-26-10.9-40.1
			c0-43.7,35.4-79.1,79.2-79.1c32.9,0,62.4,20.4,74.1,51.3c10.5-5.8,22.3-8.9,34.3-8.8c5.1,0,10.3,0.6,15.3,1.7
			c10.8-40.2,46.5-68.7,88.1-70.4l20.5-166.9c2-9.5,3.3-19.2,3.9-28.9l3.7-67l50.5,20.1c6.6,2.6,14,2.7,20.6,0.1l54.9-21.2l0.9,69.3
			c0.1,8.1,1.4,16.1,3.8,23.9l23.5,171.9c41,2.3,75.8,30.7,86.5,70.3c5-1.2,10.1-1.7,15.3-1.7c12,0,23.8,3,34.3,8.8
			c15.4-40.9,61.1-61.6,102.1-46.2C1937.1,1138.3,1957.5,1167.8,1957.6,1200.8z"/>
		<g id="Layer_2_1_">
			<g id="Hi_Influencer_Logo">
				<g id="Final_Logo">
					<g id="Smoke">
						<path id="Path_2" class="st2" d="M1643.9,910.9c0,1.2-0.2,2.5-0.6,3.7c-1.6,5.6-6.7,10.6-11.7,11.5
							c-7.1,1.3-14.2-2.4-17.2-8.9c-0.9-2.2-1.4-4.5-1.5-6.9v-92.8c-0.1-1.2,0-2.5,0.3-3.7l0,0c0.9-4.7,4-8.6,8.3-10.7
							c7.5-3.8,16.7-0.8,20.5,6.7c0.7,1.3,1.1,2.6,1.4,4c0.2,1.1,0.3,2.1,0.3,3.2v47.1h0.1C1643.9,879.7,1643.7,895.3,1643.9,910.9z
							"/>
						<path id="Path_3" class="st2" d="M1590.9,898.6L1590.9,898.6l0.1,46.8c0.1,7.1-4.6,13.3-11.5,15c-11.6,2.5-19.4-5.7-19.5-15.3
							V852c-0.3-8.5,6.3-15.7,14.8-16.1c8.5-0.3,15.7,6.3,16.1,14.8c0,1.3,0,2.6,0.1,3.9c0.1,6.9-0.1,13.8-0.1,20.5V898.6z"/>
						<path id="Path_4" class="st2" d="M1538.8,818.8v90.6c0,6.3-1.9,11.6-7.6,15c-7.1,4.4-16.4,2.3-20.8-4.7c0,0,0-0.1,0-0.1
							c-1.3-2-2.1-4.3-2.3-6.7c0-0.3-0.1-0.7-0.1-1.1c-0.1-15.9,0-32,0-47.9v-46.4c0-0.6,0-1.2,0.1-1.7v-0.2
							c0.1-0.6,0.2-1.2,0.3-1.7c2-8.2,10.3-13.3,18.5-11.3c4.7,1.2,8.6,4.5,10.5,9c0.3,0.7,0.5,1.5,0.7,2.3c0.2,1,0.4,2.1,0.6,3.1
							C1538.7,817.5,1538.8,818.1,1538.8,818.8z"/>
					</g>
					<g id="Rocket">
						<path id="Path_5" class="st2" d="M1789.8,832.1c-4.6,0.2-9.2,0-13.8-0.8c-12.8-1.5-25.4-4.9-37.2-10.2
							c-10.7-4.7-20.5-11.1-29.2-18.9c-13.3-11.6-24-25.9-31.3-42c-4.7-10.7-7.8-22-9.1-33.6c-1.3-10.9-0.6-21.8-0.8-32.8
							c-0.9-48.3-0.2-96.6-0.8-144.8c0.1-19.2-3-38.3-9.1-56.5c-8.5-24.9-25.4-46.1-47.8-60c-10.9-6.9-22.5-12.4-34.6-16.5h0.1v-0.6
							h-0.2v0.6l0,0c-12.2,4.1-23.8,9.7-34.6,16.5c-22.4,13.9-39.4,35.1-47.9,60c-6.1,18.2-9.2,37.3-9.1,56.5
							c-0.6,48.3,0,96.6-0.8,144.8c-0.2,10.9,0.5,21.9-0.8,32.8c-1.2,11.6-4.3,22.9-8.9,33.6c-7.3,16.1-18,30.4-31.3,42
							c-8.7,7.8-18.6,14.2-29.2,18.9c-11.8,5.3-24.3,8.7-37.2,10.2c-4.5,0.8-9.2,1.1-13.8,0.8c-0.3-1.2-0.5-2.5-0.3-3.8V546.4
							c-0.1-2.1,0-4.3,0.2-6.4c1.3-12,3.3-23.9,6.2-35.5c12.9-52,40.9-99,80.4-135.2c5.6-5.2,11.5-10.1,17.5-14.8
							c17.9-14,37.6-25.6,58.5-34.5c15.7-6.8,32.1-12,48.9-15.7c0.7-0.2,1.5-0.3,2.3-0.2v0.8h0.2V304c0.8,0,1.5,0.1,2.3,0.2
							c39,8.6,75.6,25.7,107.2,50.2c6.1,4.7,11.9,9.6,17.5,14.8c39.6,36.1,67.6,83.2,80.4,135.2c2.8,11.7,4.8,23.6,6.2,35.5
							c0.2,2.1,0.2,4.3,0.1,6.4v281.9C1790.2,829.6,1790.1,830.9,1789.8,832.1z"/>
						<rect id="Rectangle_2" x="1576" y="304" class="st2" width="0.2" height="0.8"/>
						<path id="Path_6" class="st2" d="M1576,415.4h0.2v0.6h-0.1v-0.6H1576z"/>
						<rect id="Rectangle_3" x="1576" y="304" class="st2" width="0.2" height="0.8"/>
						<path id="Path_7" class="st2" d="M1576,415.4h0.2v0.6h-0.1v-0.6H1576z"/>
					</g>
				</g>
			</g>
		</g>
		<path id="Path_8" class="st3" d="M1643.3,832.3"/>
		<g id="Group_1">
			<line id="Line_1" class="st4" x1="1848.3" y1="1002.9" x2="1848.3" y2="1071.6"/>
			<line id="Line_2" class="st4" x1="1889" y1="840.2" x2="1889" y2="954.4"/>
			<line id="Line_3" class="st4" x1="1842.9" y1="823.8" x2="1842.9" y2="897.3"/>
			<line id="Line_4" class="st4" x1="1799.9" y1="884.8" x2="1799.9" y2="1006"/>
			<line id="Line_5" class="st4" x1="1760.8" y1="918.4" x2="1760.8" y2="966.1"/>
			<line id="Line_6" class="st4" x1="1730.3" y1="864.5" x2="1730.3" y2="998.9"/>
			<line id="Line_7" class="st4" x1="1821" y1="621.3" x2="1821" y2="789.4"/>
			<line id="Line_8" class="st4" x1="1842.9" y1="663.5" x2="1842.9" y2="738.6"/>
			<line id="Line_9" class="st4" x1="1896.8" y1="514.2" x2="1896.8" y2="672.9"/>
			<line id="Line_10" class="st4" x1="1900.7" y1="741.7" x2="1900.7" y2="780.8"/>
			<line id="Line_11" class="st4" x1="1848.3" y1="468.1" x2="1848.3" y2="555.6"/>
			<line id="Line_12" class="st4" x1="1810" y1="368" x2="1810" y2="438.3"/>
			<line id="Line_13" class="st4" x1="1768.6" y1="299.9" x2="1768.6" y2="403.2"/>
			<line id="Line_14" class="st4" x1="1699" y1="249.1" x2="1699" y2="322.6"/>
			<line id="Line_15" class="st4" x1="1628.6" y1="261.6" x2="1628.6" y2="285.9"/>
			<line id="Line_16" class="st4" x1="1565.3" y1="237.5" x2="1565.3" y2="273.7"/>
			<line id="Line_17" class="st4" x1="1500.3" y1="255.6" x2="1500.3" y2="310.1"/>
			<line id="Line_18" class="st4" x1="1443.2" y1="255.6" x2="1443.2" y2="335.1"/>
			<line id="Line_19" class="st4" x1="1410.4" y1="335.1" x2="1410.4" y2="382.8"/>
			<line id="Line_20" class="st4" x1="1358" y1="322.6" x2="1358" y2="421.9"/>
			<line id="Line_21" class="st4" x1="1333" y1="464.1" x2="1333" y2="543.9"/>
			<line id="Line_22" class="st4" x1="1286.1" y1="507.9" x2="1286.1" y2="672.9"/>
			<line id="Line_23" class="st4" x1="1333" y1="644" x2="1333" y2="755"/>
			<line id="Line_24" class="st4" x1="1333" y1="823.8" x2="1333" y2="897.3"/>
			<line id="Line_25" class="st4" x1="1369.7" y1="974.7" x2="1369.7" y2="1059.3"/>
			<line id="Line_26" class="st4" x1="1410.4" y1="871.5" x2="1410.4" y2="942.3"/>
			<line id="Line_27" class="st4" x1="1458.1" y1="907" x2="1458.1" y2="1006"/>
			<line id="Line_28" class="st4" x1="1443.2" y1="830.8" x2="1443.2" y2="871.5"/>
			<line id="Line_29" class="st4" x1="1264.9" y1="761.3" x2="1264.9" y2="804.3"/>
			<line id="Line_30" class="st4" x1="1286.1" y1="891.8" x2="1286.1" y2="954.4"/>
		</g>
		<path id="Path_10" class="st5" d="M1574.4,836.9"/>
		<path id="Path_11" class="st6" d="M1928.9,1237.3v2.4h-704c-0.1-1.1-0.1-2.3-0.1-3.4c0-40.4,32.8-73.1,73.1-73
			c30.4,0,57.7,18.9,68.4,47.4c9.7-5.3,20.6-8.1,31.6-8.1c4.7,0,9.5,0.5,14.1,1.5c12.7-47,61.1-74.7,108.1-61.9c1.7,0.5,3.3,1,5,1.5
			c15.2-28.6,50.6-39.4,79.2-24.2c10.6,5.6,19.2,14.4,24.7,25.1c9-3,18.3-4.5,27.8-4.5c39.7,0,74.5,26.7,84.9,65
			c4.6-1,9.4-1.5,14.1-1.5c11.1,0,22,2.8,31.6,8.1c14.2-37.8,56.4-56.9,94.1-42.7C1910,1179.7,1928.9,1206.9,1928.9,1237.3
			L1928.9,1237.3z"/>
	</g>
</g>
<polygon class="st3" points="318.5,82.7 328.2,75.2 325.5,86.7 332.8,97.4 321.5,94.7 310.5,102.1 313.5,89.7 305.9,79.8 "/>
<polygon class="st3" points="463.2,83.9 471.4,80 467.6,87.9 471.3,96.9 463.5,93.1 454.4,96.7 458.4,88.2 454.5,79.8 "/>
<polygon class="st3" points="289.2,259.8 295.4,261.9 289.5,264 286.9,270.3 284.8,264.5 278.5,261.8 284.7,259.6 286.9,253.4 "/>
<polygon class="st3" points="156.7,495.8 164,498.3 157,500.8 153.9,508.3 151.4,501.4 143.8,498.2 151.3,495.5 153.9,488.2 "/>
<polygon class="st3" points="247.3,405.6 253,403.9 249.7,408.6 251.1,414.8 246.5,411.6 240.2,412.9 243.8,407.9 242.1,402 "/>
<polygon class="st3" points="768.7,375.5 775.7,372.4 772.4,378.9 775.2,386.5 768.7,383.2 761,385.9 764.7,378.9 761.6,371.8 "/>
<polygon class="st3" points="338.4,634.2 343.1,636 338.5,637.6 336.3,642.5 334.8,637.9 329.8,635.7 334.8,634 336.6,629.2 "/>
<polygon class="st3" points="617,629.4 621.9,627.9 619.1,632 620.4,637.3 616.4,634.5 611,635.7 614,631.4 612.6,626.4 "/>
<polygon class="st3" points="762.3,742 767.8,739.1 765.4,744.5 768.2,750.4 762.8,748.1 756.8,750.8 759.3,745 756.4,739.5 "/>
<polygon class="st3" points="826.3,607 831.8,604.1 829.4,609.5 832.2,615.4 826.8,613.1 820.8,615.8 823.3,610 820.4,604.5 "/>
<polygon class="st3" points="336.1,775.6 343.4,778.2 336.3,780.7 333.1,788.2 330.7,781.2 323.1,777.9 330.7,775.3 333.4,767.9 "/>
<polygon class="st3" points="802.4,468.9 808.3,470.7 802.8,472.9 800.5,479 798.4,473.6 792.2,471.2 798.1,468.9 800,462.9 "/>
<polygon class="st3" points="767.1,156.3 775.3,152.7 771.3,160.3 774.5,169.2 767.1,165.2 758.1,168.4 762.4,160.3 758.8,152 "/>
<polygon class="st3" points="714.1,217.3 720.2,219.5 714.3,221.6 711.6,227.9 709.6,222.1 703.3,219.3 709.6,217.1 711.8,211 "/>
<polygon class="st3" points="656.1,41.7 663.4,44.1 656.5,46.7 653.4,54.2 651,47.3 643.4,44.2 650.8,41.5 653.3,34.2 "/>
<polygon class="st3" points="178.9,289.1 185.4,286.5 182.1,292.4 184.4,299.4 178.7,296.2 171.6,298.5 175.1,292.2 172.5,285.6 "/>
</svg>
