<svg width="500" id="Layer_1" data-name="Layer 1" xmlns="http://www.w3.org/2000/svg" viewBox="0 0 795.5 1003.75"><defs><style>.cls-1{opacity:0.75;}.cls-2{fill:#fcfcfc;}.cls-3{fill:#f2f2f2;}.cls-4{fill:#d45252;}.cls-5{fill:#fff;}.cls-6,.cls-7{fill:none;stroke:#fff;stroke-linecap:round;stroke-linejoin:round;}.cls-6{stroke-width:3px;}.cls-8{fill:#ccc;}</style></defs><g class="cls-1"><polygon class="cls-2" points="87.11 228.22 102.84 226.43 90.99 237.89 93.85 253.75 82.58 241.98 66.52 244.77 78.59 233.59 75.51 217.44 87.11 228.22"/><polygon class="cls-2" points="152.46 191.07 160.33 187.46 156.13 195.44 160.33 203.19 152.46 199 144.59 203.19 148.95 195.32 144.59 187.46 152.46 191.07"/><polygon class="cls-2" points="24.81 199.06 35 199.4 26.37 205.59 26.71 215.96 20.64 207.4 10.14 207.67 18.88 201.68 18.44 191.1 24.81 199.06"/><polygon class="cls-2" points="154.5 75.11 162.97 75.39 155.79 80.54 156.07 89.17 151.02 82.05 142.3 82.27 149.56 77.3 149.19 68.5 154.5 75.11"/><polygon class="cls-2" points="202.76 642.59 214.02 645.25 203.04 650.2 201.09 661.82 196.25 650.94 184.52 648.89 195.57 644.19 197.44 632.32 202.76 642.59"/><polygon class="cls-2" points="131.3 496.08 144.53 496.51 133.32 504.55 133.76 518.02 125.88 506.91 112.25 507.26 123.59 499.48 123.02 485.75 131.3 496.08"/><polygon class="cls-2" points="88.29 122.71 101.52 123.14 90.32 131.18 90.75 144.65 82.87 133.54 69.25 133.89 80.58 126.11 80.01 112.38 88.29 122.71"/><polygon class="cls-2" points="35.12 314.36 47.41 319.28 34.14 323.02 29.96 335.83 26.33 322.69 13.41 318.38 26.71 314.94 30.86 301.83 35.12 314.36"/><polygon class="cls-2" points="80.76 411.69 93.05 416.61 79.78 420.35 75.59 433.16 71.97 420.03 59.04 415.71 72.35 412.27 76.49 399.16 80.76 411.69"/><polygon class="cls-2" points="14.07 411.64 22.04 414.83 13.44 417.26 10.73 425.56 8.38 417.05 0 414.25 8.63 412.02 11.31 403.52 14.07 411.64"/><polygon class="cls-2" points="37.32 486.78 45.35 483.77 40.63 491.35 44.22 499.31 36.75 494.61 28.68 498.18 33.55 490.72 29.81 482.64 37.32 486.78"/><polygon class="cls-2" points="26.12 601.9 34.05 605.17 25.43 607.5 22.64 615.78 20.37 607.25 12.02 604.37 20.67 602.22 23.44 593.75 26.12 601.9"/><polygon class="cls-2" points="166.92 827.27 174.96 824.29 170.21 831.86 173.77 839.83 166.32 835.09 158.23 838.64 163.13 831.2 159.42 823.1 166.92 827.27"/><polygon class="cls-2" points="102.07 737.7 110.11 734.72 105.36 742.28 108.92 750.26 101.47 745.52 93.38 749.06 98.28 741.63 94.58 733.52 102.07 737.7"/><polygon class="cls-2" points="93.68 606.7 101.72 603.72 96.97 611.29 100.53 619.26 93.08 614.53 84.99 618.07 89.89 610.63 86.18 602.53 93.68 606.7"/><polygon class="cls-2" points="14.58 691.47 22.54 694.65 13.94 697.08 11.23 705.38 8.88 696.87 0.51 694.07 9.13 691.84 11.81 683.35 14.58 691.47"/><polygon class="cls-2" points="715.97 228.22 700.24 226.43 712.09 237.89 709.23 253.75 720.5 241.98 736.55 244.77 724.49 233.59 727.57 217.44 715.97 228.22"/><polygon class="cls-2" points="626.37 207.24 618.5 203.62 622.7 211.6 618.5 219.35 626.37 215.16 634.24 219.35 629.88 211.49 634.24 203.62 626.37 207.24"/><polygon class="cls-2" points="771.19 199.06 761 199.4 769.63 205.59 769.3 215.96 775.37 207.4 785.86 207.67 777.13 201.68 777.57 191.1 771.19 199.06"/><polygon class="cls-2" points="641.51 75.11 633.04 75.39 640.21 80.54 639.93 89.17 644.98 82.05 653.71 82.27 646.44 77.3 646.81 68.5 641.51 75.11"/><polygon class="cls-2" points="593.25 642.59 581.99 645.25 592.97 650.2 594.91 661.82 599.76 650.94 611.49 648.89 600.43 644.19 598.56 632.32 593.25 642.59"/><polygon class="cls-2" points="682.9 521.34 669.67 521.77 680.87 529.81 680.43 543.28 688.32 532.17 701.94 532.52 690.6 524.74 691.17 511.01 682.9 521.34"/><polygon class="cls-2" points="707.72 122.71 694.49 123.14 705.69 131.18 705.25 144.65 713.14 133.54 726.76 133.89 715.42 126.11 715.99 112.38 707.72 122.71"/><polygon class="cls-2" points="760.89 314.36 748.6 319.28 761.87 323.02 766.05 335.83 769.67 322.69 782.6 318.38 769.29 314.94 765.15 301.83 760.89 314.36"/><polygon class="cls-2" points="697.06 394.51 684.77 399.43 698.04 403.17 702.22 415.99 705.85 402.85 718.78 398.53 705.47 395.09 701.33 381.98 697.06 394.51"/><polygon class="cls-2" points="769.81 411.64 761.85 414.83 770.45 417.26 773.15 425.56 775.5 417.05 783.88 414.25 775.26 412.02 772.57 403.52 769.81 411.64"/><polygon class="cls-2" points="758.68 486.78 750.65 483.77 755.38 491.35 751.78 499.31 759.25 494.61 767.33 498.18 762.46 490.72 766.2 482.64 758.68 486.78"/><polygon class="cls-2" points="769.89 601.9 761.96 605.17 770.58 607.5 773.37 615.78 775.63 607.25 783.98 604.37 775.34 602.22 772.57 593.75 769.89 601.9"/><polygon class="cls-2" points="634.14 819.18 626.1 816.21 630.85 823.77 627.29 831.75 634.74 827.01 642.83 830.55 637.93 823.11 641.63 815.01 634.14 819.18"/><polygon class="cls-2" points="693.93 737.7 685.89 734.72 690.64 742.28 687.09 750.26 694.54 745.52 702.63 749.06 697.73 741.63 701.43 733.52 693.93 737.7"/><polygon class="cls-2" points="702.33 614.78 694.28 611.81 699.04 619.37 695.48 627.35 702.93 622.61 711.02 626.15 706.12 618.71 709.82 610.61 702.33 614.78"/><polygon class="cls-2" points="781.43 691.47 773.47 694.65 782.07 697.08 784.77 705.38 787.13 696.87 795.5 694.07 786.88 691.84 784.19 683.35 781.43 691.47"/></g><polygon class="cls-2" points="425.31 662 433.19 665.16 424.68 667.55 422 675.77 419.67 667.35 411.38 664.58 419.92 662.37 422.57 653.96 425.31 662"/><g id="MAIN"><g id="Layer_1-2" data-name="Layer 1"><path id="Path_1" data-name="Path 1" class="cls-3" d="M882.45,996.26a78.48,78.48,0,0,1-10.2,39H130.88A78.26,78.26,0,0,1,120,995.11a79.14,79.14,0,0,1,153.21-27.86,70.31,70.31,0,0,1,34.29-8.83,66.35,66.35,0,0,1,15.25,1.72,95.19,95.19,0,0,1,88.07-70.41l20.52-166.85a187.61,187.61,0,0,0,3.9-28.9l3.67-67,50.46,20.07a28.44,28.44,0,0,0,20.64.11L564.92,626l.92,69.26a83.52,83.52,0,0,0,3.78,23.85L593.13,891a95.12,95.12,0,0,1,86.46,70.3,67,67,0,0,1,15.26-1.72,70.76,70.76,0,0,1,34.28,8.83,79.21,79.21,0,0,1,153.32,27.86Z" transform="translate(-94.14 -31.5)"/><g id="Layer_2" data-name="Layer 2"><g id="Hi_Influencer_Logo" data-name="Hi Influencer Logo"><g id="Final_Logo" data-name="Final Logo"><g id="Smoke"><path id="Path_2" data-name="Path 2" class="cls-4" d="M568.82,706.37a9.72,9.72,0,0,1-.58,3.66c-1.6,5.62-6.65,10.55-11.69,11.47a15.85,15.85,0,0,1-17.2-8.94,20.35,20.35,0,0,1-1.49-6.88V612.91a9.67,9.67,0,0,1,.34-3.67h0a15,15,0,0,1,8.26-10.67A15.3,15.3,0,0,1,567,605.22a12.78,12.78,0,0,1,1.38,4,15,15,0,0,1,.34,3.21v47.13h.12C568.82,675.17,568.59,690.77,568.82,706.37Z" transform="translate(-94.14 -31.5)"/><path id="Path_3" data-name="Path 3" class="cls-4" d="M515.84,694.1h0l.11,46.78a15.22,15.22,0,0,1-11.46,15c-11.59,2.53-19.38-5.73-19.5-15.25V647.54a15.44,15.44,0,1,1,30.85-1.26c0,1.26,0,2.63.11,3.9.12,6.88-.11,13.76-.11,20.52Z" transform="translate(-94.14 -31.5)"/><path id="Path_4" data-name="Path 4" class="cls-4" d="M463.66,614.28v90.59c0,6.31-2,11.59-7.57,15a15.1,15.1,0,0,1-20.82-4.74l0-.08a15.36,15.36,0,0,1-2.29-6.65c0-.34-.11-.69-.11-1.15-.12-15.94,0-32,0-47.93V612.91a8.2,8.2,0,0,1,.11-1.72V611a9,9,0,0,1,.34-1.72,15.32,15.32,0,0,1,29-2.3,10.3,10.3,0,0,1,.68,2.3,29.49,29.49,0,0,1,.58,3.09A11.6,11.6,0,0,1,463.66,614.28Z" transform="translate(-94.14 -31.5)"/></g><g id="Rocket"><path id="Path_5" data-name="Path 5" class="cls-4" d="M714.68,627.58a61.61,61.61,0,0,1-13.76-.8,126.92,126.92,0,0,1-37.15-10.2,111.23,111.23,0,0,1-29.24-18.93,123.91,123.91,0,0,1-31.31-42,114,114,0,0,1-9.06-33.6c-1.26-10.89-.57-21.78-.8-32.79-.92-48.28-.23-96.56-.8-144.84a175.47,175.47,0,0,0-9.06-56.53,114.09,114.09,0,0,0-47.82-60,162.37,162.37,0,0,0-34.63-16.52h.11v-.57h-.23v.57h0A162.37,162.37,0,0,0,466.3,228a114.21,114.21,0,0,0-47.93,60,175.74,175.74,0,0,0-9.06,56.53c-.58,48.28,0,96.56-.81,144.84-.23,10.89.46,21.9-.8,32.79a113.75,113.75,0,0,1-8.94,33.6,124,124,0,0,1-31.31,42,111.23,111.23,0,0,1-29.24,18.93,126.9,126.9,0,0,1-37.16,10.2,61.54,61.54,0,0,1-13.76.8,10.71,10.71,0,0,1-.34-3.78V341.93a39.35,39.35,0,0,1,.23-6.42A267.52,267.52,0,0,1,293.37,300a272.25,272.25,0,0,1,80.39-135.2Q382.19,157,391.3,150a265.94,265.94,0,0,1,58.49-34.52,269,269,0,0,1,48.85-15.71,7.69,7.69,0,0,1,2.29-.23v.8h.23v-.8a13.47,13.47,0,0,1,2.29.23A269.57,269.57,0,0,1,610.67,150q9.12,7,17.55,14.79A271,271,0,0,1,708.61,300a310.13,310.13,0,0,1,6.19,35.55,59.8,59.8,0,0,1,.11,6.42V623.8A8.19,8.19,0,0,1,714.68,627.58Z" transform="translate(-94.14 -31.5)"/><rect id="Rectangle_2" data-name="Rectangle 2" class="cls-4" x="406.79" y="68.01" width="0.23" height="0.8"/><path id="Path_6" data-name="Path 6" class="cls-4" d="M500.93,210.86h.23v.57h-.11v-.57Z" transform="translate(-94.14 -31.5)"/><rect id="Rectangle_3" data-name="Rectangle 3" class="cls-4" x="406.79" y="68.01" width="0.23" height="0.8"/><path id="Path_7" data-name="Path 7" class="cls-4" d="M500.93,210.86h.23v.57h-.11v-.57Z" transform="translate(-94.14 -31.5)"/></g></g></g></g><path id="Path_8" data-name="Path 8" class="cls-5" d="M568.24,627.81" transform="translate(-94.14 -31.5)"/><g id="Group_1" data-name="Group 1"><line id="Line_1" data-name="Line 1" class="cls-6" x1="679.02" y1="766.95" x2="679.02" y2="835.64"/><line id="Line_2" data-name="Line 2" class="cls-6" x1="719.73" y1="604.23" x2="719.73" y2="718.44"/><line id="Line_3" data-name="Line 3" class="cls-6" x1="673.64" y1="587.83" x2="673.64" y2="661.33"/><line id="Line_4" data-name="Line 4" class="cls-6" x1="630.63" y1="648.83" x2="630.63" y2="770.04"/><line id="Line_5" data-name="Line 5" class="cls-6" x1="591.53" y1="682.43" x2="591.53" y2="730.14"/><line id="Line_6" data-name="Line 6" class="cls-6" x1="561.03" y1="628.54" x2="561.03" y2="762.93"/><line id="Line_7" data-name="Line 7" class="cls-6" x1="651.73" y1="385.31" x2="651.73" y2="553.43"/><line id="Line_8" data-name="Line 8" class="cls-6" x1="673.64" y1="427.51" x2="673.64" y2="502.63"/><line id="Line_9" data-name="Line 9" class="cls-6" x1="727.53" y1="278.21" x2="727.53" y2="436.92"/><line id="Line_10" data-name="Line 10" class="cls-6" x1="731.43" y1="505.72" x2="731.43" y2="544.83"/><line id="Line_11" data-name="Line 11" class="cls-6" x1="679.02" y1="232.11" x2="679.02" y2="319.61"/><line id="Line_12" data-name="Line 12" class="cls-6" x1="640.72" y1="132" x2="640.72" y2="202.29"/><line id="Line_13" data-name="Line 13" class="cls-6" x1="599.33" y1="63.88" x2="599.33" y2="167.2"/><line id="Line_14" data-name="Line 14" class="cls-6" x1="529.72" y1="13.08" x2="529.72" y2="86.59"/><line id="Line_15" data-name="Line 15" class="cls-6" x1="459.31" y1="25.58" x2="459.31" y2="49.89"/><line id="Line_16" data-name="Line 16" class="cls-6" x1="396.01" y1="1.5" x2="396.01" y2="37.74"/><line id="Line_17" data-name="Line 17" class="cls-6" x1="331.1" y1="19.62" x2="331.1" y2="74.09"/><line id="Line_18" data-name="Line 18" class="cls-6" x1="274" y1="19.62" x2="274" y2="99.09"/><line id="Line_19" data-name="Line 19" class="cls-6" x1="241.2" y1="99.09" x2="241.2" y2="146.79"/><line id="Line_20" data-name="Line 20" class="cls-6" x1="188.79" y1="86.59" x2="188.79" y2="185.9"/><line id="Line_21" data-name="Line 21" class="cls-6" x1="163.79" y1="228.1" x2="163.79" y2="307.91"/><line id="Line_22" data-name="Line 22" class="cls-6" x1="116.89" y1="271.9" x2="116.89" y2="436.92"/><line id="Line_23" data-name="Line 23" class="cls-6" x1="163.79" y1="408.02" x2="163.79" y2="519.02"/><line id="Line_24" data-name="Line 24" class="cls-6" x1="163.79" y1="587.83" x2="163.79" y2="661.33"/><line id="Line_25" data-name="Line 25" class="cls-6" x1="200.49" y1="738.74" x2="200.49" y2="823.25"/><line id="Line_26" data-name="Line 26" class="cls-6" x1="241.2" y1="635.53" x2="241.2" y2="706.29"/><line id="Line_27" data-name="Line 27" class="cls-6" x1="288.9" y1="670.97" x2="288.9" y2="770.04"/><line id="Line_28" data-name="Line 28" class="cls-6" x1="274" y1="594.82" x2="274" y2="635.53"/><line id="Line_29" data-name="Line 29" class="cls-6" x1="95.68" y1="525.33" x2="95.68" y2="568.33"/><line id="Line_30" data-name="Line 30" class="cls-6" x1="116.89" y1="655.83" x2="116.89" y2="718.44"/></g><path id="Path_10" data-name="Path 10" class="cls-7" d="M499.33,632.4" transform="translate(-94.14 -31.5)"/><path id="Path_11" data-name="Path 11" class="cls-8" d="M853.78,1032.84v2.41h-704a33,33,0,0,1-.12-3.44,73.1,73.1,0,0,1,141.51-25.69A65.61,65.61,0,0,1,322.84,998,71.16,71.16,0,0,1,337,999.47,88.08,88.08,0,0,1,445,937.53c1.67.45,3.34,1,5,1.51a58.55,58.55,0,0,1,103.89.92,89.31,89.31,0,0,1,27.75-4.48,87.94,87.94,0,0,1,84.86,65A64.91,64.91,0,0,1,680.63,999a65.64,65.64,0,0,1,31.65,8.14,73.09,73.09,0,0,1,141.5,25.69Z" transform="translate(-94.14 -31.5)"/></g></g></svg>